<svg xmlns="http://www.w3.org/2000/svg" viewBox="0 0 228.54 157.35"><defs><style>.cls-1{fill:#f9ccdf;}.cls-2{fill:#a6227f;}.cls-3{fill:#a7227f;}.cls-4{fill:#e10982;}.cls-5{fill:#ca1780;}.cls-6{fill:#d61180;}.cls-7{fill:#e4087f;}.cls-8{fill:#de0c7f;}.cls-9{fill:#af2080;}.cls-10{fill:#aa217f;}.cls-11{fill:#d0147f;}.cls-12{fill:#c01b7f;}.cls-13{fill:#ba1d80;}.cls-14{fill:#c41a7f;}.cls-15{fill:#b31f7f;}.cls-16{fill:#de4197;}.cls-17{fill:#d83a95;}.cls-18{fill:#de1486;}.cls-19{fill:#d53593;}.cls-20{fill:#e44b9b;}.cls-21{fill:#e14799;}.cls-22{fill:#c21e8a;}.cls-23{fill:#b81d87;}.cls-24{fill:#ae2081;}.cls-25{fill:#d03594;}.cls-26{fill:#ae2082;}.cls-27{fill:#c31e8b;}.cls-28{fill:#cf2e91;}.cls-29{fill:#b71d86;}.cls-30{fill:#c8248e;}.cls-31{fill:#ed2f92;}.cls-32{fill:#d53594;}.cls-33{fill:#b31f84;}.cls-34{fill:#ec569f;}.cls-35{fill:#cc2890;}.cls-36{fill:#be1b88;}.cls-37{fill:#d13092;}.cls-38{fill:#be1a89;}.cls-39{fill:#ed228b;}.cls-40{fill:#b31f85;}.cls-41{fill:#ee4d9b;}.cls-42{fill:#ba1c88;}.cls-43{fill:#da3c96;}.cls-44{fill:#e8519d;}.cls-45{fill:#eb61a4;}.cls-46{fill:#dd4197;}.cls-47{fill:#c44d9c;}.cls-48{fill:#ed1885;}.cls-49{fill:#e2489a;}.cls-50{fill:#aa2280;}.cls-51{fill:#d71080;}.cls-52{fill:#c91880;}.cls-53{fill:#e54d9c;}.cls-54{fill:#bf1c80;}.cls-55{fill:#eb77ae;}.cls-56{fill:#e30a7f;}.cls-57{fill:#c1519e;}.cls-58{fill:#ed1381;}.cls-59{fill:#b81e7f;}.cls-60{fill:#d23092;}.cls-61{fill:#dd0d7f;}.cls-62{fill:#c91c81;}.cls-63{fill:#df1280;}.cls-64{fill:#b42081;}.cls-65{fill:#b11f80;}.cls-66{fill:#b42281;}.cls-67{fill:#d41480;}.cls-68{fill:#d8258d;}.cls-69{fill:#d01980;}.cls-70{fill:#c1529f;}.cls-71{fill:#ce3b95;}.cls-72{fill:#b42181;}.cls-73{fill:#be57a1;}.cls-74{fill:#c5499b;}.cls-75{fill:#ed4799;}.cls-76{fill:#ad2280;}.cls-77{fill:#ed3594;}.cls-78{fill:#ec559e;}.cls-79{fill:#da1480;}.cls-80{fill:#c94298;}.cls-81{fill:#ed268d;}.cls-82{fill:#eb64a5;}.cls-83{fill:#e01280;}.cls-84{fill:#ba2181;}.cls-85{fill:#dc1989;}.cls-86{fill:#b72081;}.cls-87{fill:#df1486;}.cls-88{fill:#b81e81;}.cls-89{fill:#da2282;}.cls-90{fill:#ed1985;}.cls-91{fill:#eb74ad;}.cls-92{fill:#b91f81;}.cls-93{fill:#b92682;}.cls-94{fill:#da2082;}.cls-95{fill:#db2383;}.cls-96{fill:#d61880;}.cls-97{fill:#b62181;}.cls-98{fill:#d71680;}.cls-99{fill:#cd1880;}.cls-100{fill:#dc1580;}.cls-101{fill:#db1680;}.cls-102{fill:#db1380;}.cls-103{fill:#dd1881;}.cls-104{fill:#da0f80;}.cls-105{fill:#cd1b80;}.cls-106{fill:#b52181;}.cls-107{fill:#c01f81;}.cls-108{fill:#cd1580;}.cls-109{fill:#db0f80;}.cls-110{fill:#dd1080;}.cls-111{fill:#d72583;}.cls-112{fill:#c31f81;}.cls-113{fill:#bf1b80;}.cls-114{fill:#c02081;}.cls-115{fill:#cb1b80;}.cls-116{fill:#b82482;}.cls-117{fill:#cd1d81;}.cls-118{fill:#b82682;}.cls-119{fill:#dc1680;}.cls-120{fill:#ba2d84;}.cls-121{fill:#be1c80;}.cls-122{fill:#bd1f81;}.cls-123{fill:#dc1881;}.cls-124{fill:#b51f81;}.cls-125{fill:#be2181;}.cls-126{fill:#dc1781;}.cls-127{fill:#dd1781;}.cls-128{fill:#cc1d81;}.cls-129{fill:#cc1680;}.cls-130{fill:#c21f81;}.cls-131{fill:#dd1681;}.cls-132{fill:#c51e81;}.cls-133{fill:#c12081;}.cls-134{fill:#cc1f81;}.cls-135{fill:#c22081;}.cls-136{fill:#d91680;}.cls-137{fill:#ca1d81;}.cls-138{fill:#d31b81;}.cls-139{fill:#c32081;}.cls-140{fill:#cd1680;}.cls-141{fill:#dd1981;}.cls-142{fill:#cd1c81;}.cls-143{fill:#b71e81;}.cls-144{fill:#c91d81;}.cls-145{fill:#b82281;}.cls-146{fill:#c02181;}.cls-147{fill:#cd157f;}.cls-148{fill:#c91780;}.cls-149{fill:#de1881;}.cls-150{fill:#c31a80;}.cls-151{fill:#c21a80;}.cls-152{fill:#d41a81;}.cls-153{fill:#dd0f80;}.cls-154{fill:#d5117f;}.cls-155{fill:#cb1780;}.cls-156{fill:#df1b81;}.cls-157{fill:#ca1f81;}.cls-158{fill:#d2137f;}.cls-159{fill:#cb1e81;}.cls-160{fill:#d4127f;}.cls-161{fill:#c11a80;}.cls-162{fill:#c11b80;}.cls-163{fill:#cd1e81;}.cls-164{fill:#c12c84;}.cls-165{fill:#cd3c95;}.cls-166{fill:#c84599;}.cls-167{fill:#eb6faa;}.cls-168{fill:#eb7cb1;}.cls-169{fill:#ea097f;}.cls-170{fill:#aa2180;}.cls-171{fill:#eb69a7;}.cls-172{fill:#dd1789;}.cls-173{fill:#d62790;}.cls-174{fill:#dc1a8a;}.cls-175{fill:#d32f92;}.cls-176{fill:#cc2990;}.cls-177{fill:#ee3a95;}.cls-178{fill:#ee4599;}.cls-179{fill:#fff;}.cls-180{fill:#c01b80;}.cls-181{fill:#fffeff;}.cls-182{fill:#fffefe;}.cls-183{fill:#c71f81;}.cls-184{fill:#bd1c81;}.cls-185{fill:#e01180;}.cls-186{fill:#b41e80;}</style></defs><path class="cls-1" d="M123.34,0a.57.57,0,0,0,0,.13.5.5,0,0,1-.33.18c-.42,0-.85.14-1.22-.18a.29.29,0,0,0,0-.13Z"/><path class="cls-2" d="M175.61,123h-.05l0,0c-.08-.09-.21-.06-.31-.12a14.27,14.27,0,0,1-3-1.28,14.71,14.71,0,0,1-5.15-4.1c-.76-1-1.38-2.1-2.05-3.16L143.22,79.7c-.11-.18-.2-.36-.31-.54s.07-.42.24-.55a6.9,6.9,0,0,1,1.09-.69l.16-.07.21-.1.12-.09a.57.57,0,0,1,.13-.08l.13-.07.2-.11.15-.09.23-.13a28.11,28.11,0,0,1,2.6-1.1,23.15,23.15,0,0,1,3.92-1,12.13,12.13,0,0,1,1.9-.2,7.58,7.58,0,0,1,1.43.09c.19.08.25.26.32.43,2.28,5.46,4.7,10.85,7,16.28,2.74,6.36,5.5,12.69,8.24,19,1.66,3.85,3.34,7.69,5,11.54.11.26.3.54.07.85l-.14,0C175.85,123,175.72,123,175.61,123Z"/><path class="cls-3" d="M61.36,80.45a.08.08,0,0,1,.11,0c.1-.06.23,0,.31-.12a.08.08,0,0,1,.09,0c.11,0,.24,0,.34-.11s0,0,.08,0,.24,0,.34-.11,0,0,.08,0c.57-.08.46.24.28.52a19.44,19.44,0,0,1-1.37,1.77q-3.6,4.41-7.18,8.83-6.48,8-12.95,16c-1.75,2.15-3.49,4.31-5.25,6.44-.24.29-.42.7-.91.66h0c-.07-.09,0-.23-.16-.29v0a.86.86,0,0,0-.1-.16,15.65,15.65,0,0,1-1.63-4.21,19.32,19.32,0,0,1-.5-7.26,14.71,14.71,0,0,1,2.2-4.71c.05-.07.11-.14.16-.22l.09-.15a.76.76,0,0,1,.11-.14s0-.05,0-.08l.1-.15.09-.16c.69-1,1.53-1.91,2.3-2.87a26.37,26.37,0,0,1,2.32-2.17l.14-.13.06-.06.13-.13.07-.06.13-.13.3-.22a52.64,52.64,0,0,1,5.23-3.78l.17-.1.26-.15c2-1.23,4.14-2.26,6.24-3.33a8.43,8.43,0,0,1,2.43-.88c1.67-.69,3.34-1.37,5-2l.47-.12C61.15,80.5,61.27,80.52,61.36,80.45Z"/><path class="cls-4" d="M33,36.08c.08-.15.23-.13.36-.13a23.19,23.19,0,0,1,13.81,4.1,20.51,20.51,0,0,1,7.25,9.85,18.93,18.93,0,0,1,1,3.63,1.22,1.22,0,0,1,0,.27,35.23,35.23,0,0,1,0,3.56c0,.55-.4.41-.7.28-.86-.4-1.73-.79-2.58-1.22-3.25-1.64-6.52-3.2-9.79-4.79-2.88-1.4-5.75-2.85-8.66-4.21-.34-.16-.77-.27-.78-.79V36.85A2.21,2.21,0,0,1,33,36.08Z"/><path class="cls-5" d="M93.55,90.34c-1.41.36-2.85.57-4.28.85-1,.2-2.08.45-3.14.56a2.39,2.39,0,0,1,.74-1.14q8.09-10,16.18-20l3.17-3.9c.17-.21.39-.41.31-.74.13-.47.61-.47.93-.69l.16-.08.22-.11L108,65a1.43,1.43,0,0,1,.22-.15l2.17-1.36.14-.1.14-.1.06,0,.13-.1.13-.08.14-.09.06-.06.11-.12.07-.06.13-.12a12.62,12.62,0,0,0,3.75-4.55,3.65,3.65,0,0,0,.14-.35,1.21,1.21,0,0,1,0-.18c0-.13.06-.26.09-.39a1.17,1.17,0,0,1,.11-.33c.12-.1.25-.39.36,0a2.72,2.72,0,0,1,0,.7v7a.63.63,0,0,1-.17.44c-2.83,3.31-5.52,6.73-8.27,10.11C103.37,80.19,99.2,85.35,95,90.49a1.81,1.81,0,0,1-.37.41c-.21.13-.45.16-.44-.17C94.19,90.2,93.9,90.24,93.55,90.34Z"/><path class="cls-6" d="M94.14,104.92c0-.25,0-.51,0-.76,0-3.32,0-6.63,0-10,0-.25,0-.51,0-.76.26,0,.26.24.26.41,0,1.19,0,2.38,0,3.57a.41.41,0,0,1-.11.25c1.11-1.14,2.07-2.43,3.07-3.66q8.85-10.9,17.7-21.81a1.93,1.93,0,0,1,.61-.56c.24-.13.34,0,.33.23V81a.62.62,0,0,1-.16.44C112,86,108.28,90.71,104.5,95.34l-9.2,11.32c-.27.33-.54.9-1,.74s-.09-.71-.13-1.09A12.91,12.91,0,0,0,94.14,104.92Z"/><path class="cls-7" d="M96.19,124.86a14.4,14.4,0,0,1-1.74,0c-.23,0-.35-.1-.34-.33s0-.19,0-.28q0-4.38,0-8.74c0-.12,0-.23,0-.35.43.14.15.57.39.88.81-1,1.59-1.94,2.37-2.91,5.49-6.79,11-13.54,16.5-20.33.61-.77,1.22-1.54,1.86-2.28.23-.26.53-.64.83,0,.06,3,0,6,0,9a25,25,0,0,1-2,2.49q-6.92,8.56-13.86,17.09-2,2.49-4,5c-.13.17-.53.38-.1.66A.23.23,0,0,1,96.19,124.86Z"/><path class="cls-8" d="M115.93,90.22c-.32,0-.48.26-.65.48-.92,1.13-1.83,2.27-2.74,3.4s-1.79,2.25-2.69,3.36-1.83,2.22-2.74,3.33-1.79,2.24-2.69,3.35c-.73.9-1.48,1.78-2.22,2.68s-1.27,1.59-1.92,2.38S98.76,111.06,98,112l-2.65,3.3c-.25.31-.49.62-.74.92a.23.23,0,0,1-.24.1c-.12,0-.11-.14-.12-.23,0-.31.1-.65-.11-1,0-.58,0-1.15,0-1.73q0-3.87,0-7.72c0-.25,0-.51,0-.76.21.32.08.68.1,1s0,.88,0,1.37c.56-.08.76-.54,1-.87,1-1.22,2-2.45,3-3.66,1.26-1.54,2.48-3.12,3.73-4.67.73-.9,1.48-1.78,2.22-2.67l2.58-3.18,2.9-3.56,2.58-3.19c.7-.86,1.39-1.73,2.09-2.6l.9-1.14c.17-.22.33-.46.64-.5A5.46,5.46,0,0,1,116,83a3.32,3.32,0,0,0,.12,1.09c0,1.81,0,3.63,0,5.44A.87.87,0,0,1,115.93,90.22Z"/><path class="cls-3" d="M96.19,124.86a.17.17,0,0,0,0-.07.27.27,0,0,1,.07-.08c.28-.16.61-.08.9-.19a1.06,1.06,0,0,1,.31,0,2.83,2.83,0,0,0,.71-.1,22.41,22.41,0,0,0,9.79-3.85,18.3,18.3,0,0,0,7.21-11.34c.28-1.25.34-2.54.64-3.78a2.07,2.07,0,0,0,0-.49c0-4.86.22-9.72.13-14.58,0-.38.19-.31.38-.14a2.17,2.17,0,0,1,.46.77c2.63,6.14,5.32,12.26,8,18.39.1.24.26.46.17.73l-.06.21a28,28,0,0,1-3.11,3.76,34,34,0,0,1-12,8.31,32.51,32.51,0,0,1-9.25,2.29A29.28,29.28,0,0,1,96.19,124.86Z"/><path class="cls-9" d="M74,76.93a.12.12,0,0,1,.13,0c.24.34,0,.58-.19.8-2.6,3.25-5.24,6.47-7.86,9.71S61,93.57,58.51,96.74a1,1,0,0,1-.36.32,21.17,21.17,0,0,1-2.24.46c-.63.12-.63.13-.64.76,0,.81,0,1.62,0,2.43-1.16,1.48-2.37,2.93-3.56,4.38-3.75,4.61-7.47,9.23-11.23,13.82-.19.24-.33.61-.77.41h0a.36.36,0,0,0-.16-.14h0a.26.26,0,0,0-.19-.15A9.67,9.67,0,0,1,37.28,117a6,6,0,0,1,1.24-1.68q5.29-6.57,10.64-13.13c4.44-5.47,8.9-10.94,13.33-16.43,2-2.48,4.08-4.9,6-7.45a14.9,14.9,0,0,1,2.79-.66c.13-.11.31,0,.44-.12a.1.1,0,0,1,.12,0c.13-.11.31,0,.44-.13a.09.09,0,0,1,.11,0c.13-.09.32,0,.45-.12a.08.08,0,0,1,.1,0c.14-.09.33,0,.46-.12s0,0,.09,0S73.83,77.07,74,76.93Z"/><path class="cls-10" d="M68.49,78.29a.75.75,0,0,1-.22.63c-1.12,1.38-2.23,2.79-3.35,4.17s-2.25,2.71-3.36,4.08c-1.32,1.62-2.61,3.26-3.92,4.88-1.1,1.35-2.22,2.68-3.31,4-.89,1.09-1.77,2.21-2.66,3.31l-2.21,2.67c-.87,1.06-1.73,2.12-2.59,3.19s-1.77,2.21-2.65,3.31L42,111.32,39.3,114.6c-.54.66-1.08,1.33-1.61,2a1.85,1.85,0,0,1-.41.38h0a.25.25,0,0,0-.14-.16h0a.54.54,0,0,0-.14-.16h0c0-.06-.09-.1-.12-.15h0c-.09-.07-.06-.22-.2-.25a8.5,8.5,0,0,1-1.36-2.1,7.3,7.3,0,0,0,1.51-1.63c.93-1.09,1.81-2.23,2.7-3.35l2.7-3.36c.74-.9,1.49-1.78,2.22-2.68l2.63-3.24,2.85-3.5c.87-1.06,1.73-2.12,2.59-3.19l2.13-2.65c.9-1.12,1.79-2.24,2.7-3.36.73-.9,1.49-1.78,2.22-2.68.88-1.07,1.76-2.15,2.62-3.24a6.68,6.68,0,0,0,.72-.94c.16-.28,0-.31-.21-.35a29.33,29.33,0,0,1,4.1-1.24c.12-.11.31,0,.43-.13a.09.09,0,0,1,.11,0c.14-.1.33,0,.45-.13s0,0,.09,0,.34,0,.47-.13A.13.13,0,0,1,68.49,78.29Z"/><path class="cls-11" d="M115.9,71.62a15.38,15.38,0,0,0-1.91,2.2c-.78.92-1.53,1.86-2.29,2.8s-1.73,2.11-2.58,3.18c-.7.86-1.39,1.73-2.09,2.6s-1.47,1.84-2.22,2.76c-.92,1.13-1.86,2.25-2.79,3.37l-2.58,3.19-2.85,3.5c-.46.58-.93,1.16-1.38,1.75a8.78,8.78,0,0,1-1,1V96.71c0-.87,0-1.73,0-2.59,0-.22.07-.47-.1-.67,0-.85,0-1.7,0-2.55,0-.53,0-.53-.55-.56.59-.17.59-.17.8.55a2.83,2.83,0,0,0,.79-.83c.81-1,1.59-1.93,2.38-2.9L100.1,84q1.41-1.76,2.84-3.5l2.59-3.18,2.13-2.65c.91-1.14,1.81-2.28,2.73-3.41s1.83-2.22,2.74-3.33c.72-.88,1.42-1.76,2.13-2.65.18-.21.33-.46.64-.49A48.94,48.94,0,0,1,115.9,71.62Z"/><path class="cls-12" d="M80.11,92.88a31.11,31.11,0,0,1-3,.63c-1.29.26-2.58.5-3.88.74a3.73,3.73,0,0,1-.48,0c-.31-.41,0-.69.22-1l4.84-6L89.24,73.23a3.11,3.11,0,0,0,.66-1c1.11-.49,2.27-.8,3.39-1.25l.71-.28c.22-.28.56-.27.86-.38l.18,0,.34-.1a1.41,1.41,0,0,1,.35-.05,1.41,1.41,0,0,0,.41-.07l.16,0,.3-.09.15-.05.3-.1.15,0,.32-.07a.76.76,0,0,1,.16-.06l.34-.11a1.08,1.08,0,0,1,.19,0c.62.15.52.48.23.87-1,1.37-2.16,2.69-3.24,4l-5.68,7c-2.8,3.45-5.6,6.91-8.42,10.34C80.76,92,80.58,92.58,80.11,92.88Z"/><path class="cls-13" d="M89.9,72.18c.21,0,.22.08.11.26a13.28,13.28,0,0,1-1.21,1.61c-.72.89-1.48,1.77-2.21,2.67s-1.38,1.73-2.08,2.6l-2.78,3.46c-.92,1.13-1.86,2.24-2.79,3.37s-1.73,2.16-2.61,3.24-1.87,2.29-2.81,3.44c-.23.29-.47.57-.71.86s-.1.39-.11.6c-1,.31-2,.42-3,.63-1.52.32-3.05.59-4.58.88a1.93,1.93,0,0,1-.34,0c.91-1.21,1.9-2.37,2.86-3.56l7-8.67c2.16-2.65,4.3-5.32,6.47-8,.19-.23.43-.45.39-.79,1.06-.42,2.16-.68,3.24-1l3.9-1.21c.08-.08.2-.06.28-.11l.14,0c.12-.13.32,0,.43-.15h0c.12-.12.32,0,.43-.14Z"/><path class="cls-14" d="M80.11,92.88a8.5,8.5,0,0,1,1.38-2c.94-1.17,1.89-2.33,2.84-3.5S86.22,85.1,87.16,84l2.58-3.18,2.13-2.65c.9-1.12,1.79-2.25,2.7-3.36.73-.9,1.48-1.78,2.21-2.68.53-.64,1-1.3,1.55-2,.33-.42.3-.47-.31-.6.11-.45.56-.29.82-.47L99,69a2.63,2.63,0,0,1,.35-.15c.83-.26,1.62-.59,2.43-.89l.17-.07.24-.06.15-.06.29-.13.15-.08.23-.11c.47-.17.9-.41,1.36-.57l.16-.07a3,3,0,0,0,.31-.15l.15-.07.23-.13a5.91,5.91,0,0,1,.89-.4,2.07,2.07,0,0,1,.35,0h.08c.3,0,.29.21.16.39-.28.37-.57.73-.86,1.09l-3.41,4.21c-.92,1.13-1.86,2.25-2.78,3.38s-1.72,2.12-2.58,3.18c-.72.88-1.43,1.77-2.14,2.65-.9,1.12-1.79,2.24-2.7,3.36-.73.9-1.48,1.78-2.21,2.68-.89,1.09-1.76,2.2-2.66,3.29a14.73,14.73,0,0,1-1.24,1.5c-1.17.31-2.36.48-3.55.71A18.74,18.74,0,0,1,80.11,92.88Z"/><path class="cls-15" d="M81.5,74.83c.19,0,.32.09.19.32a15.36,15.36,0,0,1-1.13,1.4c-.9,1.15-1.82,2.28-2.74,3.41S76,82.21,75,83.34l-2.58,3.17-2.13,2.65c-.72.9-1.43,1.82-2.17,2.7-1,1.19-2,2.38-2.92,3.62-.14.19-.39.15-.51.33-1,.3-2.1.44-3.15.64s-2.27.49-3.43.61a11.77,11.77,0,0,1,1.68-2.28c1.31-1.66,2.64-3.29,4-4.92.73-.9,1.48-1.78,2.21-2.68.87-1.05,1.73-2.11,2.59-3.18.7-.86,1.38-1.73,2.08-2.6l3.16-3.87a.93.93,0,0,0,.25-.64c1.45-.41,2.9-.83,4.35-1.22A26,26,0,0,1,81.06,75c.13-.1.33,0,.45-.13Z"/><path class="cls-16" d="M154,75.11c-.66-.07-1.29.21-1.95.15-.39,0-.44-.28-.54-.52-1.39-3.28-2.82-6.54-4.24-9.8-2.44-5.59-4.81-11.2-7.29-16.76a1,1,0,0,1-.1-.34c.68-1.16,1.43-2.27,2.21-3.36.45-.4.57-.4.85.17.7,1.37,1.26,2.8,1.88,4.21,3.17,7.28,6.29,14.58,9.48,21.85.46,1,.93,2.08,1.34,3.15a1,1,0,0,0,1.19.8,2,2,0,0,1,.9.07c.16.06.33.15.11.34a3,3,0,0,1-1.08.1A14.15,14.15,0,0,0,154,75.11Z"/><path class="cls-17" d="M139.86,47.84c.36.21.44.6.58.93,1,2.21,1.9,4.43,2.86,6.65s2,4.59,3,6.89c1.28,3,2.54,5.92,3.82,8.88.55,1.26,1.15,2.49,1.62,3.77a.55.55,0,0,0,.28.3c-.24.24-.57.14-.85.19-1,.2-2,.59-3.07.79-.41,0-.47-.3-.59-.57-1.47-3.42-3-6.84-4.44-10.25-1.85-4.26-3.7-8.5-5.52-12.77a2.88,2.88,0,0,1-.36-.75C138,50.51,138.93,49.17,139.86,47.84Z"/><path class="cls-18" d="M33,46.86c2.76,1.36,5.5,2.74,8.27,4.06l2.64,1.27c2.8,1.37,5.58,2.76,8.39,4.11l2.52,1.2c.43.2.53.14.54-.34,0-1.12,0-2.24,0-3.36a.83.83,0,0,1,.12.53l0,4c-.1,1.38,0,2.77,0,4.15-.12.47-.43.24-.65.14-.55-.25-1.11-.47-1.65-.75-2.75-1.42-5.56-2.71-8.34-4.09-3.71-1.83-7.45-3.6-11.16-5.45-.3-.14-.7-.2-.72-.66,0-1.39,0-2.77,0-4.16C32.91,47.3,32.82,47.06,33,46.86Z"/><path class="cls-19" d="M137.2,51.9a1.22,1.22,0,0,1,.54.7l2,4.74q1.23,2.88,2.47,5.76L144.38,68l1.47,3.39c.55,1.28,1.09,2.56,1.67,3.83.16.37.16.85.59,1.07-.86.44-1.76.75-2.65,1.12l-.15.13h-.13a.93.93,0,0,0-.15.13h-.13l-.15.13h0c-.07.09-.2.06-.27.14h0c-.54.17-.63-.29-.76-.59-.91-2.14-1.85-4.27-2.77-6.41-2-4.68-4.07-9.34-6.08-14a2.55,2.55,0,0,0-.5-.67c.74-1.24,1.55-2.45,2.39-3.63.11-.05.08-.2.17-.26h0a1.83,1.83,0,0,0,.13-.16h0c.11-.06.08-.2.17-.26Z"/><path class="cls-20" d="M144.29,41.11c.3-.5.31-.51.6-.07q2.75,4.17,5.47,8.35l4.88,7.48c.11.16.19.33.28.49,1.08,3.17,2.57,6.18,3.87,9.27,1.13,2.68,2.34,5.33,3.45,8,.15.36.59.61.48,1.08-.62.24-1.18-.17-1.77-.15a6.77,6.77,0,0,0-1.1-.15,5,5,0,0,1-.74-.18c-.66,0-.91-.51-1.15-1-2-4.58-3.95-9.15-5.93-13.72l-7.7-17.75C144.7,42.2,144.5,41.65,144.29,41.11Z"/><path class="cls-21" d="M144.29,41.11a.68.68,0,0,1,.4.46c.73,2,1.69,4,2.51,6s1.72,3.91,2.57,5.87,1.62,3.81,2.44,5.7c.71,1.64,1.46,3.27,2.17,4.91.82,1.9,1.62,3.8,2.44,5.7q1,2.23,2,4.47c.3.68.31.68.95.92A1.76,1.76,0,0,1,157.9,75c-.41-.26-.86-.11-1.29-.13-.8,0-.78,0-1.09-.77-.51-1.22-1.05-2.43-1.57-3.64L152.45,67c-.54-1.26-1.08-2.51-1.63-3.77s-1-2.38-1.56-3.57l-1.62-3.77c-.69-1.62-1.38-3.25-2.09-4.86s-1.44-3.27-2.16-4.91c-.22-.48-.43-1-.66-1.45s-.21-.4-.66-.17A40,40,0,0,1,144.29,41.11Z"/><path class="cls-15" d="M39.67,119.32c.6-.09.73-.68,1.06-1,.82-.91,1.57-1.89,2.34-2.84l2.59-3.18,2.7-3.36,2.13-2.66,2.22-2.68c.47-.57.93-1.15,1.38-1.73a5.26,5.26,0,0,1,1.14-1.12c.09,1,0,1.94,0,2.91,0,1.45,0,2.91,0,4.36-1.14,1.47-2.32,2.91-3.49,4.35q-3.59,4.42-7.19,8.83c-.23.28-.36.74-.87.7A15,15,0,0,1,39.67,119.32Z"/><path class="cls-22" d="M161.54,75.4c.62,0,1.19.3,1.81.27a.5.5,0,0,1,.51.11,3.55,3.55,0,0,1,.65,1.23q3.83,8.8,7.64,17.62l10.95,25.26c.55,1.28,1.08,2.57,1.68,3.84a2.31,2.31,0,0,1,.19.52c.1.44,0,.71-.53.54a3.68,3.68,0,0,1-1.36-.15,9.32,9.32,0,0,1-1.21-2.5q-5-11.43-9.93-22.88L165.78,85q-1.91-4.4-3.8-8.78C161.85,76,161.55,75.75,161.54,75.4Z"/><path class="cls-23" d="M157.9,75a13.81,13.81,0,0,0,1.82.14l.7.15a19,19,0,0,1,1.37,3q5.21,12,10.4,24c2.3,5.3,4.61,10.6,6.89,15.9.72,1.67,1.44,3.34,2.18,5a2.53,2.53,0,0,1,.26.79c0,.21.09.5-.3.48a9.31,9.31,0,0,1-2.21-.44c.32-.28.16-.58,0-.88q-2.13-4.95-4.28-9.88c-1.77-4.09-3.53-8.17-5.31-12.25-3-7-6-13.9-9-20.84-.55-1.26-1.12-2.51-1.61-3.8-.29-.76-.73-1.15-1.56-1a.78.78,0,0,1-.42-.11.14.14,0,0,1,0-.19Z"/><path class="cls-24" d="M156.78,75.12h.42a11.8,11.8,0,0,1,1.34,2.74q5.57,12.84,11.14,25.7,3.38,7.81,6.78,15.63c.53,1.22,1,2.44,1.57,3.66.11.26.42.63-.14.81h-.07l-.06,0a1.35,1.35,0,0,0-.34-.11l-.22,0c-.1-.06-.21,0-.31-.1a1.79,1.79,0,0,1-.81-.25,11.8,11.8,0,0,0-1-2.59c-.7-1.57-1.35-3.16-2-4.73-.8-1.8-1.62-3.59-2.37-5.41-.88-2.15-1.87-4.24-2.74-6.39-.5-1.25-1.08-2.47-1.62-3.7-.87-1.93-1.66-3.88-2.53-5.81-1-2.09-1.8-4.23-2.71-6.34s-1.81-4.07-2.7-6.11-1.78-4.13-2.66-6.2a1.47,1.47,0,0,1-.18-.74A2.45,2.45,0,0,1,156.78,75.12Z"/><path class="cls-25" d="M55.35,62.67c0-1.22,0-2.45,0-3.67,0-.22-.08-.46.1-.66q0,.42,0,.84V81.74c0,.3,0,.6,0,.9a21.16,21.16,0,0,1-2.41,1,1.16,1.16,0,0,1-.85-.23c-3.25-1.67-6.56-3.22-9.84-4.83-2.94-1.44-5.88-2.89-8.84-4.3-.28-.13-.65-.2-.69-.61V70.51c.08-.38.37-.29.61-.24a1.83,1.83,0,0,1,.58.24c3,1.53,6,2.95,9,4.43,3.72,1.83,7.46,3.62,11.17,5.46.8.39.87.35.87-.52,0-1.33,0-2.65,0-4,0-2,0-4.07,0-6.1,0-1.67,0-3.34,0-5C55.2,64.08,54.94,63.34,55.35,62.67Z"/><path class="cls-26" d="M116.2,83.82c.6-.9,1.14-1.84,1.81-2.69.54-.19.63.27.77.58.67,1.48,1.29,3,1.94,4.48,2.57,5.88,5.1,11.79,7.68,17.66.11.25.28.5.12.79a19.79,19.79,0,0,1-1.94,3.25,2.06,2.06,0,0,1-.69-1q-4.47-10.36-9-20.7c-.29-.66-.59-1.32-.84-2C116,84,116,83.88,116.2,83.82Z"/><path class="cls-27" d="M125.26,70.07c.81-1.33,1.66-2.63,2.57-3.9.56,0,.6.53.75.88.7,1.68,1.46,3.32,2.17,5,1.17,2.77,2.39,5.51,3.57,8.27.67,1.56,1.38,3.1,2,4.67.1.24.3.49.14.78-.8,1.42-1.54,2.86-2.24,4.33A11.11,11.11,0,0,1,133,87.41c-2.29-5.32-4.63-10.62-6.9-16A4,4,0,0,0,125.26,70.07Z"/><path class="cls-28" d="M134.36,56.22c.24-.11.39,0,.49.21.17.41.36.81.53,1.21,1,2.32,2,4.65,3,7,.86,2,1.74,4,2.6,5.93,1,2.21,1.89,4.43,2.85,6.64.13.3.18.71.64.74-.42.28-.82.56-1.25.83a.58.58,0,0,0-.31.42c-.16-.09-.29,0-.42.09-.35.27-.72.53-1.08.8-.39-.17-.49-.55-.63-.89-2.75-6.42-5.56-12.81-8.32-19.22a2.1,2.1,0,0,1-.19-.53A37.21,37.21,0,0,1,134.36,56.22Z"/><path class="cls-29" d="M131.9,97.27a25.28,25.28,0,0,1-1.68,4,3,3,0,0,1-.89-1.54c-2.16-5-4.34-10-6.5-15-1-2.2-1.88-4.41-2.89-6.59.63-1,1.28-2.07,2-3,.57-.15.59.36.71.65l1.92,4.41c2.4,5.52,4.77,11,7.2,16.56A.71.71,0,0,1,131.9,97.27Z"/><path class="cls-30" d="M136.5,85.76c-.68-1.49-1.32-3-2-4.51-.52-1.16-1-2.34-1.5-3.51L131.38,74c-.48-1.11-1-2.21-1.43-3.31-.28-.67-.61-1.31-.88-2-.2-.47-.39-.94-.58-1.41a2.25,2.25,0,0,0-.66-1.12,31.9,31.9,0,0,1,1.94-3,2.12,2.12,0,0,0,.28-.43h0a.23.23,0,0,0,.13-.17h0c.41,0,.49.3.61.56,1.35,3.14,2.7,6.28,4.08,9.4s2.66,6.25,4.07,9.34a.54.54,0,0,1,.09.46h0a.61.61,0,0,0-.13.15h0a.39.39,0,0,0-.14.17Z"/><path class="cls-30" d="M184.44,124.79c.35,0,.54-.1.36-.51s-.46-1.11-.7-1.66c-1.15-2.62-2.3-5.24-3.43-7.86-1-2.22-1.9-4.45-2.86-6.66s-2-4.6-3-6.9c-1.28-3-2.54-5.94-3.83-8.9-1-2.3-2-4.59-3-6.89Q166,81,164.12,76.51c-.11-.24-.23-.46-.35-.69a2.38,2.38,0,0,1,2,.46c1.6,3.94,3.36,7.82,5,11.74q3,7,6,14c2.7,6.21,5.38,12.44,8.1,18.64.51,1.15,1,2.32,1.51,3.46.12.26.29.55.07.85a.54.54,0,0,1-.43,0A6.08,6.08,0,0,1,184.44,124.79Z"/><path class="cls-31" d="M111.41,36.63a10.12,10.12,0,0,1,2.68-.41,3.64,3.64,0,0,1,1-.06c.44.31,0,.57-.09.78-.66.93-1.42,1.78-2.14,2.67Q106.94,46.91,101,54.2c-2,2.48-4,4.95-6,7.44a1.44,1.44,0,0,1-.51.47c-.2.1-.42.15-.43-.2V58.58c.11-.7.71-1.07,1.11-1.56q4.71-5.81,9.42-11.62,3.23-4,6.44-7.91A1.17,1.17,0,0,0,111.41,36.63Z"/><path class="cls-32" d="M171.05,81c.59.74,1,1.58,1.57,2.37,1.32,2,2.61,4,3.91,6.07.1.16.18.33.26.49.81,2.06,1.72,4.08,2.6,6.1,2.15,4.94,4.28,9.88,6.43,14.82q2.81,6.43,5.58,12.89c.16.37.62.79.13,1.25h-1.61c-.31-.06-.36-.34-.46-.56q-4.38-10.07-8.73-20.13c-3.15-7.24-6.27-14.49-9.43-21.72C171.09,82.08,170.71,81.58,171.05,81Z"/><path class="cls-33" d="M119.94,78.17c.43.21.51.66.67,1,.79,1.76,1.55,3.53,2.32,5.3.95,2.21,1.89,4.44,2.85,6.65.85,2,1.74,4,2.6,5.94.5,1.15,1,2.31,1.5,3.45.11.25.32.46.34.75h0c-.12.07-.09.21-.15.32a18.51,18.51,0,0,1-1.55,3,15.66,15.66,0,0,0-.86-2c-.82-2-1.69-4-2.54-6-.67-1.53-1.35-3-2-4.59s-1.35-3.15-2-4.72-1.42-3.23-2.13-4.85c-.14-.34-.29-.68-.44-1s-.22-.41-.5-.41A32,32,0,0,1,119.94,78.17Z"/><path class="cls-34" d="M115.23,36.23h-1.14a4.51,4.51,0,0,1,1.51-.14c.37,0,.46.15.46.49,0,1.3,0,2.6,0,3.9l0,1.81c0,1.85-.07,3.71-.1,5.56-1.27,1.75-2.7,3.38-4.06,5.07-4.19,5.2-8.42,10.38-12.63,15.57-.15.19-.32.36-.23.62-.26.28-.7.17-1,.42h0c-.11.12-.31,0-.42.14h0c-.11.12-.31,0-.42.14H97c-.08.08-.21,0-.29.13a.29.29,0,0,0-.13,0c-.08.08-.21,0-.29.13H96.2c-.11.13-.31,0-.42.14h-.41c-.08.08-.21,0-.28.13H95c-.53-.23-.16-.52,0-.73.69-1,1.48-1.85,2.22-2.77L110.84,50c1.54-1.9,3-3.84,4.65-5.67a1.06,1.06,0,0,0,.27-.76c0-.75,0-1.49,0-2.24s0-1.7,0-2.55c0-.5,0-1,0-1.51A1.08,1.08,0,0,0,115.23,36.23Z"/><path class="cls-35" d="M139,82.39a10.5,10.5,0,0,1-1.07-2.18c-.6-1.31-1.15-2.64-1.72-4-.81-1.89-1.61-3.79-2.43-5.68-.51-1.2-1-2.38-1.56-3.57s-1.09-2.51-1.63-3.77a1,1,0,0,0-.44-.6,32.42,32.42,0,0,1,2-3c0-.05.12-.09.13-.17h0c.52.37.56,1,.81,1.51.58,1.24,1.09,2.51,1.62,3.77q1.28,2.94,2.53,5.87l1.57,3.57c.69,1.6,1.37,3.2,2.06,4.79.16.38.36.75.55,1.13Z"/><path class="cls-36" d="M181.22,124.38c.26-.18.19-.4.09-.62-.22-.54-.43-1.08-.66-1.61L178.43,117q-1-2.23-1.94-4.47c-.85-2-1.69-3.93-2.54-5.89-.72-1.64-1.45-3.27-2.17-4.91l-1.41-3.26-1.62-3.78-2.06-4.8c-.71-1.62-1.43-3.23-2.13-4.85-.5-1.13-1-2.26-1.47-3.39-.57-1.32-1.16-2.64-1.72-4a11.41,11.41,0,0,1-1-2.45,2.86,2.86,0,0,1,1.12.14,1.2,1.2,0,0,1,.52.59c1.14,2.7,2.3,5.38,3.46,8.07.85,2,1.73,3.9,2.58,5.86s1.62,3.8,2.44,5.7c.66,1.54,1.34,3.06,2,4.6s1.34,3.16,2,4.73,1.42,3.23,2.13,4.85c.48,1.1,1,2.21,1.44,3.32s1.08,2.52,1.62,3.78c.88,2,1.77,4.09,2.66,6.13a11.78,11.78,0,0,1,.65,1.61A6.48,6.48,0,0,1,181.22,124.38Z"/><path class="cls-13" d="M43.68,121.86c.36-.13.48-.49.7-.75,1.32-1.6,2.6-3.24,3.91-4.85.91-1.12,1.83-2.21,2.74-3.32,1.09-1.35,2.16-2.71,3.25-4a3.91,3.91,0,0,1,.95-.91,19.49,19.49,0,0,1,0,2.29c0,1.85,0,3.7,0,5.55a47.57,47.57,0,0,0-3.5,4.14c-.93,1.13-1.87,2.25-2.75,3.42a.73.73,0,0,1-.36.31A19.09,19.09,0,0,1,43.68,121.86Z"/><path class="cls-37" d="M171.05,81a3.53,3.53,0,0,0,.39,1.47q1.78,4.17,3.6,8.31c.85,2,1.72,3.91,2.57,5.87s1.62,3.8,2.44,5.7,1.73,3.91,2.58,5.87,1.62,3.8,2.44,5.7c.65,1.51,1.32,3,2,4.53l2.09,4.86a7.27,7.27,0,0,1,.66,1.61,6.15,6.15,0,0,1-1.42.07c-.26,0-.29-.27-.37-.45-3.43-8-6.94-16-10.41-24-2.3-5.32-4.62-10.63-6.91-16-1-2.25-1.94-4.49-2.92-6.73-.11-.27-.3-.54-.12-.86.43-.23.68.12,1,.29C169.47,78.46,170.3,79.7,171.05,81Z"/><path class="cls-38" d="M125.26,70.07c.19-.06.35-.09.45.15q.92,2.19,1.86,4.36c.7,1.62,1.42,3.23,2.12,4.84.5,1.13,1,2.26,1.47,3.39l1.62,3.77c.48,1.08,1,2.15,1.45,3.23a.86.86,0,0,1,0,.28c-.56,1.26-.77,2.63-1.26,3.92a1.7,1.7,0,0,1-.66-.88c-1.82-4.14-3.58-8.3-5.4-12.44-1.15-2.62-2.19-5.29-3.48-7.85A27.93,27.93,0,0,1,125.26,70.07Z"/><path class="cls-39" d="M111.41,36.63c.2,0,.38.1.19.35s-.54.76-.83,1.11c-1.36,1.65-2.73,3.28-4.07,4.93-1.08,1.32-2.12,2.68-3.2,4-1.29,1.6-2.62,3.18-3.91,4.78s-2.6,3.25-3.92,4.86c-.38.46-.76.93-1.16,1.39a1.3,1.3,0,0,1-.39.27A36.88,36.88,0,0,1,94,54.54a.58.58,0,0,1,.16-.44c3.25-3.8,6.33-7.75,9.51-11.61,1-1.2,1.94-2.44,3-3.62a4.21,4.21,0,0,0,.73-1.1A15.26,15.26,0,0,1,111.41,36.63Z"/><path class="cls-40" d="M177.89,123.66c.24-.19.15-.4.05-.62-.85-1.94-1.71-3.87-2.54-5.81-.64-1.47-1.25-3-1.88-4.42-.5-1.17-1-2.34-1.53-3.51-.7-1.62-1.39-3.24-2.1-4.86s-1.44-3.27-2.16-4.91l-1.41-3.25-1.58-3.72c-.71-1.64-1.41-3.28-2.13-4.92s-1.45-3.27-2.16-4.91c-.82-1.89-1.62-3.8-2.44-5.69a15.32,15.32,0,0,1-.81-1.92A1.37,1.37,0,0,1,159,76.19c.41,1.16,1,2.26,1.45,3.39L162,83.36l2.06,4.8c.56,1.28,1.13,2.55,1.69,3.82s1,2.26,1.48,3.39,1.05,2.47,1.58,3.71c.71,1.64,1.41,3.29,2.12,4.93.51,1.17,1,2.33,1.54,3.51l2.09,4.86c.72,1.64,1.45,3.27,2.17,4.91l1.38,3.19c.41,1,.82,1.92,1.24,2.88.23.52.23.52-.36.58A2.58,2.58,0,0,1,177.89,123.66Z"/><path class="cls-41" d="M94.11,54.27V62.1c.35.53.17,1.12.2,1.68a7.48,7.48,0,0,1,0,1.16c0,.81,0,1.62,0,2.51a3.56,3.56,0,0,0,1-1c5.93-7.34,11.91-14.66,17.85-22,.69-.85,1.36-1.71,2.09-2.53.19-.2.34-.47.69-.37,0,.77,0,1.53,0,2.3a.59.59,0,0,1-.16.51A44.84,44.84,0,0,0,112.69,48c-.89,1.07-1.76,2.16-2.64,3.24l-2.13,2.65L105.7,56.6c-.88,1.07-1.75,2.16-2.63,3.24l-2.65,3.3-2.18,2.71L95.5,69.18c-.21.25-.41.5-.61.76a.26.26,0,0,0,.06.42,2.5,2.5,0,0,1-1,.29q0-8.43,0-16.85a.78.78,0,0,1,.1-.54A.73.73,0,0,1,94.11,54.27Z"/><path class="cls-42" d="M123.46,72.84c.3,0,.38.32.48.55.59,1.31,1.18,2.62,1.76,3.94s1.08,2.51,1.61,3.77q1.26,2.91,2.5,5.82l2,4.53a17.25,17.25,0,0,1,.73,1.65c.11.35.47.53.48.91a18.13,18.13,0,0,1-1.1,3.26A8.33,8.33,0,0,1,131,95.4c-.94-2.1-1.84-4.21-2.75-6.32s-1.89-4.44-2.85-6.65c-.71-1.64-1.44-3.27-2.16-4.91-.28-.64-.54-1.28-.83-1.92-.09-.2-.13-.46-.44-.48a15.17,15.17,0,0,1,1.29-2l.1-.14h0a.37.37,0,0,0,.13-.17Z"/><path class="cls-43" d="M191.61,124.91a2.39,2.39,0,0,0-.36-1.11c-.89-2.07-1.83-4.13-2.72-6.19s-1.79-4.24-2.7-6.35c-.7-1.62-1.43-3.23-2.14-4.85s-1.35-3.16-2-4.73-1.42-3.23-2.13-4.85c-.5-1.15-1-2.3-1.48-3.46-.2-.5-.46-1-.65-1.47a8.72,8.72,0,0,1-.61-2c.82,1.1,1.52,2.28,2.26,3.44s1.64,2.43,2.35,3.71a16.39,16.39,0,0,0,1.08,2.72q3.75,8.73,7.55,17.45c1,2.22,1.93,4.45,2.9,6.67a2.06,2.06,0,0,1,.2.59c0,.3-.06.51-.42.48A3.15,3.15,0,0,1,191.61,124.91Z"/><path class="cls-44" d="M168.64,77.22c-.36,0-.61-.27-.95-.28a3.64,3.64,0,0,1-1.95-.57,6.43,6.43,0,0,0-2-.55l-.42-.15a1.93,1.93,0,0,1-.64-.87l-2.58-6q-1.71-3.95-3.41-7.91c-.3-.71-.6-1.41-.91-2.11a2.76,2.76,0,0,1-.29-1.41c1,1.51,2,3,3,4.53,2.72,4.15,5.4,8.33,8.16,12.45C167.34,75.3,168.05,76.21,168.64,77.22Z"/><path class="cls-45" d="M99,69.1c-.31,0-.35-.24-.17-.44.71-.77,1.32-1.62,2-2.42l1.51-1.82,2.33-2.86,2.58-3.18c.89-1.1,1.77-2.21,2.65-3.31.73-.9,1.45-1.81,2.18-2.7s1.49-1.78,2.22-2.68c.46-.55.91-1.12,1.35-1.68a.4.4,0,0,1,.29-.17,13.82,13.82,0,0,1,0,1.82,4.5,4.5,0,0,0-.07,1.16c-1.62,2-3.27,4-4.9,6.06-2.35,2.9-4.69,5.78-7,8.66-.66.82-1.3,1.64-2,2.45a10.43,10.43,0,0,1-2.65,1c-.08.07-.21,0-.29.13Z"/><path class="cls-46" d="M191.61,124.91c.31,0,.61,0,.91,0,.49,0,.58-.15.4-.6-.3-.71-.61-1.41-.91-2.11q-1.55-3.58-3.1-7.16c-.72-1.64-1.46-3.27-2.17-4.91-.82-1.89-1.62-3.8-2.44-5.7-.66-1.53-1.34-3.06-2-4.6-.32-.72-.62-1.45-.95-2.17a.65.65,0,0,1,.06-.59c.62.79,1.11,1.66,1.66,2.5.88,1.34,1.74,2.7,2.6,4.05a1,1,0,0,1,.23.43c1.17,3,2.54,6,3.81,8.93,1.57,3.66,3.17,7.3,4.74,11,.34.78.3.82-.44,1a61,61,0,0,1-7.53.11.56.56,0,0,1-.33-.08l.43,0a1.7,1.7,0,0,1,1.69,0h3.35Z"/><path class="cls-47" d="M33,70.36v3.5a1.3,1.3,0,0,1,.2.86c0,1.89,0,3.79,0,5.68s0,3.72,0,5.58a1.09,1.09,0,0,0,.72,1.07c2.18,1.1,4.4,2.12,6.59,3.21.33.17.78.27.76.79l-.27.16a1,1,0,0,0-.15.14h0l-.15.14h0l-.14.14-2.37,2.25c-1.48-.82-3.07-1.44-4.57-2.24A2.27,2.27,0,0,1,33,91.2c0-.23,0-.46,0-.69-.09-15.45,0-30.89-.05-46.34V36.84a1.4,1.4,0,0,1,.08-.76c0,1.14,0,2.27,0,3.41,0,2.46,0,4.91,0,7.37v5A4.58,4.58,0,0,1,33.17,54c0,1.68,0,3.35,0,5,0,2.1,0,4.19,0,6.29,0,1.41,0,2.83,0,4.24A1.14,1.14,0,0,1,33,70.36Z"/><path class="cls-48" d="M94.11,54.27l0-1a14.28,14.28,0,0,1,1-3.32c.3.1.42-.14.56-.31,2.61-3.2,5.23-6.39,7.81-9.62.1-.12.23-.24.16-.43a15.29,15.29,0,0,1,3.78-1.81c.25.25,0,.43-.12.59-.39.52-.81,1-1.22,1.52-1.11,1.39-2.22,2.78-3.35,4.17-.89,1.09-1.8,2.17-2.69,3.27s-1.82,2.28-2.74,3.41c-.73.89-1.47,1.79-2.23,2.66C94.77,53.71,94.64,54.21,94.11,54.27Z"/><path class="cls-49" d="M194,124.9c.11-.19.36-.07.53-.28-.42-1-.85-2-1.29-3q-1.1-2.55-2.21-5.1c-.67-1.54-1.35-3.06-2-4.6-.83-1.91-1.64-3.83-2.47-5.75-.16-.38-.31-.78-.5-1.15a1.61,1.61,0,0,1-.16-.94,16,16,0,0,1,1.21,1.79c1.37,2.1,2.72,4.22,4.08,6.34a1.64,1.64,0,0,1,.3.55c.79,2.16,1.76,4.24,2.67,6.35.68,1.56,1.33,3.12,2,4.67.31.68.23.83-.36,1A8.59,8.59,0,0,1,194,124.9Z"/><path class="cls-12" d="M48.62,123.69A10.34,10.34,0,0,1,50,121.8c.7-.9,1.42-1.77,2.14-2.64L54.73,116a.58.58,0,0,1,.5-.16c0,.35,0,.7,0,1.05v7.34c0,.61,0,.63-.62.57A29.48,29.48,0,0,1,48.62,123.69Z"/><path class="cls-50" d="M116.07,84.07c.5.38.56,1,.8,1.51.72,1.58,1.38,3.19,2.07,4.79s1.36,3.2,2.06,4.79,1.44,3.26,2.16,4.9c.46,1.06.91,2.13,1.38,3.19.67,1.5,1.22,3,2,4.5a.58.58,0,0,1,0,.14,4.84,4.84,0,0,1-.72,1.08l-.08-.08c-3.26-7.4-6.42-14.84-9.67-22.24a1,1,0,0,1-.11-.34c0-.71,0-1.42,0-2.14Z"/><path class="cls-51" d="M132.58,19.6a3.89,3.89,0,0,1,1.68.7,1.59,1.59,0,0,1,.22,1q0,5,0,10.05a1.63,1.63,0,0,1-.21,1,3.56,3.56,0,0,1-1.55.66,1.1,1.1,0,0,1-.23-.85c0-4,0-8,0-12A1,1,0,0,1,132.58,19.6Z"/><path class="cls-52" d="M131.32,33.28a4.9,4.9,0,0,1-1.87-.1,1.72,1.72,0,0,0,.39-1.29c0-3.77,0-7.55,0-11.32a1.68,1.68,0,0,1,.2-1.14c1.62-.2,1.65-.18,1.65,1.39,0,3.75,0,7.51,0,11.26C131.68,32.51,131.79,33,131.32,33.28Z"/><path class="cls-53" d="M195.82,124.76c.33-.15.47-.34.28-.74-.4-.86-.76-1.74-1.13-2.62q-1.29-3-2.56-5.93c-.2-.47-.41-.94-.63-1.4a2.51,2.51,0,0,1-.3-1.34c.81,1,1.46,2.2,2.19,3.31,1.68,2.59,3.35,5.2,5,7.8.11.17.2.35.34.6A24.06,24.06,0,0,1,195.82,124.76Z"/><path class="cls-54" d="M127.27,20.29a2.94,2.94,0,0,1,1.34-.59c.31-.05.41.16.49.39a1.54,1.54,0,0,1,.06.48q0,5.76,0,11.52a1,1,0,0,1-.36.93,3,3,0,0,1-1.4-.57,4,4,0,0,1-.08-1C127.29,27.71,127.37,24,127.27,20.29Z"/><path class="cls-55" d="M115.79,50.92c0-.42-.12-.86.13-1.26,0,1.49,0,3,0,4.47,0,1.07.14,2.12.14,3.19q0,12.81,0,25.64c0,.29-.13.61.14.86l-.13.25h0c0,.06-.09.06-.13,0,0-.93,0-1.87,0-2.8V56.82c-.18,0-.09.23-.23.26C114,59,112.42,61,110.82,63a.74.74,0,0,0-.22.49,12.34,12.34,0,0,1-2.49,1.55l-.16.13h0c-.07.09-.2.06-.28.14h0c-.25-.3-.25-.39.09-.8.82-1,1.61-2,2.42-3,1.72-2.09,3.39-4.21,5.13-6.28a1.19,1.19,0,0,0,.3-.82c0-.59,0-1.17,0-1.75S115.42,51.48,115.79,50.92Z"/><path class="cls-11" d="M131.32,33.28a1.35,1.35,0,0,0,.14-.74V20.13c0-.68,0-.68-.71-.69l-.69,0a.13.13,0,0,1-.19,0,5,5,0,0,1,2.71.18,1.48,1.48,0,0,1,.14.88V33A2.94,2.94,0,0,1,131.32,33.28Z"/><path class="cls-56" d="M135.52,21.24a6.36,6.36,0,0,1,2.2,4.37,6.83,6.83,0,0,1-2.14,5.81,2.6,2.6,0,0,1-.33.25,4.12,4.12,0,0,1-.09-1.31c0-2.69,0-5.38,0-8.07C135.16,21.91,135.08,21.48,135.52,21.24Z"/><path class="cls-57" d="M33,91.2a1.78,1.78,0,0,1,.33.09l4.25,2a1.16,1.16,0,0,1,.62.53l-2.38,2.94A24.72,24.72,0,0,1,33,95.4Q32.88,93.3,33,91.2Z"/><path class="cls-58" d="M103.61,39.58c.2,0,.33.11.17.32-.59.74-1.18,1.48-1.78,2.21s-1,1.17-1.47,1.76c-.83,1-1.64,2.05-2.49,3.06s-1.71,2.12-2.56,3.19c-.07.09-.13.22-.27.17s-.11-.22-.13-.35a17.9,17.9,0,0,1,2.37-4.65A19.59,19.59,0,0,1,102.82,40a1.77,1.77,0,0,1,.6-.33.28.28,0,0,0,.2-.13Z"/><path class="cls-14" d="M129.87,19.42l.19,0V32.52c0,.57,0,.57-.61.66a1,1,0,0,1-.65-.16,4.28,4.28,0,0,0,.15-1q0-5.76,0-11.52c0-.32.08-.68-.33-.84A2.53,2.53,0,0,1,129.87,19.42Z"/><path class="cls-59" d="M127.27,20.29c.16,0,.26.1.26.26s0,.38,0,.56V31.66c0,.27.1.56-.14.79a4,4,0,0,1-1.52-1.12c.41-.24.31-.65.31-1,0-3,.1-6-.06-8.93,0-.1,0-.19,0-.28A2.9,2.9,0,0,1,127.27,20.29Z"/><path class="cls-60" d="M142.92,5.28a.75.75,0,0,1,.53-.12c1-.12,1.1,0,1.1.94q0,3.76,0,7.54c0,1-.1,1-1.11.93a.94.94,0,0,1-.65-.16c-.18-2.89-.07-5.79,0-8.68A.84.84,0,0,1,142.92,5.28Z"/><path class="cls-61" d="M135.52,21.24a1.45,1.45,0,0,0-.15.74c0,2.9,0,5.8,0,8.7,0,.33.14.69-.12,1a2.61,2.61,0,0,1-1,.69q0-6,0-12.06A3.42,3.42,0,0,1,135.52,21.24Z"/><path class="cls-62" d="M8.31,151.92H2c-.71,0-.71,0-.78.69-.32.46-.71.37-1.11.13a12.27,12.27,0,0,1,0-2.1c1-.13.7-1,.92-1.62a.15.15,0,0,1,.19-.06l0,1.84c1.34.12,2.68,0,4,.05,1,0,2.08,0,3.12,0l0,0a.28.28,0,0,1,.24-.22c.33,0,.74-.09.92.34,0,.58,0,1.16,0,1.73s-.21.83-.67.81-.42-.42-.45-.75S8.53,152.16,8.31,151.92Z"/><path class="cls-63" d="M227.32,155a5.31,5.31,0,0,1-3.5,2.06,8.51,8.51,0,0,1-1.74.14h-3.9c-.32,0-.48-.09-.46-.43,0-.65,0-1.3,0-2a1,1,0,0,1,1.11-.08.45.45,0,0,1,.16.22c.28.91.28.91,1.23.92.58,0,1.16,0,1.74,0a5.24,5.24,0,0,0,3.53-1,1.2,1.2,0,0,1,.51-.21A1.75,1.75,0,0,1,227.32,155Z"/><path class="cls-64" d="M217.76,145.91c.08-.21.26-.15.41-.15,1.56,0,3.13,0,4.68,0a5.65,5.65,0,0,1,4,1.67l.14.14h0c0,.33-.2.38-.44.39a3.88,3.88,0,0,1-.9,0,2.92,2.92,0,0,1-.76-.35,5.23,5.23,0,0,0-2.63-.59c-.72,0-1.45,0-2.17,0s-1,.11-1.16.77a1.12,1.12,0,0,1-1.23-.05A11.83,11.83,0,0,1,217.76,145.91Z"/><path class="cls-65" d="M126.13,21.11a1.4,1.4,0,0,1,.29,1V30.5a3.31,3.31,0,0,1-.09.62c-.06.33-.26.24-.45.21h0a.86.86,0,0,1-.14-.13,2.56,2.56,0,0,1-.74-.92c.19-2.26.06-4.53.09-6.8a3.47,3.47,0,0,0-.18-.95,3.35,3.35,0,0,1,.92-1.13.23.23,0,0,0,.17-.15h0a.23.23,0,0,0,.15-.14Z"/><path class="cls-66" d="M99.15,147.71c-.06-.86-.06-.86-1-.86s-1.77,0-2.65,0c-.46,0-.47,0-.47-.55s0-.54.48-.54h8.31c.45,0,.45,0,.45.57,0,.3,0,.54-.43.53-.93,0-1.86,0-2.79,0-.74,0-.74,0-.82.72A1,1,0,0,1,99.15,147.71Z"/><path class="cls-67" d="M158.72,152.89a15.89,15.89,0,0,1,1,2.22c-.31.44-.59.48-1.15.16,0,0-.08-.06-.08-.1-.19-.93-.81-1.06-1.65-1-1.42.07-2.84,0-4.26,0-.84,0-.84,0-1.23.69-.57.44-.8.43-1.18,0h0c.17-.08,0-.3.17-.4h0c.08-.08.05-.21.13-.28a3.66,3.66,0,0,1,.44-1c.05-.06.11-.11.11-.2s0-.05,0-.07a2.7,2.7,0,0,1,1.2,0,46.57,46.57,0,0,0,5.15,0C157.84,152.87,158.28,152.68,158.72,152.89Z"/><path class="cls-68" d="M142.92,5.28c0,2.85,0,5.7,0,8.55,0,.2,0,.42-.14.58a2.87,2.87,0,0,1-1.37-.71c.06-2.32,0-4.63,0-6.95a3.88,3.88,0,0,1,0-.76A2.89,2.89,0,0,1,142.92,5.28Z"/><path class="cls-67" d="M192.86,153a.05.05,0,0,1,0-.08,1.2,1.2,0,0,1,1.2,0c1.52.15,3,0,4.56.05a1.13,1.13,0,0,0,.69-.29,1.24,1.24,0,0,1,1.15.08,13.5,13.5,0,0,1,.94,2.09c-.12.61-.54.59-1,.45,0-.05-.1-.1-.11-.16-.19-.85-.74-1-1.53-1-1.53.07-3.06,0-4.58,0a1.12,1.12,0,0,0-.74.12c-.1.07-.08.2-.15.29h0a.76.76,0,0,1-.77.36c-.24-.05-.53-.12-.36-.49h0c.08-.08,0-.2.13-.28h0c.09-.08.06-.21.14-.29a1.69,1.69,0,0,1,.31-.7A.44.44,0,0,0,192.86,153Z"/><path class="cls-67" d="M62.87,154.28a.13.13,0,0,1,0,.13c0,.62-.29.73-1,.45h0c-.07-.09-.05-.22-.15-.29a.74.74,0,0,0-.77-.41c-1.92,0-3.84,0-5.75,0-.12,0-.1.19-.18.26h0c-.07.08-.05.2-.13.28h0c-.69.29-.93.18-1-.44h0c.11-.07.08-.21.14-.31a4.48,4.48,0,0,1,.55-1.22c.43-.46.86-.33,1.3,0a.64.64,0,0,0,.56.23c1.3,0,2.61,0,3.91,0a.6.6,0,0,0,.39-.14c.23-.32.61-.28.92-.4h.18c.09,0,.12.13.2.18a6.51,6.51,0,0,1,.69,1.52Z"/><path class="cls-69" d="M133.69,152.33a2.42,2.42,0,0,1-1,.75c-.18.09-.4.11-.51.31a.28.28,0,0,0,.14.19h0c0,.06.09.1.12.15h0c0,.57-.07.64-.86.58h0a.24.24,0,0,0-.14-.17h0a.88.88,0,0,0-.12-.15h0c-.09-.07,0-.21-.17-.26h0a.54.54,0,0,0-.14-.16h-4c-.12.07-.11.19-.1.31,0,.44-.21.56-.59.56s-.55-.24-.53-.64,0-1.06,0-1.59c.24-.61.82-.43,1.26-.56a.81.81,0,0,0,.89.6c.89,0,1.77,0,2.66,0a8.14,8.14,0,0,0,1.75-.43C132.78,152.05,133.34,151.89,133.69,152.33Z"/><path class="cls-70" d="M147.28,6.12A4.14,4.14,0,0,1,149,9a4.72,4.72,0,0,1-1.47,4.43c-.08.07-.19.12-.29.19a1.11,1.11,0,0,1-.24-.91c0-1.89,0-3.79,0-5.69A1.1,1.1,0,0,1,147.28,6.12Z"/><path class="cls-71" d="M143.44,14.57l.21,0c.67,0,.68,0,.68-.71V6c0-.84,0-.84-.88-.88a3,3,0,0,1,1.86,0c.28.14.27.4.26.66-.07,2.68-.07,5.35,0,8,0,.27,0,.52-.26.66A3,3,0,0,1,143.44,14.57Z"/><path class="cls-67" d="M117.19,154.43a.6.6,0,0,0-.53-.27H111a.69.69,0,0,0-.39.12c-.08.08-.06.2-.14.28h0c-.08.08-.06.2-.13.29h0c-.4,0-.93.31-1-.44h0c.1-.08.08-.21.14-.3a.2.2,0,0,1,0-.13c0-.06.09-.1.1-.17a1.32,1.32,0,0,1,.29-.66c.09-.08.07-.2.14-.29h0c.45-.33.85-.12,1.24.14a29.15,29.15,0,0,0,3.74.08,2,2,0,0,0,1.75-.41c.21-.22.57-.11.85,0a4.32,4.32,0,0,1,.55,1.22.35.35,0,0,0,.1.18.11.11,0,0,1,0,.12l.09.16a.17.17,0,0,1,0,.13c.13.26,0,.38-.24.44a.76.76,0,0,1-.9-.28h0C117.25,154.63,117.27,154.51,117.19,154.43Z"/><path class="cls-72" d="M125.77,147c-.08-1.28-.08-1.28,1.16-1.28s2.27,0,3.4,0a4.63,4.63,0,0,1,3.09,1,.23.23,0,0,1,.12.1h0a.86.86,0,0,1,.14.13h0a.86.86,0,0,1,.13.14h0c-.07.51-.11.53-.9.56l-.21,0-.19-.08-.2-.08-.31-.1a8.21,8.21,0,0,0-3.3-.34,10.31,10.31,0,0,0-1.47,0c-.23,0-.27.27-.41.4a1,1,0,0,1-.93.14C125.71,147.48,125.84,147.24,125.77,147Z"/><path class="cls-73" d="M33,95.4a1.05,1.05,0,0,1,.6.15l1.81.9c.17.09.34.17.41.36a.59.59,0,0,1,0,.13l-.12.14h0a1,1,0,0,0-.13.15.59.59,0,0,1,0,.13l-.12.13c-.33.56-.66,1.12-1,1.69A22.15,22.15,0,0,0,33.11,102a.42.42,0,0,1-.15.22c0-1.43,0-2.87,0-4.3C32.92,97.11,32.94,96.25,33,95.4Z"/><path class="cls-74" d="M147.28,6.12v7.5a2.36,2.36,0,0,1-1.13.66,1.17,1.17,0,0,1-.23-.92q0-3.5,0-7a1.17,1.17,0,0,1,.23-.92A2.3,2.3,0,0,1,147.28,6.12Z"/><path class="cls-75" d="M121.8.13l1.27,0c.36.19.35.53.35.85,0,2.12,0,4.23,0,6.35,0,.37,0,.76-.49.87a2.27,2.27,0,0,1-1.29-.1A2.63,2.63,0,0,0,121.87,7q0-2.78,0-5.55a1.57,1.57,0,0,0-.36-1.16Z"/><path class="cls-76" d="M124.9,22.52c.44.15.4.51.4.86v5.3c0,.26,0,.51,0,.77a1,1,0,0,1-.31.82v0c0-.09-.07-.13-.13-.17h0l-.11-.15A6.85,6.85,0,0,1,124.9,22.52Z"/><path class="cls-77" d="M121.51.27c.56.08.57.08.57.54,0,2.26,0,4.52,0,6.78,0,.34-.07.55-.45.54a2,2,0,0,1-1.1-.43,3.37,3.37,0,0,0,.22-1.29c0-1.46,0-2.91,0-4.37a3.27,3.27,0,0,0-.24-1.35A1.64,1.64,0,0,1,121.51.27Z"/><path class="cls-78" d="M122.93,8.23a.7.7,0,0,0,.28-.59q0-3.46,0-6.95a1.1,1.1,0,0,0-.14-.53l.28,0a3.52,3.52,0,0,1,1,.39,1.65,1.65,0,0,1,.21,1V6.86a1.44,1.44,0,0,1-.22,1A2.25,2.25,0,0,1,122.93,8.23Z"/><path class="cls-79" d="M79.8,152.48c0,1.46,0,2.92,0,4.38,0,.26-.1.36-.37.37a1,1,0,0,1-1-.39c-.8-1.1-1.72-2.11-2.51-3.23.34-.32.81-.2,1.2-.35l1.37,1.6c.17-.41,0-.78.12-1.13.5-.17.91-.42.88-1A.21.21,0,0,1,79.8,152.48Z"/><path class="cls-80" d="M146.15,5.45v8.83a1.42,1.42,0,0,1-.84.26c0-.1.13-.22.11-.32a47.37,47.37,0,0,1-.11-5.33c0-.74,0-1.48,0-2.22a2.36,2.36,0,0,1,.1-1c.08-.17,0-.32-.1-.46A1.42,1.42,0,0,1,146.15,5.45Z"/><path class="cls-81" d="M120.52.69c.41,0,.45.32.45.65,0,1.11,0,2.22,0,3.33,0,.81,0,1.63,0,2.44,0,.3-.06.56-.43.59a2.09,2.09,0,0,1-.87-.68c-.07-1.88-.07-3.76,0-5.64A1.76,1.76,0,0,1,120.52.69Z"/><path class="cls-82" d="M124.33,7.85c0-2.44,0-4.89,0-7.33a2,2,0,0,1,1,.62,1.52,1.52,0,0,1,.37,1.1v3.9a1.51,1.51,0,0,1-.48,1.18A1.53,1.53,0,0,1,124.33,7.85Z"/><path class="cls-83" d="M19.67,155.43a4.19,4.19,0,0,0,4.58.24,1,1,0,0,1,1.32.3,2.26,2.26,0,0,1-1,.82,5.65,5.65,0,0,1-4.93,0,2.55,2.55,0,0,1-1.24-1.08A1.46,1.46,0,0,1,19.67,155.43Z"/><path class="cls-84" d="M168.93,149.12c-.35-.27-.51-.71-.9-1l-.09.27c-.07.44-.39.46-.73.44s-.45-.27-.44-.57c0-.72,0-1.44,0-2.16,0-.26.09-.37.37-.38a1.06,1.06,0,0,1,1.06.47c.6.85,1.33,1.61,1.91,2.48.15.29-.07.36-.26.42A1.47,1.47,0,0,1,168.93,149.12Z"/><path class="cls-85" d="M141.49,6a.43.43,0,0,1,.18.42v6.87c0,.19,0,.38-.25.42a2.17,2.17,0,0,1-.86-.84c.1-2,.08-4,0-6A2.41,2.41,0,0,1,141.49,6Z"/><path class="cls-86" d="M112,148.57c.29-.86.74-1.65,1.08-2.48a.51.51,0,0,1,.54-.34c.82,0,.83,0,1.18.73a9.36,9.36,0,0,1,.56,1.35l.09.16a.11.11,0,0,1,0,.12c.07.09,0,.23.13.3h0c-.25.54-.66.28-1,.2a.71.71,0,0,1-.18-.12,1,1,0,0,1-.14-.15c-.19-.21-.21-.51-.42-.75-.39.47-.37,1.2-1,1.48C112.1,149,112.1,149,112,148.57Z"/><path class="cls-87" d="M140.57,6.86a.88.88,0,0,1,.26.69v4.73c0,.24,0,.46-.27.58h0a.18.18,0,0,1-.1-.11,4.65,4.65,0,0,1-.08-5.62c.11,0,.09-.19.18-.25Z"/><path class="cls-86" d="M156.61,148.27l0,.14a.94.94,0,0,1-1.16.16,1.15,1.15,0,0,1-.38-.56c-.1-.2-.19-.41-.28-.62a2,2,0,0,1-.82,1.43c-.39,0-.83.17-.9-.44.26-.83.71-1.57,1-2.36a.41.41,0,0,1,.44-.27,3.49,3.49,0,0,0,.56,0,.45.45,0,0,1,.49.3c.27.68.66,1.32.87,2A1,1,0,0,0,156.61,148.27Z"/><path class="cls-88" d="M70.33,148.55l0-2.42c0-.26.08-.37.36-.38a1,1,0,0,1,1,.4c.52.74,1.15,1.39,1.64,2.14.18.32,0,.48-.27.56a1.07,1.07,0,0,1-.75,0l-.65-.71c-.2.15-.07.38-.15.54A.8.8,0,0,1,70.33,148.55Z"/><path class="cls-89" d="M209.77,151.78c0,1.67,0,3.34,0,5,0,.34-.12.47-.45.44h-.42c-.23,0-.33-.12-.34-.34V146.44a1,1,0,0,1,.06-.55c.37.39.21.88.24,1.32a9.29,9.29,0,0,1,0,1.18c0,.82,0,1.64,0,2.45s0,1.35,0,2c0,.22,0,.54.28.55s.24-.32.29-.53C209.54,152.51,209.26,152,209.77,151.78Z"/><path class="cls-90" d="M119.66,1.38c.22.13.18.35.18.56,0,1.5,0,3,0,4.51,0,.21,0,.43-.17.57A4,4,0,0,1,119.66,1.38Z"/><path class="cls-91" d="M125.18,7.32a2,2,0,0,0,.27-1.12c0-1.34,0-2.69,0-4a2.73,2.73,0,0,0-.16-1A4,4,0,0,1,125.18,7.32Z"/><path class="cls-92" d="M36.13,148.71a.69.69,0,0,1-.24-.38c-.39.24-.75.65-1.27.22-.07-.78,0-1.58,0-2.37,0-.34.14-.43.46-.43a.77.77,0,0,1,.84.44c.35.71.83,1.35,1.15,2.07C37,148.83,36.8,148.91,36.13,148.71Z"/><path class="cls-93" d="M45.31,149.25c0-.13,0-.27,0-.41s0-.27,0-.46c-.21.06-.24.25-.36.33-.39.22-.77.39-1-.16h0a.27.27,0,0,0,.12-.2A18.69,18.69,0,0,1,45.33,146c.26-.43.7-.28,1.08-.12a20.76,20.76,0,0,1,.06,2.23.29.29,0,0,1-.24.3,1,1,0,0,0-.74.8A.13.13,0,0,1,45.31,149.25Z"/><path class="cls-94" d="M125.77,147c.14.16.07.36.1.54.39.71.15,1.48.2,2.23a5.15,5.15,0,0,1-.2,2.24c0,.57,0,1.15,0,1.72,0,.26,0,.5.37.52s.51,0,.61-.42c0-.11,0-.22.17-.27,0,1,0,2,0,3.06,0,.19.11.47-.17.54a2,2,0,0,1-1,0s-.08-.12-.09-.18a1.27,1.27,0,0,1,0-.28v-9.47A1.52,1.52,0,0,1,125.77,147Z"/><path class="cls-95" d="M142.92,154.15c0,.88,0,1.76,0,2.64,0,.34-.12.47-.45.44h-.41c-.28,0-.38-.13-.37-.38v-.21c0-2.6,0-5.21,0-7.81a2.87,2.87,0,0,1,.05-.41l.09.07a.64.64,0,0,1,.12.34c0,.57,0,1.13,0,1.69a16.84,16.84,0,0,1,0,1.88C141.94,153.2,142.05,153.86,142.92,154.15Z"/><path class="cls-96" d="M173.42,152.91l1.62,1.93.1-.56a.64.64,0,0,1,.8-.55c.5.06.32.47.35.76,0,.11,0,.23,0,.34a6.55,6.55,0,0,1,0,1.4c-.14,0-.18-.12-.22-.23-.24-.71-.48-.88-1.23-.77a3.89,3.89,0,0,1-1,.06,19.16,19.16,0,0,1-1.69-2.12A1.31,1.31,0,0,1,173.42,152.91Z"/><path class="cls-97" d="M57,147.53a13.39,13.39,0,0,1,.63-1.46.46.46,0,0,1,.47-.32c.87-.05.87-.06,1.23.75a3.49,3.49,0,0,1,.37.89c0,.1,0,.24.14.32h0c0,.65-.45.56-.88.49l-.16-.13a3.53,3.53,0,0,1-.21-.32c-.26-.39-.32,0-.44.12a3.46,3.46,0,0,1-.22.31l-.16.13c-.35-.05-.89.27-.89-.46h0C57,147.77,57,147.63,57,147.53Z"/><path class="cls-98" d="M42.22,153.31A20.53,20.53,0,0,1,41,155.5a.5.5,0,0,1-.9,0,20.38,20.38,0,0,1-1.24-2.18c.28-.25.66-.18,1-.29l.72,1.08c.26-.18.29-.49.51-.66A1.25,1.25,0,0,1,42.22,153.31Z"/><path class="cls-99" d="M25.54,153.45c.07-2.07,0-4.14,0-6.21,0-.25,0-.51,0-.76.39.18.26.55.29.85a7.21,7.21,0,0,1,0,1c0,.61,0,1.21,0,1.82,0,.19,0,.47.3.45s.24-.26.25-.44c0-.6,0-1.21,0-1.81a11,11,0,0,1,0-1.15c0-.24,0-.52.29-.62.06,2,0,4,0,6.07a4.8,4.8,0,0,1-.11.76C26.28,153.94,25.91,153.73,25.54,153.45Z"/><path class="cls-100" d="M46.44,150.65a16.24,16.24,0,0,1,0,2.09c0,1.35,0,2.7,0,4,0,.17,0,.41-.23.42a1.37,1.37,0,0,1-.87-.08c-.1-.07-.07-.21-.07-.33l0-3.34c.82.27.89.22.9-.66,0-.55,0-1.11,0-1.66a.83.83,0,0,1,.13-.43Z"/><path class="cls-98" d="M19.67,155.43a6.16,6.16,0,0,1-1.29.27,4.38,4.38,0,0,1-.93-2.81c.59.26.88.09.91-.55s0-1.1,0-1.65c0-.77,0-1.53,0-2.3,0-.6,0-1.2,0-1.8a.81.81,0,0,1,.23-.7,1.64,1.64,0,0,1,.06.76v5.77A4.24,4.24,0,0,0,19.67,155.43Z"/><path class="cls-101" d="M131.57,154.32a1,1,0,0,1,.56-.18c.28,0,.31-.18.3-.4.87,1.08,1.6,2.25,2.51,3.48h-1.11a.48.48,0,0,1-.41-.22C132.82,156.1,132.11,155.27,131.57,154.32Z"/><path class="cls-102" d="M35.74,152.62c0,1.39,0,2.78,0,4.18,0,.34-.13.46-.45.43H35c-.26,0-.38-.1-.38-.37,0-1.09,0-2.18,0-3.27C35.22,153.52,35.41,153,35.74,152.62Z"/><path class="cls-103" d="M167.94,152.2c0,1.53,0,3.06,0,4.59,0,.34-.12.47-.45.44h-.35c-.32,0-.46-.09-.45-.43,0-.7,0-1.4,0-2.09l0-5.29c.51.38.22.93.29,1.4q0,.93,0,1.86c0,.43,0,.87,0,1.3,0,.23-.07.59.31.58s.24-.33.26-.55c0-.41,0-.82,0-1.24C167.68,152.55,167.61,152.27,167.94,152.2Z"/><path class="cls-104" d="M100.28,153.59c.08,1.07,0,2.14,0,3.21,0,.28-.08.45-.4.43a1.37,1.37,0,0,0-.35,0c-.31,0-.46-.08-.46-.43,0-1.07,0-2.14,0-3.21A.89.89,0,0,1,100.28,153.59Z"/><path class="cls-105" d="M77.2,153.26a.34.34,0,0,1-.37.33l-.83,0a35.7,35.7,0,0,1-2.23-2.81c.49-.1,1,.24,1.46,0A24.63,24.63,0,0,1,77.2,153.26Z"/><path class="cls-106" d="M197.88,147a.15.15,0,0,1,0,.13c.07.08,0,.22.13.29h0c0,.63-.43.4-.74.44a.76.76,0,0,1-.2-.06,2,2,0,0,1-.27-.24.27.27,0,0,0-.21,0,.52.52,0,0,0-.15.18l-.09.15a.61.61,0,0,1-.18.21.84.84,0,0,1-.2.08c-.31-.05-.79.21-.76-.43h0c.08-.08.06-.21.13-.29h0c.09-.07.07-.21.13-.3A8.62,8.62,0,0,1,196,146a.39.39,0,0,1,.42-.28c1.05,0,.89-.26,1.39,1.09A1.4,1.4,0,0,0,197.88,147Z"/><path class="cls-107" d="M225.7,147.88a5,5,0,0,1,1,0c.17,0,.29-.1.36-.25a4.52,4.52,0,0,1,1.41,3.07,1.28,1.28,0,0,1-1.07.23s-.1,0-.11-.07A15.45,15.45,0,0,0,225.7,147.88Z"/><path class="cls-108" d="M142.92,154.15c-1.1-.18-1.11-.18-1.11-1.28,0-.78,0-1.57,0-2.35a.83.83,0,0,1,1.09,0C143,151.72,143,152.94,142.92,154.15Z"/><path class="cls-109" d="M71.43,153.73c0,1,0,2,0,3.06,0,.34-.12.44-.45.44-.72,0-.72,0-.72-.72l0-2.78A.85.85,0,0,1,71.43,153.73Z"/><path class="cls-110" d="M173.84,155.29a3,3,0,0,1,2.19-.14c.17,0,.18.19.19.33s-.06.51.09.75a1.31,1.31,0,0,1,0,.27c0,.24.13.54-.16.7a1.09,1.09,0,0,1-1.07-.25A17,17,0,0,1,173.84,155.29Z"/><path class="cls-111" d="M8.31,151.92c.32.23.14.56.17.84s-.05.54.35.55a.55.55,0,0,0,.63-.57c0-.65,0-1.3,0-2a1.72,1.72,0,0,1-.1-1.42.18.18,0,0,1,.2-.11c0,1.72,0,3.43,0,5.15,0,.77,0,1.53,0,2.3,0,.5,0,.5-.49.52H8.74c-.27,0-.38-.1-.38-.37q0-.66,0-1.32C8.34,154.33,8.43,153.12,8.31,151.92Z"/><path class="cls-112" d="M75.23,150.78a.93.93,0,0,1-1.11.21,3,3,0,0,1-.35-.19,16,16,0,0,1-1.54-1.94,1.25,1.25,0,0,1,.71-.17c.28,0,.32-.17.31-.4a21.42,21.42,0,0,1,1.84,2.31.28.28,0,0,0,.14.19Z"/><path class="cls-113" d="M99.15,147.71a5.38,5.38,0,0,1,1.13-.14,28.82,28.82,0,0,1,0,3.22,1.14,1.14,0,0,1-1.13,0C99.1,149.77,99.1,148.74,99.15,147.71Z"/><path class="cls-114" d="M195.25,147.72a.28.28,0,0,0,.32.27l.68,0a.47.47,0,0,1,0,.46c-.28.71-.58,1.41-.93,2.09a.68.68,0,0,1-.47.39c-.34-.06-.9.29-.88-.46A23,23,0,0,1,195.25,147.72Z"/><path class="cls-115" d="M173.42,152.91a5.41,5.41,0,0,1-1.27.26,22.42,22.42,0,0,1-1.78-2.24c.37-.29.84-.16,1.25-.29A24.56,24.56,0,0,1,173.42,152.91Z"/><path class="cls-116" d="M78.69,148.55a19.58,19.58,0,0,1,0-2.3c0-.48,0-.48.53-.49h.28c.31,0,.39.14.39.42,0,.84,0,1.68,0,2.52A1.85,1.85,0,0,1,78.69,148.55Z"/><path class="cls-117" d="M46.38,151.07c0,.76,0,1.53,0,2.3,0,.2,0,.47-.26.48s-.58.17-.72-.22a.82.82,0,0,0-.11-.17c-.05-1.4-.05-2.8,0-4.21h.11a.61.61,0,0,1,.17.58A1,1,0,0,0,46.38,151.07Z"/><path class="cls-118" d="M1.18,149H1.07c-.47-.66-.51-.66-1,.05A28.65,28.65,0,0,1,0,146.09c0-.22.1-.34.34-.33a3,3,0,0,0,.42,0c.32,0,.46.09.45.43C1.19,147.11,1.19,148,1.18,149Z"/><path class="cls-119" d="M53.94,154.27c0,.27.16.43.44.43h.55c-.26.77-.64,1.49-1,2.23a.4.4,0,0,1-.42.29,3.72,3.72,0,0,1-1-.07C53,156.18,53.42,155.2,53.94,154.27Z"/><path class="cls-120" d="M9.56,149.26H9.47c-.2-.17-.17-.42-.21-.64s-.06-.45-.34-.42-.22.26-.23.43c0,.48,0,1,0,1.45a.76.76,0,0,1-.19.57l-.12.15c0-1.49,0-3,0-4.47,0-.57,0-.57.57-.58s.65,0,.64.65C9.58,147.35,9.57,148.31,9.56,149.26Z"/><path class="cls-121" d="M175.14,148.84c0-.91,0-1.81,0-2.72,0-.27.12-.35.38-.37.84-.05.87,0,.86.79,0,.3,0,.6,0,.9a.16.16,0,0,1-.17-.07,2.63,2.63,0,0,1-.11-.88c0-.17-.06-.34-.26-.36s-.31.17-.33.37c0,.38-.11.81.49.87a.4.4,0,0,1,.37.36c0,.79,0,1.58,0,2.37-.82.36-1.07.21-1.08-.65A2.09,2.09,0,0,0,175.14,148.84Z"/><path class="cls-122" d="M132.7,147.6a4.21,4.21,0,0,0,.62,0c.23,0,.47-.09.51-.39a3.4,3.4,0,0,1,.84,2.92.93.93,0,0,1-1.15,0A19.6,19.6,0,0,0,132.7,147.6Z"/><path class="cls-123" d="M192.18,154.44c.06.31.26.4.55.33a5.66,5.66,0,0,0,.58-.2c-.25.82-.68,1.57-1,2.36a.44.44,0,0,1-.48.3c-.28,0-.55,0-1,0C191.32,156.24,191.69,155.31,192.18,154.44Z"/><path class="cls-124" d="M141.83,148.68l0-.27a12.69,12.69,0,0,1,0-2.54c.28-.24.62-.08.93-.1s.22.19.22.35l0,2.57A.82.82,0,0,1,141.83,148.68Z"/><path class="cls-125" d="M197.05,147.73l.68,0a.28.28,0,0,0,.32-.28,19.08,19.08,0,0,1,1.13,2.48c.06.1,0,.24.15.32h0c-.1.54-.54.29-.84.37a.58.58,0,0,1-.19,0,.53.53,0,0,1-.14-.12,1.4,1.4,0,0,1-.1-.16,1.13,1.13,0,0,0-.21-.31C197.57,149.22,196.94,148.61,197.05,147.73Z"/><path class="cls-126" d="M109.35,154.42a.28.28,0,0,0,.32.28,1.11,1.11,0,0,1,.67.16c-.22.71-.59,1.36-.87,2a.47.47,0,0,1-.54.33c-.25,0-.51,0-.81,0a4.46,4.46,0,0,1,.56-1.44A6.44,6.44,0,0,1,109.35,154.42Z"/><path class="cls-127" d="M61.91,154.86h.56a.42.42,0,0,0,.44-.44,26.47,26.47,0,0,1,1.28,2.75c-1.22.16-1.23.16-1.67-.84A8.49,8.49,0,0,1,61.91,154.86Z"/><path class="cls-128" d="M209.77,151.78a3.82,3.82,0,0,0-.11,1.43c0,.48-.07.52-.52.52s-.46-.11-.46-.44c0-.79,0-1.57,0-2.36.68-.2.8-.69.77-1.33,0-.35-.2-.81.29-1C209.82,149.64,209.82,150.71,209.77,151.78Z"/><path class="cls-129" d="M35.74,152.62a.54.54,0,0,0-.1.18c-.1.79-.1.79-.88.79h-.14a23.78,23.78,0,0,1,0-2.8c.49-.17.9-.42.87-1a.22.22,0,0,1,.24-.21C35.79,150.57,35.78,151.59,35.74,152.62Z"/><path class="cls-130" d="M114.51,148.43a1.16,1.16,0,0,0,1.14,0,18.67,18.67,0,0,1,1.14,2.49c-.27.6-.71.32-1.12.22A4.36,4.36,0,0,1,114.51,148.43Z"/><path class="cls-131" d="M117.32,154.71a1.43,1.43,0,0,0,.84.13c.2,0,.27-.12.3-.29.47.82.8,1.7,1.18,2.53-.06.07-.08.12-.11.12-1.09.08-1.1.08-1.54-.89A10.62,10.62,0,0,1,117.32,154.71Z"/><path class="cls-129" d="M99.15,150.79a5.34,5.34,0,0,1,1.13,0,21.8,21.8,0,0,1,0,2.8H99.15A26.15,26.15,0,0,1,99.15,150.79Z"/><path class="cls-132" d="M112,148.57c0,.14.08.26.24.25a4.18,4.18,0,0,1,.72.15s.08.08.07.12a4.84,4.84,0,0,1-1.25,2.49c-.36-.07-.93.2-.92-.53A18.54,18.54,0,0,1,112,148.57Z"/><path class="cls-133" d="M56.88,147.84c.22.48.62.33,1,.29.23.47-.14.8-.29,1.16-.22.55-.36,1.17-.94,1.49a1.05,1.05,0,0,1-1-.14l0-.13c.08-.07,0-.2.14-.27A15.29,15.29,0,0,1,56.88,147.84Z"/><path class="cls-134" d="M115.63,150.94c.39.13.78.28,1.16,0a9.55,9.55,0,0,1,.84,1.84.58.58,0,0,1-.41,0c-.25-.07-.49,0-.57.25s-.33.28-.56.28h-4.4c-.19,0-.38,0-.52-.14a.6.6,0,0,1,.08-.08,8.74,8.74,0,0,1,2.34-.11c.65,0,1.3,0,2,0s.64-.12.43-.67S115.43,151.47,115.63,150.94Z"/><path class="cls-135" d="M155.52,148.41c.38.3.76,0,1.14,0a11.39,11.39,0,0,1,1,2.1c.08.07,0,.21.14.28h0c-.29.54-.74.35-1.17.26A4.79,4.79,0,0,1,155.52,148.41Z"/><path class="cls-136" d="M25.54,153.45c.37,0,.74.3,1.12,0A3.82,3.82,0,0,1,25.57,156a2.87,2.87,0,0,0-1.32-.3A4.12,4.12,0,0,0,25.54,153.45Z"/><path class="cls-137" d="M198.3,150.55c.15-.08.3-.21.5-.15a.42.42,0,0,0,.52-.18,19.64,19.64,0,0,1,1.16,2.51l-1.2,0A2.9,2.9,0,0,1,198.3,150.55Z"/><path class="cls-138" d="M227.32,155l-1.32-.19a19.31,19.31,0,0,1,1.22-2.4,2.34,2.34,0,0,0,1.17.17,4.14,4.14,0,0,1-.93,2.25c-.07,0-.14.07-.15.16Z"/><path class="cls-139" d="M171.62,150.64a.48.48,0,0,1-.5.29h-.75v0a.18.18,0,0,1-.1-.11,12.75,12.75,0,0,1-1.33-1.68,1.42,1.42,0,0,1,.81-.15.27.27,0,0,0,.33-.27,12.12,12.12,0,0,1,1.41,1.78.33.33,0,0,0,.14.17Z"/><path class="cls-139" d="M153.12,148.38c.22.47.64.27,1,.31.22.48-.19.8-.3,1.2a3.45,3.45,0,0,1-.52,1,1.65,1.65,0,0,1-.26.32.53.53,0,0,1-.2.07c-.32-.11-.86.14-.82-.52h0c.09-.08.07-.21.13-.3A13.43,13.43,0,0,1,153.12,148.38Z"/><path class="cls-139" d="M43.88,148.55a1.4,1.4,0,0,0,1,.16,27.2,27.2,0,0,1-1.56,2.66c-.72,0-.79,0-.75-.62A14.6,14.6,0,0,1,43.88,148.55Z"/><path class="cls-140" d="M71.43,153.73h-1.1a23.6,23.6,0,0,1,0-2.66.87.87,0,0,1,1.1,0A23.6,23.6,0,0,1,71.43,153.73Z"/><path class="cls-141" d="M150.18,154.83c.38.3.78.15,1.18,0-.22.73-.62,1.39-.9,2.1-.07.16-.17.28-.37.26a3.64,3.64,0,0,1-1-.06A23.81,23.81,0,0,1,150.18,154.83Z"/><path class="cls-142" d="M39.82,153a.28.28,0,0,1-.31.29h-.67a18.32,18.32,0,0,1-1.4-2.38c.28-.26.67-.17,1-.29A18.94,18.94,0,0,1,39.82,153Z"/><path class="cls-143" d="M18.58,145.89l0,2.52a1.07,1.07,0,0,1-1.08,0c0-.74,0-1.49,0-2.23,0-.35.14-.47.46-.42S18.38,145.63,18.58,145.89Z"/><path class="cls-144" d="M133.55,149.94c.34.3.75.09,1.12.15a2.82,2.82,0,0,1-1,2.24,2.62,2.62,0,0,0-.79-.14.48.48,0,0,1-.46-.24.36.36,0,0,1,.07-.17l.15-.22a3.48,3.48,0,0,0,.6-1.31C133.29,150.1,133.32,149.92,133.55,149.94Z"/><path class="cls-145" d="M208.71,148.42c0-.84,0-1.69-.05-2.53.27-.28.61-.1.92-.12s.22.19.22.35l0,2C209.55,148.76,209.15,148.66,208.71,148.42Z"/><path class="cls-146" d="M58.84,148c.54.16.71.11,1-.3a11.52,11.52,0,0,1,1,2.11c.08.08,0,.2.13.28h0c0,.41,0,.41-.79.51a.46.46,0,0,1-.2-.05,1.33,1.33,0,0,1-.29-.29,12,12,0,0,1-.76-1.62C58.82,148.44,58.68,148.23,58.84,148Z"/><path class="cls-147" d="M79.8,152.48c-.18.22-.09.49-.1.73,0,.49,0,.5-.52.52h-.49a21.46,21.46,0,0,1,0-2.66c.74.09.76-.62,1.11-1A18.9,18.9,0,0,1,79.8,152.48Z"/><path class="cls-148" d="M87.79,152.75a19.68,19.68,0,0,1,0-2.66.9.9,0,0,1,1.13,0,21.19,21.19,0,0,1,0,2.52C88.58,153,88.17,152.78,87.79,152.75Z"/><path class="cls-135" d="M38.43,150.64a.29.29,0,0,1-.31.29h-.68a.42.42,0,0,1-.09-.14,16.76,16.76,0,0,1-1.22-2.09c.35,0,.77,0,.9-.45a14.56,14.56,0,0,1,1.25,2.12c.09.07,0,.21.15.27Z"/><path class="cls-148" d="M175.14,148.84c.16.17.1.39.1.59,0,.65,0,.65.7.66h.28a14.94,14.94,0,0,1,.07,2.41c0,.34-.24.41-.51.41s-.58-.15-.6-.52a16.59,16.59,0,0,0,0-1.73A11.06,11.06,0,0,1,175.14,148.84Z"/><path class="cls-143" d="M25.7,148.41a10.4,10.4,0,0,0-.09-1.93c0-.16,0-.32,0-.48s.11-.22.26-.24c.84-.14,1,0,.92.86a9.78,9.78,0,0,0-.1,1.79A.71.71,0,0,1,25.7,148.41Z"/><path class="cls-144" d="M60,150.52a4.52,4.52,0,0,1,.73-.16c.17,0,.24-.11.25-.26a12.72,12.72,0,0,1,1,2.19.14.14,0,0,1,0,.18,2,2,0,0,1-1,.28A3,3,0,0,1,60,150.52Z"/><path class="cls-121" d="M88.92,150.09H87.79a17.66,17.66,0,0,1,0-2.52.9.9,0,0,1,1.13,0A21.19,21.19,0,0,1,88.92,150.09Z"/><path class="cls-117" d="M194,150.49c0,.22.15.3.36.3H195a2.94,2.94,0,0,1-1,2.24,2.94,2.94,0,0,0-1.14-.15A18,18,0,0,1,194,150.49Z"/><path class="cls-149" d="M200.41,155.27c.33-.16.81,0,1-.45a20.25,20.25,0,0,1,1.07,2.27c-.06.13-.13.13-.19.13-1.29,0-1,.16-1.47-.92A5.43,5.43,0,0,1,200.41,155.27Z"/><path class="cls-150" d="M79.8,150.1c-.18.22-.08.48-.11.72s-.11.43-.47.35a1.56,1.56,0,0,0-.53-.1,21.19,21.19,0,0,1,0-2.52,1.58,1.58,0,0,1,1.11.14A6.65,6.65,0,0,1,79.8,150.1Z"/><path class="cls-151" d="M71.43,151.07h-1.1a21.19,21.19,0,0,1,0-2.52c.37,0,.72.22,1.1.14A18.9,18.9,0,0,1,71.43,151.07Z"/><path class="cls-152" d="M175.14,150.66a4.88,4.88,0,0,1,.11,1.57c0,.4.14.5.5.52s.48-.08.48-.43c0-.74,0-1.48,0-2.23v-2.51c0-.06,0-.1,0-.14h.07c0,1.42,0,2.84,0,4.26,0,1,0,2.09,0,3.13a.7.7,0,0,1-.09-.4c0-.57-.29-.72-.79-.43a1.52,1.52,0,0,0-.29.28C175.09,153.07,175.09,151.87,175.14,150.66Z"/><path class="cls-151" d="M17.45,148.41a5,5,0,0,1,1.09,0c0,.8,0,1.59,0,2.38a.83.83,0,0,1-1.08,0A18.9,18.9,0,0,1,17.45,148.41Z"/><path class="cls-117" d="M42.61,150.75c0,.25,0,.46.36.48a1.22,1.22,0,0,1,.39.14,12.17,12.17,0,0,1-1.14,1.94c-.37.27-.79,0-1.17.13A21.87,21.87,0,0,1,42.61,150.75Z"/><path class="cls-153" d="M88.92,154.85c0,.65,0,1.3,0,2,0,.35-.14.46-.45.43h-.21c-.52,0-.53,0-.53-.49s0-1.25,0-1.88A.89.89,0,0,1,88.92,154.85Z"/><path class="cls-154" d="M.07,152.75c.37,0,.76.09,1.11-.13a12.82,12.82,0,0,1,0,2c-.09.9-.25,1-1.11.55A15.76,15.76,0,0,1,.07,152.75Z"/><path class="cls-155" d="M17.45,150.79h1.08c0,.6,0,1.2,0,1.81,0,.21.1.51-.25.55s-.68.22-.85-.26A13.38,13.38,0,0,1,17.45,150.79Z"/><path class="cls-105" d="M156.64,150.93a1.62,1.62,0,0,0,1.12-.14,15.25,15.25,0,0,1,1,2.1,3,3,0,0,1-1.18.14A2.7,2.7,0,0,1,156.64,150.93Z"/><path class="cls-156" d="M158.58,155.27a1.63,1.63,0,0,0,1.15-.16,15.71,15.71,0,0,1,.92,2c0,.15-.11.15-.17.15-1,.05-1,.05-1.48-.92A4.85,4.85,0,0,1,158.58,155.27Z"/><path class="cls-157" d="M55.59,150.64h1.16a2.7,2.7,0,0,1-1,2.14,1.28,1.28,0,0,0-1.16,0A13.39,13.39,0,0,1,55.59,150.64Z"/><path class="cls-158" d="M218.89,154.85h-1.14a5.09,5.09,0,0,1,0-1.35,2.46,2.46,0,0,1,0-.81c.54-.43.83-.42,1.32.05A3.39,3.39,0,0,1,218.89,154.85Z"/><path class="cls-159" d="M228.39,152.61c-.5.32-.84.27-1.13-.19a1.61,1.61,0,0,1,0-1.63,5.28,5.28,0,0,1,1.12-.14A3.53,3.53,0,0,1,228.39,152.61Z"/><path class="cls-151" d="M208.71,148.42c.36,0,.79.15,1.06-.28a.75.75,0,0,1,0,.42c-.22.41-.06.85-.11,1.28V150c0,1,.13,1-.95,1Z"/><path class="cls-160" d="M88.92,154.85H87.79a12.27,12.27,0,0,1,0-2.1c.35-.28.76,0,1.13-.14A16.74,16.74,0,0,1,88.92,154.85Z"/><path class="cls-142" d="M152,150.79c0,.14.08.28.25.27a4.5,4.5,0,0,1,.73.15,2.07,2.07,0,0,1-.81,1.83c-.38,0-.78.07-1.14-.15A13.75,13.75,0,0,1,152,150.79Z"/><path class="cls-161" d="M35.74,149.54c-.19.22-.1.49-.11.74,0,.48,0,.49-.52.51-.16,0-.32,0-.48,0a15.22,15.22,0,0,1,0-2.24h.49c.23,0,.45,0,.56-.27s.17-.07.22.05C35.6,148.7,35.86,149.15,35.74,149.54Z"/><path class="cls-8" d="M.07,155.13a1.83,1.83,0,0,1,.85.1c.25-.19.06-.49.26-.65,0,.74,0,1.48,0,2.22,0,.34-.13.46-.45.43H.48c-.32,0-.46-.1-.45-.44C.06,156.24.06,155.68.07,155.13Z"/><path class="cls-151" d="M166.86,150.79a4.88,4.88,0,0,0-.1-1.37,4.28,4.28,0,0,1,0-1.13c.29.53.65.57,1.17.13a3.22,3.22,0,0,1,0,1,2.37,2.37,0,0,0,0,.75C167.89,151,167.66,151.15,166.86,150.79Z"/><path class="cls-162" d="M.07,149c0-.07,0-.14,0-.21.05-.51.07-.54.51-.54s.43,0,.47.56V149c0,.39,0,.78,0,1.17s0,.49-.52.51H.07A7.4,7.4,0,0,1,.07,149Z"/><path class="cls-5" d="M166.86,150.79h.21c.75,0,.75,0,.76-.73,0-.22-.06-.46.11-.66a26.15,26.15,0,0,1,0,2.8c-.17.16-.09.36-.11.55a1.17,1.17,0,0,1-1,0Z"/><path class="cls-163" d="M110.88,151.05a.3.3,0,0,0,.31.3c.23,0,.45.09.67.14a2,2,0,0,1-.66,1.66l0,0a1.37,1.37,0,0,0-1.12-.28A10.16,10.16,0,0,1,110.88,151.05Z"/><path class="cls-124" d="M88.92,147.57H87.79c0-.45,0-.91,0-1.37s.09-.48.43-.45a2,2,0,0,0,.42,0c.27,0,.36.11.35.37C88.93,146.61,88.93,147.09,88.92,147.57Z"/><path class="cls-164" d="M141.83,148.68h1.09a11.06,11.06,0,0,1,0,1.82h-1.09Z"/><path class="cls-63" d="M217.8,152.61l0,.89a1,1,0,0,1-.07-.48v-6.71a.63.63,0,0,1,.07-.4c0,.65,0,1.3,0,2,.36.59.14,1.25.19,1.88,0,.3,0,.6,0,.9A4.12,4.12,0,0,1,217.8,152.61Z"/><path class="cls-120" d="M8.34,150.84a.83.83,0,0,1-.54.09h-6c-.2,0-.42.06-.59-.12.86.09,1.73,0,2.59,0Z"/><path class="cls-117" d="M46.44,150.65h0a2.7,2.7,0,0,1-.06-2.37l0-2.4a.64.64,0,0,1,.07.4C46.46,147.74,46.53,149.2,46.44,150.65Z"/><path class="cls-164" d="M141.8,145.87c0,.85,0,1.7,0,2.54h0A10.36,10.36,0,0,1,141.8,145.87Z"/><path class="cls-35" d="M130.05,62.79a.39.39,0,0,1-.28.43A.66.66,0,0,1,130.05,62.79Z"/><path class="cls-50" d="M125.74,109.12a.66.66,0,0,1-.29.42l-.06-.09a.29.29,0,0,1,.26-.37Z"/><path class="cls-9" d="M67.24,78.62c-.11.16-.28.13-.43.13A.52.52,0,0,1,67.24,78.62Z"/><path class="cls-9" d="M67.8,78.47c-.11.18-.28.14-.45.13A.57.57,0,0,1,67.8,78.47Z"/><path class="cls-9" d="M68.36,78.33c-.12.18-.3.14-.47.13A.54.54,0,0,1,68.36,78.33Z"/><path class="cls-15" d="M71.72,77.51c-.12.15-.28.12-.44.12A.51.51,0,0,1,71.72,77.51Z"/><path class="cls-15" d="M72.84,77.22c-.12.17-.29.13-.45.12A.56.56,0,0,1,72.84,77.22Z"/><path class="cls-15" d="M73.4,77.08c-.12.17-.29.13-.46.12A.54.54,0,0,1,73.4,77.08Z"/><path class="cls-15" d="M74,76.93c-.12.18-.3.14-.47.13A.57.57,0,0,1,74,76.93Z"/><path class="cls-141" d="M150.35,154.44c0,.15,0,.32-.17.4A.47.47,0,0,1,150.35,154.44Z"/><path class="cls-13" d="M81.51,74.83c-.11.18-.29.14-.45.13A.56.56,0,0,1,81.51,74.83Z"/><path class="cls-12" d="M89.49,72.31c-.1.17-.27.14-.43.15A.57.57,0,0,1,89.49,72.31Z"/><path class="cls-12" d="M89.91,72.18c-.1.16-.27.13-.43.14A.53.53,0,0,1,89.91,72.18Z"/><path class="cls-15" d="M72.28,77.36c-.11.16-.28.13-.44.13A.5.5,0,0,1,72.28,77.36Z"/><path class="cls-130" d="M115.65,148.41a.27.27,0,0,1-.13-.3A.35.35,0,0,1,115.65,148.41Z"/><path class="cls-144" d="M60.94,150.09a.29.29,0,0,1-.13-.28A.29.29,0,0,1,60.94,150.09Z"/><path class="cls-137" d="M199.33,150.23a.28.28,0,0,1-.15-.32A.39.39,0,0,1,199.33,150.23Z"/><path class="cls-157" d="M55.78,150.24a.3.3,0,0,1-.14.27A.28.28,0,0,1,55.78,150.24Z"/><path class="cls-142" d="M38.43,150.65a.28.28,0,0,1-.15-.27A.31.31,0,0,1,38.43,150.65Z"/><path class="cls-142" d="M152.15,150.49a.28.28,0,0,1-.13.3A.34.34,0,0,1,152.15,150.49Z"/><path class="cls-105" d="M157.76,150.79a.28.28,0,0,1-.14-.28A.3.3,0,0,1,157.76,150.79Z"/><path class="cls-85" d="M140.56,6.87c0,.12-.05.22-.18.25A.31.31,0,0,1,140.56,6.87Z"/><path class="cls-17" d="M137.2,51.91a.26.26,0,0,1-.17.26A.3.3,0,0,1,137.2,51.91Z"/><path class="cls-17" d="M136.92,52.33a.26.26,0,0,1-.17.26A.32.32,0,0,1,136.92,52.33Z"/><path class="cls-12" d="M88.92,72.49a.33.33,0,0,1-.28.11A.29.29,0,0,1,88.92,72.49Z"/><path class="cls-10" d="M62.63,80a.32.32,0,0,1-.34.11A.39.39,0,0,1,62.63,80Z"/><path class="cls-9" d="M36.69,116.26c.15,0,.19.12.2.25A.41.41,0,0,1,36.69,116.26Z"/><path class="cls-10" d="M35.18,113.87c.14,0,.16.16.16.29A.32.32,0,0,1,35.18,113.87Z"/><path class="cls-163" d="M110.05,152.88a.28.28,0,0,1-.14.29A.33.33,0,0,1,110.05,152.88Z"/><path class="cls-10" d="M62.21,80.16a.32.32,0,0,1-.34.11A.39.39,0,0,1,62.21,80.16Z"/><path class="cls-10" d="M61.78,80.3a.29.29,0,0,1-.31.12A.34.34,0,0,1,61.78,80.3Z"/><path class="cls-10" d="M61.36,80.45a.3.3,0,0,1-.31.11A.29.29,0,0,1,61.36,80.45Z"/><path class="cls-29" d="M130.07,101.6c0-.14,0-.26.15-.32A.34.34,0,0,1,130.07,101.6Z"/><path class="cls-50" d="M125.33,109.7a.31.31,0,0,1-.17.24l0-.07a.19.19,0,0,1,.08-.22A.1.1,0,0,1,125.33,109.7Z"/><path class="cls-40" d="M177.42,123.53a.34.34,0,0,1,.34.11A.34.34,0,0,1,177.42,123.53Z"/><path class="cls-101" d="M131.15,153.74c.13,0,.16.14.17.26A.36.36,0,0,1,131.15,153.74Z"/><path class="cls-40" d="M176.89,123.39a.32.32,0,0,1,.31.1A.33.33,0,0,1,176.89,123.39Z"/><path class="cls-123" d="M192.45,153.86a.28.28,0,0,1-.14.29A.33.33,0,0,1,192.45,153.86Z"/><path class="cls-119" d="M54.08,154c0,.13,0,.25-.14.31A.32.32,0,0,1,54.08,154Z"/><path class="cls-119" d="M55.07,154.42c0-.12,0-.23.18-.26Z"/><path class="cls-126" d="M109.48,154.13a.27.27,0,0,1-.14.3A.32.32,0,0,1,109.48,154.13Z"/><path class="cls-141" d="M150.48,154.15a.29.29,0,0,1-.13.28A.33.33,0,0,1,150.48,154.15Z"/><path class="cls-123" d="M192.31,154.15a.29.29,0,0,1-.13.28A.33.33,0,0,1,192.31,154.15Z"/><path class="cls-24" d="M175.61,123c.13,0,.25,0,.33.12A.36.36,0,0,1,175.61,123Z"/><path class="cls-126" d="M110.47,154.57a.28.28,0,0,1,.14-.28A.35.35,0,0,1,110.47,154.57Z"/><path class="cls-123" d="M193.3,154.58a.28.28,0,0,1,.15-.29A.31.31,0,0,1,193.3,154.58Z"/><path class="cls-119" d="M54.93,154.71a.3.3,0,0,1,.13-.28A.32.32,0,0,1,54.93,154.71Z"/><path class="cls-114" d="M195.52,147.13a.27.27,0,0,1-.13.3A.32.32,0,0,1,195.52,147.13Z"/><path class="cls-24" d="M175.21,122.83a.29.29,0,0,1,.31.12A.34.34,0,0,1,175.21,122.83Z"/><path class="cls-131" d="M117.19,154.43a.28.28,0,0,1,.13.29A.3.3,0,0,1,117.19,154.43Z"/><path class="cls-125" d="M198.05,147.43a.26.26,0,0,1-.13-.29A.32.32,0,0,1,198.05,147.43Z"/><path class="cls-146" d="M59.85,147.71c-.15-.06-.16-.19-.14-.32A.39.39,0,0,1,59.85,147.71Z"/><path class="cls-127" d="M61.77,154.57a.28.28,0,0,1,.15.29A.33.33,0,0,1,61.77,154.57Z"/><path class="cls-126" d="M110.34,154.86a.28.28,0,0,1,.13-.29A.3.3,0,0,1,110.34,154.86Z"/><path class="cls-114" d="M195.39,147.43a.3.3,0,0,1-.13.29A.3.3,0,0,1,195.39,147.43Z"/><path class="cls-133" d="M57,147.53c0,.13,0,.26-.14.32A.4.4,0,0,1,57,147.53Z"/><path class="cls-50" d="M125.16,109.94a.17.17,0,0,1-.12.16L125,110a.14.14,0,0,1,.16-.07Z"/><path class="cls-115" d="M170.26,150.8l.1.11C170.29,150.9,170.26,150.87,170.26,150.8Z"/><path class="cls-50" d="M125.45,109.54a.18.18,0,0,1-.12.16l0,0c0-.11,0-.16.13-.14Z"/><path class="cls-139" d="M44,148.35a.21.21,0,0,1-.12.2A.23.23,0,0,1,44,148.35Z"/><path class="cls-50" d="M125.86,109a.14.14,0,0,1-.12.15l0,0c0-.11,0-.16.13-.14Z"/><path class="cls-9" d="M37.15,116.81a.19.19,0,0,1,.14.16A.17.17,0,0,1,37.15,116.81Z"/><path class="cls-67" d="M61.93,152.47v-.18a.17.17,0,0,1,.1.18.07.07,0,0,1-.11,0Z"/><path class="cls-9" d="M37,116.66l.14.16A.17.17,0,0,1,37,116.66Z"/><path class="cls-144" d="M61.93,152.47H62l.05.13Z"/><path class="cls-9" d="M36.9,116.52l.12.15C37,116.64,36.9,116.6,36.9,116.52Z"/><path class="cls-35" d="M138.74,82.7a.24.24,0,0,1,.14-.17A.19.19,0,0,1,138.74,82.7Z"/><path class="cls-38" d="M123.34,73l-.1.14A.12.12,0,0,1,123.34,73Z"/><path class="cls-38" d="M123.47,72.85a.23.23,0,0,1-.13.17A.16.16,0,0,1,123.47,72.85Z"/><path class="cls-142" d="M151,153a.24.24,0,0,1-.11.2A.22.22,0,0,1,151,153Z"/><path class="cls-117" d="M192.86,153l-.1.19A.19.19,0,0,1,192.86,153Z"/><path class="cls-101" d="M132.31,153.58a.22.22,0,0,1-.14-.19A.25.25,0,0,1,132.31,153.58Z"/><path class="cls-35" d="M138.88,82.54l.13-.15A.17.17,0,0,1,138.88,82.54Z"/><path class="cls-101" d="M131,153.59a.23.23,0,0,1,.14.16C131.08,153.73,131.05,153.67,131,153.59Z"/><path class="cls-101" d="M132.42,153.73l-.12-.15A.14.14,0,0,1,132.42,153.73Z"/><path class="cls-122" d="M133.54,146.88l-.12-.1C133.49,146.78,133.52,146.82,133.54,146.88Z"/><path class="cls-107" d="M227,147.58l-.14-.14A.16.16,0,0,1,227,147.58Z"/><path class="cls-126" d="M109.62,153.83l-.1.17A.16.16,0,0,1,109.62,153.83Z"/><path class="cls-130" d="M115.47,148l-.09-.16A.15.15,0,0,1,115.47,148Z"/><path class="cls-131" d="M118.28,154.14l-.1-.18A.17.17,0,0,1,118.28,154.14Z"/><path class="cls-101" d="M131.33,154l.12.15A.15.15,0,0,1,131.33,154Z"/><path class="cls-15" d="M39.52,119.19a.21.21,0,0,1,.16.14A.18.18,0,0,1,39.52,119.19Z"/><path class="cls-127" d="M62.87,154.28l-.09-.16A.15.15,0,0,1,62.87,154.28Z"/><path class="cls-101" d="M131.44,154.15a.2.2,0,0,1,.14.17C131.49,154.3,131.46,154.24,131.44,154.15Z"/><path class="cls-135" d="M156.61,148.27l-.1-.18A.16.16,0,0,1,156.61,148.27Z"/><path class="cls-10" d="M35.09,113.73l.1.16A.13.13,0,0,1,35.09,113.73Z"/><path class="cls-131" d="M118.41,154.42l-.09-.16A.15.15,0,0,1,118.41,154.42Z"/><path class="cls-115" d="M171.62,150.65a.22.22,0,0,1-.14-.17A.22.22,0,0,1,171.62,150.65Z"/><path class="cls-35" d="M130.18,62.63a.2.2,0,0,1-.13.17A.18.18,0,0,1,130.18,62.63Z"/><path class="cls-28" d="M132.28,59.42a.19.19,0,0,1-.13.17A.18.18,0,0,1,132.28,59.42Z"/><path class="cls-15" d="M39.35,119.05a.26.26,0,0,1,.19.15A.23.23,0,0,1,39.35,119.05Z"/><path class="cls-17" d="M137.05,52.16l-.13.16A.17.17,0,0,1,137.05,52.16Z"/><path class="cls-48" d="M103.62,39.58a.24.24,0,0,1-.2.13A.24.24,0,0,1,103.62,39.58Z"/><path class="cls-59" d="M125.73,31.19l.14.13A.13.13,0,0,1,125.73,31.19Z"/><path class="cls-105" d="M75.23,150.79a.23.23,0,0,1-.14-.19A.23.23,0,0,1,75.23,150.79Z"/><path class="cls-65" d="M124.87,30.08a.19.19,0,0,1,.13.17A.17.17,0,0,1,124.87,30.08Z"/><path class="cls-65" d="M124.77,29.94l.11.15A.13.13,0,0,1,124.77,29.94Z"/><path class="cls-59" d="M126,21.24a.22.22,0,0,1-.17.15A.23.23,0,0,1,126,21.24Z"/><path class="cls-59" d="M126.13,21.11a.2.2,0,0,1-.15.14A.17.17,0,0,1,126.13,21.11Z"/><path class="cls-85" d="M140.46,12.74l.1.11C140.49,12.84,140.46,12.81,140.46,12.74Z"/><path class="cls-50" d="M124.9,110.29l0-.2c0-.07.09-.07.13,0l0,0A.25.25,0,0,1,124.9,110.29Z"/><path class="cls-63" d="M227.31,155a.18.18,0,0,1,.15-.16A.2.2,0,0,1,227.31,155Z"/><path class="cls-142" d="M37.35,150.8l.09.14C37.38,150.91,37.34,150.87,37.35,150.8Z"/><path class="cls-122" d="M133.82,147.16l-.13-.14A.15.15,0,0,1,133.82,147.16Z"/><path class="cls-125" d="M197.88,147l-.1-.16A.15.15,0,0,1,197.88,147Z"/><path class="cls-122" d="M133.69,147l-.14-.13A.14.14,0,0,1,133.69,147Z"/><path class="cls-40" d="M156.78,75.12H154c.16-.18.38-.13.58-.13h2.22Z"/><path class="cls-28" d="M144.47,77.91a.3.3,0,0,1,.27-.14A.27.27,0,0,1,144.47,77.91Z"/><path class="cls-28" d="M144.75,77.77l.15-.13Z"/><path class="cls-28" d="M145,77.63l.15-.13Z"/><path class="cls-28" d="M145.31,77.49l.15-.13Z"/><path class="cls-165" d="M33,80.57V73.86a1.83,1.83,0,0,1,.33.11c1.61.78,3.22,1.55,4.83,2.34,2.86,1.4,5.7,2.85,8.59,4.2,2.14,1,4.25,2.11,6.38,3.14a1.49,1.49,0,0,1-.59.36c-1.87.92-3.73,1.85-5.5,2.95a1.46,1.46,0,0,1-.2.05.93.93,0,0,0-.15.13h-.13c-.3.11-.54-.07-.78-.2-3.05-1.55-6.16-3-9.21-4.53-1-.48-2-.86-2.9-1.37A1.88,1.88,0,0,1,33,80.57Z"/><path class="cls-166" d="M33,80.57a2.13,2.13,0,0,1,.33.11c1.57.76,3.14,1.51,4.71,2.28l8.52,4.19a6.08,6.08,0,0,1-1.35,1,48,48,0,0,0-4,2.93,1,1,0,0,0-.51-.45c-.91-.43-1.79-.89-2.7-1.3-1.59-.73-3.13-1.55-4.7-2.32a.58.58,0,0,1-.34-.62C33,84.43,33,82.5,33,80.57Z"/><path class="cls-57" d="M35.35,97.49l.12-.13Z"/><path class="cls-57" d="M35.49,97.23l.13-.15Z"/><path class="cls-57" d="M35.63,97.08l.12-.14Z"/><path class="cls-166" d="M40.52,91.62l.14-.14Z"/><path class="cls-166" d="M40.66,91.48l.15-.14Z"/><path class="cls-166" d="M40.8,91.35l.15-.14Z"/><path class="cls-166" d="M46.68,87.14l.15-.13Z"/><path class="cls-167" d="M115.79,52.87c0,.58,0,1.17,0,1.75a.88.88,0,0,1-.21.63c-1.29,1.46-2.47,3-3.68,4.51s-2.71,3.27-4.06,4.92c-.14.17-.4.35-.17.64-.31.33-.8.38-1.12.7h0c-.07.09-.2.06-.28.14-.4,0-.7.38-1.1.43l-.15.12-.13,0c-.08.07-.22,0-.29.14h0c-.29.14-.34,0-.29-.24a2.1,2.1,0,0,1,.51-.83c3.36-4.14,6.74-8.27,10.09-12.43C115.12,53.09,115.3,52.69,115.79,52.87Z"/><path class="cls-168" d="M110.6,63.5c-.15,0-.23-.07-.15-.22a6,6,0,0,1,.55-.8c.92-1.12,1.81-2.27,2.74-3.39.48-.57,1-1.13,1.41-1.72a.59.59,0,0,1,.52-.29l0,.27c-.08.09,0,.21-.12.3a.5.5,0,0,1,0,.12c-.08.08,0,.21-.13.29A6.54,6.54,0,0,1,114,60.39a20,20,0,0,1-2.2,2.21,2.12,2.12,0,0,1-.36.21.7.7,0,0,0-.16.14h0l-.15.13h0a.46.46,0,0,1-.12.12.28.28,0,0,1-.13,0,.7.7,0,0,0-.16.14h0l-.14.12Z"/><path class="cls-55" d="M115.52,57.65a.29.29,0,0,1,.12-.3A.32.32,0,0,1,115.52,57.65Z"/><path class="cls-55" d="M115.37,58.06a.3.3,0,0,1,.13-.29A.28.28,0,0,1,115.37,58.06Z"/><path class="cls-167" d="M107.67,65.32a.3.3,0,0,1,.28-.14A.28.28,0,0,1,107.67,65.32Z"/><path class="cls-167" d="M108,65.18l.16-.13Z"/><path class="cls-55" d="M110.61,63.49l.14-.12Z"/><path class="cls-55" d="M110.75,63.37l.16-.14Z"/><path class="cls-55" d="M111,63.2l.12-.12Z"/><path class="cls-55" d="M111.17,63.08l.15-.13Z"/><path class="cls-55" d="M111.31,63l.16-.14Z"/><path class="cls-169" d="M97.46,124.63h-.27c-.31.17-.67,0-1,.13v0a2.21,2.21,0,0,1-.65-.09c0-.41.4-.62.62-.9,1-1.33,2.13-2.62,3.19-3.94l3.92-4.87c.9-1.11,1.83-2.21,2.74-3.32s1.79-2.25,2.7-3.36,1.86-2.25,2.78-3.38,1.73-2.12,2.58-3.19c.48-.59,1-1.19,1.43-1.79a.55.55,0,0,1,.42-.22,35.9,35.9,0,0,1,.06,3.74,10.22,10.22,0,0,1-.06,2.14,33.54,33.54,0,0,1-.82,4.65,18.51,18.51,0,0,1-12,13,26.94,26.94,0,0,1-4.22,1.17,6.48,6.48,0,0,1-.77.06C98,124.65,97.68,124.47,97.46,124.63Z"/><path class="cls-26" d="M115.93,105.61V90.22q0-3.07,0-6.15h.13v2.38a6.44,6.44,0,0,1,0,3.64q0,7.35,0,14.72C116.06,105.08,116.17,105.37,115.93,105.61Z"/><path class="cls-170" d="M116.07,90.09V86.45c.31.15.38.46.5.73q1.31,3,2.59,6c1.13,2.64,2.26,5.29,3.41,7.93.52,1.21,1.09,2.4,1.59,3.63s1,2.37,1.57,3.54a1.16,1.16,0,0,1,.12.68l-.13.14a.5.5,0,0,0-.29.42l-.13.14a.32.32,0,0,0-.15.28l-.14.14h-.13c-.33-.82-.66-1.63-1-2.44q-1.05-2.46-2.11-4.91c-.72-1.64-1.45-3.27-2.16-4.9-.82-1.89-1.62-3.79-2.44-5.69-.24-.55-.49-1.1-.74-1.65C116.34,90.34,116.27,90.16,116.07,90.09Z"/><path class="cls-7" d="M96.21,124.77c.3-.26.65-.09,1-.13C96.89,124.88,96.54,124.75,96.21,124.77Z"/><path class="cls-7" d="M97.46,124.63c.21-.23.47-.11.71-.13C98,124.7,97.71,124.62,97.46,124.63Z"/><path class="cls-14" d="M95.78,70.22a.45.45,0,0,1,.42-.14C96.1,70.25,95.93,70.22,95.78,70.22Z"/><path class="cls-14" d="M97.18,69.8c.1-.15.27-.14.42-.14C97.5,69.83,97.33,69.8,97.18,69.8Z"/><path class="cls-14" d="M97.6,69.66a.45.45,0,0,1,.42-.14C97.92,69.69,97.76,69.66,97.6,69.66Z"/><path class="cls-14" d="M96.75,69.94a.28.28,0,0,1,.29-.13A.3.3,0,0,1,96.75,69.94Z"/><path class="cls-14" d="M96.33,70.08a.28.28,0,0,1,.29-.13A.29.29,0,0,1,96.33,70.08Z"/><path class="cls-41" d="M95.09,70.35a.29.29,0,0,1,.28-.13A.27.27,0,0,1,95.09,70.35Z"/><path class="cls-171" d="M115.79,52.87c-.38,0-.57.33-.76.58-1.09,1.43-2.26,2.81-3.4,4.21-1.3,1.62-2.6,3.26-3.91,4.87-.92,1.13-1.86,2.25-2.79,3.38a5.43,5.43,0,0,0-.5.75c-.08.15,0,.19.17.2a4.88,4.88,0,0,1-1.66.71,1,1,0,0,0-.16.12l-.13,0c-.08.07-.22,0-.29.13h0c-.08.08-.2,0-.28.13l-.14,0a1.31,1.31,0,0,1,.37-.73c1-1.28,2.06-2.56,3.11-3.82s2.13-2.68,3.2-4c1.3-1.6,2.62-3.19,3.92-4.78q1.38-1.69,2.74-3.41c.14-.16.27-.32.51-.32Z"/><path class="cls-5" d="M106.27,66.16a.32.32,0,0,1,.28-.14A.27.27,0,0,1,106.27,66.16Z"/><path class="cls-171" d="M104.6,66.87a.27.27,0,0,1,.29-.14A.37.37,0,0,1,104.6,66.87Z"/><path class="cls-45" d="M102.36,67.84a.28.28,0,0,1,.29-.13A.32.32,0,0,1,102.36,67.84Z"/><path class="cls-45" d="M102.08,68a.31.31,0,0,1,.28-.13A.26.26,0,0,1,102.08,68Z"/><path class="cls-34" d="M99,69.1a.28.28,0,0,1,.29-.13A.32.32,0,0,1,99,69.1Z"/><path class="cls-45" d="M102.78,67.69l.16-.12Z"/><path class="cls-171" d="M105,66.71l.15-.12Z"/><path class="cls-172" d="M33,54V51.9a2.55,2.55,0,0,1,.83.36c2.78,1.36,5.54,2.76,8.34,4.07,1.72.81,3.4,1.72,5.13,2.51,2,.94,4,2,6,2.94.67.33,1.36.59,2,.89v2.1c-.23.18-.44,0-.65-.06-.52-.22-1-.44-1.53-.7-5-2.51-10-4.89-15.05-7.36L33.73,54.5A1.71,1.71,0,0,1,33,54Z"/><path class="cls-173" d="M33,65.32V59a1.14,1.14,0,0,1,.93.2c1.86,1,3.78,1.82,5.65,2.75,4.74,2.37,9.53,4.6,14.25,7a4.26,4.26,0,0,1,1.53.81v6.29c-.35.14-.64-.06-.92-.19l-10-4.85c-3.56-1.73-7.1-3.48-10.67-5.19A1.81,1.81,0,0,1,33,65.32Z"/><path class="cls-174" d="M55.35,69.8c-.56-.23-1.12-.44-1.66-.7-1.38-.67-2.74-1.4-4.13-2-2-.94-4-2-6-2.93S39.84,62.26,38,61.4c-1.43-.66-2.84-1.38-4.26-2.07-.23-.11-.47-.2-.71-.29V54a2,2,0,0,1,.71.29c3,1.47,5.95,3,9,4.39,1.91.9,3.77,1.91,5.7,2.79s3.62,1.79,5.45,2.66c.5.24,1,.42,1.54.64Z"/><path class="cls-175" d="M33,65.32c.93.43,1.87.83,2.79,1.27,1.36.66,2.69,1.39,4.06,2,2,.94,4,2,6.08,3,1.76.8,3.44,1.74,5.21,2.53,1.42.63,2.77,1.42,4.22,2v4.83a1.88,1.88,0,0,1-.93-.25l-1.81-.91c-2.73-1.35-5.45-2.73-8.21-4-1.82-.85-3.58-1.81-5.4-2.63s-3.47-1.71-5.21-2.55a1.41,1.41,0,0,0-.8-.2Z"/><path class="cls-176" d="M188.26,124.91l-1.69,0a13.45,13.45,0,0,0-.9-2.19c-.66-1.61-1.36-3.2-2-4.8l-2-4.54c-.71-1.62-1.39-3.25-2.11-4.86s-1.39-3.29-2.15-4.92c-.49-1.07-.94-2.17-1.41-3.26l-1.62-3.78q-1-2.4-2.08-4.79c-.71-1.62-1.39-3.25-2.11-4.86-.51-1.12-1-2.26-1.47-3.39s-1.09-2.52-1.63-3.77c-.37-.86-.76-1.7-1.12-2.56a1.58,1.58,0,0,1-.2-.8,6.72,6.72,0,0,1,1.95.57c0,.49.3.87.47,1.3.61,1.5,1.28,3,1.93,4.47.71,1.64,1.41,3.29,2.12,4.93s1.46,3.26,2.17,4.9c.82,1.9,1.62,3.8,2.44,5.7.65,1.51,1.32,3,2,4.53.84,1.94,1.66,3.88,2.51,5.82.56,1.3,1.15,2.59,1.72,3.89l1.44,3.32c.54,1.26,1.07,2.52,1.62,3.77.65,1.52,1.32,3,2,4.54A1.7,1.7,0,0,1,188.26,124.91Z"/><path class="cls-177" d="M94.11,65.18V62.1c.38,0,.56-.33.75-.57,1.16-1.48,2.36-2.92,3.55-4.37s2.48-3.11,3.72-4.66c.73-.9,1.49-1.77,2.22-2.67s1.73-2.12,2.58-3.18c.72-.88,1.42-1.76,2.13-2.65l2.7-3.35c.73-.9,1.48-1.78,2.21-2.68a8.31,8.31,0,0,0,1.26-1.74c.69,0,.69,0,.69.66s0,1.24,0,1.86c-.71,1-1.57,2-2.35,2.94-3.52,4.37-7.07,8.72-10.61,13.08Q99,59.61,95.08,64.48C94.83,64.78,94.62,65.21,94.11,65.18Z"/><path class="cls-178" d="M94.11,65.18a6.79,6.79,0,0,0,1.46-1.57c.91-1.09,1.76-2.21,2.65-3.31.76-.93,1.5-1.88,2.28-2.79s1.44-1.81,2.2-2.69,1.7-2.07,2.55-3.12l2.12-2.65c.73-.9,1.45-1.81,2.18-2.7.92-1.13,1.86-2.25,2.78-3.38s1.74-2.11,2.58-3.18a5.24,5.24,0,0,1,1-1c0,.93,0,1.86,0,2.8a2.53,2.53,0,0,0-.89.86c-1.14,1.37-2.24,2.77-3.36,4.15s-2.25,2.72-3.35,4.08-2.11,2.64-3.18,4c-.74.92-1.5,1.82-2.25,2.73s-1.72,2.12-2.58,3.18c-.72.88-1.42,1.77-2.13,2.65-.9,1.12-1.78,2.26-2.71,3.35a5.56,5.56,0,0,1-1.27,1.36,4.92,4.92,0,0,1-.08-1.36C94.1,66.06,94.11,65.62,94.11,65.18Z"/><path class="cls-151" d="M8.49,150.65v-2.3c0-.23,0-.49.32-.48a.61.61,0,0,1,.65.48c0,.3,0,.6,0,.91,0,.51,0,1,0,1.53A1.7,1.7,0,0,1,8.49,150.65Z"/><path class="cls-179" d="M227.3,150.79c0,.54,0,1.09,0,1.63a6,6,0,0,1-1.26,2.42,5.94,5.94,0,0,1-4.22,1.3c-.78,0-1.57,0-2.36,0-.49,0-.49,0-.5-.52l0-.76a18.6,18.6,0,0,0,0-2.24,3.89,3.89,0,0,1-.2-2c0-.67,0-1.33,0-2a1.12,1.12,0,0,1,.21-.79,1.23,1.23,0,0,0,0-.2c0-.8-.16-.8.79-.8.74,0,1.49,0,2.24,0a5.9,5.9,0,0,1,3.76,1A5.14,5.14,0,0,1,227.3,150.79Z"/><path class="cls-180" d="M218.89,147.85c.05.94,0,1.87,0,2.8a1.69,1.69,0,0,1-1.09,0v-2.78A1.76,1.76,0,0,1,218.89,147.85Z"/><path class="cls-181" d="M152.19,153a12.42,12.42,0,0,0,.81-1.83h0c.09-.06.06-.19.13-.26a18.06,18.06,0,0,0,1-2.25l.75-1.53.65,1.25a16.24,16.24,0,0,0,1.12,2.52,19.5,19.5,0,0,0,.9,2.1c-.11.16-.28.14-.44.14h-4.54C152.43,153.17,152.28,153.18,152.19,153Z"/><path class="cls-181" d="M194,153a15.41,15.41,0,0,0,1-2.24,21.73,21.73,0,0,0,1.24-2.79h0c.07-.09,0-.22.14-.29h0c.07-.08.05-.21.13-.28.14-.24.27-.23.41,0,.1.07.07.2.14.29h0a13.41,13.41,0,0,0,1,2.23c.1.08.08.21.14.31a.09.09,0,0,0,0,.11.86.86,0,0,1,.1.16h0a14,14,0,0,0,1,2.21c0,.16.14.4-.18.4-1.66,0-3.32.05-5,0C194.09,153.13,194.06,153.07,194,153Z"/><path class="cls-182" d="M55.79,152.79a12.83,12.83,0,0,0,1-2.14,17.73,17.73,0,0,0,1.12-2.52h0c.09-.07.06-.2.13-.27l.35-.63c.23.1.2.36.36.49s0,.2.13.28h0a15.29,15.29,0,0,0,1,2.23c.08.08.06.21.13.29h0a15.29,15.29,0,0,0,1,2.23c0,.23.12.43-.27.43-1.53,0-3.06,0-4.58,0C55.8,153.18,55.74,153,55.79,152.79Z"/><path class="cls-179" d="M133.55,149.94a3.73,3.73,0,0,1-.84,1.81.34.34,0,0,1-.18.15.08.08,0,0,0-.09,0,5,5,0,0,1-2.55.58H127.6c-.56,0-.65,0-.62-.62a2.48,2.48,0,0,0,0-.27.7.7,0,0,1-.18-.51,20.14,20.14,0,0,1,.22-4.25c1.2,0,2.41,0,3.62,0a4.85,4.85,0,0,1,1.67.43l.15.11a.07.07,0,0,0,.09,0,.26.26,0,0,1,.19.15h0A3.34,3.34,0,0,1,133.55,149.94Z"/><path class="cls-183" d="M127,146.88c0,1.59,0,3.17,0,4.76-.12.31-.31.52-.68.39a.47.47,0,0,0-.4,0v-2.24c.69-.18.84-.67.78-1.31a1.29,1.29,0,0,1,.19-1.06C126.86,147.24,126.77,147,127,146.88Z"/><path class="cls-184" d="M126.84,147.44c0,.6,0,1.21,0,1.81s0,.54-.55.56h-.42v-2.23C126.21,147.63,126.5,147.41,126.84,147.44Z"/><path class="cls-122" d="M132.71,147.6a.26.26,0,0,1-.19-.15A.21.21,0,0,1,132.71,147.6Z"/><path class="cls-122" d="M132.43,147.41a.15.15,0,0,1-.15-.11Z"/><path class="cls-182" d="M111.2,153.15l.66-1.66A22.72,22.72,0,0,0,113,149l.86-1.78c.31.34.35.77.59,1.09a.6.6,0,0,0,.09.15h0a17.62,17.62,0,0,0,1.12,2.51c.19.74.64,1.38.88,2.23h-2.66Z"/><path class="cls-130" d="M114.52,148.43a.12.12,0,0,1-.09-.15Z"/><path class="cls-161" d="M46.38,148.28c.07.79-.05,1.58.06,2.37l-.06.42a1.47,1.47,0,0,1-.21,0c-.75-.08-.75-.08-.75-.84v-1C45.43,148.35,45.43,148.34,46.38,148.28Z"/><path class="cls-146" d="M58.84,148a.32.32,0,0,1-.13-.28A.25.25,0,0,1,58.84,148Z"/><path class="cls-133" d="M58,147.86a.3.3,0,0,1-.13.27A.27.27,0,0,1,58,147.86Z"/><path class="cls-161" d="M25.7,148.41h1c0,.7,0,1.39,0,2.08,0,.4-.09.44-.52.44s-.47-.11-.46-.44C25.71,149.8,25.7,149.11,25.7,148.41Z"/><path class="cls-160" d="M166.86,152.75a3.5,3.5,0,0,1,1,0c0,.55,0,1.11,0,1.66s-.09.44-.52.44-.47-.11-.46-.44C166.87,153.86,166.86,153.3,166.86,152.75Z"/><path class="cls-114" d="M196.51,147.44a.32.32,0,0,1-.13.28A.25.25,0,0,1,196.51,147.44Z"/><path class="cls-125" d="M197.06,147.73a.3.3,0,0,1-.14-.29A.26.26,0,0,1,197.06,147.73Z"/><path class="cls-114" d="M196.38,147.72a.31.31,0,0,1-.14.29A.26.26,0,0,1,196.38,147.72Z"/><path class="cls-185" d="M9.46,156c0,.16,0,.32,0,.48,0,.52-.17.64-.67.56-.2,0-.3-.12-.3-.31v-1.46c0-.34.27-.32.5-.32s.47,0,.47.35v.7Z"/><path class="cls-186" d="M176.24,147.44l0,.14a1.56,1.56,0,0,0-.4-.1c-.57,0-.57,0-.57-.57,0-.16,0-.32,0-.48,0-.48.33-.68.78-.51a.3.3,0,0,1,.19.33C176.23,146.65,176.23,147,176.24,147.44Z"/><path class="cls-137" d="M198.18,150.27A.35.35,0,0,1,198,150,.28.28,0,0,1,198.18,150.27Z"/><path class="cls-137" d="M198.31,150.54a.15.15,0,0,1-.1-.16A.16.16,0,0,1,198.31,150.54Z"/><path class="cls-142" d="M153.13,150.94a.27.27,0,0,1-.13.26A.26.26,0,0,1,153.13,150.94Z"/><path class="cls-69" d="M132.53,151.9l.18-.15A.23.23,0,0,1,132.53,151.9Z"/><path class="cls-144" d="M60,150.52a.32.32,0,0,1-.13-.29A.28.28,0,0,1,60,150.52Z"/><path class="cls-5" d="M217.8,150.64c.36-.24.72-.08,1.09,0a14.25,14.25,0,0,1,0,2,2.36,2.36,0,0,0-1.09,0Z"/></svg>