<svg xmlns="http://www.w3.org/2000/svg" viewBox="0 0 173.58 70.8"><defs><style>.cls-1{fill:#131313;}.cls-2{fill:#161515;}.cls-3{fill:#6eba47;}.cls-4{fill:#6fbc47;}.cls-5{fill:#6ebc46;}.cls-6{fill:#6dbe47;}.cls-7{fill:#a3a3a3;}.cls-8{fill:#a09e9f;}.cls-9{fill:#86be41;}.cls-10{fill:#61a544;}.cls-11{fill:#62a744;}.cls-12{fill:#61a644;}.cls-13{fill:#6fbe46;}.cls-14{fill:#98cd78;}.cls-15{fill:#191818;}.cls-16{fill:#191918;}.cls-17{fill:#7cb742;}.cls-18{fill:#6fba47;}.cls-19{fill:#70ba47;}.cls-20{fill:#71b948;}.cls-21{fill:#fdfefd;}.cls-22{fill:#f7fbf5;}.cls-23{fill:#f9fcf7;}</style></defs><path class="cls-1" d="M115.78,45A17.12,17.12,0,0,1,112,56.74c-.09.12-.16.24-.26.35-.54.59-1,1.52-1.93,1.25s-.59-1.32-.58-2a15.92,15.92,0,0,0-3.35-9.69c-2.39-3.29-4.46-6.69-5-10.78-.65-5.13-.35-10.2,2.41-14.75a27.73,27.73,0,0,1,6.26-7.32c6.7-5.43,14.74-8.12,22.57-11.25,1.84-.73,3.71-1.39,5.56-2.08,2.16-.79,2.4-.64,3.12,1.44a86.53,86.53,0,0,1,4.84,22c.79,10.88.57,21.75-4.08,31.92-3.56,7.78-9.48,12.95-18.13,14.49a34.68,34.68,0,0,1-15.65-1c-1-.29-2.45-.32-2.75-1.53s1.07-1.58,1.77-2.25a84.28,84.28,0,0,0,10.23-12,96.26,96.26,0,0,0,13.13-26.3,3.18,3.18,0,0,0,.38-2c-1.47,2.79-2.89,5.51-4.32,8.22-.24.45-.35,1.07-1.07,1s-.67-.72-.77-1.22a12.06,12.06,0,0,0-.79-3.07c-.65-.47-.44-1.43-1.1-1.94a4.26,4.26,0,0,1,.8,2.55c.41,2.78.77,5.55-.22,8.3a30,30,0,0,1-5.19,9c-.32.38-.67.73-1.23.51s-.52-.73-.52-1.22c0-.78-.07-1.55-.11-2.32-.55-.74-.35-1.65-.65-2.28C115.48,43.4,115.72,44.19,115.78,45Z"/><path class="cls-2" d="M85.52,45.91a67.54,67.54,0,0,1-.27-14.75c.64-8.06,4-14.78,11.53-18.71a15.84,15.84,0,0,1,5.42-1.93c.62-.08,1.26-.39,1.77.18s.19,1.29-.14,1.88c-3.48,6.23-4.79,13.15-6,20-1.48,8.51-1.74,17.14-2,25.78-.07,2.76.33,5.49.22,8.24,0,1.18-.42,1.68-1.61,1.66q-4.23-.06-8.44,0c-1.06,0-1.64-.48-1.58-1.44.22-3.15-1.55-5.44-3.13-7.88A114.47,114.47,0,0,0,66,40.55c-3.62-3.63-7.38-7.22-11.93-9.76-.63-.36-1-.77-.83-1.49s.74-.89,1.46-.9A29.1,29.1,0,0,1,70.35,33,66.58,66.58,0,0,1,82.8,43.14,17.27,17.27,0,0,0,85.52,45.91Z"/><path class="cls-3" d="M0,51.53C0,46.78.08,42,0,37.28c0-1.44.47-1.83,1.85-1.8,4.65.1,9.31-.06,14,.17a11.34,11.34,0,0,1,10.34,8C27.89,49.8,23.51,56.52,17,57.83a28.8,28.8,0,0,1-5.94.22c-1,0-1.35.22-1.31,1.27.08,2.28,0,4.56,0,6.83,0,1-.34,1.49-1.43,1.47-2.28-.06-4.56-.07-6.83,0C.3,67.66,0,67.16,0,66.06.05,61.22,0,56.37,0,51.53Z"/><path class="cls-4" d="M49,67.6h-.87c-3.64,0-3.67,0-5.05-3.41a1.14,1.14,0,0,0-1.28-.84c-2.18,0-4.37,0-6.54,0-.78,0-1.07.29-1.34,1-1.28,3.29-1.31,3.28-4.85,3.28-1.6,0-3.2,0-4.8,0-1.15,0-1.62-.3-1.15-1.56Q28.61,51.31,34,36.53a1.3,1.3,0,0,1,1.36-1c2.08,0,4.17,0,6.25,0a1.3,1.3,0,0,1,1.38,1q5.46,14.82,11,29.65c.4,1.06,0,1.45-1,1.44Z"/><path class="cls-5" d="M168.54,68.07a5.16,5.16,0,0,0-.88,0c-2.8.5-4.78-.25-5.22-3.39-.09-.64-.5-.83-1.13-.83-2.28,0-4.56,0-6.84,0-.73,0-1,.34-1.2,1-1.3,3.27-1.32,3.26-4.87,3.26h-4.51c-1.87,0-2-.16-1.35-1.88l7.24-19.59c1.18-3.18,2.39-6.34,3.5-9.54a1.59,1.59,0,0,1,1.8-1.25c1.89.06,3.78,0,5.67,0A1.51,1.51,0,0,1,162.46,37q5.41,14.77,10.93,29.52c.41,1.12.22,1.64-1.07,1.59S169.8,68.07,168.54,68.07Z"/><path class="cls-6" d="M56.46,51.56c0-4.8,0-9.6,0-14.4,0-1.79.65-2.12,2.24-1.28a16.57,16.57,0,0,1,5.47,4.24c1.4,1.77,2.58,3.57,2.52,6.1-.16,6.69-.09,13.38,0,20.08,0,1.36-.45,1.78-1.78,1.73-2.27-.09-4.56-.07-6.83,0-1.21,0-1.62-.43-1.61-1.62C56.48,61.45,56.46,56.51,56.46,51.56Z"/><path class="cls-7" d="M123.3,30.81,122.41,28a4.22,4.22,0,0,1,1.19,2.17C123.3,30.3,123.42,30.61,123.3,30.81Z"/><path class="cls-8" d="M115.78,45a7.22,7.22,0,0,1-.64-2.93,5.65,5.65,0,0,1,.89,3h-.13Z"/><path class="cls-9" d="M139.9,1.94a.23.23,0,0,1,.07.22c1,3.83,2.15,7.61,3,11.49a78.36,78.36,0,0,1,1.71,20.65,24,24,0,0,1-5.39,14.62,16.83,16.83,0,0,1-3.24,2.9,2.63,2.63,0,0,1-3.78-.49q-2.91-3.44-5.6-7.06a3.15,3.15,0,0,1-.24-3.3c1.41-3.51,3-7,4.09-10.58,1.91-6.11,3.59-12.27,3.9-18.53-.77,2.14-1.75,4.39-2.7,6.65s-2.15,4.46-3.25,6.67a5.14,5.14,0,0,1-.29.51c-1.72,2.76-3.09,2.86-5.22.46a22.22,22.22,0,0,0-4-4,8.34,8.34,0,0,1-2.14-1.43c-1.91-1.28-3.12-3.22-4.53-5a1.55,1.55,0,0,1-.4-1.19c1-1.65,2.77-2.4,4.33-3.31a105.23,105.23,0,0,1,22.09-9.62C138.82,1.51,139.47,1.11,139.9,1.94Z"/><path class="cls-10" d="M118.7,22c2.11.85,3.43,2.64,4.83,4.26s2.63,1.84,3.84-.11a69.14,69.14,0,0,0,5.29-11c.57-1.43,1.17-2.84,1.87-4.57a15.09,15.09,0,0,1-.21,5.66,91.42,91.42,0,0,1-5.73,20.43c-.64,1.56-1.3,3.12-2,4.67a2.59,2.59,0,0,0,.5,2.92c1.72,2.08,3.37,4.22,5,6.36,1.28,1.67,2.51,1.77,4.17.47,4.88-3.84,7.06-9,7.71-15A71.49,71.49,0,0,0,143,15.69c-.74-4.09-1.8-8.09-2.81-12.1A3.68,3.68,0,0,1,140,2.16a74.71,74.71,0,0,1,4,15,80.33,80.33,0,0,1,.92,22.43,48,48,0,0,1-4.59,17c-5.22,10.41-14.71,14.19-25,13.33a34.91,34.91,0,0,1-9.56-2.1c15.26-14.68,24.36-32.44,28-53a114.26,114.26,0,0,1-8.57,19.12,17.62,17.62,0,0,0-6.55-11.58.19.19,0,0,1-.07-.2C118.65,22,118.67,22,118.7,22Z"/><path class="cls-11" d="M139.9,1.94a1.11,1.11,0,0,0-1-.12,108,108,0,0,0-21.13,9,25.92,25.92,0,0,0-5.83,4,2.42,2.42,0,0,1-1.4,1c-1.42.17-1.93,1.23-2.36,2.38a3.81,3.81,0,0,1-.55,1c-1.22,1.88-1.16,3,.19,4.75,3.7,4.66,7.55,9.19,11.16,13.91.79,1.05,1.44,1,2-.21a7.84,7.84,0,0,0,.68-4.38,22.86,22.86,0,0,0-3.2-9.1c-.33-.57-1-1.09-.65-1.93a.5.5,0,0,1,.6.14,22,22,0,0,1,4.29,10.72c.51,4-.89,7.51-3,10.79A18.19,18.19,0,0,1,117,47.67a21.42,21.42,0,0,0-1.66-7.24,19.47,19.47,0,0,0-6.87-8c-2.68-2-4.84-4.19-4.39-8a21.19,21.19,0,0,0,2.46,19.45,26.23,26.23,0,0,1,4.4,8.79,1.18,1.18,0,0,0,.52.88c1.41-2.48,2.45-5,2.07-7.92a20.08,20.08,0,0,0-4.87-10.54,8.57,8.57,0,0,1-1.44-2c-.14-.32-.2-.73.2-.88s.59.19.69.54a27.68,27.68,0,0,1,5.43,8c2.22,5,1.55,9.51-1.24,13.94-.56.89-1.22,1.7-1.83,2.55-.85-.74-.06-1.78-.49-2.59-.82-4.37-3.12-8-5.61-11.6a17.48,17.48,0,0,1-2.88-8.37c-1.1-11.06,4.31-18.52,13.43-23.66A141.69,141.69,0,0,1,138.56,1C139.71.56,139.79,1.16,139.9,1.94Z"/><path class="cls-12" d="M108.13,32.77c-.2-.12-.48-.39-.59-.33-.38.19-.13.49,0,.69.47.61,1,1.2,1.46,1.79a19.72,19.72,0,0,1,5,11.8c.12,2.64-1,5-2.27,7.24-.11.22-.23.5-.49.46s-.37-.38-.42-.68a23.68,23.68,0,0,0-4.21-9.15,23.4,23.4,0,0,1-3.36-6.53,22.67,22.67,0,0,1,.37-13.8,6.84,6.84,0,0,1,.56-1,2.79,2.79,0,0,1,.23,1.75,6.08,6.08,0,0,0,2.51,5.53,10.33,10.33,0,0,1,1.56,1.89Z"/><path class="cls-12" d="M118.49,22.35l-.66,0c-.65-.4-1.45-.74-.88-1.76.59.48,1.37.72,1.75,1.46v.29l-.09.05Z"/><path class="cls-12" d="M110,54.63c.63.77-.11,1.8.49,2.59-.19.42-.41.61-.46,0C110,56.34,110,55.48,110,54.63Z"/><path class="cls-13" d="M54.45,29.53a26.68,26.68,0,0,1,14.42,3.9c8.63,5,15.16,12.13,20.91,20.09,1.1,1.53,2,3.21,3.14,4.71,1.89,2.49,2.19,5.29,2,8.26,0,.68-.24.93-.93.92q-3.78,0-7.57,0c-.71,0-1-.28-.88-1,.29-2.24-.75-4.08-1.88-5.82-7.77-12-16.9-22.67-28.87-30.7A3.76,3.76,0,0,1,54.45,29.53Z"/><path class="cls-13" d="M102.72,12.05a6.52,6.52,0,0,1-.92,2.25C98.48,21.94,97,30,96,38.2A177.36,177.36,0,0,0,94.8,59.05c-.34.18-.43-.07-.56-.27a75.49,75.49,0,0,0-6.34-9,1.85,1.85,0,0,1-.65-1.54,50,50,0,0,1,1.68-16c1.89-7.16,4.93-13.68,10.72-18.6C100.53,12.89,101.3,11.8,102.72,12.05Z"/><path class="cls-14" d="M102.72,12.05c-2.81,1.23-4.78,3.49-6.59,5.77-4.33,5.46-6.5,11.88-7.72,18.67a51.41,51.41,0,0,0-.88,10.65c0,.38.1.79-.28,1.07-1.79-9.41-2.53-18.76,2.42-27.54a18.64,18.64,0,0,1,12.15-9C102.6,11.48,102.6,11.49,102.72,12.05Z"/><path class="cls-15" d="M.78,51.56c0-4.7,0-9.41,0-14.11,0-1,.26-1.24,1.22-1.22,4.51.05,9-.06,13.53.07A10.49,10.49,0,0,1,25.82,47.19a11.4,11.4,0,0,1-9.75,10.06,47.4,47.4,0,0,1-6,.14c-.88,0-1.17.24-1.15,1.15C9,61,9,63.39,9,65.81c0,.82-.22,1.1-1.06,1.08-2,0-4-.06-6,0-1,0-1.23-.26-1.22-1.21C.8,61,.78,56.27.78,51.56Z"/><path class="cls-15" d="M53.36,66.87c-2.64,0-5.2,0-7.77,0a.94.94,0,0,1-1.07-.74,1.52,1.52,0,0,0-.09-.28c-1.29-3.18-1.29-3.18-4.74-3.18-1.6,0-3.2,0-4.8,0a1.3,1.3,0,0,0-1.48,1c-1.23,3.22-1.26,3.21-4.7,3.2H24.06a2.63,2.63,0,0,1-.43-.11c1.06-2.9,2.09-5.8,3.16-8.68,2.55-6.9,5.14-13.78,7.65-20.69a1.44,1.44,0,0,1,1.66-1.15c1.7.07,3.4,0,5.09,0a1.14,1.14,0,0,1,1.29.86q5.34,14.58,10.75,29.13C53.29,66.39,53.3,66.59,53.36,66.87Z"/><path class="cls-15" d="M172.73,67.41c-2.62,0-5.23,0-7.85,0-.74,0-.84-.5-1-1-1.34-3.31-1.34-3.31-4.93-3.31-1.55,0-3.1,0-4.65,0a1.33,1.33,0,0,0-1.5,1c-.43,1.11-.44,2.66-1.49,3.17s-2.28.12-3.44.12h-5c1.1-3,2.15-5.81,3.19-8.65,2.55-6.89,5.12-13.78,7.61-20.69a1.92,1.92,0,0,1,2.28-1.56,42.42,42.42,0,0,0,4.65,0,1.13,1.13,0,0,1,1.29.85Q167.3,52.23,172.79,67S172.78,67.14,172.73,67.41Z"/><path class="cls-16" d="M57.37,51.85c0-4.8,0-9.6,0-14.4,0-1.13.28-1.21,1.2-.72a16.36,16.36,0,0,1,6.27,5.72,7,7,0,0,1,1.14,4c-.07,6.55-.06,13.1,0,19.64,0,1.06-.23,1.45-1.36,1.4-2-.1-4-.09-6,0-1.07,0-1.29-.35-1.28-1.33C57.4,61.36,57.37,56.61,57.37,51.85Z"/><path class="cls-17" d="M117,20.55c-.14.81.62,1.16.88,1.76a24.37,24.37,0,0,1,4.3,10.91,7.62,7.62,0,0,1-1,5c-.74,1.19-1.43,1.22-2.24.14-3.7-5-7.74-9.7-11.63-14.54a3.8,3.8,0,0,1-.1-4.68c.26-.39.74-.65.73-1.21.8-.85,1.25-2.1,2.61-2.34.54-.2.78-.89,1.45-.88A24.08,24.08,0,0,0,117,20.55Z"/><path class="cls-12" d="M117,41.35c.79.4,1.23,1.18,2.17.88.35-.12.46.35.27.59-.45.59-.63,1.66-1.39,1.67s-.46-1-.68-1.58A9.48,9.48,0,0,1,117,41.35Z"/><path class="cls-12" d="M110.54,15.61,107.93,18C108.51,16.85,108.79,15.41,110.54,15.61Z"/><path class="cls-18" d="M9.21,46.24c0-3.24,0-3.25,3.21-3.23a8.77,8.77,0,0,1,2.45.15,3.28,3.28,0,0,1-.47,6.46c-1.49.11-3,0-4.49.05-.62,0-.71-.32-.7-.82C9.22,48,9.21,47.11,9.21,46.24Z"/><path class="cls-19" d="M36.22,55.52c.05-.32.05-.52.1-.7.69-2.3,1.39-4.6,2.21-7.3.8,2.7,1.49,5,2.2,7.37.19.61-.16.63-.59.63C38.85,55.51,37.56,55.52,36.22,55.52Z"/><path class="cls-20" d="M158.05,48.34,160.32,56c-1.41,0-2.66,0-3.91,0-.79,0-.9-.31-.7-1,.7-2.25,1.38-4.51,2.07-6.76Z"/><path class="cls-21" d="M9.87,46.36c0-2.61,0-2.61,2.67-2.6a16.84,16.84,0,0,1,1.74,0,2.64,2.64,0,0,1,2.46,2.42,2.58,2.58,0,0,1-2.19,2.65,36.21,36.21,0,0,1-4,.11c-.49,0-.66-.26-.64-.73C9.89,47.61,9.87,47,9.87,46.36Z"/><path class="cls-22" d="M38.53,50c.41,1.31.73,2.21.95,3.13.13.54.71,1.3.23,1.58a4.09,4.09,0,0,1-2.09.16c-.66,0-.44-.5-.34-.84C37.65,52.76,38,51.54,38.53,50Z"/><path class="cls-23" d="M157.9,50.34c.55,1.82,1,3.28,1.42,4.76-3,.42-3,.42-2.19-2.27C157.33,52.14,157.56,51.46,157.9,50.34Z"/></svg>