<svg xmlns="http://www.w3.org/2000/svg" viewBox="0 0 102.4 74.2"><defs><style>.cls-1{fill:#007357;}.cls-2{fill:#0d5129;}.cls-3{fill:#0d7459;}.cls-4{fill:#0f7459;}.cls-5{fill:#0c7459;}.cls-6{fill:#1c552d;}.cls-7{fill:#11755a;}.cls-8{fill:#12755a;}.cls-9{fill:#1d552d;}.cls-10{fill:#14755a;}.cls-11{fill:#1f562e;}.cls-12{fill:#20562e;}.cls-13{fill:#1e562e;}.cls-14{fill:#eff1ef;}.cls-15{fill:#eff0ed;}.cls-16{fill:#eaece8;}.cls-17{fill:#11411f;}.cls-18{fill:#f2f3f1;}.cls-19{fill:#f5f6f4;}.cls-20{fill:#fff;}.cls-21{fill:#e8eae6;}.cls-22{fill:#f0f0ee;}.cls-23{fill:#231f20;stroke:#231f20;stroke-miterlimit:10;stroke-width:0.13px;}</style></defs><path class="cls-1" d="M18.37,37.11a.38.38,0,0,0,0-.16c-2.78-3.28-2.78-3.28.3-6.32,3.59-3.54,7.2-7.07,10.76-10.63.32-.31,1.21-.57.55-1.28s-1.07.14-1.42.48C25.07,22.56,21.65,26,18.21,29.33c-1.64,1.6-2.93,1.57-4.45-.06-1.27-1.36-1.25-2.5.19-3.92q6.69-6.63,13.41-13.22A19.32,19.32,0,0,1,29,10.89a11.72,11.72,0,0,0-3.67-.28c-2.47-.09-4.1-1.52-4.14-3.7s1.58-3.82,4.15-3.85c3.19-.05,6.39-.07,9.58,0a3.61,3.61,0,0,0,2.94-1.22c2.44-2.49,3.1-2.45,5.62,0q7,6.9,14,13.8c1.94,1.92,1.93,2.83,0,4.75q-8.07,8-16.16,15.93a2.31,2.31,0,0,0-.79,1.06C38.31,39.76,36,42,33.75,44.19a3.83,3.83,0,0,1-3,.8,10,10,0,0,1-1.26-1.08c-1.63-2.33-1.54-3,.37-5s4.24-3.76,5.79-6.19a14,14,0,0,0,3.74-3.54c-1.51.92-2.55,2.37-3.89,3.5-2.85,3.16-6.25,5.76-9.17,8.86-.81.86-1.91.81-3,.79-.44-.23-.68-.67-1-1-1.74-2-1.72-3.15.11-5,2-2.09,4.19-4,6.07-6.24,2.1-1.77,3.91-3.84,5.87-5.77A59.32,59.32,0,0,0,28.16,30c-2,1.94-3.92,3.91-5.88,5.87A4,4,0,0,1,18.37,37.11Z"/><path class="cls-2" d="M18.37,37.11c3-.13,4.49-2.59,6.42-4.35a26.61,26.61,0,0,1,3.29-3.08.49.49,0,0,1,.59.47c-.4,1.32-1.62,1.94-2.46,2.88-1,1.12-2.12,2.14-3.19,3.21-2.09,2.08-2.13,2.67-.41,4.93-.23.88-1,1.31-1.56,1.93A8,8,0,0,0,19.49,45a17,17,0,0,0,2.35-2c.43-.37.73-1.06,1.51-.75,2.39,0,3.61-1.88,5.12-3.3,2.3-2.17,4.63-4.31,7-6.47.27-.06.37.07.35.32.36.68-.16,1-.54,1.39l-4.37,4.37c-2.45,2.43-2.45,2.43-1.13,5.46,0,.84-.69,1.23-1.17,1.74-1.33,1.39-2.76,2.7-4,4.22a42.66,42.66,0,0,0,4.37-4c.5-.45.85-1.21,1.74-1,2.57-.07,3.83-2.11,5.48-3.59,1.43-1.28,2.45-3,4.3-3.83,2.71,1.91,2.83,3.16.5,5.46-3.79,3.73-7.59,7.46-11.35,11.22-.35.34-1.36.65-.59,1.4s1.06-.27,1.41-.62c3.38-3.27,6.72-6.59,10.08-9.89,1.74-1.71,2.94-1.78,4.44-.29s1.52,2.65-.26,4.4q-6.57,6.51-13.17,13a9.42,9.42,0,0,1-1.37.93l.32.53c1.09,0,2.18,0,3.27,0,2.43.1,4,1.64,4,3.84s-1.59,3.71-4.06,3.75c-3.14.05-6.28.09-9.41,0a4.07,4.07,0,0,0-3.37,1.38c-2.17,2.29-3,2.24-5.25,0q-7.06-7-14.13-13.92c-2-2-2-2.92-.06-4.88Z"/><path class="cls-3" d="M66.64,48.39c.2-.8.41-1.6.6-2.41a2.18,2.18,0,0,1,3-1.46c.56.28.4.75.28,1.15a9.68,9.68,0,0,0,0,5.88c.11.36.24.93-.19,1a6,6,0,0,1-2.15.05c-.52-.07-.46-.66-.31-1,.6-1.18.29-2.41.44-4-.88,1.47-.84,2.84-1.27,4.06-.12.36-.08.87-.57.92-.66.05-.59-.58-.7-1-.31-1.17-.57-2.35-1-3.52a5.21,5.21,0,0,0,.08,3.31c.16.37.31,1-.26,1.13a3.24,3.24,0,0,1-1.8,0c-.47-.16-.28-.76-.15-1.19A11,11,0,0,0,62.74,46c-.12-.57-.54-1.39.33-1.43s2.11-.78,2.57.67c.33,1,.5,2.06.75,3.09Z"/><path class="cls-4" d="M49.34,52.71c-1.18.12-1.62-.14-1.24-1.49a10.08,10.08,0,0,0,0-5.42c-.12-.44-.34-1,.14-1.2a3.1,3.1,0,0,1,2.28,0c.47.21.27.8.09,1.2a2.65,2.65,0,0,0-.26,1.29c0,.64.47.66.94.67s.75-.2.73-.69a3.27,3.27,0,0,0-.11-1c-.18-.52-.57-1.2,0-1.49a3.12,3.12,0,0,1,2.29,0c.36.12.28.59.19.9a10.41,10.41,0,0,0,0,6.2c.1.31.16.78-.2.89a3.76,3.76,0,0,1-2.3,0c-.37-.12-.3-.58-.22-.89A6.34,6.34,0,0,0,52,50.08c0-.62-.18-.91-.86-.9s-.91.28-.84.91a4.27,4.27,0,0,0,.22,1.13C51.07,52.5,50.52,52.86,49.34,52.71Z"/><path class="cls-5" d="M82.14,48.26a2.74,2.74,0,0,0,.17-2.19c-.23-.52-.57-1.18,0-1.47a2.32,2.32,0,0,1,2.1,0c.57.34.1,1,0,1.49-.39,1.76-.08,3.56-.19,5.33,0,.49.29,1.19-.63,1.27-.66,0-1.19,0-1.47-.76A20.15,20.15,0,0,0,80.6,48.9a3.54,3.54,0,0,0,.08,2.4c.22.44.43,1.11-.13,1.31a2.51,2.51,0,0,1-2.11-.06c-.44-.27-.18-.8-.06-1.23a10.63,10.63,0,0,0,.05-5.4c-.12-.52-.56-1.18.23-1.37s1.59-.43,2,.55S81.66,47.21,82.14,48.26Z"/><path class="cls-6" d="M59.29,35.58c-.29-1.17.51-2.55-.74-3.66-.37-.33-.06-1,.66-.94,1.35,0,2.7-.06,4,0s2.07,1.91,1.4,3.67c-.6,1.56.15,2.89.63,4.24.12.34.44.69.26,1-.34.63-1,.3-1.52.35s-.77-.09-.76-.63c0-.73,0-1.46,0-2.18.08-1.1-.48-1.28-1.43-1.31s-1,.59-1,1.29c0,.5,0,1,0,1.51s.25,1.24-.61,1.3c-.54,0-1.22.29-1.59-.19s.12-.85.42-1.33C59.61,37.87,59.16,36.69,59.29,35.58Z"/><path class="cls-7" d="M59.56,48.31a11.49,11.49,0,0,0-.24-2.14c-.15-.53-.6-1.11-.1-1.51s1.29-.2,1.94-.13.54.62.39.92c-.77,1.59-.29,3.29-.44,4.93s-1,2.54-2.67,2.53S56,52.18,55.85,50.5s.33-3.45-.48-5.1c-.13-.26-.13-.76.28-.84a4.18,4.18,0,0,1,2.3.06c.36.14.31.65.18.9-.73,1.38-.33,2.84-.41,4.27,0,.62,0,1.35.86,1.36s.89-.69.91-1.33,0-1,0-1.51Z"/><path class="cls-8" d="M94.12,46.27a9.36,9.36,0,0,0-.22,5c.14.48.37,1.15-.22,1.31a3.76,3.76,0,0,1-2.13-.05c-.55-.19-.26-.83-.11-1.32.48-1.64.11-3.29.22-5-.26.06-.4,0-.46.11-.41.49,0,1.91-1.26,1.4-1.08-.42-.36-1.56-.49-2.37-.19-1.07.61-1,1.28-.94h3c2.29,0,2.3,0,2.18,2.26,0,.46.18,1-.62,1.12s-1-.34-1-1A1.75,1.75,0,0,0,94.12,46.27Z"/><path class="cls-9" d="M82.35,35.26c.36,1.21-.64,2.84.64,4.2.25.26,0,.76-.49.83-.22,0-.44,0-.66,0-4.08.17-5-.94-4.13-5,.23-1.08,1-1.19,1.89-1.21,1.26,0,1.73-.87,1-1.83-.31-.38-.65-.71-.35-1.08s1-.22,1.58-.22.57.43.57.84Z"/><path class="cls-10" d="M99.46,47.13a2,2,0,0,0,.77-1.53c.06-.45-.18-1.11.63-1.11.48,0,1.1-.26,1.4.24a1.37,1.37,0,0,1-.18,1.42c-.51.86-.93,1.79-1.4,2.67a2.55,2.55,0,0,0-.19,2.26c.22.53.57,1.19,0,1.49a2.39,2.39,0,0,1-2.25,0c-.55-.33-.13-1,0-1.51.56-1.86-.83-3.16-1.45-4.66-.24-.57-.76-1.12-.3-1.68s1-.16,1.6-.21.77.33.74.85A2.53,2.53,0,0,0,99.46,47.13Z"/><path class="cls-11" d="M74.72,40.31c-.44,0-.89,0-1.34,0-1.2,0-1.69-.49-1.69-1.71s.4-1.82,1.64-1.78a5,5,0,0,0,.67,0c.39,0,1,.21,1-.5,0-.26,0-.66-.16-.76-.43-.28-1.13-.36-1.39,0-.44.61-.86.85-1.5.47-.32-.2-.19-.63-.11-.93a1.24,1.24,0,0,1,1.38-1h1.84c.88,0,1.27.46,1.38,1.34.16,1.36-.53,2.85.68,4.07.24.24,0,.75-.57.76Z"/><path class="cls-12" d="M94.87,37.3c0,.23,0,.45,0,.67-.07.79.33,1.84-.72,2.18a5,5,0,0,1-3.27,0c-.52-.19-.59-.76-.59-1.28,0-1.06,0-2.11,0-3.17,0-1.72,1.26-1.5,2.37-1.52s2.22-.1,2.21,1.5c0,.56,0,1.12,0,1.67Z"/><path class="cls-6" d="M70.81,37.23c0,.22,0,.45,0,.67-.09.79.35,1.85-.67,2.22a5,5,0,0,1-3.29,0,.79.79,0,0,1-.53-.79,20.82,20.82,0,0,1,0-4.18c.3-1.61,1.8-.86,2.81-1s1.57.2,1.62,1.23c0,.62,0,1.23,0,1.85Z"/><path class="cls-7" d="M87.12,44.49c1.2-.16,1.56.18,1.22,1.49a11.26,11.26,0,0,0,0,5.29c.11.49.42,1.15-.13,1.33a3.71,3.71,0,0,1-2.14,0c-.56-.17-.3-.85-.18-1.33a10.85,10.85,0,0,0,0-5.28C85.61,44.76,85.84,44.3,87.12,44.49Z"/><path class="cls-13" d="M88.13,32.44c.38,0,.71.11.68.53a1.17,1.17,0,0,0,.81,1.37c.29.11.26.63,0,.88a2.64,2.64,0,0,0,0,4.08c.4.44.17,1-.54,1a1.48,1.48,0,0,1-1.73-1.56c-.12-1.26.43-2.61-.6-3.79C86.43,34.56,87.7,32.42,88.13,32.44Z"/><path class="cls-14" d="M28.67,30.15l-.59-.47,5.85-5.94c.28-.28.56-.59,1-.18.26.25.47.53.12.84-2.1,1.88-3.78,4.2-6.18,5.75C28.8,30.17,28.73,30.15,28.67,30.15Z"/><path class="cls-15" d="M30.7,44.84c-1.83,1.79-3.67,3.59-5.52,5.36-.31.3-.58,1-1.19.37s0-.87.31-1.18c1.8-1.83,3.62-3.64,5.43-5.45C30.25,44,30.69,44.2,30.7,44.84Z"/><path class="cls-16" d="M23.35,42.17,20,45.39c-.31.3-.58.72-1.08.22s-.08-.78.23-1.08c1.14-1.13,2.3-2.24,3.45-3.36C23,41.41,23.44,41.58,23.35,42.17Z"/><path class="cls-14" d="M35.77,32.72l-.35-.32A35.55,35.55,0,0,1,39,28.69c.29-.32.58-.51,1-.14s.36.54.06.83c-1.14,1.13-2.28,2.27-3.47,3.36C36.41,32.86,36,32.73,35.77,32.72Z"/><path class="cls-17" d="M24.94,61c-.07.94-.73,1-1.44,1a15.25,15.25,0,0,0-4.93.62,10.44,10.44,0,0,0-2.93,1.56c-.65.44-1.31.87-1.9.1s0-1.37.56-1.87A9.9,9.9,0,0,1,19.71,60a33.5,33.5,0,0,1,4,0C24.42,60,24.92,60.23,24.94,61Z"/><path class="cls-18" d="M60.85,33.54c-.2-.88.13-1.24,1.13-1.22s1.25.35,1.27,1.28S62.91,35,61.89,35,60.77,34.37,60.85,33.54Z"/><path class="cls-5" d="M77.43,51.49a33.69,33.69,0,0,1-1.37-5.84c-.2-1-.67-1.26-1.6-1.19s-1.6-.15-1.81,1.12a28.09,28.09,0,0,1-1.3,5.85c-.16.4-.29,1,.21,1.17a3.59,3.59,0,0,0,2,0c.49-.15.33-.77.15-1.16s-.49-.74,0-1a1.58,1.58,0,0,1,1.13,0c.39.16.2.5,0,.83-.5,1.16,0,1.53,1.05,1.39C77.5,52.74,77.84,52.51,77.43,51.49ZM74.2,49.21c-.44,0-.53-.32-.47-.67.1-.59.24-1.17.35-1.75h.26c.12.58.25,1.16.35,1.75C74.75,48.91,74.63,49.21,74.2,49.21Z"/><path class="cls-19" d="M79,37.25c.48-.55-.66-1.82.93-1.85s.79,1.28.87,2S81.44,39,80,39.08C78.42,39.12,79.38,37.88,79,37.25Z"/><path class="cls-20" d="M74.06,38c.48,0,1,0,.93.54s-.56.54-1,.55-.85,0-.84-.53C73.17,37.85,73.77,38.07,74.06,38Z"/><path class="cls-21" d="M93.48,37.26c0,.39,0,.78,0,1.17,0,.65-.46.65-.93.66s-.77-.12-.78-.63,0-1.23,0-1.85-.18-1.25.84-1.25.9.59.89,1.22Z"/><path class="cls-22" d="M69.39,37.19c0,.44,0,.88,0,1.32,0,.67-.57.66-1,.55-1.5-.41-.47-1.64-.7-2.47-.15-.52-.22-1.28.79-1.2.45,0,.92,0,.9.64,0,.39,0,.77,0,1.16Z"/><path class="cls-23" d="M86.58,58.1v.31H85V56h1.56v.29H85.31V57H86.4v.29H85.31v.77Z"/><path class="cls-23" d="M87.91,57.4l-.58-.13a.63.63,0,0,1-.35-.2.65.65,0,0,1-.11-.39.67.67,0,0,1,.21-.54,1.05,1.05,0,0,1,.65-.17l.33,0,.28,0v.29l-.31,0h-.3a.68.68,0,0,0-.41.08.36.36,0,0,0-.12.31.33.33,0,0,0,0,.21.39.39,0,0,0,.18.1l.58.13a.71.71,0,0,1,.41.21.65.65,0,0,1,.1.41.7.7,0,0,1-.2.56,1.06,1.06,0,0,1-.65.16,3.19,3.19,0,0,1-.45,0,1.84,1.84,0,0,1-.35-.08V58a2.23,2.23,0,0,0,.39.09,2.75,2.75,0,0,0,.41,0,.68.68,0,0,0,.4-.08c.08-.06.11-.16.11-.33a.31.31,0,0,0-.05-.21A.41.41,0,0,0,87.91,57.4Z"/><path class="cls-23" d="M90.57,56v.29h-.79v2.11h-.33V56.3h-.79V56Z"/><path class="cls-23" d="M91.6,58.41h-.69V56h.69a2.32,2.32,0,0,1,.59.06.72.72,0,0,1,.34.2.78.78,0,0,1,.19.36,2.29,2.29,0,0,1,.06.58,1.26,1.26,0,0,1-.28.91A1.2,1.2,0,0,1,91.6,58.41Zm.69-1.91a.48.48,0,0,0-.25-.15,1.61,1.61,0,0,0-.44-.05h-.37v1.8h.37a.84.84,0,0,0,.66-.2,1,1,0,0,0,.19-.69,1.78,1.78,0,0,0,0-.44A.67.67,0,0,0,92.29,56.5Z"/><path class="cls-23" d="M95.19,58.1v.31H93.71V58.1l.87-1a1.15,1.15,0,0,0,.19-.28.54.54,0,0,0,.06-.25.3.3,0,0,0-.1-.25.37.37,0,0,0-.27-.09,2.3,2.3,0,0,0-.35,0l-.28.06v-.29l.33-.07.35,0a.65.65,0,0,1,.48.16.59.59,0,0,1,.16.45.77.77,0,0,1-.07.34,1.11,1.11,0,0,1-.23.35l-.75.83Z"/><path class="cls-23" d="M97.34,57.2a1.78,1.78,0,0,1-.2,1,.84.84,0,0,1-.71.27,1.3,1.3,0,0,1-.5-.08.53.53,0,0,1-.27-.26,1.1,1.1,0,0,1-.1-.36,3.74,3.74,0,0,1,0-.54,1.7,1.7,0,0,1,.2-1,.81.81,0,0,1,.71-.28,1.3,1.3,0,0,1,.5.08.61.61,0,0,1,.28.27,1.26,1.26,0,0,1,.09.35A2.66,2.66,0,0,1,97.34,57.2Zm-.4-.64a.4.4,0,0,0-.16-.23.82.82,0,0,0-.35-.06.49.49,0,0,0-.46.19,1.57,1.57,0,0,0-.12.74A1.53,1.53,0,0,0,96,58a.5.5,0,0,0,.46.18.49.49,0,0,0,.46-.19A1.54,1.54,0,0,0,97,57.2a3.79,3.79,0,0,0,0-.38A1.5,1.5,0,0,0,96.94,56.56Z"/><path class="cls-23" d="M98.62,58.41h-.33V56.29l-.71.09V56.1l1-.13Z"/><path class="cls-23" d="M99.94,58.44a.76.76,0,0,1-.65-.26,1.6,1.6,0,0,1-.19-.91,1.65,1.65,0,0,1,.24-1,1,1,0,0,1,.81-.3h.19l.15,0v.28h-.34a.7.7,0,0,0-.54.17,1,1,0,0,0-.18.61,1.81,1.81,0,0,1,.33-.14,2,2,0,0,1,.35,0,.63.63,0,0,1,.49.18,1,1,0,0,1-.06,1.17A.78.78,0,0,1,99.94,58.44Zm.51-.82a.54.54,0,0,0-.11-.37.46.46,0,0,0-.35-.1.92.92,0,0,0-.29,0,1.39,1.39,0,0,0-.28.12,1.35,1.35,0,0,0,.11.64.44.44,0,0,0,.4.18.47.47,0,0,0,.52-.51Z"/></svg>