<svg xmlns="http://www.w3.org/2000/svg" viewBox="0 0 113.51 122.6"><defs><style>.cls-1{fill:#76b844;}.cls-2{fill:#faef5d;}.cls-3{fill:#78b945;}.cls-4{fill:#d2df66;}.cls-5{fill:#231f20;}</style></defs><path class="cls-1" d="M50.3,53.58q0,11.12.05,22.24c0,8.91,0,17.83,0,26.74,0,1.08-.25,1.36-1.34,1.36q-23.83-.06-47.68,0c-.72,0-1.35.17-1.35-1,.05-16.33,0-32.65,0-49a1.45,1.45,0,0,1,0-.29A2.45,2.45,0,0,1,2,53.11H48.38A2.45,2.45,0,0,1,50.3,53.58Z"/><path class="cls-2" d="M80.17,103.89c-8,0-15.89,0-23.83,0-1.11,0-1.36-.31-1.36-1.38q0-23.83,0-47.67c0-1,.21-1.32,1.27-1.32q23.9,0,47.81,0c1,0,1.28.3,1.28,1.3q0,23.83,0,47.67c0,1.23-.43,1.39-1.49,1.39C96,103.87,88.06,103.89,80.17,103.89Z"/><path class="cls-2" d="M50.3,53.58H.08Q0,40,0,26.41C0,20.7.06,15,0,9.27,0,8.2.25,7.88,1.36,7.88q23.84.06,47.66,0c.93,0,1.36.13,1.35,1.23q-.06,22,0,44A3.13,3.13,0,0,1,50.3,53.58Z"/><path class="cls-1" d="M99.5,46c-3.15-1.17-6.09-2.36-9.1-3.36C86.6,41.35,83,41.36,80,44.54c-.48-.4-.27-.87-.27-1.26,0-10.07,0-20.15,0-30.23a2.51,2.51,0,0,1,1-2.1,9.77,9.77,0,0,1,8-2.08c3.4.43,6.74,1.26,10.19,1.3,1,0,.68.76.68,1.24,0,5.28,0,10.56,0,15.84Z"/><path class="cls-1" d="M77.58,44.6c-.13,0-.25,0-.31-.06-3.18-3-6.81-3.16-10.76-1.78-2.77,1-5.43,2.21-8.31,3.23V42.24c0-10.22,0-20.45,0-30.67,0-1,.19-1.42,1.31-1.4,3,0,5.92-.81,8.88-1.26a9.77,9.77,0,0,1,8.7,2.53,1.74,1.74,0,0,1,.62,1.37q0,15.71,0,31.41A1.89,1.89,0,0,1,77.58,44.6Z"/><path class="cls-3" d="M54.42,29.54V12.39a8.49,8.49,0,0,1,0-1,1.15,1.15,0,0,1,1.25-1.15c.92,0,.53.79.53,1.21,0,11.24,0,22.48,0,33.72,0,1.32.31,1.7,1.66,1.69q21-.08,42,0c1.42,0,1.64-.47,1.63-1.73q-.06-16.71,0-33.43c0-.48-.55-1.43.54-1.45s1.24.7,1.24,1.59q0,17.66,0,35.32c0,1.51-.9,1.75-2.08,1.75h-15c-.77,0-1.62-.27-1.77,1-.06.56-.78.75-1.43.74q-4.22,0-8.43,0c-.71,0-1.41-.26-1.48-.89-.11-1.09-.79-.87-1.42-.87h-15c-2,0-2.33-.32-2.33-2.36Z"/><path class="cls-4" d="M104.79,5.3A6.42,6.42,0,0,1,103,9.22c-.39.49-.69.44-1.17,0a6,6,0,0,1-.21-8.88c.58-.57.9-.43,1.36.08A6.79,6.79,0,0,1,104.79,5.3Z"/><path class="cls-4" d="M108.8,13.75a5.79,5.79,0,0,1-4.47-2c-.48-.5-.49-.8,0-1.28a6.34,6.34,0,0,1,8.67,0c.7.63.63,1,0,1.56A6.71,6.71,0,0,1,108.8,13.75Z"/><path class="cls-4" d="M106.73,7.65c-1,.19-1.12-.29-1-1.24.48-3.56,2.64-5.69,5.91-5.85,1-.05,1.29.24,1.24,1.21A6.23,6.23,0,0,1,106.73,7.65Z"/><path class="cls-5" d="M22,120.17v-2.82h1V118a2.08,2.08,0,0,0,1.83,1.27,1.43,1.43,0,0,0,1-.35,1.18,1.18,0,0,0,.4-.93.91.91,0,0,0-.33-.79,3.6,3.6,0,0,0-1.22-.49,9.11,9.11,0,0,1-1.55-.52,2.11,2.11,0,0,1-.8-.71,2.19,2.19,0,0,1,.35-2.66,2.35,2.35,0,0,1,1.64-.58,2.82,2.82,0,0,1,1.73.6v-.52h1v2.36H26v-.54a1.88,1.88,0,0,0-1.65-.9,1.43,1.43,0,0,0-1,.29.89.89,0,0,0-.34.7.94.94,0,0,0,.17.55,1,1,0,0,0,.45.35,7.37,7.37,0,0,0,1.05.31,8.65,8.65,0,0,1,1.49.5,2.05,2.05,0,0,1,.8.78A2.28,2.28,0,0,1,27.3,118a2.16,2.16,0,0,1-.7,1.64,2.49,2.49,0,0,1-1.74.65,2.79,2.79,0,0,1-1.91-.77v.64Z"/><path class="cls-5" d="M28.87,119.23v-5.89h-1v-.94h2v3a3,3,0,0,1,1.82-.77,1.57,1.57,0,0,1,.88.23,1.09,1.09,0,0,1,.47.59,3.25,3.25,0,0,1,.13,1.07v2.73h.92v.94h-2v-3.3a6.58,6.58,0,0,0,0-.83.58.58,0,0,0-.22-.34.63.63,0,0,0-.41-.13,2.88,2.88,0,0,0-1.57.7v3h.94v.94h-3v-.94Z"/><path class="cls-5" d="M40.15,119.23v.94H38.29v-.66a2.39,2.39,0,0,1-1.72.75,1.87,1.87,0,0,1-1.28-.48,1.58,1.58,0,0,1-.55-1.23,1.6,1.6,0,0,1,.58-1.25,2.09,2.09,0,0,1,1.4-.5,2.76,2.76,0,0,1,1.47.46v-.53a2.08,2.08,0,0,0-.08-.64.82.82,0,0,0-.37-.4,1.39,1.39,0,0,0-.75-.18,1.24,1.24,0,0,0-1.16.63l-1-.26a2.41,2.41,0,0,1,2.33-1.27,3.06,3.06,0,0,1,1.06.17,1.63,1.63,0,0,1,.66.42,1.37,1.37,0,0,1,.29.56,4.47,4.47,0,0,1,.08,1v2.5Zm-2-1.07a2.23,2.23,0,0,0-1.39-.53,1.09,1.09,0,0,0-.74.25.85.85,0,0,0-.3.67.9.9,0,0,0,.26.64,1,1,0,0,0,.71.25,2.09,2.09,0,0,0,1.46-.65Z"/><path class="cls-5" d="M41.36,121.66v-6h-.91v-.95h2v.85a2.43,2.43,0,0,1,1.92-.93,2.47,2.47,0,0,1,1.88.78,2.82,2.82,0,0,1,.75,2,2.71,2.71,0,0,1-.81,2.07,2.6,2.6,0,0,1-3.74-.07v2.16h1v.94H40.37v-.94Zm1-4.11a2.06,2.06,0,0,0,.18.85,1.76,1.76,0,0,0,.59.69,1.65,1.65,0,0,0,.94.27,1.71,1.71,0,0,0,1.26-.5,1.93,1.93,0,0,0,.49-1.4,1.76,1.76,0,0,0-.51-1.35,1.67,1.67,0,0,0-1.18-.49,1.73,1.73,0,0,0-1.24.53A1.9,1.9,0,0,0,42.41,117.55Z"/><path class="cls-5" d="M53.59,117.74H49a1.91,1.91,0,0,0,.59,1.21,1.76,1.76,0,0,0,1.26.46,2,2,0,0,0,1.76-.89l.94.41A2.82,2.82,0,0,1,52.4,120a3.55,3.55,0,0,1-1.53.34,3.15,3.15,0,0,1-2.13-.77,2.9,2.9,0,0,1,0-4.14,2.79,2.79,0,0,1,2-.81,2.88,2.88,0,0,1,2,.79A3,3,0,0,1,53.59,117.74Zm-1.1-.77a1.94,1.94,0,0,0-.59-1,1.66,1.66,0,0,0-1.18-.46,1.55,1.55,0,0,0-1.09.42,1.76,1.76,0,0,0-.55,1.08Z"/><path class="cls-5" d="M62.68,116.42h2.83v.27a3.39,3.39,0,0,1-1.07,2.62,4,4,0,0,1-2.84,1,3.93,3.93,0,0,1-3.14-1.2,4.21,4.21,0,0,1-1-2.84,4,4,0,0,1,1-2.85,3.72,3.72,0,0,1,2.87-1.13,3.92,3.92,0,0,1,2.73,1v-.87h1V115h-1a2.85,2.85,0,0,0-1-1.14,2.81,2.81,0,0,0-1.63-.5,2.52,2.52,0,0,0-2,.86,3,3,0,0,0-.74,2.07,2.93,2.93,0,0,0,.84,2.21,2.79,2.79,0,0,0,2,.82,2.75,2.75,0,0,0,1.65-.52,1.91,1.91,0,0,0,.85-1.35h-1.4Z"/><path class="cls-5" d="M67.4,119.23v-3.52H66.31v-.95h1.94V116a2.12,2.12,0,0,1,.49-.79,1.75,1.75,0,0,1,.68-.41,3.55,3.55,0,0,1,1-.1h.28v1.07h-.22a3.34,3.34,0,0,0-1.21.17,1.08,1.08,0,0,0-.59.58,4.21,4.21,0,0,0-.19,1.54v1.19h1.18v.94H66.31v-.94Z"/><path class="cls-5" d="M76.39,117.74H71.85a1.91,1.91,0,0,0,.59,1.21,1.74,1.74,0,0,0,1.25.46,2.06,2.06,0,0,0,1.77-.89l.93.41A2.76,2.76,0,0,1,75.2,120a3.49,3.49,0,0,1-1.53.34,3.14,3.14,0,0,1-2.12-.77,2.65,2.65,0,0,1-.88-2.09,2.69,2.69,0,0,1,.86-2,2.79,2.79,0,0,1,2-.81,2.86,2.86,0,0,1,2,.79A3,3,0,0,1,76.39,117.74ZM75.3,117a2,2,0,0,0-.59-1,1.68,1.68,0,0,0-1.18-.46,1.53,1.53,0,0,0-1.09.42,1.83,1.83,0,0,0-.56,1.08Z"/><path class="cls-5" d="M83,117.74H78.41A1.91,1.91,0,0,0,79,119a1.76,1.76,0,0,0,1.26.46,2,2,0,0,0,1.76-.89l.94.41A2.82,2.82,0,0,1,81.77,120a3.57,3.57,0,0,1-1.54.34,3.14,3.14,0,0,1-2.12-.77,2.9,2.9,0,0,1,0-4.14,2.79,2.79,0,0,1,2-.81,2.88,2.88,0,0,1,2,.79A3.08,3.08,0,0,1,83,117.74Zm-1.1-.77a1.94,1.94,0,0,0-.59-1,1.66,1.66,0,0,0-1.18-.46,1.53,1.53,0,0,0-1.09.42,1.76,1.76,0,0,0-.55,1.08Z"/><path class="cls-5" d="M85.7,114.76v.66a3.32,3.32,0,0,1,1.87-.74,1.42,1.42,0,0,1,.87.25,1.12,1.12,0,0,1,.45.61,4,4,0,0,1,.1,1v2.64h.92v.94h-2v-3.53a1.26,1.26,0,0,0-.18-.81.64.64,0,0,0-.45-.18,2.77,2.77,0,0,0-1.6.68v2.9h.94v.94h-3v-.94h1v-3.52h-1v-.95Z"/></svg>