<svg xmlns="http://www.w3.org/2000/svg" viewBox="0 0 135.62 67.76"><defs><style>.cls-1{fill:#fff;}.cls-2{fill:#986527;}.cls-3{fill:#986528;}.cls-4{fill:#976427;}.cls-5{fill:#976527;}.cls-6{fill:#986628;}.cls-7{fill:#986729;}.cls-8{fill:#dbdbda;}.cls-9{fill:#ccb588;}.cls-10{fill:#f8f5ef;}.cls-11{fill:#f5f0e8;}.cls-12{fill:#f3eee4;}.cls-13{fill:#fffefe;}.cls-14{fill:#fcfbf9;}.cls-15{fill:#231f20;}</style></defs><path class="cls-1" d="M0,0Q67,0,133.87,0c1.46,0,1.75.29,1.75,1.74q-.1,28,0,56c0,1.27-.26,1.53-1.53,1.53q-66.27-.06-132.55,0C.26,59.28,0,59,0,57.75Q.08,28.91,0,0Z"/><path class="cls-2" d="M43.54,8.93a16.65,16.65,0,0,1,12,5.86,94.73,94.73,0,0,0,12.08,12C76,33.53,87,31.54,92.93,27.86c7.44-4.66,11.35-13.77,9.9-23-.13-.83-.56-1.7,1-2s1.47.42,1.63,1.39A26.63,26.63,0,0,1,89.32,32.88l-2.31,1,15,18.45c-.38.76-.94.45-1.37.45-6,0-12.07,0-18.11,0a2.19,2.19,0,0,1-2.45-1.69c-1.71-4.55-3.57-9.05-5.38-13.57-.28-.7-.45-1.41-1.35-1.76C66.64,33.2,61.76,28.28,57.18,23c-2-2.31-4-4.59-5.92-7C47.65,11.48,42.87,9.5,37.2,9.36c-.09-.52.27-.58.63-.57A41.89,41.89,0,0,1,43.54,8.93Z"/><path class="cls-2" d="M79.21,4.72A12.43,12.43,0,0,1,91.64,17.08a12.51,12.51,0,0,1-25-.17A12.4,12.4,0,0,1,79.21,4.72Z"/><path class="cls-3" d="M19.67,54.56h-10c-.64,0-1.34.08-1.54-.76s.34-1.16,1-1.36c1.28-.39,1.47-1.44,1.48-2.53,0-7.38,0-14.76,0-22.14,0-1.21-.24-2.41-1.84-2.68a.92.92,0,0,1-.65-1.18c.1-.52.55-.65,1-.7A13.56,13.56,0,0,1,11,23.14c5.4,0,10.8,0,16.19,0,2.22,0,4.12,3,3.14,5-.38.77-1,.51-1.35,0-3.45-4.27-8.19-2.53-12.5-2.64a1.85,1.85,0,0,0-1.93,2.09c0,2.62,0,5.25-.08,7.87,0,.75.15,1.19,1.05,1.17,2.56,0,5.12,0,7.67-.07a7.27,7.27,0,0,0,2-.66c.57-.21,1.09-1.36,1.72-.35a4,4,0,0,1,.1,4c-.55,1-1.28.19-1.93-.23-1.62-1-3.46-.56-5.2-.56s-4.06-.81-5.08.35c-.86,1-.29,3.23-.3,4.92s.07,3.26.06,4.89c0,1.82.72,3.09,2.62,3.23a35.51,35.51,0,0,0,8.68-.11,9.26,9.26,0,0,0,4.52-2.63c.37-.33.77-.71,1.32-.46s.36.89.32,1.32a28.12,28.12,0,0,1-.51,3.14c-.24,1.1-1.11,1.09-2,1.09C26.2,54.55,22.94,54.56,19.67,54.56Z"/><path class="cls-4" d="M109.58,36.59c1.92-1.25,3.59-2.38,5.73-2.52,5.57-.37,8.58,2.28,8.71,7.85.07,2.69,0,5.39,0,8.09,0,1.16,0,2.29,1.4,2.74a.87.87,0,0,1,.65,1.16,1.14,1.14,0,0,1-1.21.65c-1.64,0-3.27,0-4.9,0-.44,0-.87,0-1-.53a.92.92,0,0,1,.43-1.27c1.42-.63,1.3-1.86,1.29-3.07,0-2.55-.2-5.13,0-7.66.47-4.81-3.3-6.64-7.64-5.13-2.9,1-3.48,1.92-3.48,4.92,0,2.7,0,5.4,0,8.09,0,1.19.16,2.28,1.48,2.76a1,1,0,0,1,.74,1.13c-.13.76-.71.77-1.3.77-1.7,0-3.41,0-5.11,0-.43,0-1,.25-1.24-.44a1.07,1.07,0,0,1,.7-1.38c1.55-.46,1.57-1.71,1.57-2.89,0-7.52,0-15,0-22.56,0-1-.22-1.8-1.32-2.15-.46-.14-1.21-.3-.8-1.13s4-2.09,4.62-1.78c.83.4.62,1.19.63,1.87C109.59,28.18,109.58,32.27,109.58,36.59Z"/><path class="cls-5" d="M48,51c-2.15,2.36-4.4,3.75-7.39,3.62s-6.13-1.92-6.8-4.21c-.85-3,.25-5.78,3.07-7.75A13.58,13.58,0,0,1,46,40.52c1.85.16,1.78-.64,1.21-1.9a6.09,6.09,0,0,0-7.43-2.85,28.78,28.78,0,0,0-2.88,1.33c-.75.36-1.51.64-2-.32s.2-1.52.86-1.88a11.38,11.38,0,0,1,11-.44C50,36,51,38.81,51,42.14c0,2.55,0,5.11.06,7.66,0,1,.06,2,1.39,2.28a.86.86,0,0,1,.72.93c-.06.6-.56.71-1.07.83C49.3,54.48,48.22,53.86,48,51Z"/><path class="cls-4" d="M61,39a14,14,0,0,1,3.64-4.36,3.37,3.37,0,0,1,3.44-.31c1,.46,1.09,1.55,1,2.58s-.64,1.27-1.57,1.11c-3.38-.61-5.24.62-6.06,4.07C60.76,45,61.15,48,61.1,51c0,.9.62,1.34,1.39,1.67a.94.94,0,0,1,.62,1.19,1.06,1.06,0,0,1-1.14.75q-2.44,0-4.89,0c-.62,0-1.13-.16-1.26-.86a.94.94,0,0,1,.74-1.12c1.22-.37,1.35-1.3,1.34-2.35,0-3,0-5.94,0-8.92,0-1.64-.43-3.06-2.11-3.8-1.08-.47-.91-1.12-.16-1.76a13.81,13.81,0,0,1,1.69-1.27c1.45-.91,2.4-.46,2.83,1.15C60.42,36.64,60.65,37.65,61,39Z"/><path class="cls-6" d="M111.93,18.77c-.7,0-1.4,0-2.1,0-.47,0-1.09.22-1.37-.26-.37-.64.49-.72.67-1.12a3.1,3.1,0,0,0,.34-1.2c0-3.47,0-6.95,0-10.43a1.86,1.86,0,0,0-.3-1.2c-.23-.31-1.21-.3-.57-1a2.1,2.1,0,0,1,1.74-.65c.73.09.55.72.56,1.18,0,1.77,0,3.55,0,5.32.15.05.3.16.38.13,4.76-2.07,6.74-.76,6.79,4.44,0,1.48-.53,3.12,1.13,4.43a6.5,6.5,0,0,1-3.8.19c1.63-2.26.9-4.69.91-7,0-1.22-1-1.78-2.25-1.75s-3,.37-3,1.73C111,13.84,110,16.38,111.93,18.77Z"/><path class="cls-7" d="M129.49,16.34a5,5,0,0,1-6.76,2.08,4.93,4.93,0,0,1-1.88-7c1.3-2.44,4.46-3.64,6.68-2.51a2.55,2.55,0,0,1,1.68,2.25,2.64,2.64,0,0,1-1.45,2.42,9.94,9.94,0,0,1-4.65,1.29c-1.55.1-.94.83-.54,1.43a3.73,3.73,0,0,0,4.94.87C128.08,16.88,128.4,16.05,129.49,16.34Z"/><path class="cls-8" d="M97.62,53.73a11,11,0,0,1,4,.4c.49.12,1.34-.28,1.34.58,0,.66-.8.74-1.33.83a45.15,45.15,0,0,1-5,.68c-3,.15-6,.71-9.11.47-3.65-.3-7.32-.55-11-.93a3.89,3.89,0,0,1-2.82-1.41c2.1-.16,3.81-.81,5.65-.61A29.55,29.55,0,0,0,97.62,53.73Z"/><path class="cls-8" d="M97.62,53.73c0,.92-.82,1-1.37,1.05-4.21.82-8.44,1.74-12.71.4-1.41-.44-3.23.28-4.2-1.44A81.56,81.56,0,0,1,97.62,53.73Z"/><path class="cls-9" d="M43.54,8.93c-2.11.29-4.28-.49-6.34.43A3.17,3.17,0,0,1,35,9.12,16.58,16.58,0,0,1,43.54,8.93Z"/><path class="cls-10" d="M71.38,20.58c3.45,3.74,7.49,5.16,12.65,3.21C80.15,27.52,73.36,25.71,71.38,20.58Z"/><path class="cls-11" d="M85.25,16.34a1.35,1.35,0,0,1-1.49,1.16,1.32,1.32,0,0,1-1.33-1.56,1.3,1.3,0,0,1,1.47-1.23A1.4,1.4,0,0,1,85.25,16.34Z"/><path class="cls-12" d="M76.47,14.32a1.38,1.38,0,1,1-2.75,0,1.29,1.29,0,0,1,1.45-1.43A1.32,1.32,0,0,1,76.47,14.32Z"/><path class="cls-13" d="M47.73,45c0,5-2.29,7.31-6.74,7.09a3.81,3.81,0,0,1-3.59-2.2,4.3,4.3,0,0,1,.47-4.41c1.48-2.06,6.63-3.79,9.07-3C48.51,42.93,47.33,44.28,47.73,45Z"/><path class="cls-14" d="M125.59,9.72c.77.08,1.6.12,1.84,1.08a1.82,1.82,0,0,1-.82,2,8.91,8.91,0,0,1-4,1.23c-.8.15-.71-.45-.69-.94A3.61,3.61,0,0,1,125.59,9.72Z"/><path class="cls-15" d="M9.18,67.17V64.06H8.65v-.52h3.44v1.25h-.51v-.73H9.81v1.23h1.54v.52H9.81v1.36h1.77v-.75h.51v1.27H8.65v-.52Z"/><path class="cls-15" d="M15.19,66.23H13.7l-.32.94h.5v.52H12.25v-.52h.5L13.88,64h-.5v-.47H15.5V64H15l1.17,3.16h.46v.52H15v-.52h.52ZM15,65.74,14.48,64h-.05l-.58,1.73Z"/><path class="cls-15" d="M19.48,65.69H21a.71.71,0,0,1,0,.14,1.82,1.82,0,0,1-.57,1.4,2.18,2.18,0,0,1-1.52.53,2.09,2.09,0,0,1-1.67-.64,2.24,2.24,0,0,1-.55-1.52,2.12,2.12,0,0,1,.56-1.52,2,2,0,0,1,1.53-.61,2.09,2.09,0,0,1,1.45.53v-.46h.53V64.9h-.53A1.54,1.54,0,0,0,18.83,64a1.33,1.33,0,0,0-1.08.46,1.63,1.63,0,0,0-.39,1.1,1.56,1.56,0,0,0,.45,1.18,1.5,1.5,0,0,0,1.08.44,1.44,1.44,0,0,0,.88-.28,1,1,0,0,0,.45-.72h-.74Z"/><path class="cls-15" d="M22,67.17V64.06h-.54v-.52h3.45v1.25h-.51v-.73H22.61v1.23h1.54v.52H22.61v1.36h1.77v-.75h.51v1.27H21.44v-.52Z"/><path class="cls-15" d="M25.74,67.17V64.06h-.57v-.52h1.69a3.56,3.56,0,0,1,.83.08,1,1,0,0,1,.52.35,1.06,1.06,0,0,1,.2.66,1,1,0,0,1-.86,1l.74,1.51h.51v.52h-.9L27,65.75h-.58v1.42h.53v.52H25.17v-.52Zm.63-1.94h.49a2.26,2.26,0,0,0,.52,0,.67.67,0,0,0,.28-.19.63.63,0,0,0,.1-.38.52.52,0,0,0-.11-.35.44.44,0,0,0-.26-.17,2,2,0,0,0-.49,0h-.53Z"/><path class="cls-15" d="M31.51,67.17V64.06h-.86v1.06h-.51V63.54H33.5v1.58H33V64.06h-.85v3.11h.54v.52H31v-.52Z"/><path class="cls-15" d="M33.78,65.6a2.05,2.05,0,0,1,2.13-2.13,2.07,2.07,0,0,1,2.16,2.14,2.08,2.08,0,0,1-.61,1.54,2.11,2.11,0,0,1-1.56.61,2.24,2.24,0,0,1-1.11-.29,1.83,1.83,0,0,1-.76-.8A2.4,2.4,0,0,1,33.78,65.6Zm.68,0a1.7,1.7,0,0,0,.4,1.15,1.43,1.43,0,0,0,2.11,0,1.66,1.66,0,0,0,.41-1.13A1.61,1.61,0,0,0,37,64.48,1.38,1.38,0,0,0,35.9,64a1.34,1.34,0,0,0-1,.45A1.6,1.6,0,0,0,34.46,65.6Z"/><path class="cls-15" d="M42.79,66.23H41.3l-.32.94h.5v.52H39.85v-.52h.5L41.48,64H41v-.47H43.1V64h-.51l1.16,3.16h.46v.52H42.58v-.52h.52Zm-.15-.49L42.08,64h0l-.58,1.73Z"/><path class="cls-15" d="M47.85,66l.54.3a1.82,1.82,0,0,1-.74,1.08,2.21,2.21,0,0,1-1.27.38,2,2,0,0,1-1.51-.61,2.38,2.38,0,0,1,0-3.09,2,2,0,0,1,1.5-.59,2.08,2.08,0,0,1,1.36.45v-.38h.54v1.33h-.54a1.35,1.35,0,0,0-.55-.63A1.59,1.59,0,0,0,46.4,64a1.29,1.29,0,0,0-1,.45A1.63,1.63,0,0,0,45,65.6a1.58,1.58,0,0,0,.43,1.15,1.33,1.33,0,0,0,1,.44,1.35,1.35,0,0,0,.87-.31A1.66,1.66,0,0,0,47.85,66Z"/><path class="cls-15" d="M49.31,67.17V64.06h-.47v-.52h1.59v.52h-.49v1.19h1.81V64.06h-.49v-.52h1.59v.52h-.48v3.11h.48v.52H51.26v-.52h.49v-1.4H49.94v1.4h.49v.52H48.84v-.52Z"/><path class="cls-15" d="M53.65,67.17V64.06H53.2v-.52h1.52v.52h-.45v3.11h.45v.52H53.2v-.52Z"/><path class="cls-15" d="M55.62,67.17V64.06h-.54v-.52h3.45v1.25H58v-.73H56.25v1.23h1.54v.52H56.25v1.36H58v-.75h.51v1.27H55.08v-.52Z"/><path class="cls-15" d="M60.63,67.73l-1.4-3.67h-.51v-.52h1.64v.52h-.48l1,2.79,1-2.79h-.48v-.52h1.59v.52h-.5L61.2,67.73Z"/><path class="cls-15" d="M63.76,67.17V64.06h-.54v-.52h3.45v1.25h-.51v-.73H64.39v1.23h1.54v.52H64.39v1.36h1.77v-.75h.51v1.27H63.22v-.52Z"/><path class="cls-15" d="M69.6,67.17V64.06h-.86v1.06h-.51V63.54h3.36v1.58h-.51V64.06h-.86v3.11h.54v.52H69.07v-.52Z"/><path class="cls-15" d="M72.29,67.17V64.06h-.47v-.52h1.59v.52h-.49v1.19h1.8V64.06h-.48v-.52h1.58v.52h-.47v3.11h.47v.52H74.24v-.52h.48v-1.4h-1.8v1.4h.49v.52H71.82v-.52Z"/><path class="cls-15" d="M76.69,67.17V64.06h-.54v-.52H79.6v1.25h-.52v-.73H77.31v1.23h1.54v.52H77.31v1.36h1.77v-.75h.52v1.27H76.15v-.52Z"/><path class="cls-15" d="M82,67.17V64.06H81.4v-.52h1.69a3.72,3.72,0,0,1,.84.08,1,1,0,0,1,.51.35,1,1,0,0,1,.2.66,1,1,0,0,1-.85,1l.73,1.51H85v.52h-.9l-.95-1.94H82.6v1.42h.53v.52H81.4v-.52Zm.63-1.94h.49a2.21,2.21,0,0,0,.52,0,.56.56,0,0,0,.28-.19.63.63,0,0,0,.11-.38.58.58,0,0,0-.11-.35.46.46,0,0,0-.27-.17,2,2,0,0,0-.49,0H82.6Z"/><path class="cls-15" d="M85.72,67.17V64.06h-.54v-.52h3.45v1.25h-.51v-.73H86.35v1.23h1.54v.52H86.35v1.36h1.77v-.75h.51v1.27H85.18v-.52Z"/><path class="cls-15" d="M91.73,66.23h-1.5l-.31.94h.5v.52H88.79v-.52h.5L90.42,64h-.5v-.47H92V64h-.52l1.16,3.16h.47v.52H91.52v-.52H92Zm-.16-.49L91,64H91l-.57,1.73Z"/><path class="cls-15" d="M93.72,67.17V64.06h-.54v-.52h1.7v.52h-.51v3.11h1.27V65.76h.59v1.93h-3v-.52Z"/><path class="cls-15" d="M99,67.17V64.06h-.85v1.06h-.52V63.54H101v1.58h-.52V64.06h-.85v3.11h.54v.52h-1.7v-.52Z"/><path class="cls-15" d="M101.7,67.17V64.06h-.47v-.52h1.58v.52h-.48v1.19h1.8V64.06h-.49v-.52h1.59v.52h-.47v3.11h.47v.52h-1.59v-.52h.49v-1.4h-1.8v1.4h.48v.52h-1.58v-.52Z"/><path class="cls-15" d="M105.69,65.6a2.11,2.11,0,0,1,.59-1.52,2.09,2.09,0,0,1,1.54-.61A2.07,2.07,0,0,1,110,65.61a2.08,2.08,0,0,1-.61,1.54,2.11,2.11,0,0,1-1.56.61,2.24,2.24,0,0,1-1.11-.29,1.81,1.81,0,0,1-.75-.8A2.41,2.41,0,0,1,105.69,65.6Zm.69,0a1.74,1.74,0,0,0,.39,1.15,1.43,1.43,0,0,0,2.11,0,1.67,1.67,0,0,0,.42-1.13,1.61,1.61,0,0,0-.42-1.13,1.41,1.41,0,0,0-1.06-.45,1.33,1.33,0,0,0-1,.45A1.6,1.6,0,0,0,106.38,65.6Z"/><path class="cls-15" d="M111.5,64.06v2.08a3.28,3.28,0,0,0,0,.67.61.61,0,0,0,.25.31.88.88,0,0,0,.51.13,1.21,1.21,0,0,0,.56-.11.57.57,0,0,0,.26-.3,2.1,2.1,0,0,0,.07-.67V64.06h-.48v-.52h1.62v.52h-.52v2.17a3.39,3.39,0,0,1,0,.64.92.92,0,0,1-.2.41,1.11,1.11,0,0,1-.46.35,1.93,1.93,0,0,1-.72.13,2.23,2.23,0,0,1-.79-.12,1,1,0,0,1-.47-.33,1.08,1.08,0,0,1-.21-.43,3.17,3.17,0,0,1-.05-.71V64.06h-.52v-.52H112v.52Z"/><path class="cls-15" d="M117.51,65.69H119v.14a1.82,1.82,0,0,1-.57,1.4,2.47,2.47,0,0,1-3.19-.11,2.29,2.29,0,0,1-.55-1.52,2.12,2.12,0,0,1,.57-1.52,2,2,0,0,1,1.53-.61,2.11,2.11,0,0,1,1.45.53v-.46h.53V64.9h-.53a1.54,1.54,0,0,0-1.4-.87,1.32,1.32,0,0,0-1.07.46,1.63,1.63,0,0,0-.39,1.1,1.59,1.59,0,0,0,.44,1.18,1.51,1.51,0,0,0,1.09.44,1.44,1.44,0,0,0,.88-.28,1,1,0,0,0,.45-.72h-.75Z"/><path class="cls-15" d="M120,67.17V64.06h-.47v-.52h1.58v.52h-.48v1.19h1.8V64.06h-.49v-.52h1.59v.52H123v3.11h.47v.52h-1.59v-.52h.49v-1.4h-1.8v1.4h.48v.52h-1.58v-.52Z"/><path class="cls-15" d="M125.08,67.17V64.06h-.86v1.06h-.51V63.54h3.36v1.58h-.51V64.06h-.86v3.11h.54v.52h-1.69v-.52Z"/></svg>