<svg xmlns="http://www.w3.org/2000/svg" viewBox="0 0 125.62 125.62"><style>.cls-1{fill:#f79b26;}.cls-2{fill:#fddeb7;}.cls-3{fill:#fff;}.cls-4{fill:#fffffe;}.cls-5{fill:#f99d26;}.cls-6{fill:#f99d27;}.cls-7{fill:#f99e27;}.cls-8{fill:#f99e28;}</style><rect class="cls-1" width="125.62" height="125.62"/><path class="cls-2" d="M125.62.11H.85C0,.11.11,0,.11.83V125c0,.22,0,.44,0,.66,0,0-.08,0-.08,0V0H125.24C125.36,0,125.52-.07,125.62.11Z"/><path class="cls-3" d="M43.46,81.48V50.39a3.57,3.57,0,0,1,0-.46.44.44,0,0,1,.48-.46H62c.75,0,.82.06.82.8q0,31.18,0,62.37c0,.7-.14.84-.85.84H44.3a2.81,2.81,0,0,1-.29,0c-.38,0-.53-.16-.55-.53V81.48Z"/><path class="cls-3" d="M84.73,87.33V112.6c0,.16,0,.33,0,.5a.45.45,0,0,1-.48.46H65.83a.47.47,0,0,1-.46-.45,2.8,2.8,0,0,1,0-.29q0-13.84,0-27.7a1.27,1.27,0,0,1,.3-.83L79,67.41l4.72-6,.15-.2a.45.45,0,0,1,.52-.18.47.47,0,0,1,.35.42,5,5,0,0,1,0,.55Z"/><path class="cls-3" d="M106.71,103.69v9c0,.12,0,.25,0,.37,0,.37-.17.52-.54.54H87.6c-.57,0-.69-.12-.69-.69V94.55c0-.11,0-.22,0-.33,0-.38.16-.52.54-.54h18.4c.79,0,.85.07.85.87Z"/><path class="cls-3" d="M30.83,97.58H40a2.38,2.38,0,0,1,.38,0,.45.45,0,0,1,.41.41,2.41,2.41,0,0,1,0,.38v14.39c0,.53-.14.68-.66.68H34.4c-.34,0-.34,0-.34-.35,0-1.76,0-3.52,0-5.27,0-1.19,0-2.37,0-3.56,0-.54-.12-.67-.66-.67H28.08c-.51,0-.64.13-.64.65V113c0,.51.07.51-.49.51H21.6a1.77,1.77,0,0,1-.33,0,.46.46,0,0,1-.44-.47c0-.11,0-.22,0-.34V98.37a2.8,2.8,0,0,1,0-.29.48.48,0,0,1,.5-.5h9.5Z"/><path class="cls-3" d="M30.91,95.87h-9a3.53,3.53,0,0,1-.46,0,.46.46,0,0,1-.35-.8.18.18,0,0,1,.05-.07l9.13-12c.48-.63.71-.63,1.21,0L40.6,94.88c.17.22.38.43.22.74s-.45.25-.71.25Z"/><path class="cls-3" d="M10.88,15.6c-1.16.47-2.28.85-3.39,1.23-.1-.11-.06-.23-.06-.33,0-.9,0-1.79,0-2.68a.46.46,0,0,1,.35-.51,20.42,20.42,0,0,0,2.67-1.38,6.94,6.94,0,0,0,1.31-1,.48.48,0,0,1,.37-.15h3.1c.19,0,.28.06.26.26s0,.2,0,.3V34.29c0,.61.07.54-.52.54H11.28c-.39,0-.4,0-.4-.38V15.6Z"/><path class="cls-3" d="M20.93,15.6c-1.16.46-2.28.85-3.4,1.23a.5.5,0,0,1-.06-.35c0-.89,0-1.78,0-2.67a.45.45,0,0,1,.33-.49A18.8,18.8,0,0,0,21,11.63a4,4,0,0,0,.82-.65.53.53,0,0,1,.4-.17h3.06c.29,0,.29,0,.3.29a2.26,2.26,0,0,1,0,.26V34.28c0,.63.08.54-.56.55H21.38c-.49,0-.45,0-.45-.46V15.6Z"/><path class="cls-3" d="M96.82,92.15H87.37c-.31,0-.43-.12-.43-.44V88c0-.31.11-.41.43-.44h18.82c.39,0,.5.12.5.5s0,1.06,0,1.59,0,1.26,0,1.88-.1.59-.58.59Z"/><path class="cls-3" d="M75.13,32c.17-.83.35-1.66.53-2.49.23-1.09.45-2.18.69-3.27.08-.4.08-.4.51-.4s.67,0,1,0,.26.08.26.27c0,1,0,1.92,0,2.88l.09,5.48v.29c0,.19-.05.29-.26.27h-.75c-.17,0-.26-.06-.25-.24s0-.56,0-.84c0-1.61-.06-3.23-.15-4.86a3.58,3.58,0,0,0-.09.35c-.36,1.73-.73,3.46-1.09,5.19-.08.4-.08.41-.47.4-.69,0-.57.11-.72-.56q-.54-2.58-1.09-5.15a.27.27,0,0,0-.15-.25V30.7c0,1.31,0,2.62-.07,3.93,0,.34,0,.35-.35.35h-.67c-.2,0-.26-.07-.26-.27,0-.72,0-1.45,0-2.17L72,26.27v-.21c0-.22.1-.28.31-.27.37,0,.75,0,1.12,0s.32.07.36.29C74,27,74.2,28,74.4,29s.39,1.88.58,2.82C75,31.84,75,32,75.13,32Z"/><path class="cls-3" d="M67.84,32c.19-.85.36-1.67.54-2.5.24-1.13.49-2.26.72-3.39.06-.33.07-.34.39-.34h1.05c.31,0,.32,0,.33.33,0,.78,0,1.56,0,2.34,0,1.94.07,3.88.1,5.81,0,.17,0,.34,0,.51a.18.18,0,0,1-.2.2H70c-.19,0-.23-.09-.23-.26l0-1.63c0-1.26,0-2.53-.07-3.8a.29.29,0,0,0-.07-.24l-.34,1.61-.84,4c-.07.3-.07.31-.38.31-.83,0-.64.1-.8-.61-.37-1.7-.72-3.41-1.09-5.11a.68.68,0,0,0,0-.15.54.54,0,0,0-.09.43c0,1.14,0,2.29,0,3.43q0,.8,0,1.59c0,.42,0,.42-.46.42H65c-.37,0-.37,0-.37-.36,0-.8,0-1.59,0-2.39,0-1.95.06-3.9.1-5.85,0-.69-.09-.58.61-.59h.76c.35,0,.36,0,.43.34.24,1.19.49,2.38.73,3.56.15.7.29,1.39.43,2.09A.36.36,0,0,0,67.84,32Z"/><path class="cls-3" d="M77.28,15l.09.07a1.89,1.89,0,0,1,1.33,1.8,4,4,0,0,1-.09,1.41,2.07,2.07,0,0,1-1.81,1.62A4.15,4.15,0,0,1,76,20H73.92c-.41,0-.41,0-.41-.42,0-2.56,0-5.13,0-7.69,0-.28,0-.56,0-.84s0-.24.21-.23a21,21,0,0,1,3,.08,1.89,1.89,0,0,1,1.75,2,5.61,5.61,0,0,1,0,.58A1.56,1.56,0,0,1,77.28,15Z"/><path class="cls-3" d="M45,30.34V26c0-.14.06-.2.2-.2a21.44,21.44,0,0,1,3,.09A2,2,0,0,1,50,27.72a6.4,6.4,0,0,1,.07.88v3.47a4.92,4.92,0,0,1-.14,1.2,2,2,0,0,1-1.83,1.64A5.6,5.6,0,0,1,47,35H45.36C45,35,45,35,45,34.6c0-1.35,0-2.7,0-4.05Z"/><path class="cls-3" d="M63.87,30.39v1.84a4.56,4.56,0,0,1-.15,1.16A2.09,2.09,0,0,1,61.93,35a3.9,3.9,0,0,1-1.7-.06,1.91,1.91,0,0,1-1.36-1.2,3.4,3.4,0,0,1-.28-1.26c0-1.43,0-2.87,0-4.3a3.88,3.88,0,0,1,.11-.75,2.08,2.08,0,0,1,1.9-1.73,4.21,4.21,0,0,1,1.54.06A2,2,0,0,1,63.6,27a3.83,3.83,0,0,1,.27,1.43v1.92Z"/><path class="cls-3" d="M88.41,30.8a1.4,1.4,0,0,0,.06-.54v-4.1c0-.36,0-.36.36-.37s.53,0,.8,0,.26.05.24.24v8.7c0,.17-.05.27-.23.25h-.09c-.78,0-.78,0-1.08-.69-.58-1.41-1.16-2.81-1.75-4.21a2.27,2.27,0,0,0-.13-.3c-.12.13-.08.27-.08.39v4.31c0,.56,0,.5-.5.5h-.67c-.17,0-.26,0-.25-.24V26.25c0-.51,0-.41.44-.47s.8.15,1,.65c.52,1.32,1.11,2.61,1.68,3.92Z"/><path class="cls-3" d="M40.8,29.76a1,1,0,0,0-.07.51v4.51c0,.14-.07.2-.21.2h-1c-.17,0-.22-.08-.22-.23s0-.2,0-.29V26.3c0-.09,0-.19,0-.29s.06-.23.22-.22h0c.88-.05.88,0,1.23.78.55,1.28,1.1,2.56,1.66,3.84,0,.1.06.24.22.34,0-.13,0-.23,0-.33V26c0-.11.06-.15.16-.15.36,0,.73,0,1.09,0a.14.14,0,0,1,.15.16v8.57c0,.48,0,.46-.45.45-.78,0-.6.13-.9-.58C42.13,33,41.53,31.49,40.93,30Z"/><path class="cls-3" d="M63.85,14.76a1.15,1.15,0,0,0,0,.44v4.56c0,.15-.06.23-.22.23h-1c-.15,0-.23-.07-.22-.22s0-.2,0-.3V11.32a2.8,2.8,0,0,0,0-.29c0-.17.08-.21.23-.22.9-.08.9-.08,1.26.75.55,1.29,1.11,2.58,1.67,3.87a.83.83,0,0,0,.22.36c0-.15,0-.25,0-.36V11.09c0-.19,0-.29.25-.28H67c.15,0,.24,0,.23.22a2.08,2.08,0,0,0,0,.25v8.24a2.08,2.08,0,0,0,0,.25c0,.16-.07.21-.23.23-.81.08-.86.06-1.17-.69Q64.91,17.18,64,15A.46.46,0,0,0,63.85,14.76Z"/><path class="cls-3" d="M82.61,29.35c0-1.08,0-2.15,0-3.22,0-.33,0-.33.31-.34s.73,0,1.09,0c.18,0,.26.07.24.24V31.8a7.25,7.25,0,0,1-.15,1.54,2,2,0,0,1-1.81,1.71,4,4,0,0,1-1.25,0,2.06,2.06,0,0,1-1.87-1.89A5.29,5.29,0,0,1,79.09,32V26c0-.16,0-.23.22-.23q.59,0,1.17,0c.18,0,.24.08.24.25s0,.22,0,.33v5.69a3.92,3.92,0,0,0,.1,1.08.87.87,0,0,0,1.7,0,3,3,0,0,0,.09-.78v-3Z"/><path class="cls-3" d="M42.44,14.41c0-1.07,0-2.14,0-3.22,0-.38,0-.38.39-.38h1c.18,0,.27.06.25.24V17A5.51,5.51,0,0,1,44,18.27a2,2,0,0,1-1.91,1.8,3.7,3.7,0,0,1-1.65-.13,1.85,1.85,0,0,1-1.2-1.13,4,4,0,0,1-.27-1.39c0-2.11,0-4.21,0-6.32,0-.2.05-.3.28-.29h1.13c.16,0,.23.07.22.22s0,.22,0,.34c0,1.84,0,3.68,0,5.52a4.73,4.73,0,0,0,.1,1.24.84.84,0,0,0,.86.71.83.83,0,0,0,.85-.71,3,3,0,0,0,.08-.79Z"/><path class="cls-3" d="M91.85,15.19c0,.85,0,1.53,0,2.22a2.75,2.75,0,0,0,.11.9.78.78,0,0,0,.89.54.72.72,0,0,0,.72-.64,3.64,3.64,0,0,0,.05-.87v-.59c0-.12,0-.22.19-.22h1.26c.12,0,.16.08.17.19a6.73,6.73,0,0,1-.14,1.79A1.93,1.93,0,0,1,93.43,20a3.63,3.63,0,0,1-1.54,0,2.15,2.15,0,0,1-1.66-1.88,5,5,0,0,1-.09-.95c0-1.19,0-2.37,0-3.56a4.92,4.92,0,0,1,.17-1.27,2,2,0,0,1,1.75-1.58,4,4,0,0,1,1.62.05,1.84,1.84,0,0,1,1.38,1.26A5.35,5.35,0,0,1,95.23,14c0,.12-.06.17-.18.17H93.8c-.12,0-.17-.07-.17-.18s0-.47,0-.71a3.17,3.17,0,0,0-.06-.75A.65.65,0,0,0,93,12a.84.84,0,0,0-1.12.84C91.8,13.66,91.87,14.51,91.85,15.19Z"/><path class="cls-3" d="M54.65,30.35v2.14a2.57,2.57,0,0,0,.1.78.76.76,0,0,0,.87.56.68.68,0,0,0,.74-.59,4.59,4.59,0,0,0,0-1.17c0-.57-.08-.54.54-.55.28,0,.55,0,.83,0s.26.07.26.25a8.34,8.34,0,0,1-.1,1.58,2,2,0,0,1-1.77,1.7,3.55,3.55,0,0,1-1.77-.15,1.88,1.88,0,0,1-1.09-1A2.87,2.87,0,0,1,53,32.68q-.07-2.28,0-4.56a2.76,2.76,0,0,1,.11-.7,2,2,0,0,1,1.72-1.66,4,4,0,0,1,1.42,0A2,2,0,0,1,58,27.5,8.44,8.44,0,0,1,58,28.92c0,.16-.07.22-.23.22q-.59,0-1.17,0c-.16,0-.23-.06-.23-.22s0-.45,0-.67a3.75,3.75,0,0,0,0-.58.7.7,0,0,0-.71-.72.79.79,0,0,0-1,.61,2.73,2.73,0,0,0-.07.7Z"/><path class="cls-3" d="M70.37,10.81h.54c.31,0,.31,0,.38.32.51,2.51,1,5,1.52,7.53.07.36.15.73.23,1.1,0,.16,0,.23-.19.23H71.77c-.2,0-.27-.08-.3-.27-.08-.5-.17-1-.26-1.52s-.07-.36-.42-.36H70c-.39,0-.39,0-.47.4s-.18,1-.25,1.44c0,.22-.11.32-.34.31s-.67,0-1,0-.29,0-.23-.29c.13-.67.27-1.33.4-2l1.32-6.47a2,2,0,0,0,.05-.24c0-.14.1-.18.23-.18Z"/><path class="cls-3" d="M56.62,10.81c.24,0,.57-.1.78,0s.17.51.22.77l1.62,7.94s0,.06,0,.09c0,.32,0,.33-.27.33s-.61,0-.92,0-.31,0-.37-.32c-.09-.52-.19-1-.27-1.56,0-.2-.1-.27-.29-.26H56c-.2,0-.26.09-.29.26l-.27,1.57c0,.3-.06.31-.37.31s-.62,0-.92,0-.35,0-.28-.34c.13-.67.27-1.33.4-2q.67-3.25,1.33-6.51c.07-.33.07-.33.4-.33Z"/><path class="cls-3" d="M36.15,25.79h.54c.32,0,.32,0,.38.31.14.67.28,1.34.41,2,.43,2.15.87,4.29,1.3,6.44l0,.12c0,.3,0,.31-.25.32s-.64,0-1,0-.32-.09-.35-.31c-.08-.49-.17-1-.26-1.48s-.06-.35-.42-.36h-1c-.19,0-.26.07-.29.26q-.12.76-.27,1.53C35,35,35,35,34.62,35s-.65,0-1,0-.25,0-.2-.27l.72-3.61c.33-1.61.65-3.22,1-4.83.12-.56,0-.47.57-.48Z"/><path class="cls-3" d="M106,32c0,.2,0,.37.07.55a2.55,2.55,0,0,0,.22.76.87.87,0,0,0,.64.49.69.69,0,0,0,.84-.56,1.67,1.67,0,0,0-.49-1.57c-.46-.48-1-.89-1.49-1.34a5.94,5.94,0,0,1-.57-.55A2.67,2.67,0,0,1,104.7,27a1.76,1.76,0,0,1,1.08-1.1,3.08,3.08,0,0,1,1.85-.11,1.8,1.8,0,0,1,1.29,1.09,4.58,4.58,0,0,1,.27,1.09c0,.16,0,.23-.19.26l-1,.2c-.16,0-.2,0-.22-.16a3.73,3.73,0,0,0-.13-.73.73.73,0,0,0-.86-.56.75.75,0,0,0-.67.77,1.4,1.4,0,0,0,.47,1.16c.43.4.88.78,1.32,1.17a5.29,5.29,0,0,1,1,1.11,2.9,2.9,0,0,1,.42,2.16,2.09,2.09,0,0,1-1.89,1.73,3.29,3.29,0,0,1-.83,0,2.13,2.13,0,0,1-1.87-1.52,3.81,3.81,0,0,1-.19-1.06.19.19,0,0,1,.17-.24Z"/><path class="cls-3" d="M112,10.71a3.14,3.14,0,0,1,.77.08,1.76,1.76,0,0,1,1.26,1.06,3.43,3.43,0,0,1,.29,1.13c0,.12,0,.22-.16.25l-1.07.2c-.15,0-.2,0-.2-.17a2.3,2.3,0,0,0-.13-.74A.71.71,0,0,0,112,12a.72.72,0,0,0-.69.71,1.31,1.31,0,0,0,.4,1.14c.27.26.55.51.83.76s.81.68,1.17,1.08a3.15,3.15,0,0,1,.85,2.25,2.13,2.13,0,0,1-2,2.17,3.3,3.3,0,0,1-1.21-.1A2,2,0,0,1,110,18.88a3.67,3.67,0,0,1-.33-1.34c0-.18,0-.27.24-.3s.65-.14,1-.21c.16,0,.23,0,.24.18a2.55,2.55,0,0,0,.23,1.05.83.83,0,0,0,.69.53.69.69,0,0,0,.83-.67,1.74,1.74,0,0,0-.54-1.48c-.4-.39-.83-.74-1.24-1.12a9.46,9.46,0,0,1-.74-.68,2.69,2.69,0,0,1-.54-2.81,2,2,0,0,1,1.75-1.3A3.24,3.24,0,0,1,112,10.71Z"/><path class="cls-3" d="M36.93,13.44a8.51,8.51,0,0,0-.17-.85.72.72,0,0,0-.9-.6.74.74,0,0,0-.64.83,1.38,1.38,0,0,0,.47,1.08l1.37,1.22a5.08,5.08,0,0,1,1,1.16,2.93,2.93,0,0,1,.4,1.89,2.11,2.11,0,0,1-1.95,1.92A3.24,3.24,0,0,1,35.28,20a2.2,2.2,0,0,1-1.54-1.81c-.19-.86-.19-.86.67-1l.29-.06c.39-.08.4-.08.43.34a2.26,2.26,0,0,0,.27.95.81.81,0,0,0,.75.44.64.64,0,0,0,.69-.55,1.69,1.69,0,0,0-.48-1.57c-.46-.5-1-.91-1.52-1.37-.14-.13-.29-.25-.43-.39a2.7,2.7,0,0,1-.64-2.79,1.88,1.88,0,0,1,1.35-1.31,3.27,3.27,0,0,1,1.49-.07,2,2,0,0,1,1.62,1.71c.16.73.16.73-.58.86A4,4,0,0,1,36.93,13.44Z"/><path class="cls-3" d="M48,13.46c-.08-.34-.07-.64-.17-.92a.72.72,0,0,0-.89-.55.74.74,0,0,0-.64.8,1.33,1.33,0,0,0,.47,1.11c.44.41.89.8,1.34,1.2a5.15,5.15,0,0,1,1.06,1.22,2.87,2.87,0,0,1,.37,1.85,2.11,2.11,0,0,1-1.95,1.92A3.25,3.25,0,0,1,46.32,20a2.21,2.21,0,0,1-1.53-1.78c-.21-.88-.2-.89.67-1.07.2,0,.43-.18.6-.09s.1.38.14.58a1.91,1.91,0,0,0,.27.78.81.81,0,0,0,.94.37.7.7,0,0,0,.51-.73,1.77,1.77,0,0,0-.54-1.39c-.46-.47-1-.88-1.47-1.31l-.43-.4a2.66,2.66,0,0,1-.75-2.45,2,2,0,0,1,1.57-1.7,3.33,3.33,0,0,1,1.37,0,1.83,1.83,0,0,1,1.39,1.08,4.83,4.83,0,0,1,.3,1.13c0,.14,0,.24-.18.27Z"/><path class="cls-3" d="M105.53,15.38V11.2c0-.39,0-.39.39-.39h3.14c.31,0,.33,0,.32.33s.12.61-.07.8-.51,0-.77.05h-1.05c-.18,0-.28,0-.28.25q0,1.06,0,2.13c0,.18.08.25.25.25h1.17c.3,0,.3,0,.31.32s0,.42,0,.63-.08.24-.26.24h-1.12c-.34,0-.34,0-.34.32,0,.79,0,1.59,0,2.38,0,.32,0,.32.33.32h1.54c.3,0,.32,0,.31.3,0,1,.15.84-.8.85s-1.81,0-2.72,0c-.34,0-.35,0-.35-.35Z"/><path class="cls-3" d="M83.61,15.42V11.2c0-.39,0-.39.4-.39h3.13c.32,0,.32,0,.33.32s0,.42,0,.63-.08.24-.25.23H85.67c-.37,0-.37,0-.38.36v1.92c0,.34,0,.34.36.35s.73,0,1.09,0,.29.08.29.3c0,1.08.16.86-.86.89h-.63c-.17,0-.25.06-.25.25,0,.84,0,1.69,0,2.54,0,.2.1.24.26.23H87.1c.39,0,.4,0,.39.4,0,.9.11.75-.73.76S84.92,20,84,20c-.38,0-.39,0-.39-.39Z"/><path class="cls-3" d="M100.37,30.35V26.09c0-.29,0-.29.32-.3h3.21c.31,0,.32,0,.31.3s.12.62,0,.81-.52.06-.8.07a8.34,8.34,0,0,1-1,0c-.2,0-.31.05-.31.28,0,.7,0,1.39,0,2.09,0,.22.1.29.31.28.37,0,.75,0,1.13,0,.21,0,.3.06.29.28a3.32,3.32,0,0,0,0,.63c0,.23-.1.28-.3.28h-1.17c-.18,0-.25.06-.25.24,0,.84,0,1.68,0,2.51,0,.24.11.28.31.27h1.55c.35,0,.35,0,.35.34a3.53,3.53,0,0,1,0,.46c0,.36,0,.36-.38.36h-3.09c-.42,0-.42,0-.42-.41Z"/><path class="cls-3" d="M96,31v3.76c0,.14-.07.2-.21.2H94.49a.16.16,0,0,1-.18-.18V27.36c0-.31,0-.31-.33-.32h-.92c-.23,0-.3-.09-.29-.29s0-.42,0-.63,0-.33.33-.33h2.84c.42,0,.83,0,1.25,0,.21,0,.31.05.3.28s0,.5,0,.75-.06.22-.22.22h-.92c-.34,0-.35,0-.35.35Z"/><path class="cls-4" d="M99.47,16V12.45c0-.39,0-.39-.39-.39h-.79c-.36,0-.36,0-.36-.34a5.81,5.81,0,0,1,0-.59c0-.31,0-.32.33-.32h4.09c.2,0,.29,0,.28.25s0,.51,0,.76-.08.24-.26.24h-.79c-.44,0-.42,0-.43.44v7.23c0,.17-.05.27-.23.26H99.7c-.15,0-.23-.06-.23-.22V16Z"/><path class="cls-4" d="M51.74,10.81h2c.3,0,.31,0,.31.3,0,1.17.17.92-.89.94-.67,0-.59-.08-.59.61,0,2.26,0,4.51,0,6.77a2.8,2.8,0,0,0,0,.29c0,.19-.07.28-.27.28H51.18c-.19,0-.25-.08-.24-.25s0-.23,0-.34V12.47c0-.41,0-.41-.41-.41h-.84c-.29,0-.3,0-.3-.31s-.12-.65.06-.85.55-.07.83-.08Z"/><path class="cls-3" d="M79.34,15.37V11c0-.13,0-.21.19-.21h1.3c.11,0,.18,0,.18.17v7.53c0,.32,0,.32.34.32h1.54c.3,0,.31,0,.31.3,0,1,.15.84-.8.85S80.81,20,80,20s-.67.1-.67-.65C79.33,18,79.34,16.69,79.34,15.37Z"/><path class="cls-3" d="M102.94,15.42V11c0-.17.07-.22.23-.22h1.21c.16,0,.23.06.22.22v8.74c0,.16-.07.22-.22.22h-1.22c-.16,0-.23-.06-.22-.22V15.42Z"/><path class="cls-3" d="M90.81,30.35v-4.1c0-.51,0-.45.48-.46.32,0,.64,0,1,0,.16,0,.24.06.23.22a2.09,2.09,0,0,0,0,.25v8.36c0,.36,0,.36-.38.36h-1c-.22,0-.29-.07-.29-.29,0-.72,0-1.44,0-2.17Z"/><path class="cls-3" d="M97.64,15.42v4.06c0,.11,0,.22,0,.33a.16.16,0,0,1-.18.18h-1.3C96,20,96,19.92,96,19.8V11.27c0-.52,0-.46.48-.46h1c.16,0,.22.07.22.22s0,.2,0,.3Z"/><path class="cls-3" d="M99.44,30.39v4c0,.11,0,.22,0,.33s-.05.21-.19.21H98c-.14,0-.21-.06-.21-.2s0-.19,0-.29V26.26c0-.08,0-.16,0-.25s.06-.22.22-.22c.4,0,.81,0,1.21,0,.15,0,.24.05.23.21s0,.2,0,.3Z"/><path class="cls-4" d="M59.8,15.37V11c0-.13.05-.21.2-.21h1.25c.15,0,.19.07.19.21v8.65c0,.31,0,.32-.33.32s-.65,0-1,0-.34,0-.34-.36V15.37Z"/><path class="cls-5" d="M55,93.11V91c0-.42,0-.45.46-.46h3.81c.39,0,.43,0,.43.44v4.31c0,.39,0,.44-.43.44H55.44c-.41,0-.45,0-.46-.46Z"/><path class="cls-5" d="M51.39,93.14c0,.71,0,1.42,0,2.13,0,.37,0,.42-.4.43h-3.9c-.35,0-.4-.07-.4-.43V91c0-.4.05-.44.43-.45H51c.38,0,.42.06.42.45C51.4,91.69,51.39,92.41,51.39,93.14Z"/><path class="cls-5" d="M51.39,71.46c0,.72,0,1.45,0,2.17,0,.38,0,.43-.44.43H47.11c-.35,0-.42-.06-.42-.41V69.31c0-.38.05-.43.44-.43H51c.36,0,.41.05.41.41C51.4,70,51.39,70.74,51.39,71.46Z"/><path class="cls-5" d="M59.68,71.48v2.13c0,.41,0,.45-.46.45H55.46c-.43,0-.47,0-.48-.48V69.36c0-.45,0-.48.47-.48h3.8c.39,0,.43,0,.43.43Z"/><path class="cls-5" d="M59.68,82.3v2.13c0,.41,0,.44-.46.44h-3.8c-.39,0-.43,0-.44-.43v-4.3c0-.4.06-.45.47-.46h3.8c.38,0,.43.06.43.45Z"/><path class="cls-5" d="M46.69,103.9v-2.13c0-.39.05-.43.43-.43,1.28,0,2.56,0,3.85,0,.38,0,.42,0,.42.44,0,1.43,0,2.86,0,4.3,0,.38,0,.44-.43.44H47.12c-.37,0-.43-.06-.43-.45Z"/><path class="cls-5" d="M51.39,82.3c0,.69,0,1.39,0,2.08,0,.46,0,.49-.46.49h-3.8c-.4,0-.44,0-.44-.43v-4.3c0-.4.06-.45.46-.46H51c.37,0,.43.07.43.44C51.4,80.85,51.39,81.57,51.39,82.3Z"/><path class="cls-5" d="M59.68,104v2c0,.45,0,.49-.47.49H55.46c-.44,0-.47,0-.48-.49v-4.21c0-.45,0-.48.47-.49h3.76c.44,0,.47,0,.47.48Z"/><path class="cls-5" d="M59.68,60.67V62.8c0,.4,0,.45-.46.45H55.46c-.42,0-.47,0-.48-.48V58.55c0-.45,0-.48.47-.48h3.76c.45,0,.47,0,.47.47Z"/><path class="cls-5" d="M46.69,60.63V58.5c0-.39,0-.43.43-.43H51c.39,0,.43,0,.43.43,0,1.44,0,2.87,0,4.3,0,.38-.06.45-.43.45H47.12c-.37,0-.43-.07-.43-.45Z"/><path class="cls-5" d="M74.19,83.19v3.46a3,3,0,0,1,0,.42.42.42,0,0,1-.41.4,2.81,2.81,0,0,1-.29,0h-5a2.08,2.08,0,0,1-.25,0,.44.44,0,0,1-.45-.45c0-.31,0-.61,0-.92a.78.78,0,0,1,.21-.45c.73-1,1.51-2,2.28-2.93l2.79-3.44a1.67,1.67,0,0,1,.31-.34.49.49,0,0,1,.79.28,1.85,1.85,0,0,1,0,.41Z"/><path class="cls-5" d="M79.39,87.46c-.86,0-1.72,0-2.59,0-.48,0-.61-.13-.62-.62v-3.1c0-.46.15-.61.6-.61H82c.42,0,.57.17.58.59v3.14c0,.46-.15.6-.6.6C81.12,87.47,80.26,87.46,79.39,87.46Z"/><path class="cls-5" d="M79.38,81.11H76.83c-.51,0-.64-.13-.65-.64V77.4c0-.49.15-.64.66-.64h5.1c.5,0,.64.16.65.66v3c0,.5-.14.63-.66.64Z"/><path class="cls-5" d="M79.42,93.83H76.83c-.52,0-.64-.13-.65-.64V90.13c0-.5.15-.64.66-.64h5.1c.5,0,.65.15.65.66v3c0,.54-.12.67-.66.67Z"/><path class="cls-5" d="M79.39,100.19H76.84c-.54,0-.66-.12-.66-.67v-3c0-.52.13-.64.65-.64q2.55,0,5.1,0c.54,0,.66.13.66.67v3c0,.52-.13.64-.65.64Z"/><path class="cls-5" d="M79.35,106.56H76.84c-.54,0-.66-.13-.66-.67v-3c0-.52.13-.65.65-.65q2.55,0,5.1,0c.53,0,.66.13.66.68v3c0,.51-.13.64-.65.64Z"/><path class="cls-5" d="M71,93.83c-.85,0-1.7,0-2.55,0-.49,0-.62-.13-.62-.62v-3.1c0-.47.14-.62.63-.62h5.14c.48,0,.61.15.61.63v3.1c0,.49-.12.61-.62.61Z"/><path class="cls-5" d="M71,100.19H68.43c-.54,0-.65-.11-.65-.63V96.47c0-.47.12-.6.59-.6q2.59,0,5.19,0c.49,0,.6.12.6.63v3.09c0,.48-.11.6-.59.6Z"/><path class="cls-5" d="M71,106.56H68.42c-.53,0-.64-.12-.64-.64v-3c0-.52.12-.64.65-.64q2.55,0,5.1,0c.52,0,.63.12.63.64v3.06c0,.52-.11.63-.64.63Z"/><path class="cls-5" d="M82.58,71.31V74c0,.56-.18.73-.73.74H77.46a.52.52,0,0,1-.38-.86c.12-.17.26-.33.39-.49l4-5a2.5,2.5,0,0,1,.22-.24.49.49,0,0,1,.83.29,1.77,1.77,0,0,1,0,.33Z"/><path class="cls-5" d="M92.65,95.91h2.59c.54,0,.67.13.68.66v3c0,.51-.15.66-.64.67H90a1,1,0,0,1-.25,0,.43.43,0,0,1-.39-.46q0-1.69,0-3.39c0-.29.17-.44.48-.46h2.79Z"/><path class="cls-5" d="M101.27,95.91h2.59c.54,0,.67.13.67.66v3c0,.5-.15.65-.64.66H98.63c-.5,0-.64-.15-.64-.65,0-1,0-2,0-3,0-.55.12-.67.69-.67Z"/><path class="cls-5" d="M92.66,106.56H90c-.55,0-.66-.11-.66-.67v-3c0-.49.13-.62.62-.62q2.66,0,5.31,0c.48,0,.61.14.61.62q0,1.53,0,3.06c0,.49-.12.62-.61.62Z"/><path class="cls-5" d="M101.27,106.56H98.63c-.53,0-.64-.12-.64-.64,0-1,0-2,0-3,0-.48.13-.61.62-.61q2.65,0,5.31,0c.47,0,.61.13.61.59V106c0,.48-.13.61-.63.61Z"/><path class="cls-6" d="M75.18,17.22c0-.41,0-.81,0-1.21,0-.2.06-.29.26-.27h.46a1.11,1.11,0,0,1,1.18,1.1A3.29,3.29,0,0,1,77,18.1a.87.87,0,0,1-.66.63,3.28,3.28,0,0,1-1,.05c-.19,0-.18-.14-.18-.27V17.22Z"/><path class="cls-7" d="M75.18,13.23v-1c0-.18.06-.25.24-.25a3.48,3.48,0,0,1,.91.1.81.81,0,0,1,.62.66,2.4,2.4,0,0,1-.07,1.19.73.73,0,0,1-.43.48,2.45,2.45,0,0,1-1.11.14c-.15,0-.16-.12-.16-.24Z"/><path class="cls-5" d="M46.67,30.38v-3c0-.36,0-.36.38-.36h0c.94,0,1.2.24,1.22,1.18,0,1.49,0,3,0,4.47a1.58,1.58,0,0,1,0,.38.81.81,0,0,1-.72.71l-.2,0c-.65.08-.68.06-.68-.6Z"/><path class="cls-5" d="M62.17,30.35v2.17a2.34,2.34,0,0,1-.1.75.92.92,0,0,1-1.69,0,2.32,2.32,0,0,1-.1-.74V28.22a2.31,2.31,0,0,1,.13-.82.73.73,0,0,1,.77-.45.77.77,0,0,1,.84.42,1.83,1.83,0,0,1,.15.77v2.21Z"/><path class="cls-8" d="M71,16.74H69.75l.56-3.46h.08Z"/><path class="cls-8" d="M56,16.73l.56-3.4h.1l.55,3.4A6.12,6.12,0,0,1,56,16.73Z"/><path class="cls-7" d="M35.54,31.75l.55-3.44c.14,0,.13.15.14.23.16,1,.31,1.93.47,2.89,0,.3,0,.31-.25.32Z"/></svg>