<svg xmlns="http://www.w3.org/2000/svg" viewBox="0 0 130.51 130.51"><style>.cls-1{fill:#47763e;}.cls-2{fill:#c2d2bf;}.cls-3{fill:#fff;}.cls-4{fill:#96ab87;}.cls-5{fill:#a1bea3;}.cls-6{fill:#adb89b;}.cls-7{fill:#48773e;}.cls-8{fill:#49783f;}.cls-9{fill:#4a7840;}.cls-10{fill:#a2af8e;}.cls-11{fill:#728d5e;}</style><rect class="cls-1" width="130.51" height="130.51"/><path class="cls-2" d="M130.4,130.51V.84c0-.24.11-.54-.08-.7s-.44-.05-.67-.05H0S0,0,.05,0H130.49q0,65.05,0,130.12C130.48,130.25,130.58,130.41,130.4,130.51Z"/><path class="cls-3" d="M65.84,57.57a59.56,59.56,0,0,1,47.66,23c.39.5.76,1,1.13,1.54.21.29.21.3,0,.6a45.56,45.56,0,0,1-2.87,3.65,60,60,0,0,1-26.32,17.72,59.08,59.08,0,0,1-10.24,2.42,62.17,62.17,0,0,1-11.88.56A59.84,59.84,0,0,1,18.4,83.41c-.21-.28-.39-.57-.61-.84a.36.36,0,0,1,0-.53c.65-.91,1.32-1.8,2-2.66A60.19,60.19,0,0,1,46.71,60.73a57.53,57.53,0,0,1,10.67-2.54A62,62,0,0,1,65.84,57.57Z"/><path class="cls-3" d="M29,23l.16.12a4.48,4.48,0,0,1,2.62,3.26,11.32,11.32,0,0,1-.31,6.34,6.38,6.38,0,0,1-.78,1.54,5.08,5.08,0,0,1-3.22,2.12,9.71,9.71,0,0,1-4.61-.09,5,5,0,0,1-3.48-3.13A9.86,9.86,0,0,1,18.71,30c0-.48,0-1,0-1.44,0-.31,0-.31.31-.32h4.09c.33,0,.33,0,.33.34a11.78,11.78,0,0,0,.22,2.51l0,.13A1.76,1.76,0,0,0,26,32.54,1.4,1.4,0,0,0,27,31.61a6.13,6.13,0,0,0,.3-1.7,9.28,9.28,0,0,0-.21-3A2.23,2.23,0,0,0,24.86,25c-.28,0-.57,0-.86,0s-.25-.08-.25-.26v-3c0-.17.07-.23.23-.23.36,0,.72,0,1.08,0a2.06,2.06,0,0,0,2.08-1.71,7.43,7.43,0,0,0,0-3.66,1.77,1.77,0,0,0-2.28-1.38,1.38,1.38,0,0,0-1.09.9,5.14,5.14,0,0,0-.34,1.6c0,.53,0,1.05,0,1.57,0,.22-.07.3-.3.3H19c-.17,0-.27,0-.27-.24A12.07,12.07,0,0,1,19,15.12,5.57,5.57,0,0,1,23.65,11a9,9,0,0,1,4.17.17,5.35,5.35,0,0,1,3.94,3.9,8.66,8.66,0,0,1,0,4.89,5,5,0,0,1-1,1.79A3.72,3.72,0,0,1,29,23Z"/><path class="cls-3" d="M11.46,16.18c-1.22.51-2.4.9-3.55,1.3a.33.33,0,0,1-.07-.27c0-1,0-2,0-2.92a.4.4,0,0,1,.3-.44,21.4,21.4,0,0,0,2.78-1.42,7.31,7.31,0,0,0,1.43-1,.51.51,0,0,1,.42-.16H15.9c.32,0,.32,0,.33.35V35.63c0,.62.06.54-.52.54H11.84c-.4,0-.38,0-.38-.37V16.18Z"/><path class="cls-3" d="M56.87,15.48c0,1.51,0,3-.08,4.52,0,.15,0,.29,0,.44,0,.31,0,.31-.3.32h-.7c-.31,0-.32,0-.32-.31,0-.71,0-1.42,0-2.13.06-1.7.07-3.39.09-5.09,0-.55,0-1.1,0-1.65,0-.34-.07-.37.4-.36s.72,0,1.08,0,.33.07.38.3c.18.94.38,1.88.57,2.81l.66,3.23c0,.08.1.07.15,0l1.26-6c.08-.36.09-.36.44-.36h1.18c.14,0,.2,0,.21.2,0,.36,0,.72,0,1.08,0,2.55.08,5.09.11,7.64,0,.73.11.61-.61.62s-.69,0-.7-.68c0-1.82-.06-3.64-.1-5.46a.33.33,0,0,1,0-.24c0,.08,0,.17,0,.23l-.87,4.12-.36,1.69c-.07.33-.07.33-.38.34-.7,0-.7,0-.85-.67-.37-1.76-.75-3.53-1.12-5.3-.21,0-.1.15-.12.23A1.78,1.78,0,0,1,56.87,15.48Z"/><path class="cls-3" d="M71,32a1.08,1.08,0,0,0,0-.46V27c0-.12.06-.19.18-.18h1.09c.13,0,.17.07.17.19V36.1c0,.17-.06.24-.23.23h0c-.86.05-.86.05-1.19-.75L69.3,31.37l-.2-.46c-.12.11-.08.23-.08.33V35.8c0,.1,0,.2,0,.3s-.07.24-.23.23H67.74c-.14,0-.21-.06-.2-.2s0-.21,0-.31q0-4.28,0-8.56c0-.55-.05-.43.49-.49s.8.16,1,.66c.55,1.39,1.16,2.75,1.76,4.11A1,1,0,0,0,71,32Z"/><path class="cls-3" d="M66.6,31.59v2.22A3.46,3.46,0,0,1,66.37,35a2.12,2.12,0,0,1-1.63,1.41,4.42,4.42,0,0,1-1.81,0,2.23,2.23,0,0,1-1.72-2,5.44,5.44,0,0,1-.09-1V29.66a4.87,4.87,0,0,1,.15-1.2,2.12,2.12,0,0,1,1.85-1.71,4.33,4.33,0,0,1,1.72,0,2.05,2.05,0,0,1,1.49,1.28,3.65,3.65,0,0,1,.27,1.26c0,.76,0,1.51,0,2.26Z"/><path class="cls-3" d="M43.64,16v2.17a3.12,3.12,0,0,0,.11.86.78.78,0,0,0,.87.57.71.71,0,0,0,.79-.59,4.17,4.17,0,0,0,.07-1.17c0-.64,0-.64.65-.64h.78c.18,0,.27,0,.27.25a8.18,8.18,0,0,1-.12,1.64,2,2,0,0,1-1.87,1.77,3.67,3.67,0,0,1-1.68-.11,2,2,0,0,1-1.33-1.22,3,3,0,0,1-.27-1.13c0-1.58,0-3.16,0-4.74a3.53,3.53,0,0,1,.15-.85,2.08,2.08,0,0,1,1.71-1.59,4.54,4.54,0,0,1,1.56,0,2,2,0,0,1,1.74,1.69,7.83,7.83,0,0,1,.11,1.6c0,.17-.07.24-.23.23H45.69c-.15,0-.21-.07-.21-.21,0-.29,0-.58,0-.87a3.85,3.85,0,0,0,0-.48.73.73,0,0,0-.73-.72.81.81,0,0,0-1,.61,2.5,2.5,0,0,0-.09.77Z"/><path class="cls-3" d="M49.4,31.55c0,.69,0,1.39,0,2.08a3.55,3.55,0,0,0,.1.86.8.8,0,0,0,.93.66.77.77,0,0,0,.79-.76,8.7,8.7,0,0,0,0-1.35c0-.22.08-.3.3-.29h1.13c.15,0,.26,0,.26.21a7,7,0,0,1-.13,1.77A2,2,0,0,1,51,36.39a3.81,3.81,0,0,1-1.68-.07,2.24,2.24,0,0,1-1.62-1.9,5.56,5.56,0,0,1-.1-1q0-1.85,0-3.69a4.55,4.55,0,0,1,.14-1.16,2.14,2.14,0,0,1,2-1.85,4.11,4.11,0,0,1,1.56.08,1.93,1.93,0,0,1,1.41,1.34,6,6,0,0,1,.18,1.94.16.16,0,0,1-.18.18H51.45c-.19,0-.19-.12-.19-.25,0-.41,0-.81,0-1.22-.07-.57-.3-.8-.82-.81a.82.82,0,0,0-.95.79,4,4,0,0,0-.06.69C49.41,30.16,49.4,30.85,49.4,31.55Z"/><path class="cls-3" d="M68.26,20.76H66.87c-.15,0-.17-.11-.19-.24l-.27-1.58c-.07-.41-.07-.41-.49-.41h-.83c-.44,0-.37-.06-.47.42s-.18,1-.27,1.49c-.06.31-.06.32-.39.32H62.69a5.65,5.65,0,0,1,.19-1.14c.54-2.66,1.09-5.33,1.63-8,.08-.41.08-.41.48-.41h1c.45,0,.39-.09.5.4.18.83.34,1.67.51,2.51l1.29,6.37A.28.28,0,0,1,68.26,20.76Z"/><path class="cls-3" d="M47.15,36.33H45.79c-.18,0-.21-.1-.24-.24-.08-.53-.17-1.06-.27-1.58s-.06-.39-.47-.39h-1c-.18,0-.26.05-.29.23-.09.56-.21,1.11-.29,1.67,0,.23-.11.33-.36.32-.43,0-.86,0-1.31,0a5.64,5.64,0,0,1,.2-1.14c.53-2.67,1.08-5.33,1.62-8,.08-.4.08-.4.49-.4H45c.31,0,.32,0,.38.32.21,1,.41,2,.62,3,.4,2,.79,3.94,1.19,5.91A.37.37,0,0,1,47.15,36.33Z"/><path class="cls-3" d="M73.2,16V11.61c0-.39,0-.39.41-.39h3.21c.37,0,.38,0,.37.34s.13.64-.07.83-.52,0-.79,0H75.2c-.19,0-.26.06-.26.25q0,1.11,0,2.22c0,.2.06.29.27.28.41,0,.81,0,1.22,0,.22,0,.33.06.3.3s.13.66-.08.87-.52,0-.79.06-.44,0-.65,0-.27,0-.27.24c0,.89,0,1.77,0,2.65,0,.23.11.26.29.26h1.61c.38,0,.38,0,.38.37s.11.58-.06.76-.49.07-.75.07H73.63c-.42,0-.43,0-.43-.42Z"/><path class="cls-3" d="M54.7,32.2V28.42c0-.33,0-.33-.34-.34h-1c-.19,0-.26-.06-.25-.25s0-.52,0-.78.08-.27.28-.27h4.3c.21,0,.32,0,.31.29s.12.71-.06.93-.6.07-.91.08c-.66,0-.58-.08-.58.57,0,2.35,0,4.69,0,7v.22c0,.42,0,.42-.43.42s-.67,0-1,0-.32,0-.32-.31c0-.54,0-1.07,0-1.61Z"/><path class="cls-3" d="M69.53,16.62c0-1.2,0-2.41,0-3.61,0-.55.06-.5-.52-.5h-.82c-.22,0-.28-.08-.27-.28s-.12-.71.06-.93.59-.08.91-.08h3.56c.35,0,.36,0,.36.35v.69c0,.19-.08.26-.26.25h-.91c-.37,0-.37,0-.37.39v7.25c0,.1,0,.2,0,.3s-.06.32-.29.31q-.59,0-1.17,0c-.22,0-.29-.08-.28-.28a2.26,2.26,0,0,0,0-.26Z"/><path class="cls-3" d="M48,16V11.61c0-.39,0-.39.37-.39h1.05c.32,0,.32,0,.32.34,0,.51,0,1,0,1.52V19c0,.1,0,.2,0,.3s.09.27.29.27h1.78c.14,0,.22,0,.21.19v.05c.08,1,.08,1-.89,1H48.44c-.43,0-.44,0-.44-.42Z"/><path class="cls-3" d="M60.17,31.61v4.21c0,.1,0,.2,0,.31s-.06.2-.2.2H58.65c-.17,0-.22-.08-.21-.24V27.27c0-.54,0-.48.49-.48h.65c.67,0,.58-.1.58.56C60.17,28.77,60.17,30.19,60.17,31.61Z"/><path class="cls-3" d="M54.36,16v4.56c0,.14-.07.2-.22.2h-1.3c-.12,0-.18-.06-.19-.19V11.46c0-.2.08-.25.26-.25H54c.31,0,.31,0,.32.3V16Z"/><path class="cls-4" d="M56.87,15.48a4.35,4.35,0,0,1,0-1,.33.33,0,0,1,.13.33C56.84,15,57,15.27,56.87,15.48Z"/><path class="cls-5" d="M58.85,17.56c0,.07,0,.19-.07.18s-.1-.1-.08-.19Z"/><path class="cls-6" d="M60.6,14.61c0-.07,0-.17,0-.17s.06.11,0,.18Z"/><path class="cls-7" d="M55.54,65.36c0-.17.18-.2.29-.26a19.57,19.57,0,0,1,7.51-2.68A20.29,20.29,0,0,1,85.91,77.49a2.17,2.17,0,0,1,0,1.24,1.3,1.3,0,0,1-1.88.61,1.6,1.6,0,0,1-.44-.42,1.65,1.65,0,0,0-.39-.4c-.37-.26-.6-.16-.66.27a2,2,0,0,0,.23,1.35l.25.41c.18.35.17.51-.13.76a3.6,3.6,0,0,1-1.79.93c-1.13.12-1.46,1-1.67,1.93a1.67,1.67,0,0,0,.21,1.25c.21.36.41.73.61,1.1a2.39,2.39,0,0,1,.26.64c.06.33-.11.51-.43.48a1,1,0,0,1-.44-.18,10.32,10.32,0,0,1-2.17-1.73,3.09,3.09,0,0,1-.68-1.09c-.36-1-.73-1.89-1.12-2.83a1.2,1.2,0,0,0-1.86-.57.6.6,0,0,0-.31.66l.06.29a1.61,1.61,0,0,1-.13,1.14,7.42,7.42,0,0,1-.57,1.08c-.33.47-.63.5-1,.06A5.35,5.35,0,0,0,69.36,83L68,82.51a2.17,2.17,0,0,1-1.56-1.8,1.54,1.54,0,0,0-.88-1.17l-.43-.21a5.36,5.36,0,0,1-1.38-.82,3.92,3.92,0,0,0-.9-.6c-.15-.06-.3-.11-.44,0s-.07.3,0,.44a4.19,4.19,0,0,0,.5.6l2.17,2.14a5,5,0,0,1,.37.42.92.92,0,0,1,.09,1.13,2,2,0,0,1-.44.52,3.6,3.6,0,0,1-1.22.65,1.28,1.28,0,0,1-1.37-.28c-.53-.5-1-1.06-1.49-1.58-.2-.21-.39-.44-.59-.64s-.2-.26-.36-.18-.11.25-.12.39a2.62,2.62,0,0,0,.23,1.14,4.42,4.42,0,0,0,2.13,2.43,3.46,3.46,0,0,1,.73.46.76.76,0,0,1,.25.82,1.63,1.63,0,0,1-.56,1,10,10,0,0,0-.81.79,2.13,2.13,0,0,0-.61,1.74,4.29,4.29,0,0,1-.27,2,7.06,7.06,0,0,0-.21.79.68.68,0,0,1-.37.51.94.94,0,0,0-.51.61c-.09.25-.16.5-.23.75a9.15,9.15,0,0,1-.42,1.14,3.5,3.5,0,0,1-2.63,2.11,4.72,4.72,0,0,1-.64.1.76.76,0,0,1-.8-.48,4.64,4.64,0,0,1-.39-1.59,15.32,15.32,0,0,1-.1-1.81c-.41.09-.58-.15-.69-.48a8.65,8.65,0,0,1-.25-1.23,1.86,1.86,0,0,0-.06-.34c-.12-.38-.28-.46-.66-.34l-.16.06c-.33.1-.41,0-.47-.29a2.06,2.06,0,0,1,0-.26,1.06,1.06,0,0,0-.5-.82,3.26,3.26,0,0,1-.69-.59.66.66,0,0,0-.79-.2,4.49,4.49,0,0,0-.54.26l-1.22.67c-.32.19-.62,0-.92,0s-.29-.26-.36-.44a20.08,20.08,0,0,1-1.35-9.33.82.82,0,0,1,.19-.47,6.35,6.35,0,0,0,1-1.38.32.32,0,0,1,.22-.19l.86-.29a.66.66,0,0,1,.34,0,16.51,16.51,0,0,1,3.91,1.12A8.4,8.4,0,0,0,55,80.2a2.34,2.34,0,0,0,2-.8.94.94,0,0,0,.08-1.14.63.63,0,0,0-.66-.31,1.16,1.16,0,0,0-.57.21.29.29,0,0,1-.45-.06l-.48-.61a1.19,1.19,0,0,0-.39-.35c-.2-.1-.36,0-.31.24s.14.44.21.66l.18.58a.17.17,0,0,1-.07.19c-.08,0-.14,0-.2,0a1.43,1.43,0,0,1-.34-.39A9.07,9.07,0,0,1,53.21,77a1.42,1.42,0,0,0-.56-.65.61.61,0,0,0-.8,0,5.11,5.11,0,0,1-2.68,1.14A3.34,3.34,0,0,0,48,78c-.52.32-.93.13-1.11-.45a2,2,0,0,1-.08-.42A.88.88,0,0,1,47.54,76a2.26,2.26,0,0,1,1.73.09.85.85,0,0,0,1.14-.93L50.35,75c-.07-.27-.05-.4.2-.5a11.56,11.56,0,0,0,1.81-1,2,2,0,0,1,.79-.2,4.67,4.67,0,0,1,2.48.23,1.47,1.47,0,0,0,1.75-.36,7.42,7.42,0,0,1,1.51-1.29c.18-.11.12-.21,0-.32a.94.94,0,0,0-1.12-.12,1.6,1.6,0,0,0-.45.41,4,4,0,0,1-.77.76,1.3,1.3,0,0,1-1.14.25,9.41,9.41,0,0,1-1.82-.58,2.61,2.61,0,0,1-.69-.44.67.67,0,0,1-.09-.94,1.41,1.41,0,0,1,.36-.37,4.47,4.47,0,0,1,2.22-.93c.5,0,1-.13,1.51-.15A10.06,10.06,0,0,0,59.35,69,5.59,5.59,0,0,1,61,68.75a1.26,1.26,0,0,1,.63.13c.26.13.29.27.06.45a4.52,4.52,0,0,1-.52.32l-1,.55a3.54,3.54,0,0,0-.46.33.3.3,0,0,0-.11.38.39.39,0,0,0,.34.24,1.21,1.21,0,0,0,.46-.08,7.33,7.33,0,0,0,1-.52l1.88-1.1.18-.12c.25-.2.27-.4,0-.62a4.33,4.33,0,0,0-.47-.38,5.75,5.75,0,0,1-.68-.54,1.38,1.38,0,0,1-.42-1.34.84.84,0,0,0-.53-1.06,2.9,2.9,0,0,0-1-.26,14.21,14.21,0,0,0-2.69,0C57,65.22,56.25,65.29,55.54,65.36Z"/><path class="cls-7" d="M75.29,93.44a3.89,3.89,0,0,1,2.33-3.37,19,19,0,0,1,3.13-.84A7.44,7.44,0,0,0,83.61,88c.17-.12.35-.22.52-.32a.31.31,0,0,1,.45.12,3.79,3.79,0,0,1,.61,1.75,1,1,0,0,1-.1.41,20.72,20.72,0,0,1-4.29,6.63.48.48,0,0,1-.64.12,5,5,0,0,0-.48-.21.71.71,0,0,0-.84.11.8.8,0,0,1-.22.13.28.28,0,0,1-.38-.28.27.27,0,0,1,0-.09c0-.14.11-.32,0-.4s-.3,0-.43.12c-.32.17-.62.38-.94.54s-.69.11-.82-.37c-.21-.76-.41-1.53-.66-2.29A1.62,1.62,0,0,1,75.29,93.44Z"/><path class="cls-7" d="M78.45,98.63a1,1,0,0,1-.36.31A20.13,20.13,0,0,1,69,102.58a20.42,20.42,0,0,1-8-.52c-.69-.19-.89-.62-.58-1.28a3.25,3.25,0,0,1,1.37-1.47,6.25,6.25,0,0,1,3.25-.8,12.38,12.38,0,0,1,3.52.66c.94.29,1.87.63,2.8.92,1.32.41,1.13.33,2-.38a10.22,10.22,0,0,1,1.47-1.07,4.1,4.1,0,0,1,2.95-.36A1.87,1.87,0,0,1,78.45,98.63Z"/><path class="cls-7" d="M86.11,86.6a.78.78,0,0,1-.44-.32,5.25,5.25,0,0,1-1.23-2.73A2.7,2.7,0,0,1,85,81.43a.64.64,0,0,0,.07-.72,3.53,3.53,0,0,1-.35-.76,1.28,1.28,0,0,1,1.14.29,1.73,1.73,0,0,1,.65,1.28A19.4,19.4,0,0,1,86.11,86.6Z"/><path class="cls-7" d="M47.46,74.9a17.68,17.68,0,0,1,1.52-3,1,1,0,0,1,.42-.37,3.39,3.39,0,0,1,1.72-.32.57.57,0,0,1,.22,0c.22.09.5.16.55.43s-.23.36-.4.51a.41.41,0,0,1-.11.07,7.31,7.31,0,0,0-2,1.63,6.57,6.57,0,0,1-1,.89A.94.94,0,0,1,47.46,74.9Z"/><path class="cls-7" d="M61.75,92.09a16.2,16.2,0,0,1,.47-3,1.85,1.85,0,0,1,1-1.17.58.58,0,0,1,.62,0,.55.55,0,0,1,.15.63,1.89,1.89,0,0,1-.24.65,6.13,6.13,0,0,0-.6,1.48,16.48,16.48,0,0,1-.58,1.67c-.07.17-.16.34-.25.51s-.14.24-.29.2-.16-.16-.18-.28A2.28,2.28,0,0,1,61.75,92.09Z"/><path class="cls-7" d="M52.29,67.8c.57,0,.74.24.69.77a1.6,1.6,0,0,1-.91,1.36,4.13,4.13,0,0,1-1.16.46.84.84,0,0,1-.8-.23.3.3,0,0,1,0-.43c.41-.52.8-1.06,1.23-1.57A1.43,1.43,0,0,1,52.29,67.8Z"/><path class="cls-8" d="M71,85.73a2,2,0,0,1-1-.32.42.42,0,0,1-.13-.69.89.89,0,0,1,1.24-.3,1.57,1.57,0,0,1,.72.65c.15.26.09.43-.18.56A1.58,1.58,0,0,1,71,85.73Z"/><path class="cls-8" d="M82.09,87.65a1.85,1.85,0,0,1-1-.33.4.4,0,0,1-.14-.63.91.91,0,0,1,1.24-.36,1.69,1.69,0,0,1,.7.57c.24.33.16.55-.22.69A1.43,1.43,0,0,1,82.09,87.65Z"/><path class="cls-9" d="M81.17,85.64a1,1,0,0,1-1-1,.4.4,0,0,1,.55-.42,1.8,1.8,0,0,1,1.06,1.08.22.22,0,0,1-.15.31A1,1,0,0,1,81.17,85.64Z"/><path class="cls-7" d="M64.85,31.58V33.8a2.51,2.51,0,0,1-.1.77.82.82,0,0,1-.87.58.81.81,0,0,1-.88-.56,2.75,2.75,0,0,1-.12-.9V29.43A3.61,3.61,0,0,1,63,28.7a.8.8,0,0,1,.88-.72.81.81,0,0,1,.94.65,2.33,2.33,0,0,1,.08.69Z"/><path class="cls-9" d="M65.55,13.83l.59,3.53a7.52,7.52,0,0,1-1.26,0l.59-3.55C65.49,13.77,65.52,13.77,65.55,13.83Z"/><path class="cls-10" d="M65.55,13.83h-.08c0-.06,0-.15,0-.15S65.57,13.77,65.55,13.83Z"/><path class="cls-9" d="M44.43,29.48c.16.63.22,1.27.33,1.91s.17,1,.25,1.56a5.31,5.31,0,0,1-1.26,0l.59-3.47Q44.38,29.39,44.43,29.48Z"/><path class="cls-11" d="M44.43,29.48h-.09a.11.11,0,1,1,.09,0Z"/></svg>