<svg xmlns="http://www.w3.org/2000/svg" viewBox="0 0 125.62 125.62"><style>.cls-1{fill:#025489;}.cls-2{fill:#abc6d8;}.cls-3{fill:#fff;}.cls-4{fill:#feffff;}.cls-5{fill:#fcfdfe;}.cls-6{fill:#02558b;}.cls-7{fill:#03558b;}.cls-8{fill:#04568c;}.cls-9{fill:#05578c;}</style><rect class="cls-1" width="125.62" height="125.62"/><path class="cls-2" d="M.11,0c0,.21,0,.42,0,.63V124.81c0,.22-.09.5,0,.65s.45.07.68.07H125.61s0,.09,0,.09-.22,0-.33,0H0V125Q0,62.7,0,.38C0,.25-.07.09.11,0Z"/><path class="cls-3" d="M80.92,68.59a.22.22,0,0,0,.08-.15,9,9,0,0,1,2-3.78c.66-.81,1.41-1.54,2.14-2.29a16.31,16.31,0,0,0,1.77-2.12l.12-.13.51.33a1.12,1.12,0,0,1-.25.42A21,21,0,0,1,85,63.47a22.47,22.47,0,0,0-1.89,2.13,8.35,8.35,0,0,0-1.48,3.11.6.6,0,0,0,.25.73c.53.39,1.05.78,1.62,1.14-.09.1-.19.07-.28.06-.5,0-1,0-1.5.06-.23,0-.28.11-.27.31a13.23,13.23,0,0,0,.4,2.73c.12.5.27,1,.41,1.49.09.29.08.31-.21.33s-.37,0-.47-.31A16.69,16.69,0,0,1,80.76,71s0,0,0-.08-.15,0-.22,0a9.5,9.5,0,0,0-2.65.88,5.59,5.59,0,0,0-2.78,3.6,12.88,12.88,0,0,0-.44,4.1,16.57,16.57,0,0,1-.43,4.81,11.43,11.43,0,0,1-4.3,6.4,18.56,18.56,0,0,1-5.67,2.81,27.08,27.08,0,0,1-4.35,1c-.23,0-.31.09-.31.32,0,1.79,0,3.57,0,5.36,0,.28,0,.28.31.29l7.57.17h.46a16.15,16.15,0,0,0,3.33-.18l4.36-.49c.31,0,.32,0,.32-.34V96.92a.91.91,0,0,1,1-1H87.06a.89.89,0,0,1,.85.87c0,.1,0,.2,0,.3v9.58a2.42,2.42,0,0,1,0,.38.84.84,0,0,1-.77.75H76.92a.89.89,0,0,1-1-1c0-.81,0-1.62,0-2.43a2.81,2.81,0,0,1,0-.29c0-.19-.06-.26-.25-.28l-3.58-.4-2.61-.28a4.84,4.84,0,0,0-.76,0l-7.56.16-7.57.17-6.9.15-10.33.23c-.62,0-.62,0-.62-.6v-3c0-.34,0-.34.34-.33l7.28.15,10.41.22a.57.57,0,0,1,.13,0c.19,0,.29,0,.27-.24a1.48,1.48,0,0,1,0-.21V95.07c0-.45,0-.45-.45-.49a23.47,23.47,0,0,1-5.62-1.2A17.05,17.05,0,0,1,45,91.83l-3.24-2a21.91,21.91,0,0,0-3-1.59s-.14,0-.15-.14c.6.07,1.19.18,1.78.22a11.25,11.25,0,0,0,5.14-.65,7,7,0,0,0,1.43-.77c1-.67,1.93-1.33,2.92-2a8.7,8.7,0,0,1,3.33-1.29.17.17,0,0,0,.16-.1l-1-.17a10.22,10.22,0,0,1-7.41-5.7,19.65,19.65,0,0,1-1.65-4.9A48.1,48.1,0,0,0,41.78,67a11.8,11.8,0,0,0-1.07-2.31,5.68,5.68,0,0,0-2.25-2.07c-.07,0-.17,0-.2-.18l.9-.07a17.71,17.71,0,0,1,8.73,1.45,22,22,0,0,1,5.8,3.9c.76.69,1.48,1.44,2.24,2.14a13.51,13.51,0,0,0,3.58,2.44,8.58,8.58,0,0,0,8.6-.65,20,20,0,0,0,2.57-2.13,27.51,27.51,0,0,1,2.86-2.31,8.55,8.55,0,0,1,2.18-1.14,3.13,3.13,0,0,1,3.6.93c.43.48.87.94,1.34,1.38C80.74,68.47,80.8,68.58,80.92,68.59Z"/><path class="cls-3" d="M22.53,21.12a4,4,0,0,1,3.27-1.25,5.29,5.29,0,0,1,1.48.21,3.83,3.83,0,0,1,2.34,1.77,7.44,7.44,0,0,1,1,3,15.35,15.35,0,0,1-.31,5.65,8,8,0,0,1-.74,1.9,4.76,4.76,0,0,1-3.31,2.47,8.61,8.61,0,0,1-3.61.06,5.29,5.29,0,0,1-4-3.29,10.23,10.23,0,0,1-.81-4.19c0-2.79,0-5.58,0-8.37a21.45,21.45,0,0,1,.09-2.26,10.72,10.72,0,0,1,.84-3.34,4.69,4.69,0,0,1,3.45-2.82,9.93,9.93,0,0,1,4.44.05,4.44,4.44,0,0,1,3.39,3.39,13.16,13.16,0,0,1,.33,2.65c0,.14-.05.21-.19.2H26.55c-.54,0-.51.12-.54-.5a6.12,6.12,0,0,0-.14-1.28A1.29,1.29,0,0,0,24.59,14a1.49,1.49,0,0,0-1.69.92,5.3,5.3,0,0,0-.35,1.76c-.12,1.45-.08,2.9-.08,4.35C22.47,21,22.5,21.06,22.53,21.12Z"/><path class="cls-3" d="M10.73,15.54c-1.15.48-2.28.85-3.4,1.25a.44.44,0,0,1-.07-.34c0-.9,0-1.79,0-2.68a.42.42,0,0,1,.32-.49,20.37,20.37,0,0,0,2.89-1.51,5.51,5.51,0,0,0,1.09-.83.53.53,0,0,1,.41-.17h3c.31,0,.31,0,.31.34V34.25c0,.61.08.54-.52.54H11.17c-.47,0-.44,0-.44-.42V15.54Z"/><path class="cls-3" d="M81.94,112H76.67a2.06,2.06,0,0,1-.74-.09,1.55,1.55,0,0,1-1-1.71,1.57,1.57,0,0,1,1.41-1.32,2.08,2.08,0,0,1,.25,0H87.29a2.07,2.07,0,0,1,.5,0,1.56,1.56,0,0,1-.17,3.06,3.46,3.46,0,0,1-.46,0Z"/><path class="cls-3" d="M81.89,94.86h-5.3a2,2,0,0,1-.7-.09,1.57,1.57,0,0,1,.46-3H87.21a2.24,2.24,0,0,1,.58.05A1.54,1.54,0,0,1,89,93.44a1.52,1.52,0,0,1-1.4,1.41,3,3,0,0,1-.42,0Z"/><path class="cls-3" d="M51.74,30.36V26.13c0-.37,0-.38.36-.38l2.13,0a3.74,3.74,0,0,1,.75.08,2,2,0,0,1,1.77,1.89,4.21,4.21,0,0,1,0,.5c0,1.48.06,3,0,4.43,0,.13,0,.25,0,.37a2.09,2.09,0,0,1-2.07,1.85c-.89.08-1.78,0-2.67,0-.2,0-.23-.09-.23-.25,0-.47,0-.93,0-1.39Z"/><path class="cls-3" d="M85.07,45.36c0,.68,0,1.37,0,2A3.29,3.29,0,0,1,85,48,2.27,2.27,0,0,1,82.57,50a4,4,0,0,1-1.24-.15,1.94,1.94,0,0,1-1.23-1.11,4.08,4.08,0,0,1-.32-1.72q0-1.76,0-3.51a4.86,4.86,0,0,1,.14-1.2,2,2,0,0,1,1.74-1.64,4.11,4.11,0,0,1,1.71,0A2,2,0,0,1,84.8,42a4.79,4.79,0,0,1,.29,1.72c0,.56,0,1.11,0,1.67Z"/><path class="cls-3" d="M89.47,45.7V41.08c0-.32,0-.32.32-.33h.87c.15,0,.21.06.2.2v8.53c0,.5,0,.47-.45.46-.81,0-.59.14-.91-.62-.61-1.43-1.2-2.88-1.79-4.32,0-.1-.09-.2-.14-.32-.12.08-.08.18-.08.26,0,1.48,0,3,0,4.43a2.26,2.26,0,0,1,0,.26c0,.3,0,.3-.29.31h-.92c-.14,0-.21-.06-.21-.2a2.09,2.09,0,0,0,0-.25V41.21c0-.5,0-.46.44-.46.73,0,.73,0,1,.66.57,1.32,1.13,2.64,1.7,4,0,.12.12.24.18.36Z"/><path class="cls-3" d="M75.4,34.92c-.5,0-1,0-1.45,0-.25,0-.24-.19-.28-.34-.29-1.09-.57-2.18-.85-3.27l0-.13c-.13-.47-.18-.5-.66-.45-.14,0-.2.07-.19.2s0,.5,0,.76c0,1,0,1.95,0,2.92,0,.29,0,.3-.3.3h-1c-.38,0-.38,0-.38-.4V26.08c0-.32,0-.33.33-.33l2.34,0a3,3,0,0,1,1.25.29,1.79,1.79,0,0,1,1,1.41,4.14,4.14,0,0,1-.06,1.75,1.55,1.55,0,0,1-.75,1.06c-.21.11-.2.24-.15.44.35,1.2.68,2.41,1,3.61A1.66,1.66,0,0,1,75.4,34.92Z"/><path class="cls-3" d="M81.44,30.36c0,.72,0,1.45,0,2.17a3.24,3.24,0,0,1-.28,1.22,2,2,0,0,1-1.37,1.18,4,4,0,0,1-1.91,0A2.14,2.14,0,0,1,76.25,33a5.2,5.2,0,0,1-.09-1q0-1.75,0-3.51a4.52,4.52,0,0,1,.18-1.32,2,2,0,0,1,1.57-1.51,4,4,0,0,1,2,0A2,2,0,0,1,81.18,27a3.43,3.43,0,0,1,.26,1.18C81.45,28.88,81.44,29.62,81.44,30.36Z"/><path class="cls-3" d="M44.47,44.67v4.9c0,.36,0,.37-.37.37h-.84c-.15,0-.23,0-.22-.22V41c0-.23.08-.29.28-.28a3.37,3.37,0,0,0,.55,0c.27,0,.39.09.49.33.6,1.43,1.23,2.86,1.85,4.29a.87.87,0,0,0,.17.33c.12-.06.06-.17.06-.25,0-1.45,0-2.9,0-4.35,0-.34,0-.34.33-.35h.83c.17,0,.23.06.23.22a2.8,2.8,0,0,0,0,.29v8.2a2.08,2.08,0,0,0,0,.25c0,.18-.09.22-.26.23-.82.05-.82.05-1.14-.71l-1.73-4.17A.88.88,0,0,0,44.47,44.67Z"/><path class="cls-3" d="M47.25,29.72v5c0,.14,0,.21-.19.2H46c-.12,0-.18-.05-.17-.17s0-.2,0-.3c0-2.74,0-5.49,0-8.23,0-.52-.05-.42.47-.48s.77.15,1,.64c.54,1.33,1.13,2.64,1.7,3.95.05.13.11.25.19.42a.45.45,0,0,0,.06-.33V26.11c0-.35,0-.35.37-.36s.56,0,.84,0,.21.05.2.2a2.09,2.09,0,0,0,0,.25v8.4c0,.32,0,.33-.33.32s-.58.11-.77-.05a1.9,1.9,0,0,1-.32-.67l-1.72-4.12c-.05-.13-.11-.25-.16-.37Z"/><path class="cls-3" d="M83.87,29.64v4.77a2.81,2.81,0,0,0,0,.29c0,.16-.05.23-.22.22h-1c-.17,0-.26,0-.25-.24a2.09,2.09,0,0,0,0-.25V26.12c0-.36,0-.37.36-.36s.56-.1.78,0,.23.43.33.66c.57,1.31,1.13,2.63,1.71,4,0,.1.05.24.22.32v-.42c0-1.41,0-2.82,0-4.23,0-.33,0-.33.34-.34s.55,0,.83,0,.21.05.2.2v8.61c0,.38,0,.36-.36.36-.74,0-.74,0-1-.65l-1.75-4.21A1,1,0,0,0,83.87,29.64Z"/><path class="cls-3" d="M92.19,34.13a1.71,1.71,0,0,1-1.94.91,2,2,0,0,1-1.76-1.39,4.38,4.38,0,0,1-.26-1.52c0-1.19,0-2.37,0-3.56A4.56,4.56,0,0,1,88.5,27,1.93,1.93,0,0,1,90,25.74a4,4,0,0,1,1.94.05,1.79,1.79,0,0,1,1.25,1.14,4.39,4.39,0,0,1,.22,1.65c0,.16-.07.21-.22.21H92c-.17,0-.21-.08-.21-.23a5.14,5.14,0,0,0,0-1,.77.77,0,0,0-.82-.72.82.82,0,0,0-.91.64,3.51,3.51,0,0,0-.08.91c0,1.25,0,2.49,0,3.73a3.23,3.23,0,0,0,.12,1,.76.76,0,0,0,.75.61.86.86,0,0,0,.93-.5,1.91,1.91,0,0,0,.18-.85c0-.28,0-.56,0-.84s-.07-.27-.27-.25-.3,0-.46,0-.26,0-.26-.23,0-.44,0-.67.07-.19.21-.19c.7,0,1.39,0,2.09,0,.25,0,.21.17.21.32v3.64c0,.16,0,.33,0,.5s-.06.2-.2.19h-.71c-.14,0-.21-.05-.21-.2A1.62,1.62,0,0,0,92.19,34.13Z"/><path class="cls-3" d="M71.4,44.35v3.17a3.78,3.78,0,0,1-.16.95A2,2,0,0,1,69.54,50a3.78,3.78,0,0,1-1.77-.09,1.81,1.81,0,0,1-1.23-1.16,3.45,3.45,0,0,1-.25-1.26c0-1.33,0-2.65,0-4,0-.8,0-1.61,0-2.42,0-.31,0-.31.32-.32h1c.33,0,.33,0,.33.35s0,.51,0,.76c0,1.71,0,3.43,0,5.14A3.8,3.8,0,0,0,68,48.16a.85.85,0,0,0,1.16.56.76.76,0,0,0,.47-.5,3.19,3.19,0,0,0,.15-1.07V41.21c0-.52-.06-.45.47-.46h.54c.61,0,.61,0,.61.63v3Z"/><path class="cls-3" d="M79.8,14.58c0,.9,0,2,0,3.07a4.1,4.1,0,0,1-.26,1.14,1.77,1.77,0,0,1-1.22,1.11,3.75,3.75,0,0,1-2.1,0,1.85,1.85,0,0,1-1.29-1.21,4.09,4.09,0,0,1-.25-1.35c0-2.1,0-4.21,0-6.31,0-.21,0-.31.27-.3.38,0,.76,0,1.13,0,.16,0,.24.05.22.22a2.8,2.8,0,0,0,0,.29V17a3.76,3.76,0,0,0,.14,1.2.81.81,0,0,0,.82.59.8.8,0,0,0,.82-.58,3.27,3.27,0,0,0,.13-1.08V11.28c0-.57-.08-.52.51-.52h.88c.18,0,.25.06.24.24a2.8,2.8,0,0,0,0,.29Z"/><path class="cls-3" d="M57.62,15.33c0,.81,0,1.62,0,2.43a2.35,2.35,0,0,0,.05.37.87.87,0,0,0,1.27.59.71.71,0,0,0,.36-.49,2.26,2.26,0,0,0,.07-.63v-.75c0-.39,0-.36.37-.36h1c.14,0,.21,0,.2.19a6.16,6.16,0,0,1-.16,1.91A1.93,1.93,0,0,1,59.37,20a3.72,3.72,0,0,1-1.66,0A2.16,2.16,0,0,1,56,18a5.21,5.21,0,0,1-.08-1c0-1.1,0-2.21,0-3.31a4.66,4.66,0,0,1,.22-1.48,2,2,0,0,1,1.48-1.39,3.8,3.8,0,0,1,2,0,1.76,1.76,0,0,1,1.15,1A4.74,4.74,0,0,1,61,14c0,.11-.06.15-.16.15H59.6c-.14,0-.19-.07-.19-.2s0-.48,0-.71a3,3,0,0,0,0-.67.69.69,0,0,0-.68-.62.82.82,0,0,0-.91.44,1.31,1.31,0,0,0-.11.52C57.6,13.69,57.64,14.51,57.62,15.33Z"/><path class="cls-3" d="M95.23,15.32v2.21a2.32,2.32,0,0,0,.1.7.78.78,0,0,0,.82.58.74.74,0,0,0,.79-.61A5.46,5.46,0,0,0,97,17c0-.58-.07-.49.52-.5.29,0,.58,0,.87,0s.22.06.22.22a7.72,7.72,0,0,1-.1,1.66A2,2,0,0,1,96.65,20a3.73,3.73,0,0,1-1.45-.09,2,2,0,0,1-1.43-1.29,3,3,0,0,1-.21-1c0-1.56-.06-3.12,0-4.68a3.66,3.66,0,0,1,.18-.86,2,2,0,0,1,1.5-1.37,3.82,3.82,0,0,1,1.78,0,2,2,0,0,1,1.55,1.81,9.85,9.85,0,0,1,0,1.33c0,.14,0,.21-.19.21H97.21C97,14.1,97,14,97,13.87c0-.39,0-.78,0-1.17a.8.8,0,0,0-1-.8.74.74,0,0,0-.63.54,2.16,2.16,0,0,0-.09.62v2.26Z"/><path class="cls-3" d="M55.35,19.93H54c-.16,0-.21-.08-.23-.23-.08-.51-.16-1-.26-1.52s0-.37-.44-.38-.64,0-1,0-.27.07-.3.25c-.09.54-.2,1.07-.27,1.61,0,.21-.12.27-.32.27H50a.41.41,0,0,1,0-.34l1.71-8.43c.08-.4.08-.4.51-.4h.88c.52,0,.43,0,.53.43.2.91.37,1.82.56,2.74.39,1.92.77,3.84,1.16,5.77A.24.24,0,0,1,55.35,19.93Z"/><path class="cls-3" d="M45.14,34.92c-.47,0-.89,0-1.3,0-.21,0-.27-.1-.3-.27-.08-.52-.18-1-.26-1.57,0-.22-.12-.3-.35-.29a8.34,8.34,0,0,1-1,0c-.23,0-.31.08-.34.31-.07.51-.18,1-.26,1.52,0,.21-.11.31-.34.3-.42,0-.84,0-1.3,0,.12-.59.23-1.15.34-1.7.47-2.34.95-4.67,1.42-7,.1-.47.1-.47.58-.47s.67,0,1,0,.29.12.33.32c.26,1.34.54,2.67.81,4,.31,1.5.61,3,.92,4.5C45.11,34.68,45.12,34.77,45.14,34.92Z"/><path class="cls-3" d="M63.37,28.41a4,4,0,0,0-.15-.91.72.72,0,0,0-.88-.57.74.74,0,0,0-.65.79,1.38,1.38,0,0,0,.37,1,10.73,10.73,0,0,0,.86.79,14.57,14.57,0,0,1,1.08,1,3.12,3.12,0,0,1,1,2.25,2.16,2.16,0,0,1-2.13,2.27,3.37,3.37,0,0,1-1-.1A2.22,2.22,0,0,1,60.19,33c0-.25-.18-.53,0-.74s.43-.14.66-.2l.53-.11c.18-.05.26,0,.26.2a2.53,2.53,0,0,0,.2,1,.89.89,0,0,0,.54.55.73.73,0,0,0,1-.67,1.77,1.77,0,0,0-.5-1.41c-.4-.42-.85-.77-1.28-1.15a9.46,9.46,0,0,1-.73-.68A2.7,2.7,0,0,1,60.25,27a1.78,1.78,0,0,1,1.07-1.17,3,3,0,0,1,2-.12,1.78,1.78,0,0,1,1.22,1.06,4.27,4.27,0,0,1,.27,1.05c0,.17,0,.29-.21.33C64.18,28.25,63.8,28.33,63.37,28.41Z"/><path class="cls-3" d="M52,43.4a3.34,3.34,0,0,0-.12-.88.74.74,0,0,0-.91-.6.76.76,0,0,0-.64.8,1.45,1.45,0,0,0,.53,1.18l1.31,1.16a5.08,5.08,0,0,1,1,1.16,3,3,0,0,1,.38,2.06,2.11,2.11,0,0,1-2,1.75,3.05,3.05,0,0,1-1-.07,2.06,2.06,0,0,1-1.44-1.11,4.29,4.29,0,0,1-.36-1.45.16.16,0,0,1,.15-.2L50,47c.17,0,.22,0,.22.2a2.78,2.78,0,0,0,.21,1,.88.88,0,0,0,.64.54.69.69,0,0,0,.9-.66,1.77,1.77,0,0,0-.51-1.45c-.46-.47-1-.87-1.47-1.31l-.43-.4a2.7,2.7,0,0,1-.72-2.73,1.88,1.88,0,0,1,1.32-1.39,3.11,3.11,0,0,1,1.57-.08,1.8,1.8,0,0,1,1.41,1.12,4.27,4.27,0,0,1,.27,1c0,.18,0,.28-.23.31C52.8,43.24,52.42,43.32,52,43.4Z"/><path class="cls-3" d="M93.22,46.93a4.19,4.19,0,0,0,.1.83,1.7,1.7,0,0,0,.27.65.87.87,0,0,0,.94.3A.73.73,0,0,0,95,48a1.75,1.75,0,0,0-.57-1.43c-.52-.48-1.06-.94-1.59-1.41a2.83,2.83,0,0,1-1-1.47,3.2,3.2,0,0,1,0-1.41,1.93,1.93,0,0,1,1.41-1.51,3.27,3.27,0,0,1,1.49-.07,1.82,1.82,0,0,1,1.42,1.12,4.05,4.05,0,0,1,.27,1.09c0,.14,0,.24-.18.27l-1,.2c-.17,0-.24,0-.23-.19a2.35,2.35,0,0,0-.13-.74.71.71,0,0,0-.84-.52.72.72,0,0,0-.68.68,1.35,1.35,0,0,0,.43,1.21c.44.41.89.8,1.34,1.2a5.57,5.57,0,0,1,1,1.14,3,3,0,0,1,.41,2.17,2.11,2.11,0,0,1-2,1.71A3.25,3.25,0,0,1,93.52,50a2.08,2.08,0,0,1-1.4-1.1,3.65,3.65,0,0,1-.34-1.41c0-.16,0-.23.2-.25Z"/><path class="cls-3" d="M83.9,13.4a4.53,4.53,0,0,0-.15-.92.73.73,0,0,0-1-.52.67.67,0,0,0-.51.5,1.34,1.34,0,0,0,.32,1.28,10.09,10.09,0,0,0,.83.77c.38.34.79.66,1.14,1a3.18,3.18,0,0,1,.92,2.55A2.11,2.11,0,0,1,83.66,20,3.25,3.25,0,0,1,82.34,20,2,2,0,0,1,81,18.81a3.61,3.61,0,0,1-.32-1.34c0-.14,0-.24.18-.27.41-.07.81-.19,1.24-.24,0,.26.07.51.11.76a1.77,1.77,0,0,0,.25.66.86.86,0,0,0,1,.35.73.73,0,0,0,.48-.75,1.73,1.73,0,0,0-.58-1.42c-.47-.44-1-.86-1.44-1.28l-.4-.37a2.71,2.71,0,0,1-.73-2.66A1.87,1.87,0,0,1,82,10.81a3,3,0,0,1,1.69-.08,1.78,1.78,0,0,1,1.28,1,3.37,3.37,0,0,1,.3,1.17c0,.13,0,.21-.16.23C84.73,13.24,84.33,13.36,83.9,13.4Z"/><path class="cls-3" d="M40.17,15.35V11.13c0-.37,0-.37.36-.37h2.55a2,2,0,0,1,2,1.77,4.2,4.2,0,0,1,0,1.58,2,2,0,0,1-1.94,1.69c-.32,0-.64,0-1,0s-.34,0-.34.35v3.6a.14.14,0,0,1-.16.15H40.32c-.11,0-.15-.06-.15-.16V15.35Z"/><path class="cls-3" d="M45.8,15.37V11.15c0-.39,0-.39.39-.39h3.14c.32,0,.32,0,.32.32a4.86,4.86,0,0,1,0,.54c0,.33,0,.33-.35.33H47.79c-.29,0-.3,0-.3.31v2.05c0,.19,0,.27.26.26h1.17c.28,0,.29,0,.29.31s0,.39,0,.58-.06.3-.28.29H47.77c-.23,0-.29.08-.28.29v2.42c0,.31,0,.31.34.32.5,0,1,0,1.5,0s.36,0,.36.37c0,.18,0,.37,0,.55s-.07.24-.25.24H48.07c-.64,0-1.28,0-1.92,0-.34,0-.35,0-.35-.34Z"/><path class="cls-3" d="M99.53,15.34c0-1.39,0-2.79,0-4.18,0-.4,0-.4.38-.4h3.13c.32,0,.32,0,.33.32v.5c0,.37,0,.37-.36.37s-1,0-1.46,0c-.33,0-.34,0-.34.31v2c0,.29,0,.29.31.3h1.17c.18,0,.25.06.24.24s0,.47,0,.71-.08.23-.25.23h-1.13c-.33,0-.34,0-.34.35v2.34c0,.33,0,.33.32.34H103c.47,0,.42,0,.41.39s.1.53,0,.69-.48.07-.72.07c-.93,0-1.87,0-2.8,0-.32,0-.32,0-.32-.32C99.53,18.19,99.53,16.76,99.53,15.34Z"/><path class="cls-3" d="M62,15.36V11.14c0-.38,0-.38.35-.38h3.14c.35,0,.35,0,.35.37,0,.2,0,.39,0,.59s-.08.24-.25.24H64c-.37,0-.37,0-.37.36,0,.65,0,1.31,0,2,0,.29,0,.29.3.3H65c.33,0,.33,0,.34.35s0,.39,0,.59-.06.25-.24.24H63.91c-.22,0-.29.07-.29.29q0,1.23,0,2.46c0,.24.09.28.3.28.51,0,1,0,1.55,0,.35,0,.35,0,.36.33s0,.4,0,.59-.07.24-.25.24H63.66c-.45,0-.89,0-1.34,0s-.37,0-.37-.39Z"/><path class="cls-3" d="M74.2,40.75h2.09c.22,0,.3.08.28.29s0,.42,0,.62,0,.33-.32.34h-1c-.16,0-.24,0-.22.21v7.27c0,.48.05.46-.44.46h-1c-.23,0-.3-.08-.28-.29s0-.3,0-.46V42.51c0-.1,0-.2,0-.3s-.07-.22-.22-.21H72.08c-.18,0-.25-.07-.24-.25s0-.5,0-.75.09-.25.27-.25Z"/><path class="cls-3" d="M56.91,45.94V49.5c0,.48,0,.44-.46.44h-1c-.16,0-.23-.06-.22-.22a2.8,2.8,0,0,0,0-.29V42.36c0-.36,0-.36-.37-.36h-.92c-.2,0-.27-.07-.26-.27s0-.47,0-.71,0-.27.26-.27h4.22c.18,0,.25.06.24.24s0,.51,0,.76-.09.26-.28.25h-.79c-.47,0-.42,0-.42.43Z"/><path class="cls-3" d="M62.68,46V42.32c0-.31,0-.32-.33-.32h-1c-.16,0-.22-.07-.22-.23s0-.52,0-.79.08-.23.25-.23H65.6c.18,0,.25.06.25.24a6.26,6.26,0,0,0,0,.75c0,.21-.09.27-.28.26h-.92c-.28,0-.29,0-.29.31v7.31c0,.31,0,.32-.33.32H62.94c-.2,0-.27-.06-.27-.26,0-.82,0-1.65,0-2.47Z"/><path class="cls-3" d="M66.6,30.92V27.49c0-.55.06-.5-.53-.5h-.75c-.18,0-.29,0-.27-.26s-.14-.7.07-.92.56,0,.85,0h3.47c.31,0,.31,0,.32.33s0,.44,0,.67-.06.25-.24.24h-.71c-.6,0-.52-.06-.52.5,0,1.06,0,2.12,0,3.18v4c0,.14,0,.2-.19.2h-1.3c-.14,0-.2-.06-.19-.2v-3.8Z"/><path class="cls-3" d="M87.12,16c0-1.2,0-2.4,0-3.6,0-.39,0-.39-.37-.4h-.92c-.15,0-.24,0-.24-.2s0-.56,0-.84.06-.19.2-.19h4.14c.36,0,.36,0,.37.37,0,.21,0,.42,0,.63s-.07.24-.25.23h-1c-.18,0-.26.06-.25.24a2.8,2.8,0,0,1,0,.29v7.2c0,.16,0,.22-.21.22H87.42c-.29,0-.29,0-.29-.31C87.12,18.41,87.12,17.2,87.12,16Z"/><path class="cls-3" d="M34.82,101.88v1.29a1.74,1.74,0,0,1-.26,1,1.22,1.22,0,0,1-1,.61h-.71a1.3,1.3,0,0,1-1.3-1,1.91,1.91,0,0,1-.1-.58v-2.71a1.71,1.71,0,0,1,.18-.77A1.31,1.31,0,0,1,32.75,99h.55a1.41,1.41,0,0,1,1.51,1.47c0,.48,0,1,0,1.46Z"/><path class="cls-3" d="M73.56,14.64V17.9a4.55,4.55,0,0,1-.12,1,1.46,1.46,0,0,1-1.25,1.13,7,7,0,0,1-1.29.08c-.18,0-.26-.06-.25-.25s0-.5,0-.75.06-.2.2-.2l.17,0c.63-.06.82-.25.86-.9,0-.14,0-.28,0-.41V11c0-.14,0-.21.19-.21h1.29c.14,0,.2.06.2.2a2.8,2.8,0,0,0,0,.29v3.39Z"/><path class="cls-3" d="M60.6,45.36v4.18c0,.4,0,.4-.38.4h-1c-.18,0-.26-.06-.25-.24a1.47,1.47,0,0,0,0-.21V41.21c0-.5,0-.46.45-.46h1c.19,0,.27.06.26.26,0,.64,0,1.28,0,1.92Z"/><path class="cls-3" d="M78.76,45.35v4.19c0,.42,0,.4-.42.4h-1c-.18,0-.27,0-.25-.24a2.09,2.09,0,0,0,0-.25V41.21c0-.51-.06-.45.48-.46h.88c.3,0,.3,0,.3.3,0,.5,0,1,0,1.5Z"/><path class="cls-4" d="M41.86,45.37v4.22c0,.34,0,.35-.34.35H40.44c-.16,0-.24-.06-.23-.22v-8.6c0-.36,0-.37.37-.37h1c.18,0,.25,0,.25.24s0,.53,0,.79Z"/><path class="cls-4" d="M92.49,15.36v4.22c0,.35,0,.35-.33.35H91.07c-.18,0-.25-.07-.24-.25a2.09,2.09,0,0,0,0-.25V11.07c0-.3,0-.31.3-.31h1.05c.31,0,.31,0,.31.33Z"/><path class="cls-3" d="M91.54,55.23c.57,0,.58-.15.55.58a5.14,5.14,0,0,1-.3,1.59,3,3,0,0,1-2,2,5.8,5.8,0,0,1-1.8.29c-.19,0-.28-.06-.27-.26A5.35,5.35,0,0,1,88.24,57a3.24,3.24,0,0,1,2.34-1.64A3.87,3.87,0,0,1,91.54,55.23Z"/><path class="cls-3" d="M82.53,62.44a4.65,4.65,0,0,1-.81,2.38c-.06.1-.13.18-.27.1a4.1,4.1,0,0,1-2.06-2.61,3,3,0,0,1,0-1,5,5,0,0,1,.75-1.84c.06-.09.1-.22.25-.13a4.27,4.27,0,0,1,2,2.35A2.34,2.34,0,0,1,82.53,62.44Z"/><path class="cls-3" d="M82.66,58.46a4.88,4.88,0,0,1,.8-2.6c.1-.15.19-.17.34-.07a4.83,4.83,0,0,1,1.65,1.62,2.86,2.86,0,0,1,.31,2.14A5.26,5.26,0,0,1,85,61.24c-.08.13-.15.21-.32.1A4.94,4.94,0,0,1,83,59.65,2.56,2.56,0,0,1,82.66,58.46Z"/><path class="cls-3" d="M89.36,61.58a3.9,3.9,0,0,1,2.51,1.08c.07.06.12.12,0,.21a3.66,3.66,0,0,1-2.52,1.55,3.57,3.57,0,0,1-2.64-1.07c-.06-.05-.11-.12,0-.21A3.76,3.76,0,0,1,89.36,61.58Z"/><path class="cls-3" d="M89,67a4.39,4.39,0,0,1-2.36,1.11,2.44,2.44,0,0,1-1.3-.24,4.35,4.35,0,0,1-1.55-1.31c-.09-.11-.13-.2,0-.31a4.06,4.06,0,0,1,2.47-1,2.42,2.42,0,0,1,.85.16A4.4,4.4,0,0,1,89,67Z"/><path class="cls-5" d="M66.57,21.48l-.1-.26c-.07-.19-.07-.32.16-.42a.82.82,0,0,0,.48-.65c0-.13,0-.22-.16-.22h-.38c-.18,0-.28,0-.27-.26s0-.66,0-1c0-.17,0-.26.23-.25.37,0,.73,0,1.09,0,.15,0,.24.05.23.21a12.52,12.52,0,0,1,0,1.5A1.39,1.39,0,0,1,66.57,21.48Z"/><path class="cls-6" d="M58,97.51v2.55c0,.32,0,.32-.32.32-.49,0-1,0-1.47,0s-.39,0-.39-.39v-4.3c0-.23,0-.45,0-.67s0-.27.25-.28c.55,0,1.09,0,1.63,0,.29,0,.3,0,.3.3Z"/><path class="cls-6" d="M22.47,26.77v-2a.66.66,0,0,1,.12-.43,2.11,2.11,0,0,1,2.16-.88,1.31,1.31,0,0,1,.93.63,2.26,2.26,0,0,1,.35,1A20.43,20.43,0,0,1,26,30a4.52,4.52,0,0,1-.22.8,1.53,1.53,0,0,1-2.62.37,3.07,3.07,0,0,1-.52-1.22,9.57,9.57,0,0,1-.14-2Z"/><path class="cls-7" d="M53.43,30.32V27.27c0-.31,0-.31.29-.32,1.06,0,1.36.24,1.36,1.31q0,2.07,0,4.14a2.46,2.46,0,0,1-.06.66.83.83,0,0,1-.73.66h-.12c-.74.08-.74.08-.74-.65Z"/><path class="cls-6" d="M81.51,45.3V43a1.48,1.48,0,0,1,0-.21A.91.91,0,0,1,82.88,42a.64.64,0,0,1,.36.38,1.71,1.71,0,0,1,.13.7c0,1.52,0,3,0,4.56a1.92,1.92,0,0,1-.06.53.91.91,0,0,1-1.74,0,3.69,3.69,0,0,1-.07-.88v-2Z"/><path class="cls-8" d="M71.93,28.28c0-.38,0-.75,0-1.13,0-.18.06-.26.24-.25l.38,0c.86,0,1.08.45,1.14,1.09a3.28,3.28,0,0,1,0,.83.93.93,0,0,1-.78.78l-.12,0c-.81.12-.81.12-.81-.69Z"/><path class="cls-6" d="M79.75,30.32c0,.72,0,1.45,0,2.17a2.51,2.51,0,0,1-.08.67.91.91,0,0,1-1.74,0,3.29,3.29,0,0,1-.08-.83v-4a5.51,5.51,0,0,1,.06-.71.8.8,0,0,1,.86-.74.82.82,0,0,1,.91.68,1.93,1.93,0,0,1,.06.63Z"/><path class="cls-9" d="M52.72,13.2c.12.7.23,1.4.35,2.1.06.4.12.8.19,1.2,0,.17,0,.23-.2.22a5.55,5.55,0,0,1-.91,0,1.9,1.9,0,0,1,.08-.85c.11-.75.23-1.51.36-2.27,0-.12.06-.24.09-.36Z"/><path class="cls-9" d="M43,31.71a9.33,9.33,0,0,1-1.18,0l.56-3.45A20.74,20.74,0,0,1,43,31.71Z"/><path class="cls-6" d="M41.85,13.26c0-.34,0-.69,0-1s.09-.28.3-.27.47,0,.7,0a.73.73,0,0,1,.69.67,3.93,3.93,0,0,1,0,1.28.78.78,0,0,1-.65.68l-.16,0c-.87.11-.87.11-.87-.75Z"/></svg>