<svg xmlns="http://www.w3.org/2000/svg" viewBox="0 0 125.62 125.62"><style>.cls-1{fill:#183667;}.cls-2{fill:#b2bccd;}.cls-3{fill:#fff;}.cls-4{fill:#fefefe;}.cls-5{fill:#feffff;}.cls-6{fill:#183668;}.cls-7{fill:#193769;}.cls-8{fill:#1b396a;}.cls-9{fill:#1b386a;}.cls-10{fill:#1a3769;}.cls-11{fill:#193768;}</style><rect class="cls-1" width="125.62" height="125.62"/><path class="cls-1" d="M0,125.51V0H125.53a.91.91,0,0,1,0,.46V125c0,.57.07.51-.51.51H.46A.9.9,0,0,1,0,125.51Z"/><path class="cls-2" d="M0,125.51H124.9c.63,0,.63,0,.63-.63V0s.09,0,.09.05,0,.22,0,.33V125.6H.38C.25,125.59.09,125.69,0,125.51Z"/><path class="cls-3" d="M72.78,110.15A16.14,16.14,0,0,1,64,107.61a.57.57,0,0,0-.73,0,16.07,16.07,0,0,1-7.88,2.62A16.48,16.48,0,0,1,38.19,97a16,16,0,0,1,.25-7.42.45.45,0,0,0-.19-.55,16.48,16.48,0,0,1,7.42-29,12.66,12.66,0,0,1,1.95-.23.54.54,0,0,0,.57-.4A16.48,16.48,0,0,1,64.93,48.84a16.48,16.48,0,0,1,14,10.6.49.49,0,0,0,.51.36A16.46,16.46,0,0,1,94.73,73.51,16.08,16.08,0,0,1,89,88.91a.63.63,0,0,0-.23.73A16.46,16.46,0,0,1,76.18,109.8,16.84,16.84,0,0,1,72.78,110.15Z"/><path class="cls-3" d="M24.67,14.33a1.32,1.32,0,0,0-.51,0H18.48c-.31,0-.31,0-.32-.3V11.06c0-.28,0-.28.32-.29H28.85c.3,0,.31,0,.31.29,0,.85,0,1.7,0,2.55a2.31,2.31,0,0,1,0,.46Q26.64,24.24,24.19,34.4c-.09.38-.09.38-.45.38H20a.46.46,0,0,1-.35-.06Z"/><path class="cls-3" d="M10.85,15.54c-1.17.48-2.3.86-3.43,1.25a.67.67,0,0,1,0-.39c0-.88,0-1.76,0-2.63a.42.42,0,0,1,.32-.49,21.64,21.64,0,0,0,2.71-1.39A7.32,7.32,0,0,0,11.67,11a.57.57,0,0,1,.44-.18h3c.31,0,.31,0,.32.33V34.26c0,.58.06.52-.5.53h-3.6c-.53,0-.5.07-.5-.48V15.54Z"/><path class="cls-4" d="M83.38,15.33V11.14c0-.38,0-.38.4-.38h.88c.41,0,.39,0,.39.38V14c0,.13,0,.25,0,.38s.08.24.25.23h1.34c.28,0,.29,0,.29-.32v-3c0-.57-.08-.49.52-.5h.92c.15,0,.23.05.23.22a1.47,1.47,0,0,0,0,.21v8.32c0,.08,0,.17,0,.25s-.06.17-.18.17H87.12c-.19,0-.19-.11-.19-.24V17.34c0-.41,0-.83,0-1.25,0-.21,0-.31-.27-.3-.45,0-.89,0-1.34,0-.23,0-.27.1-.27.3v3.39c0,.51.06.44-.44.45h-.92c-.3,0-.3,0-.31-.3v-4.3Z"/><path class="cls-3" d="M68.48,30.35v4.23c0,.33,0,.33-.34.33s-.7,0-1,0-.28-.08-.28-.29c0-1.12,0-2.23,0-3.35,0-.57.06-.49-.48-.49H65.25c-.3,0-.3,0-.3.3v3.3c0,.11,0,.22,0,.34s-.07.19-.21.18H63.49c-.16,0-.23-.07-.21-.23V26.21c0-.48-.07-.46.44-.46h.88c.39,0,.35,0,.35.38,0,1,0,1.95,0,2.92,0,.58-.1.53.53.53.34,0,.67,0,1,0s.32,0,.32-.32c0-1,0-2,0-3.05,0-.48,0-.46.45-.46.32,0,.64,0,1,0s.27.05.26.26c0,.68,0,1.36,0,2Z"/><path class="cls-3" d="M87.55,30.34v2.21a3,3,0,0,1-.21,1,2,2,0,0,1-1.46,1.36,4,4,0,0,1-1.95,0,2,2,0,0,1-1.37-1.23,4.17,4.17,0,0,1-.28-1.47q0-1.91,0-3.81a4,4,0,0,1,.18-1.19,2,2,0,0,1,1.59-1.49,4.37,4.37,0,0,1,1.87,0A2,2,0,0,1,87.32,27a4.4,4.4,0,0,1,.25,1.56v1.76Z"/><path class="cls-3" d="M77.14,19.93H75.68c-.23,0-.23-.17-.26-.31-.24-.87-.46-1.75-.69-2.62-.09-.34-.18-.67-.26-1,0-.18-.12-.28-.31-.25H74c-.21,0-.32,0-.29.28a2.09,2.09,0,0,1,0,.25v3.26c0,.45,0,.4-.41.4h-1c-.16,0-.23-.06-.21-.22V11.22c0-.45-.08-.47.44-.46.76,0,1.53,0,2.3,0a3.29,3.29,0,0,1,.7.11A1.89,1.89,0,0,1,77,12.56a4.27,4.27,0,0,1-.07,1.67,1.58,1.58,0,0,1-.75,1.06c-.21.11-.22.23-.16.42.35,1.24.7,2.47,1,3.7A1.37,1.37,0,0,1,77.14,19.93Z"/><path class="cls-3" d="M55.61,34.91H54.15c-.19,0-.23-.1-.27-.25-.18-.73-.38-1.45-.57-2.18-.13-.5-.27-1-.39-1.5,0-.2-.13-.29-.34-.26h-.16c-.29,0-.29,0-.3.31v.63c0,1,0,1.92,0,2.89,0,.35,0,.35-.37.35H50.67c-.17,0-.23-.06-.22-.22a2.09,2.09,0,0,0,0-.25V25.92c0-.13.06-.17.18-.17a19.28,19.28,0,0,1,3.13.11,1.94,1.94,0,0,1,1.67,1.78,4.05,4.05,0,0,1-.11,1.66,1.5,1.5,0,0,1-.72,1c-.2.11-.22.22-.16.43.37,1.27.72,2.54,1.08,3.82C55.55,34.63,55.57,34.74,55.61,34.91Z"/><path class="cls-3" d="M56.07,19.93H54.63c-.2,0-.22-.11-.26-.25-.29-1.14-.59-2.27-.89-3.4a.53.53,0,0,0,0-.12c-.1-.4-.31-.52-.72-.41a.15.15,0,0,0-.12.14v3.73c0,.3,0,.3-.29.31H51.19c-.21,0-.28-.07-.26-.26a1,1,0,0,0,0-.17V11.22c0-.5,0-.46.45-.46.79,0,1.59,0,2.38,0a3.45,3.45,0,0,1,.9.2,1.81,1.81,0,0,1,1.22,1.42,4.17,4.17,0,0,1-.05,1.86,1.51,1.51,0,0,1-.75,1c-.22.12-.2.25-.14.44.36,1.27.71,2.55,1.07,3.82A.84.84,0,0,1,56.07,19.93Z"/><path class="cls-3" d="M49.54,30.34c0,.72,0,1.45,0,2.17a3.41,3.41,0,0,1-.25,1.18,2,2,0,0,1-1.43,1.24,4,4,0,0,1-1.86,0,2.13,2.13,0,0,1-1.63-1.85,4.3,4.3,0,0,1-.1-.87c0-1.31,0-2.62,0-3.93a3.52,3.52,0,0,1,.17-1.07A2,2,0,0,1,46,25.73a4.32,4.32,0,0,1,1.86,0A1.94,1.94,0,0,1,49.27,27a3.14,3.14,0,0,1,.27,1.21c0,.73,0,1.45,0,2.18Z"/><path class="cls-3" d="M62.93,14.73v4.84c0,.36,0,.36-.37.36h-.83c-.16,0-.24-.05-.22-.21V11c0-.16.05-.23.21-.22h0c.89,0,.89,0,1.24.77l1.7,4c0,.08.06.19.15.25s.05-.17.05-.26c0-1.45,0-2.89,0-4.34,0-.37,0-.37.36-.37h.84c.12,0,.18.05.18.18a2.08,2.08,0,0,0,0,.25V19.5a1.47,1.47,0,0,0,0,.21c0,.16-.06.24-.22.22H66c-.26,0-.57.09-.78-.05s-.22-.44-.32-.67l-1.7-4.08L63,14.72Z"/><path class="cls-3" d="M80.32,34.17c-.13,0-.14.1-.18.17a1.54,1.54,0,0,1-1.3.71A2.8,2.8,0,0,1,78,35a1.84,1.84,0,0,1-1.25-1,3.51,3.51,0,0,1-.39-1.48q-.06-2.17,0-4.35A3.47,3.47,0,0,1,76.57,27a2,2,0,0,1,1.52-1.3,4.23,4.23,0,0,1,1.7,0,1.89,1.89,0,0,1,1.55,1.51,5.93,5.93,0,0,1,.12,1.33c0,.16-.06.22-.22.22H80.07c-.17,0-.22-.07-.22-.23a7.61,7.61,0,0,0,0-.83.85.85,0,0,0-1.21-.8.73.73,0,0,0-.52.54,2.37,2.37,0,0,0-.1.7v4.14a3.82,3.82,0,0,0,.08.75.82.82,0,0,0,.83.74.87.87,0,0,0,1-.64,2.76,2.76,0,0,0,.13-1c0-.25.1-.55,0-.73s-.47-.07-.71-.08-.23-.07-.24-.25c-.05-.84-.05-.84.77-.84h1.46c.19,0,.28,0,.27.25v4.14c0,.21-.08.27-.27.26s-.57.09-.77-.06S80.37,34.4,80.32,34.17Z"/><path class="cls-3" d="M50.26,19.93H48.94c-.18,0-.23-.07-.26-.23-.09-.55-.2-1.1-.28-1.65,0-.19-.11-.25-.3-.25a9.91,9.91,0,0,1-1.09,0c-.2,0-.26.09-.29.26-.09.53-.19,1.05-.27,1.57,0,.22-.1.32-.33.3H44.85a5.19,5.19,0,0,1,.17-1l1.59-7.81c.07-.35.07-.35.43-.35h1c.43,0,.43,0,.52.44.22,1.08.43,2.16.65,3.23l1.08,5.36A.45.45,0,0,1,50.26,19.93Z"/><path class="cls-3" d="M93.43,34.91H92.07c-.18,0-.2-.12-.22-.24-.08-.43-.15-.85-.22-1.28-.1-.6-.1-.6-.71-.6h-.67c-.31,0-.32,0-.37.31-.09.49-.17,1-.26,1.48-.05.32-.06.33-.4.32a10.2,10.2,0,0,1-1.23,0c.13-.65.25-1.28.38-1.9l1.41-6.91c.07-.33.07-.33.39-.33s.76,0,1.13,0,.31.08.35.3q.66,3.27,1.33,6.54c.12.63.25,1.26.38,1.89C93.38,34.6,93.4,34.74,93.43,34.91Z"/><path class="cls-3" d="M101.27,13.38c-.07-.31-.07-.6-.16-.88a.78.78,0,0,0-1.54.22,1.35,1.35,0,0,0,.46,1.12c.39.37.8.73,1.21,1.09a5.29,5.29,0,0,1,1.13,1.23,2.83,2.83,0,0,1,.38,2.28A2,2,0,0,1,101.16,20a3.05,3.05,0,0,1-1.41,0,2.06,2.06,0,0,1-1.5-1.33A4,4,0,0,1,98,17.45a.2.2,0,0,1,.19-.25l1.2-.25a1.82,1.82,0,0,1,.1.54,2.12,2.12,0,0,0,.26.83.79.79,0,0,0,.8.43.62.62,0,0,0,.63-.51,1.65,1.65,0,0,0-.44-1.58,10.73,10.73,0,0,0-.86-.79c-.36-.33-.74-.64-1.09-1a2.69,2.69,0,0,1-.68-2.78,1.84,1.84,0,0,1,1.25-1.3,3.09,3.09,0,0,1,1.73-.08,1.73,1.73,0,0,1,1.25,1,2.26,2.26,0,0,1,.17.43c.28.94.28,1-.68,1.12A1.69,1.69,0,0,1,101.27,13.38Z"/><path class="cls-3" d="M79.23,17c0,.24.06.47.1.7a1.75,1.75,0,0,0,.26.7.85.85,0,0,0,1,.36A.73.73,0,0,0,81,18a1.76,1.76,0,0,0-.57-1.42c-.48-.45-1-.87-1.47-1.31l-.37-.34a2.7,2.7,0,0,1-.75-2.61,1.87,1.87,0,0,1,1.4-1.51,2.94,2.94,0,0,1,1.61-.06,1.75,1.75,0,0,1,1.26,1,3.34,3.34,0,0,1,.32,1.2c0,.17,0,.22-.19.25l-1,.2c-.15,0-.22,0-.22-.16a2.69,2.69,0,0,0-.1-.7.76.76,0,0,0-.84-.61.77.77,0,0,0-.72.79,1.36,1.36,0,0,0,.45,1.12c.43.4.87.79,1.31,1.17a6.91,6.91,0,0,1,.84.87,3,3,0,0,1,.64,2.31A2.09,2.09,0,0,1,80.91,20a3.29,3.29,0,0,1-1.25,0,2,2,0,0,1-1.54-1.21,3.81,3.81,0,0,1-.31-1.29c0-.18,0-.26.22-.29C78.42,17.13,78.81,17,79.23,17Z"/><path class="cls-3" d="M100.54,25.64a3.51,3.51,0,0,1,.91.13,1.74,1.74,0,0,1,1.07.93,3.35,3.35,0,0,1,.33,1.2c0,.14,0,.24-.17.27l-1,.2c-.16,0-.23,0-.23-.19a2,2,0,0,0-.14-.73.71.71,0,0,0-.83-.53.72.72,0,0,0-.69.71,1.34,1.34,0,0,0,.37,1.11c.24.24.49.46.74.68.4.37.83.7,1.2,1.1a3.16,3.16,0,0,1,1,2.25A2.14,2.14,0,0,1,100.91,35a3.26,3.26,0,0,1-1-.11,2,2,0,0,1-1.36-1.14,4.42,4.42,0,0,1-.33-1.38c0-.12,0-.18.14-.2L99.48,32c.12,0,.18,0,.18.14a2.9,2.9,0,0,0,.1.71,1.58,1.58,0,0,0,.24.57.85.85,0,0,0,.92.33.72.72,0,0,0,.51-.73,1.77,1.77,0,0,0-.57-1.43c-.37-.36-.77-.69-1.15-1L99,29.91a2.68,2.68,0,0,1-.74-2.68A1.92,1.92,0,0,1,100,25.7,5.7,5.7,0,0,1,100.54,25.64Z"/><path class="cls-3" d="M92.59,15.35V11a.18.18,0,0,1,.2-.2c1,0,2-.07,3,.05a1.82,1.82,0,0,1,1.62,1.38,3.89,3.89,0,0,1,0,2.14,2,2,0,0,1-1.91,1.48c-.31,0-.64,0-1,0s-.32,0-.32.32v3.18c0,.6,0,.6-.59.6h-.75c-.34,0-.34,0-.34-.35V15.35Z"/><path class="cls-3" d="M40.1,15.34V11.12c0-.35,0-.36.34-.36h2.34a3.27,3.27,0,0,1,.54,0,1.88,1.88,0,0,1,1.62,1.38A4,4,0,0,1,45,14.29a2,2,0,0,1-1.92,1.52,7.85,7.85,0,0,1-.84,0c-.5,0-.46-.05-.46.48v3.47a.13.13,0,0,1-.15.15H40.25a.14.14,0,0,1-.15-.16V15.34Z"/><path class="cls-3" d="M69.54,30.29V26.07c0-.31,0-.32.32-.32h3.22c.3,0,.31,0,.3.3s.12.62,0,.81-.53.06-.8.07-.7,0-1.05,0c-.2,0-.29.05-.29.28,0,.69,0,1.39,0,2.09,0,.19.05.27.25.26h1.21c.19,0,.25.07.25.25s0,.47,0,.71-.07.24-.25.24c-.37,0-.75,0-1.12,0s-.34,0-.34.35v2.34c0,.32,0,.32.31.33h1.55c.32,0,.32,0,.33.32s0,.36,0,.54-.05.29-.27.29c-.52,0-1,0-1.55,0s-1.11,0-1.67,0c-.37,0-.37,0-.37-.35V30.29Z"/><path class="cls-3" d="M67.42,15.35V11.12c0-.36,0-.36.37-.36h3.13c.32,0,.33,0,.33.32s0,.39,0,.58-.07.3-.29.29H69.46c-.38,0-.38,0-.38.39,0,.66,0,1.31,0,2,0,.19.06.27.26.26h1.09c.41,0,.38,0,.38.39,0,.18,0,.36,0,.55s0,.24-.24.24H69.35c-.19,0-.28,0-.28.26,0,.83,0,1.67,0,2.51,0,.24.11.27.31.27.51,0,1,0,1.54,0,.36,0,.36,0,.37.37,0,.18,0,.36,0,.54s-.06.24-.24.24H67.79c-.39,0-.37,0-.37-.36V15.35Z"/><path class="cls-3" d="M40.1,30.33V26.11c0-.36,0-.36.37-.36h3.05c.35,0,.36,0,.35.33s.11.59,0,.77-.5.06-.76.07h-1c-.23,0-.28.08-.28.29,0,.7,0,1.4,0,2.09,0,.2.06.28.26.27.39,0,.78,0,1.17,0,.18,0,.26.06.25.24s0,.47,0,.71-.09.26-.28.25h-1c-.39,0-.4,0-.4.38V34.7c0,.17-.07.22-.22.22H40.39c-.28,0-.29,0-.29-.31V30.33Z"/><path class="cls-3" d="M57.86,16V12.34c0-.35,0-.35-.35-.35h-.92c-.18,0-.29,0-.27-.25a4.3,4.3,0,0,1,.06-1,3.61,3.61,0,0,1,.87,0h3.47c.29,0,.31,0,.3.29s.13.69-.07.88-.55.05-.84.06c-.64,0-.57-.1-.57.58v6.86c0,.11,0,.22,0,.33s-.07.17-.18.17h-1.3c-.14,0-.21-.05-.2-.2V16Z"/><path class="cls-3" d="M61.38,31v3.56c0,.36,0,.36-.33.35H60c-.18,0-.25-.06-.24-.24,0-.36,0-.73,0-1.09V27.36c0-.37,0-.38-.36-.38s-.62,0-.92,0-.28-.05-.27-.26,0-.5,0-.75.07-.23.22-.22h4.1c.38,0,.39,0,.38.39s.13.62-.07.8-.51,0-.78,0c-.74,0-.64-.11-.64.64C61.37,28.75,61.38,29.88,61.38,31Z"/><path class="cls-3" d="M94,30.33c0-1.41,0-2.82,0-4.23,0-.34,0-.35.33-.35h1.13c.16,0,.23.06.22.22a2.8,2.8,0,0,0,0,.29v7.15c0,.35,0,.36.38.36h1.5c.32,0,.33,0,.32.33s.12.59-.06.77-.49,0-.74,0c-.9,0-1.81,0-2.72,0-.36,0-.36,0-.36-.36C94,33.14,94,31.74,94,30.33Z"/><path class="cls-5" d="M89.78,15.32V11.13c0-.38,0-.37.36-.37h1c.2,0,.27.08.26.27s0,.59,0,.88v7.57c0,.49,0,.45-.45.45h-.92c-.28,0-.29,0-.29-.31v-4.3Z"/><path class="cls-6" d="M63.57,69.2a16.7,16.7,0,0,0-12-9.21,13.09,13.09,0,0,1,24,0A16.73,16.73,0,0,0,63.57,69.2Z"/><path class="cls-6" d="M47.21,63.19A16.59,16.59,0,0,0,52.42,77.4a16.71,16.71,0,0,0-12.56,8.5,12.87,12.87,0,0,1-4-12.69A13.12,13.12,0,0,1,47.21,63.19Z"/><path class="cls-6" d="M41.53,91.11a16.59,16.59,0,0,0,15-.41,16.54,16.54,0,0,0,4.36,14.43,13.08,13.08,0,0,1-19.4-14Z"/><path class="cls-6" d="M74.81,77.33a16.63,16.63,0,0,0,5.13-14.16,12.25,12.25,0,0,1,4.55,1.36A13.09,13.09,0,0,1,87.32,85.9a16.62,16.62,0,0,0-5.2-5.79A16.39,16.39,0,0,0,74.81,77.33Z"/><path class="cls-6" d="M85.67,91.09a13.09,13.09,0,0,1-19.31,14,16.59,16.59,0,0,0,4.2-14.4A16.61,16.61,0,0,0,85.67,91.09Z"/><path class="cls-6" d="M66.72,82a12,12,0,0,1,2.57-1,13.11,13.11,0,0,1,15,6.39c.31.56.33.45-.24.72a13.12,13.12,0,0,1-17.18-5.7Z"/><path class="cls-6" d="M63.62,103.08a13.11,13.11,0,0,1-.46-18.35c.41-.43.31-.42.71,0a12.79,12.79,0,0,1,3.6,8.12,13,13,0,0,1-3.6,10l-.15.15Z"/><path class="cls-6" d="M42.65,87.91a1,1,0,0,1,.16-.39,13,13,0,0,1,9.69-6.75A12.74,12.74,0,0,1,60,81.93l.07,0c.29.15.29.15.15.42s-.2.37-.31.55a13,13,0,0,1-9.48,6.31A12.66,12.66,0,0,1,42.86,88Z"/><path class="cls-6" d="M61.81,76.3A14,14,0,0,1,61.67,78c0,.26-.05.27-.32.22a13.22,13.22,0,0,1-10.78-11,12.08,12.08,0,0,1,0-3.7c0-.29.05-.3.35-.24a13.2,13.2,0,0,1,10.53,9.8A14.05,14.05,0,0,1,61.81,76.3Z"/><path class="cls-6" d="M65.35,76.29A13.19,13.19,0,0,1,76,63.33c.62-.11.53-.18.61.51a13.11,13.11,0,0,1-7,13.07,13.26,13.26,0,0,1-3.82,1.29c-.3.06-.31.06-.35-.24A10.16,10.16,0,0,1,65.35,76.29Z"/><path class="cls-6" d="M84,30.33V28.21a2.37,2.37,0,0,1,.08-.75.8.8,0,0,1,.86-.58.79.79,0,0,1,.85.58,1.9,1.9,0,0,1,.09.58v4.55a1.83,1.83,0,0,1-.08.57.81.81,0,0,1-.86.64.82.82,0,0,1-.87-.64,2.73,2.73,0,0,1-.07-.7Z"/><path class="cls-7" d="M73.66,13.27c0-.38,0-.75,0-1.13,0-.18.06-.24.24-.24a5.65,5.65,0,0,1,.71,0,.87.87,0,0,1,.75.69,2.73,2.73,0,0,1,0,1.24.91.91,0,0,1-.8.75c-.22,0-.44,0-.67,0s-.25-.06-.24-.24C73.67,14.05,73.66,13.66,73.66,13.27Z"/><path class="cls-6" d="M53.88,28.23c0,1.26-.56,1.44-1.54,1.44-.17,0-.22-.06-.22-.22,0-.78,0-1.55,0-2.33,0-.16.05-.24.22-.22s.52,0,.78.06a.81.81,0,0,1,.67.61A1.75,1.75,0,0,1,53.88,28.23Z"/><path class="cls-6" d="M52.61,13.27V12.15c0-.18.06-.26.24-.25s.31,0,.46,0c.71.08,1,.33,1,1.05a2.55,2.55,0,0,1,0,.87.93.93,0,0,1-.77.78,3.74,3.74,0,0,1-.75.06c-.14,0-.19-.06-.19-.2V13.27Z"/><path class="cls-6" d="M47.86,30.35c0,.68,0,1.36,0,2a2.9,2.9,0,0,1-.1.83.82.82,0,0,1-.83.58.8.8,0,0,1-.87-.57,2.32,2.32,0,0,1-.1-.74v-4.3a2.74,2.74,0,0,1,.08-.7.78.78,0,0,1,.84-.61.8.8,0,0,1,.89.6,2.91,2.91,0,0,1,.08.78Z"/><path class="cls-8" d="M47.6,13.21c.17,1,.35,2.11.52,3.16.05.34,0,.34-.32.34h-.62c-.15,0-.23,0-.2-.21.17-1,.33-2.05.5-3.08A.24.24,0,0,1,47.6,13.21Z"/><path class="cls-9" d="M90.77,28.25c.17,1.05.35,2.1.52,3.16,0,.29,0,.3-.26.3h-.92l.57-3.46Z"/><path class="cls-10" d="M94.27,13.29c0-.35,0-.7,0-1s0-.3.31-.3.42,0,.62,0a.72.72,0,0,1,.75.65,3.51,3.51,0,0,1,0,1.37.74.74,0,0,1-.64.62,3.69,3.69,0,0,1-.88,0c-.16,0-.15-.12-.15-.23Z"/><path class="cls-11" d="M41.78,13.31c0-.36,0-.73,0-1.09,0-.19,0-.29.25-.27s.5,0,.75,0a.69.69,0,0,1,.67.58,3.26,3.26,0,0,1,0,1.49.67.67,0,0,1-.53.53,1.4,1.4,0,0,1-.28.06c-.85.09-.85.09-.85-.75Z"/></svg>