<svg xmlns="http://www.w3.org/2000/svg" viewBox="0 0 135.4 135.4"><style>.cls-1{fill:#269947;}.cls-2{fill:#b7dec2;}.cls-3{fill:#fff;}.cls-4{fill:#fefefe;}.cls-5{fill:#55ab66;}.cls-6{fill:#4aaa64;}.cls-7{fill:#6ab97e;}.cls-8{fill:#8dbc85;}.cls-9{fill:#a1cca3;}.cls-10{fill:#99cea7;}.cls-11{fill:#289b49;}.cls-12{fill:#279b48;}.cls-13{fill:#299c4a;}.cls-14{fill:#299c49;}.cls-15{fill:#88be89;}</style><rect class="cls-1" width="135.4" height="135.4"/><path class="cls-2" d="M0,135.29H134.58c.73,0,.73,0,.73-.74V0s.09,0,.09.05V135.38H.41C.27,135.37.1,135.48,0,135.29Z"/><path class="cls-3" d="M52.94,76.75l-2.43,5.43c-1,2.34-2.09,4.68-3.14,7a1.77,1.77,0,0,1-.62.81,1.71,1.71,0,0,1-1,.27H23.89a2.56,2.56,0,0,1-.62,0,1.58,1.58,0,0,1,.28-3.1H44.2a1.22,1.22,0,0,1,.27,0c.29,0,.42-.09.54-.35l3.34-7.53,3.9-8.77c.06-.12.11-.25.18-.36a1.54,1.54,0,0,1,1.6-.77,1.44,1.44,0,0,1,1.27,1.13A13.52,13.52,0,0,1,55.55,72l1.26,8.74,1.11,7.85L58.55,93c.19-.06.21-.22.28-.34l6.59-12.21c.14-.27.28-.54.43-.79a1.57,1.57,0,0,1,1.62-.75,1.54,1.54,0,0,1,1.27,1.25c.28,1.55.54,3.1.81,4.66.44,2.54.87,5.09,1.31,7.63.47,2.73.93,5.45,1.4,8.17.3,1.78.61,3.55.91,5.33a.22.22,0,0,0,.13.2c.13-.42.26-.83.38-1.24L88.41,56c.39-1.3.78-2.61,1.18-3.92a1.57,1.57,0,0,1,1.6-1.2,1.53,1.53,0,0,1,1.38.93C93.1,52.88,93.62,54,94.14,55q3.45,7.17,6.91,14.32a2.16,2.16,0,0,1,.27,1,1.53,1.53,0,0,1-1.13,1.46,1.55,1.55,0,0,1-1.74-.62,3.2,3.2,0,0,1-.27-.52Q95,64,91.72,57.28c-.06-.13-.14-.26-.21-.39-.17.09-.15.27-.19.4Q85.74,75.77,80.19,94.24q-2.89,9.63-5.78,19.24a1.71,1.71,0,0,1-1.07,1.24,1.57,1.57,0,0,1-2.07-1.24c-.22-1.23-.42-2.46-.64-3.68l-1.41-8.22-1.38-8c-.46-2.68-.91-5.36-1.37-8,0,0,0-.09-.09-.1s-.16.22-.23.35q-3.45,6.38-6.89,12.77c-.06.11-.12.24-.19.35a1.58,1.58,0,0,1-2.94-.53c-.11-.67-.19-1.34-.29-2l-1-6.69L54,83.72l-.87-6.07c-.05-.3-.09-.59-.13-.89C53,76.69,53,76.71,52.94,76.75Z"/><path class="cls-3" d="M102,81c.17-.06.26-.21.38-.32a16.5,16.5,0,0,1,2.32-1.93,4.75,4.75,0,0,1,3.34-1,5.77,5.77,0,0,1,3.66,1.84,6.9,6.9,0,0,1,1.77,3.91A7.11,7.11,0,0,1,112.06,89c-.22.28-.46.55-.71.81l-9,9-.1.09c-.24.23-.24.24-.49,0l-4.46-4.46-4.81-4.82a7.36,7.36,0,0,1-.15-10,5.89,5.89,0,0,1,4.6-1.92,3.79,3.79,0,0,1,1.7.52,11,11,0,0,1,2.24,1.66Z"/><path class="cls-3" d="M21.3,23.85a5,5,0,0,1,1.76,1.21,5.37,5.37,0,0,1,1.24,2.61,11.73,11.73,0,0,1-.48,6.43,5.6,5.6,0,0,1-5,3.78,10.85,10.85,0,0,1-3.36-.15,5.33,5.33,0,0,1-4.16-3.59,11,11,0,0,1-.64-3.93v-.5c0-.55,0-.49.47-.49h4.06c.37,0,.38,0,.38.36a15.37,15.37,0,0,0,.08,1.66,5.3,5.3,0,0,0,.28,1.37,1.61,1.61,0,0,0,1.51,1.15,3,3,0,0,0,.67,0,1.45,1.45,0,0,0,1.19-.92,4.43,4.43,0,0,0,.27-1.13A11.06,11.06,0,0,0,19.4,28a4.48,4.48,0,0,0-.16-.52A2.14,2.14,0,0,0,17.37,26a11.5,11.5,0,0,0-1.17-.08c-.22,0-.33,0-.32-.29,0-1,0-2,0-3,0-.24.07-.32.31-.31a6.49,6.49,0,0,0,1.39-.08,2.12,2.12,0,0,0,1.74-1.5,7.8,7.8,0,0,0,.29-2.63,5.51,5.51,0,0,0-.23-1.56,1.92,1.92,0,0,0-2.73-1.13,1.54,1.54,0,0,0-.77,1,6.7,6.7,0,0,0-.33,2.08c0,.36,0,.72,0,1.08,0,.19,0,.27-.25.27H10.86c-.17,0-.25,0-.24-.22A13.86,13.86,0,0,1,10.89,16a5.8,5.8,0,0,1,5-4.57,9.32,9.32,0,0,1,4.07.16A5.6,5.6,0,0,1,24.27,16a8.72,8.72,0,0,1-.18,4.93,5.24,5.24,0,0,1-1.15,1.92A3.93,3.93,0,0,1,21.3,23.85Z"/><path class="cls-3" d="M63.41,33.73l.36-2.63c.13-1,.26-2,.38-3,0-.21.08-.33.33-.32s.6,0,.9,0,.31,0,.27.3c-.09.68-.2,1.37-.29,2.05-.29,2-.58,4-.86,6q-.1.65-.18,1.29a.24.24,0,0,1-.27.23h-1c-.19,0-.25-.07-.28-.26-.17-1.06-.36-2.13-.54-3.19-.15-.87-.3-1.74-.46-2.62-.08-.09-.06-.17,0-.26-.11.13-.1.3-.17.44-.24,1.42-.49,2.84-.73,4.26-.08.46-.16.92-.23,1.38,0,.18-.1.26-.29.25h-1c-.22,0-.28-.09-.3-.29-.2-1.44-.41-2.88-.62-4.32l-.69-4.82,0-.26c0-.14,0-.19.17-.19H59c.19,0,.21.11.23.26l.36,2.81L60,33.55s.06.05,0,.1l0,0c.09-.1,0-.24.1-.35.21-1.25.43-2.51.64-3.77.09-.5.18-1,.25-1.51a.25.25,0,0,1,.29-.25c.24,0,.49,0,.73,0s.26.07.29.26c.13.84.28,1.68.42,2.53.19,1.06.37,2.13.55,3.19a.28.28,0,0,1,0,.2C63.37,33.86,63.35,33.79,63.41,33.73Z"/><path class="cls-3" d="M90.39,32.38a1.94,1.94,0,0,1,1.46,1.74,4.6,4.6,0,0,1,0,1.57,2.27,2.27,0,0,1-2.19,1.92c-.84,0-1.68,0-2.52,0-.26,0-.6.12-.78-.08s0-.49,0-.74c0-2.84,0-5.67,0-8.51,0-.12,0-.24,0-.36a.17.17,0,0,1,.19-.19,20.44,20.44,0,0,1,3.32.1,2,2,0,0,1,1.79,2,4.94,4.94,0,0,1,0,.86,1.64,1.64,0,0,1-1.19,1.57.05.05,0,0,0,0,.07Z"/><path class="cls-3" d="M65.55,16.54V12.17c0-.11,0-.21,0-.32s.08-.26.27-.26H67c.37,0,.38,0,.38.37,0,.95,0,1.9,0,2.84,0,.3-.13.67.08.87s.54,0,.82.05H69c.31,0,.32,0,.32-.33V12.23c0-.64,0-.64.65-.64H71c.14,0,.22.06.21.22v9.33c0,.34,0,.34-.35.34H69.74c-.37,0-.38,0-.38-.36v-3c0-.28,0-.57,0-.85S69.3,17,69.1,17c-.48,0-1,0-1.44,0-.25,0-.29.1-.29.32V21c0,.1,0,.21,0,.31s-.05.23-.21.22H65.72a.14.14,0,0,1-.16-.16c0-.12,0-.24,0-.36Z"/><path class="cls-3" d="M94,16.56V12.09c0-.54,0-.49.52-.5h1c.23,0,.31.07.31.31,0,1.11,0,2.23,0,3.34,0,.53-.07.48.47.48h1.13c.38,0,.39,0,.39-.4V11.89c0-.2,0-.31.27-.3h1.3c.18,0,.25.08.24.25a2.43,2.43,0,0,0,0,.27V21c0,.55.06.49-.52.5H98c-.19,0-.26-.07-.26-.26,0-.57,0-1.14,0-1.72V17.35c0-.32,0-.32-.33-.32s-.88,0-1.31,0-.35,0-.35.38c0,1.17,0,2.35,0,3.52,0,.61.09.55-.54.56-.33,0-.67,0-1,0S94,21.41,94,21.2c0-.8,0-1.59,0-2.39Z"/><path class="cls-3" d="M55.92,16.55v-4.5c0-.43-.07-.46.43-.46.84,0,1.68,0,2.52,0l.36,0A2.27,2.27,0,0,1,61.33,14c0,.43,0,.87,0,1.3,0,1.1,0,2.2,0,3.29a4.39,4.39,0,0,1-.07.72A2.29,2.29,0,0,1,59,21.46c-1,.07-1.9,0-2.84,0-.23,0-.23-.13-.23-.29V16.55Z"/><path class="cls-3" d="M42.15,16.36c0-.72,0-1.59.05-2.46a4.27,4.27,0,0,1,.15-.71,2.21,2.21,0,0,1,1.93-1.65,4.34,4.34,0,0,1,1.83.08,2.13,2.13,0,0,1,1.46,1.29,4.4,4.4,0,0,1,.3,1.63c0,1.33,0,2.65,0,4a4.32,4.32,0,0,1-.26,1.55A2.16,2.16,0,0,1,46,21.5a4.18,4.18,0,0,1-2,0,2.11,2.11,0,0,1-1.5-1.31,4.85,4.85,0,0,1-.3-1.77C42.15,17.77,42.15,17.14,42.15,16.36Z"/><path class="cls-3" d="M48.43,32.65v-4.5c0-.39,0-.39.4-.39h2.3a3.73,3.73,0,0,1,.94.12,2.09,2.09,0,0,1,1.69,1.72,3.58,3.58,0,0,1,.1.8v4.46a3,3,0,0,1-.08.67,2.25,2.25,0,0,1-2.16,2.06c-1,.1-2,0-3,0-.15,0-.22,0-.22-.21s0-.21,0-.32Z"/><path class="cls-3" d="M49,16.52v-2a4.34,4.34,0,0,1,.2-1.43,2.15,2.15,0,0,1,1.63-1.52,4.4,4.4,0,0,1,2,0,2.28,2.28,0,0,1,1.75,2,5.07,5.07,0,0,1,.11,1c0,1.31,0,2.61,0,3.92a4.55,4.55,0,0,1-.26,1.55,2.16,2.16,0,0,1-1.64,1.46,4.4,4.4,0,0,1-2,0,2.13,2.13,0,0,1-1.5-1.31A4.05,4.05,0,0,1,49,18.64V16.52Z"/><path class="cls-3" d="M103,32.05c-.11.15-.06.32-.06.48v4.55c0,.11,0,.21,0,.32s0,.24-.23.24h-1.08c-.15,0-.23-.06-.22-.21V28c0-.21.09-.27.27-.25s.67-.1.93,0,.28.51.4.78c.6,1.38,1.19,2.76,1.79,4.13a1,1,0,0,0,.27.44v-5c0-.4,0-.4.39-.4h.85c.19,0,.29.06.27.26a2.43,2.43,0,0,0,0,.27v9c0,.33,0,.34-.32.34a1.81,1.81,0,0,1-.84,0c-.24-.15-.26-.49-.37-.75-.61-1.45-1.21-2.91-1.82-4.36A1,1,0,0,0,103,32.05Z"/><path class="cls-3" d="M45.53,33.14v-3c0-.69,0-1.38,0-2.07,0-.31,0-.32.33-.32h.9c.2,0,.27.08.25.27V37.3c0,.33,0,.34-.35.34s-.58.09-.8,0-.24-.46-.35-.71c-.62-1.48-1.23-3-1.85-4.45A.94.94,0,0,0,43.4,32v5.24c0,.42,0,.41-.43.41h-.9c-.14,0-.22-.06-.21-.21V28.24a.66.66,0,0,1,0-.14c0-.34,0-.35.35-.34s.64-.11.88.06.26.49.37.75c.61,1.39,1.21,2.78,1.81,4.17A.72.72,0,0,0,45.53,33.14Z"/><path class="cls-3" d="M39.71,20.69l-.06,0a1.87,1.87,0,0,1-2,.88,2.14,2.14,0,0,1-1.89-1.44,4.28,4.28,0,0,1-.27-1.37c0-1.56-.07-3.12,0-4.68a3.63,3.63,0,0,1,.3-1.26,2.08,2.08,0,0,1,1.49-1.26,4.2,4.2,0,0,1,2.14,0,2,2,0,0,1,1.37,1.26A4.82,4.82,0,0,1,41,14.66c0,.15-.06.22-.21.22-.43,0-.85,0-1.27,0-.2,0-.25-.08-.25-.27a8.19,8.19,0,0,0,0-1,.86.86,0,0,0-1.05-.79.82.82,0,0,0-.83.69,2.77,2.77,0,0,0-.08.76v4.41a3.32,3.32,0,0,0,.12.94.85.85,0,0,0,.83.64,1,1,0,0,0,1-.51,1.73,1.73,0,0,0,.16-.56,8.1,8.1,0,0,0,.07-1.3c0-.2-.07-.27-.26-.27s-.36,0-.54,0-.3-.09-.28-.3a5.61,5.61,0,0,0,0-.58c0-.2.05-.3.27-.3h2.16c.23,0,.28.09.28.3,0,1.48,0,3,0,4.46,0,.19,0,.29-.25.27h0a2.34,2.34,0,0,1-.8,0C39.68,21.33,39.85,21,39.71,20.69Z"/><path class="cls-3" d="M112.1,36.84a1.58,1.58,0,0,1-1.17.9,2.34,2.34,0,0,1-2.86-1.65,4.3,4.3,0,0,1-.19-1.06c-.06-1.56-.06-3.13,0-4.69A3.71,3.71,0,0,1,108.2,29a2,2,0,0,1,1.46-1.23,4.35,4.35,0,0,1,2.18,0,1.94,1.94,0,0,1,1.32,1.2,4.37,4.37,0,0,1,.24,1.86c0,.14-.07.18-.2.18h-1.3c-.16,0-.22-.07-.22-.22,0-.31,0-.63,0-.94a.93.93,0,0,0-1.29-.84.74.74,0,0,0-.56.52,1.93,1.93,0,0,0-.12.67V35a2.36,2.36,0,0,0,.13.75.83.83,0,0,0,.83.64.93.93,0,0,0,1-.52,2.57,2.57,0,0,0,.15-.47,7.2,7.2,0,0,0,.07-1.39c0-.21-.09-.26-.27-.25s-.3,0-.45,0c-.34,0-.34,0-.35-.36,0-.81,0-.81.8-.81h1.62c.21,0,.29.07.29.29,0,1.49,0,3,0,4.46,0,.19-.06.28-.26.27h-.72c-.15,0-.22-.07-.24-.21s-.05-.38-.08-.56Z"/><path class="cls-3" d="M83.12,21.49c-.5,0-1,0-1.4,0-.21,0-.29-.08-.32-.27-.09-.55-.19-1.09-.29-1.64-.07-.38-.07-.38-.44-.38h-.9c-.42,0-.42,0-.49.39s-.19,1.07-.28,1.6c0,.21-.1.31-.34.3-.47,0-.93,0-1.42,0,.18-.94.36-1.82.54-2.7l1.35-6.66c.11-.54.11-.54.64-.54h1c.35,0,.36,0,.43.36.32,1.58.65,3.17,1,4.76L83,21C83.07,21.13,83.09,21.28,83.12,21.49Z"/><path class="cls-3" d="M41,37.64H39.46c-.19,0-.21-.11-.23-.26-.1-.56-.19-1.12-.3-1.68-.06-.34-.06-.34-.39-.34h-1c-.32,0-.33,0-.39.34-.1.56-.21,1.12-.29,1.69a.25.25,0,0,1-.29.25H35.15c-.1-.14,0-.26,0-.37L37,28.14c.07-.38.07-.38.45-.38s.79,0,1.18,0,.34,0,.4.33c.19.91.38,1.82.56,2.73q.68,3.28,1.33,6.58C40.92,37.45,40.93,37.51,41,37.64Z"/><path class="cls-3" d="M72.61,16.52V12c0-.41,0-.42.42-.42h3.33c.39,0,.39,0,.4.4,0,.2,0,.39,0,.59s-.07.32-.31.31H74.7c-.22,0-.29.07-.29.29,0,.58,0,1.17,0,1.75,0,.25-.12.57.07.74s.46,0,.69,0,.55,0,.82,0,.27.08.25.27.14.72-.08,1-.57,0-.87,0h-.67c-.16,0-.22.06-.22.21,0,.95,0,1.9,0,2.84,0,.2.13.2.27.2H76.4c.37,0,.38,0,.37.37s.13.63-.07.82-.52.05-.78.05H73c-.45,0-.42,0-.42-.41Z"/><path class="cls-3" d="M66.75,32.69V28.14c0-.38,0-.38.37-.38,1.14,0,2.28,0,3.43,0,.34,0,.35,0,.35.34s0,.42,0,.63-.07.32-.31.31H69c-.41,0-.41,0-.42.42,0,.69,0,1.38,0,2.08,0,.31,0,.31.33.32h1.26c.19,0,.27.07.27.26s0,.51,0,.76-.08.27-.27.27H68.85c-.21,0-.29.06-.29.28,0,.89,0,1.77,0,2.66,0,.25.09.31.32.31h1.71c.33,0,.33,0,.34.32s0,.42,0,.63-.09.29-.31.29H67.1c-.34,0-.35,0-.35-.35Z"/><path class="cls-3" d="M93,32.69V28.14c0-.38,0-.38.37-.38q1.71,0,3.42,0c.36,0,.36,0,.36.38,0,.18,0,.36,0,.54,0,.35,0,.35-.38.36H95.14c-.32,0-.33,0-.33.32,0,.73,0,1.47,0,2.2,0,.26.1.31.32.3h1.26c.19,0,.28.06.28.25s0,.48,0,.72-.07.33-.31.32H95.09c-.21,0-.29.06-.29.28,0,.89,0,1.77,0,2.66,0,.24.09.31.32.31h1.57c.54,0,.47,0,.48.49,0,.17,0,.33,0,.5s-.07.25-.26.25H93.35c-.34,0-.35,0-.35-.36Z"/><path class="cls-3" d="M89.82,17.23V13.36c0-.43,0-.43-.42-.43h-1c-.18,0-.27-.06-.27-.26s0-.57,0-.85,0-.23.21-.22H93c.17,0,.23.09.23.26s0,.57,0,.85-.09.23-.25.23H91.9c-.19,0-.28.06-.27.26s0,.21,0,.31v7.44c0,.1,0,.21,0,.31s-.07.24-.24.24H90.13c-.3,0-.31,0-.31-.33V17.23Z"/><path class="cls-3" d="M85.86,15.92v4c0,.35,0,.35.35.35h1.67c.33,0,.34,0,.34.35s0,.42,0,.63-.06.27-.25.27H84.4c-.35,0-.35,0-.35-.33,0-3.07,0-6.13,0-9.2,0-.35,0-.35.34-.36h1.13c.33,0,.34,0,.34.36Z"/><path class="cls-3" d="M77,32.7V28.16c0-.4,0-.4.39-.4h1.17c.17,0,.26.05.25.23s0,.21,0,.32v7.43a2.43,2.43,0,0,0,0,.27c0,.39,0,.39.4.39h1.66c.24,0,.33.09.31.32s0,.45,0,.67-.07.27-.26.26H77.41c-.45,0-.45,0-.45-.43Z"/><path class="cls-3" d="M71.9,32.65V28.23c0-.49-.06-.47.5-.47.33,0,.66,0,1,0s.31,0,.32.33v7.8c0,.51-.08.51.52.51h1.53c.22,0,.34.06.32.31a5,5,0,0,0,0,.67c0,.19,0,.27-.25.27H72.17c-.23,0-.27-.1-.27-.3,0-.93,0-1.86,0-2.79Z"/><path class="cls-3" d="M100,32.74v4.47c0,.46,0,.43-.45.43H98.45c-.17,0-.25,0-.24-.23V28.26c0-.56-.06-.5.51-.5.35,0,.69,0,1,0,.15,0,.22,0,.22.2s0,.22,0,.32Z"/><path class="cls-4" d="M83.48,33.18h1.17c.22,0,.28.07.28.28,0,.88,0,.88-.82.88H82.35c-.36,0-.37,0-.36-.34s-.13-.59.07-.77.49,0,.74,0Z"/><path class="cls-5" d="M61.62,31.75a.53.53,0,0,1,.11-.45.25.25,0,0,1,.05.27Z"/><path class="cls-6" d="M60.16,33.28a1.23,1.23,0,0,1-.09.54c0,.07,0,.07-.07,0v-.27Z"/><path class="cls-7" d="M63.41,33.73c0,.06,0,.16,0,.16s-.06-.1-.06-.16Z"/><path class="cls-8" d="M52.94,76.75s0-.1,0-.1.07.06.06.11Z"/><path class="cls-9" d="M90.39,32.38s-.1,0-.1,0,0-.06.1-.05Z"/><path class="cls-10" d="M60,33.82h.07s0,.11,0,.11S60,33.86,60,33.82Z"/><path class="cls-11" d="M88.09,34.73c0-.46,0-.92,0-1.39,0-.18.06-.28.26-.26s.45,0,.68,0a1.13,1.13,0,0,1,1.08,1,3.26,3.26,0,0,1,0,1.39,1,1,0,0,1-1,.9c-1,.14-1,.14-1-.9v-.72Z"/><path class="cls-11" d="M88.09,30.38c0-.36,0-.72,0-1.08,0-.18.06-.27.26-.27a4,4,0,0,1,1,.1.87.87,0,0,1,.68.75A2.84,2.84,0,0,1,89.94,31a.92.92,0,0,1-.75.69,3.86,3.86,0,0,1-.9.05c-.15,0-.2-.08-.2-.23V30.38Z"/><path class="cls-12" d="M57.73,16.52v-3.2c0-.43,0-.43.45-.43a2.69,2.69,0,0,1,.63.06.82.82,0,0,1,.64.68,5.08,5.08,0,0,1,.07.67v4.37a4.91,4.91,0,0,1-.06.67.87.87,0,0,1-.81.84c-.2,0-.42,0-.62,0s-.3-.09-.3-.32c0-.93,0-1.86,0-2.79Z"/><path class="cls-12" d="M44,16.51c0-.77,0-1.53,0-2.3a2.19,2.19,0,0,1,.11-.84,1,1,0,0,1,1.78,0A1.67,1.67,0,0,1,46,14c0,1.7,0,3.39,0,5.09a1.61,1.61,0,0,1,0,.44.89.89,0,0,1-1,.76.87.87,0,0,1-.92-.75,2.8,2.8,0,0,1-.06-.71C44,18,44,17.27,44,16.51Z"/><path class="cls-12" d="M50.24,32.7c0-1.1,0-2.2,0-3.29,0-.35,0-.35.34-.36a2.45,2.45,0,0,1,.76.07.81.81,0,0,1,.61.65,3.72,3.72,0,0,1,.08.67c0,1.47,0,2.94,0,4.41a5.2,5.2,0,0,1-.06.68.87.87,0,0,1-.82.81h-.09c-.82.1-.82.1-.82-.72Z"/><path class="cls-12" d="M50.79,16.51V14.26a2.94,2.94,0,0,1,.11-.84.83.83,0,0,1,.86-.6.86.86,0,0,1,.94.54,2.43,2.43,0,0,1,.13.89c0,1.53,0,3.06,0,4.59a2.7,2.7,0,0,1-.1.8.87.87,0,0,1-.93.63.86.86,0,0,1-.91-.66,3.08,3.08,0,0,1-.1-.8C50.8,18,50.79,17.28,50.79,16.51Z"/><path class="cls-13" d="M80.25,14.31c.19,1.14.37,2.27.56,3.39,0,.29,0,.31-.27.32h-.76c-.15,0-.24-.05-.21-.22.2-1.15.39-2.3.59-3.45Z"/><path class="cls-14" d="M38.07,30.49l.6,3.65a7.86,7.86,0,0,1-1.29,0c.18-1.25.38-2.46.6-3.68Q38,30.4,38.07,30.49Z"/><path class="cls-15" d="M38.07,30.49H38c0-.07,0-.18,0-.18S38.09,30.42,38.07,30.49Z"/></svg>