<svg xmlns="http://www.w3.org/2000/svg" viewBox="0 0 135.4 135.4"><style>.cls-1{fill:#c11f33;}.cls-2{fill:#ebb4bb;}.cls-3{fill:#fff;}.cls-4{fill:#fffefe;}.cls-5{fill:#c31f33;}.cls-6{fill:#c42236;}.cls-7{fill:#c42235;}</style><rect class="cls-1" width="135.4" height="135.4"/><path class="cls-2" d="M.11,0c0,.24,0,.48,0,.72V134.53c0,.78,0,.78.79.78H135.4s0,.09-.05.09H0v-.65Q0,67.58,0,.41C0,.27-.08.1.11,0Z"/><path class="cls-3" d="M62.81,111.48c-.1-.13-.05-.29-.05-.43q0-19,0-37.93a.66.66,0,0,1,.38-.67L86.92,58.72c.12-.07.23-.19.4-.16a.84.84,0,0,1,.05.44v44.69c0,.57,0,.45-.43.58l-23.61,7.1A1,1,0,0,1,62.81,111.48Z"/><path class="cls-3" d="M35.62,58.54a.89.89,0,0,1,.46.19q11.81,6.81,23.6,13.62a.69.69,0,0,1,.41.7q0,19,0,38v.44c-.19.07-.32,0-.46-.07L36,104.27c-.43-.13-.39,0-.4-.51V58.54Z"/><path class="cls-3" d="M90,58.46c.16,0,.23.11.32.18.65.51,1.29,1,2,1.53a.67.67,0,0,1,.32.68.66.66,0,0,0,0,.14v45.69c0,.72.07.56-.56.75-4,1.18-7.93,2.48-11.89,3.73l-16.85,5.36a2.13,2.13,0,0,1-.75.11H60.63a4.58,4.58,0,0,1-1.33-.17l-28.45-7.88-.26-.07a.23.23,0,0,1-.19-.26c0-.12,0-.24,0-.36q0-23.48,0-46.95a.89.89,0,0,1,.4-.83c.63-.46,1.23-1,1.84-1.45a.86.86,0,0,1,.36-.23A1.31,1.31,0,0,1,33,59v47.22c0,.51-.06.41.4.54l6.07,1.7,20.19,5.64a2.79,2.79,0,0,0,.76.11,17.17,17.17,0,0,0,2.38,0,15.59,15.59,0,0,0,2.24-.69l24.44-7.89.21-.08a.27.27,0,0,0,.27-.34c0-.12,0-.24,0-.36V59.07A1.8,1.8,0,0,1,90,58.46Z"/><path class="cls-3" d="M103.7,113.33a.79.79,0,0,1-.21-.48c-.88-3-1.74-6.06-2.61-9.09a3,3,0,0,1-.12-.84q0-19.85,0-39.68c0-.63-.09-.54.55-.54h4.87c.36,0,.36,0,.36.37v39.82a3,3,0,0,1-.1.84C105.53,106.91,104.62,110.1,103.7,113.33Z"/><path class="cls-3" d="M22.57,19.59V27c0,.11,0,.21,0,.32s.05.26.25.26h2.12c.18,0,.24.07.23.24s0,.33,0,.5V31c0,.34,0,.34-.35.35H23c-.45,0-.45,0-.45.43v5.1c0,.1,0,.21,0,.31s-.06.3-.28.3-.69,0-1,0H18.5c-.41,0-.41,0-.41-.43V32c0-.69.09-.61-.59-.61H11.1c-.25,0-.57.1-.74-.06s-.06-.49-.06-.74c0-.92,0-1.83,0-2.75a1.69,1.69,0,0,1,.15-.7q3.22-7.58,6.44-15.17a.5.5,0,0,1,.54-.34h4.73c.41,0,.42,0,.42.43Z"/><path class="cls-3" d="M39.85,21.34a3.69,3.69,0,0,0,.7.72.37.37,0,0,1,.15.46c-.1.3-.18.6-.27.93a2.59,2.59,0,0,1-.79-.55,6.14,6.14,0,0,1-1-1.08.43.43,0,0,0-.4-.22,3.77,3.77,0,0,1-.76-.07,2.29,2.29,0,0,1-2-2.08,5.91,5.91,0,0,1-.1-1.12V14.68a5.13,5.13,0,0,1,.18-1.46,2.22,2.22,0,0,1,1.9-1.69,4.37,4.37,0,0,1,1.87.08,2.1,2.1,0,0,1,1.46,1.3,3.44,3.44,0,0,1,.28,1.26c0,1.57,0,3.13,0,4.69a3.87,3.87,0,0,1-.13.84A2.69,2.69,0,0,1,39.85,21.34Z"/><path class="cls-3" d="M40.78,32.68V28.13c0-.38,0-.39.4-.39.84,0,1.68,0,2.52,0a4.18,4.18,0,0,1,.8.13,2.09,2.09,0,0,1,1.61,1.7,6.18,6.18,0,0,1,.1,1.21c0,1.22,0,2.44,0,3.65a5.05,5.05,0,0,1-.08,1,2.25,2.25,0,0,1-2.26,2.11c-.95.06-1.92,0-2.88,0-.15,0-.21-.06-.21-.21,0-.33,0-.66,0-1Z"/><path class="cls-3" d="M80.66,32.69c0,.8,0,1.6,0,2.39a3.22,3.22,0,0,1-.23,1.14,2.16,2.16,0,0,1-1.61,1.43,4.15,4.15,0,0,1-2.1,0,2.06,2.06,0,0,1-1.4-1.23A4.09,4.09,0,0,1,75,34.85c0-1.45,0-2.91,0-4.37a3.91,3.91,0,0,1,.26-1.36,2.11,2.11,0,0,1,1.52-1.36,4.27,4.27,0,0,1,2.13,0,2.08,2.08,0,0,1,1.51,1.36,4.37,4.37,0,0,1,.28,1.68v1.89Z"/><path class="cls-3" d="M83.46,32v5.21c0,.53.06.46-.49.47-.27,0-.54,0-.81,0s-.25-.06-.24-.23a2.43,2.43,0,0,0,0-.27V28.25c0-.52-.07-.52.52-.51.91,0,.67-.13,1,.68l1.86,4.29a1.35,1.35,0,0,0,.27.46V28.11c0-.36,0-.37.37-.37h.9c.15,0,.22.06.21.22v9.28c0,.42,0,.39-.39.39a1.67,1.67,0,0,1-.75-.05c-.22-.1-.24-.43-.34-.66l-1.88-4.53A1.05,1.05,0,0,0,83.46,32Z"/><path class="cls-3" d="M44.12,15.44v3.25a2.7,2.7,0,0,0,.12.89.86.86,0,0,0,.91.65A.82.82,0,0,0,46,19.6a3.52,3.52,0,0,0,.14-1.16V11.81c0-.17.07-.24.24-.23.41,0,.82,0,1.22,0s.3.11.3.33c0,.81,0,1.62,0,2.43v4.06a5.86,5.86,0,0,1-.2,1.56A2.07,2.07,0,0,1,46,21.52a4.3,4.3,0,0,1-1.92-.05,2,2,0,0,1-1.43-1.31,5.91,5.91,0,0,1-.29-2c0-2.07,0-4.15,0-6.22,0-.36,0-.36.38-.36h1c.34,0,.35,0,.35.35v3.51Z"/><path class="cls-3" d="M49.16,31.6v3.11a3.6,3.6,0,0,0,.11,1,.89.89,0,0,0,.92.71.87.87,0,0,0,.89-.68,4.36,4.36,0,0,0,.13-1.3V28.34c0-.12,0-.24,0-.36s.07-.24.24-.24q.63,0,1.26,0c.2,0,.27.08.25.27v6.26a6.42,6.42,0,0,1-.17,1.7,2.12,2.12,0,0,1-2,1.75,4.35,4.35,0,0,1-1.61-.08,2,2,0,0,1-1.53-1.44,5.43,5.43,0,0,1-.24-1.64c0-2.15,0-4.3,0-6.45,0-.36,0-.36.38-.37h1c.4,0,.4,0,.4.39Z"/><path class="cls-3" d="M56,32.67c0,.69,0,1.38,0,2.07a4.23,4.23,0,0,0,.1.94.85.85,0,0,0,1,.74.81.81,0,0,0,.83-.83,10.87,10.87,0,0,0,0-1.4c0-.21.07-.28.29-.28.4,0,.81,0,1.21,0,.13,0,.25,0,.25.17a7.14,7.14,0,0,1-.17,2,2.1,2.1,0,0,1-1.89,1.62,4.58,4.58,0,0,1-1.17,0,2.34,2.34,0,0,1-2.16-2.07,4.92,4.92,0,0,1-.1-.94V30.58a4.35,4.35,0,0,1,.21-1.29A2.13,2.13,0,0,1,56,27.74a4.15,4.15,0,0,1,1.92,0,2,2,0,0,1,1.59,1.65,6.77,6.77,0,0,1,.12,1.74c0,.16-.07.22-.22.22-.43,0-.87,0-1.31,0-.18,0-.22-.11-.22-.26a10.6,10.6,0,0,0,0-1.26c-.06-.57-.32-.84-.84-.86a.85.85,0,0,0-1,.77A5.61,5.61,0,0,0,56,30.82C56,31.43,56,32.05,56,32.67Z"/><path class="cls-3" d="M103.67,60.44H101.1c-.32,0-.33,0-.33-.31,0-1,0-2,0-2.93a2.89,2.89,0,0,1,5.78,0c0,1,0,2,0,2.93,0,.32,0,.33-.36.33Z"/><path class="cls-3" d="M54.59,21.47H53.11c-.2,0-.19-.16-.21-.28-.1-.56-.21-1.12-.29-1.69,0-.25-.13-.33-.37-.32a9.73,9.73,0,0,1-1.08,0c-.26,0-.34.09-.37.33-.08.54-.18,1.07-.28,1.6-.06.36-.06.36-.41.37H48.74l.37-1.87c.5-2.48,1-5,1.52-7.45.14-.66,0-.58.7-.58.33,0,.66,0,1,0s.33.09.38.32c.38,1.93.78,3.86,1.17,5.79.22,1.1.44,2.2.67,3.31A1.42,1.42,0,0,1,54.59,21.47Z"/><path class="cls-3" d="M66.17,37.63c-.5,0-1,0-1.4,0-.21,0-.29-.07-.32-.27-.09-.55-.21-1.09-.28-1.64s-.11-.37-.45-.37-.67,0-1,0-.34.06-.38.31c-.07.53-.18,1.06-.27,1.6-.07.36-.07.37-.42.37H60.32a17.38,17.38,0,0,1,.32-1.74c.51-2.55,1-5.09,1.55-7.64.11-.51.11-.51.63-.51.36,0,.72,0,1.08,0s.31.08.35.3c.25,1.28.52,2.56.78,3.84l1.08,5.34C66.13,37.33,66.14,37.45,66.17,37.63Z"/><path class="cls-3" d="M35.63,32.65v-4.5c0-.4,0-.41.38-.41h3.38c.39,0,.39,0,.4.4,0,.21,0,.42,0,.63s-.08.26-.27.26c-.57,0-1.14,0-1.71,0-.36,0-.37,0-.37.37v2.07c0,.38,0,.38.41.38H39c.19,0,.27.06.26.26s0,.51,0,.76-.06.27-.26.26c-.42,0-.84,0-1.26,0-.21,0-.33,0-.32.29,0,.9,0,1.8,0,2.71,0,.19.07.26.26.25h1.76c.34,0,.34,0,.34.36s0,.42,0,.63-.06.27-.26.26c-.6,0-1.2,0-1.8,0H36c-.44,0-.4,0-.4-.42Z"/><path class="cls-3" d="M68.42,11.58h1.43c.21,0,.24.14.29.29L71,14.48l.27.84c.17,0,.14-.15.17-.24.3-1,.58-2,.88-2.93.2-.67,0-.56.78-.57h1c.09.19,0,.32-.06.46q-.87,2.67-1.75,5.34a2.11,2.11,0,0,0-.11.71v3.06c0,.32,0,.32-.32.32s-.72,0-1.08,0-.33,0-.33-.32c0-1,0-2,0-3a2.64,2.64,0,0,0-.14-.84c-.58-1.77-1.17-3.53-1.74-5.3A.69.69,0,0,1,68.42,11.58Z"/><path class="cls-3" d="M64.86,17.17V13.43c0-.58,0-.51-.54-.52h-.9c-.15,0-.22-.05-.21-.21s0-.57,0-.85.11-.28.31-.28h4.37c.4,0,.4,0,.4.38s0,.48,0,.72-.08.24-.24.23H67c-.32,0-.32,0-.33.32v7.71c0,.1,0,.21,0,.31s-.08.23-.24.23q-.63,0-1.26,0c-.23,0-.32-.06-.31-.3,0-.53,0-1.05,0-1.58Z"/><path class="cls-3" d="M69.53,33.37v3.74c0,.58,0,.52-.54.52-.35,0-.69,0-1,0-.18,0-.24-.06-.24-.23s0-.25,0-.37V29.69c0-.11,0-.22,0-.32s-.1-.31-.33-.3H66.31c-.19,0-.27-.06-.26-.26s0-.57,0-.85.07-.22.22-.22h4.51c.33,0,.33,0,.34.36s0,.48,0,.72-.08.26-.27.25-.69,0-1,0-.3.07-.29.28v4Z"/><path class="cls-4" d="M55.54,16.5V12.18c0-.11,0-.21,0-.32s.07-.29.28-.29h1.26c.19,0,.29.07.27.26v7.8c0,.1,0,.21,0,.31s.06.29.28.29q.85,0,1.71,0c.37,0,.37,0,.38.36s0,.43,0,.63-.08.26-.26.26c-1.22,0-2.44,0-3.65,0-.29,0-.27-.15-.27-.34Z"/><path class="cls-3" d="M62.44,16.51V21.1c0,.37,0,.37-.36.38s-.79,0-1.18,0c-.19,0-.28-.06-.26-.26a1.77,1.77,0,0,0,0-.23c0-3,0-5.95,0-8.92,0-.49-.07-.5.48-.49.34,0,.69,0,1,0s.29.09.28.29v4.65Z"/><path class="cls-3" d="M71.9,32.65v-4.5c0-.42,0-.41.42-.41s.72,0,1.08,0c.2,0,.32.05.29.28v9.27c0,.33,0,.33-.31.34H72.21c-.31,0-.31,0-.31-.34V32.65Z"/><path class="cls-5" d="M14.17,27.6,18,16.9a.36.36,0,0,1,.09.31V27.26c0,.34,0,.34-.35.34Z"/><path class="cls-5" d="M39.34,16.51V18.9a2.43,2.43,0,0,1-.12.8.84.84,0,0,1-.89.55.83.83,0,0,1-.89-.54,2.23,2.23,0,0,1-.13-.85V14.18a2.18,2.18,0,0,1,.13-.84,1,1,0,0,1,1.76,0,1.94,1.94,0,0,1,.14.79Z"/><path class="cls-5" d="M42.59,32.68V29.39c0-.34,0-.34.35-.34a2.41,2.41,0,0,1,.71.05.81.81,0,0,1,.66.71,4.5,4.5,0,0,1,.07.63v4.41a3.92,3.92,0,0,1-.07.68.87.87,0,0,1-.74.79.83.83,0,0,1-.22,0c-.76.07-.76.07-.76-.69Z"/><path class="cls-5" d="M78.84,32.71V35.1a2.25,2.25,0,0,1-.07.58,1,1,0,0,1-1.89,0,3.5,3.5,0,0,1-.06-.72c0-1.5,0-3,0-4.51a2.46,2.46,0,0,1,.12-.93.85.85,0,0,1,.9-.53.83.83,0,0,1,.87.52,2.07,2.07,0,0,1,.13.7v2.52Z"/><path class="cls-6" d="M51.74,14.31,52,15.48c.12.73.24,1.45.35,2.18.06.32.05.33-.27.34s-.49,0-.73,0-.25-.09-.22-.27l.57-3.42Z"/><path class="cls-7" d="M63.3,30.42c.19,1.17.38,2.29.56,3.41,0,.34,0,.34-.31.35s-.45,0-.68,0-.27-.09-.24-.3c.1-.57.19-1.15.29-1.72l.24-1.51A.33.33,0,0,1,63.3,30.42Z"/></svg>