<svg xmlns="http://www.w3.org/2000/svg" viewBox="0 0 135.4 135.4"><style>.cls-1{fill:#ec4029;}.cls-2{fill:#fff;}.cls-3{fill:#fffefe;}.cls-4{fill:#ef412a;}.cls-5{fill:#ef422b;}.cls-6{fill:#ef442d;}</style><rect class="cls-1" width="135.4" height="135.4"/><path class="cls-2" d="M88.58,57.24a1.23,1.23,0,0,0-.43,0h-6c-.34,0-.39-.05-.39-.4,0-.85,0-1.71,0-2.57s0-1.74,0-2.62c0-.48,0-.5.51-.5H98.79c.3,0,.33.05.35.35V67.9c0,.62,0,.62-.61.62H93.34a.26.26,0,0,1-.27-.29V62.11a.76.76,0,0,0-.35.26L86,69.1c-.34.35-.28.29-.06.62A21.2,21.2,0,0,1,89.51,79a21.78,21.78,0,0,1-6.11,18.7A21.48,21.48,0,0,1,71.54,104c-.4.08-.4.08-.4.49v5.77c0,.41,0,.41.43.41h5.82c.11,0,.21,0,.32,0s.34.09.34.31v5.78c0,.34-.06.39-.4.39H71.51c-.37,0-.37,0-.37.38v5.82c0,.36,0,.4-.39.4-1.89,0-3.79,0-5.68,0-.37,0-.41,0-.41-.47v-5c0-.29,0-.58,0-.86s-.07-.27-.26-.26H58a.26.26,0,0,1-.27-.29v-5.64a1.08,1.08,0,0,1,0-.18c0-.33,0-.36.37-.37s.6,0,.9,0h5.46a.16.16,0,0,0,.17-.17v-5.87a1.08,1.08,0,0,1,0-.18c0-.21-.07-.27-.28-.3a23.18,23.18,0,0,1-3.77-.88,22.2,22.2,0,0,1,2-42.75,21.74,21.74,0,0,1,18.29,3.89l.1.08c.27.19.27.19.51,0l7-7C88.49,57.42,88.58,57.38,88.58,57.24Z"/><path class="cls-2" d="M15.36,21.45a6.39,6.39,0,0,1,4.88-1,4.24,4.24,0,0,1,3.09,2.33,8.77,8.77,0,0,1,1,3.34A22.26,22.26,0,0,1,24.1,33a6.51,6.51,0,0,1-1.32,2.93,5.11,5.11,0,0,1-2.92,1.76A10.54,10.54,0,0,1,15,37.65a4.79,4.79,0,0,1-3.61-3.55,13.91,13.91,0,0,1-.46-3.75c0-.32,0-.33.32-.33h4.15c.31,0,.32,0,.32.33A11.64,11.64,0,0,0,16,32.77a3.38,3.38,0,0,0,.23.63,1.45,1.45,0,0,0,.46.55,1.86,1.86,0,0,0,2.69-.67,4.45,4.45,0,0,0,.4-1.79,31.29,31.29,0,0,0,0-4.33,8.44,8.44,0,0,0-.33-1.86A1.7,1.7,0,0,0,18,24a1.94,1.94,0,0,0-2,.76A3.62,3.62,0,0,0,15.51,26c-.1.38-.1.38-.47.38H11.57c-.39,0-.4,0-.39-.4l.15-6.54q.09-3.54.16-7.08c0-.7,0-.7.74-.7H23.06c.39,0,.39,0,.39.4,0,1.11,0,2.22,0,3.34,0,.55.06.51-.5.52h-7c-.31,0-.32,0-.34.32,0,.66-.07,1.32-.11,2,0,1-.09,2-.13,3A.43.43,0,0,0,15.36,21.45Z"/><path class="cls-2" d="M45,37.53a4.18,4.18,0,0,0,.74.77c.11.09.19.18.14.34-.12.32-.16.67-.31,1a2.29,2.29,0,0,1-.75-.5,6.57,6.57,0,0,1-1-1.08.48.48,0,0,0-.48-.25,2.81,2.81,0,0,1-.71-.07,2.15,2.15,0,0,1-1.78-1.48,4,4,0,0,1-.25-1.46c0-1.4,0-2.79,0-4.19a4.07,4.07,0,0,1,.18-1.25,2.16,2.16,0,0,1,1.73-1.59,4.69,4.69,0,0,1,1.79,0,2.28,2.28,0,0,1,1.89,2,5.15,5.15,0,0,1,.11,1q0,2,0,3.93a5.07,5.07,0,0,1-.11,1A2.58,2.58,0,0,1,45,37.53Z"/><path class="cls-2" d="M54.07,16.56V12.05c0-.43,0-.43.45-.43h1.09c.45,0,.9,0,1.35,0a3.07,3.07,0,0,1,.53.07,2.18,2.18,0,0,1,2,2.12,2.19,2.19,0,0,1,0,.36c0,1.54,0,3.09,0,4.64a3.38,3.38,0,0,1-.07.63,2.25,2.25,0,0,1-2.16,2c-1,.1-2,0-3,0-.15,0-.22-.06-.22-.22s0-.21,0-.31Z"/><path class="cls-2" d="M71.47,21.51H69.86c-.22,0-.21-.19-.24-.32-.22-.83-.44-1.66-.65-2.49l-.36-1.35c-.09-.34-.09-.34-.45-.34h-.23a.18.18,0,0,0-.2.19v4c0,.34,0,.34-.35.35s-.78,0-1.17,0c-.22,0-.31-.08-.29-.29s0-.21,0-.32V12.24c0-.11,0-.21,0-.32s.09-.31.32-.3c.86,0,1.71,0,2.57,0A3.47,3.47,0,0,1,70,11.9a1.92,1.92,0,0,1,1.2,1.42,4.31,4.31,0,0,1,0,2.14,1.57,1.57,0,0,1-.76,1c-.25.13-.25.27-.18.5.38,1.32.75,2.63,1.12,4A1.39,1.39,0,0,1,71.47,21.51Z"/><path class="cls-2" d="M49,15.85v4.76c0,.28.12.64-.06.82s-.57.05-.86.08c-.12,0-.24,0-.36,0s-.28-.08-.26-.27a1.62,1.62,0,0,0,0-.22v-8.9c0-.53-.07-.51.51-.5.91,0,.67-.16,1,.67l1.85,4.26.19.42c.13-.08.08-.19.08-.28,0-1.52,0-3,0-4.56v-.31c0-.13,0-.2.18-.2h1.13a.15.15,0,0,1,.17.16v9.39c0,.33,0,.34-.31.34s-.62.1-.84-.05-.24-.47-.35-.72L49.3,16.28A.87.87,0,0,0,49,15.85Z"/><path class="cls-2" d="M53.05,31.69c0,1.19,0,2.38,0,3.57a4.25,4.25,0,0,1-.24,1.1,2,2,0,0,1-1.43,1.31,4,4,0,0,1-2.14,0,2,2,0,0,1-1.45-1.35,5.4,5.4,0,0,1-.27-1.87V28.24a1.08,1.08,0,0,0,0-.18c0-.19,0-.28.25-.28.42,0,.84,0,1.26,0,.17,0,.25.06.24.23v6.59a4,4,0,0,0,.15,1.2.86.86,0,0,0,.79.64.88.88,0,0,0,1-.67,3.81,3.81,0,0,0,.13-1.21V28.35c0-.62-.08-.56.55-.56h.77c.44,0,.45,0,.45.43v3.47Z"/><path class="cls-2" d="M39.76,20.73c-.15,0-.16.11-.2.18a1.52,1.52,0,0,1-1.1.71A2.32,2.32,0,0,1,35.67,20a4.7,4.7,0,0,1-.22-1.34c0-1.47,0-2.94,0-4.41A4,4,0,0,1,35.74,13a2.1,2.1,0,0,1,1.55-1.36,4.31,4.31,0,0,1,2.14.05,1.94,1.94,0,0,1,1.32,1.2A4.7,4.7,0,0,1,41,14.67c0,.14,0,.22-.21.22H39.48c-.15,0-.21-.06-.21-.21a7.48,7.48,0,0,0,0-.95A.92.92,0,0,0,38,12.88a.8.8,0,0,0-.58.57,2.14,2.14,0,0,0-.1.71v4.69a2.66,2.66,0,0,0,.1.75.85.85,0,0,0,.84.69.93.93,0,0,0,1-.58,3.76,3.76,0,0,0,.13-.48,7.08,7.08,0,0,0,.06-1.3c0-.19-.07-.28-.26-.27s-.36,0-.54,0-.26,0-.28-.25c-.06-.92-.07-.92.87-.92.51,0,1,0,1.53,0,.23,0,.32.06.32.3,0,1.48,0,2.95,0,4.42,0,.21,0,.32-.28.3s-.61.09-.84-.05S39.86,21,39.76,20.73Z"/><path class="cls-2" d="M59.74,37.66a13,13,0,0,1-1.53,0c-.16,0-.16-.15-.18-.27-.09-.5-.17-1-.26-1.51,0-.1-.05-.2-.06-.3s-.1-.2-.25-.2H56.25c-.22,0-.29.07-.32.27-.1.58-.22,1.15-.3,1.73,0,.24-.14.3-.36.29H54.19c-.32,0-.33,0-.26-.34.23-1.16.47-2.33.7-3.49.39-1.88.77-3.76,1.16-5.65.08-.41.08-.41.51-.41h1.08c.38,0,.39,0,.46.38.24,1.16.47,2.32.71,3.49.38,1.91.77,3.82,1.15,5.74A1.3,1.3,0,0,1,59.74,37.66Z"/><path class="cls-2" d="M35.58,32.72V28.16c0-.37,0-.37.37-.37h3.43c.36,0,.36,0,.36.38a4.86,4.86,0,0,1,0,.54c0,.35,0,.35-.34.35H37.77c-.37,0-.37,0-.37.37,0,.71,0,1.41,0,2.12,0,.32,0,.33.33.33H39c.19,0,.28.07.27.27s0,.51,0,.76-.07.27-.26.27H37.78c-.37,0-.38,0-.38.37,0,.84,0,1.69,0,2.53,0,.34,0,.35.36.35q.85,0,1.71,0c.24,0,.32.08.31.31,0,1.13.16.92-.87.93h-3c-.34,0-.35,0-.35-.35Z"/><path class="cls-2" d="M60.76,16.54V12.08c0-.46,0-.46.48-.46h3.29c.38,0,.38,0,.39.4v.36c0,.59,0,.51-.5.52s-1,0-1.53,0c-.24,0-.32.09-.31.32,0,.73,0,1.47,0,2.21,0,.24.08.31.31.3h1.27c.21,0,.3.07.28.28s0,.43,0,.64,0,.35-.34.35H62.93c-.33,0-.34,0-.35.32,0,.88,0,1.77,0,2.66,0,.21.07.29.29.29h1.71c.37,0,.37,0,.38.38,0,.86,0,.86-.83.86H61.28c-.58,0-.51,0-.51-.5C60.76,19.52,60.76,18,60.76,16.54Z"/><path class="cls-2" d="M42.34,16.56c0-1.51,0-3,0-4.52,0-.42,0-.42.41-.42h3.38c.35,0,.35,0,.35.35s0,.45,0,.67-.08.26-.27.26H44.56c-.4,0-.4,0-.4.39q0,1,0,2.07c0,.35,0,.36.34.36h1.26c.2,0,.27.08.26.27s.12.69-.06.92-.56.06-.85.08a3.86,3.86,0,0,1-.68,0c-.22,0-.28.1-.28.3q0,1.34,0,2.67c0,.23.07.32.31.31h1.85c.15,0,.22.06.22.22s0,.51,0,.76-.08.26-.27.26c-.56,0-1.11,0-1.67,0H42.7c-.35,0-.35,0-.35-.35C42.34,19.62,42.34,18.09,42.34,16.56Z"/><path class="cls-2" d="M73.56,27.79c.45,0,.89,0,1.32,0a.35.35,0,0,1,.41.31c.29,1,.6,1.95.91,2.92a1.73,1.73,0,0,0,.2.55c.12-.1.12-.23.16-.36.3-1,.61-2,.91-3.06.1-.35.11-.35.46-.35h1.12l.14,0c0,.15,0,.26-.07.39C78.55,30,78,31.71,77.39,33.46a3,3,0,0,0-.14.89q0,1.49,0,3c0,.35,0,.36-.35.36h-1c-.33,0-.34,0-.34-.36,0-1,0-2,0-2.94a2.62,2.62,0,0,0-.13-.83c-.6-1.79-1.18-3.57-1.76-5.35A.83.83,0,0,1,73.56,27.79Z"/><path class="cls-3" d="M71.8,33.45c0,1.27,0,2.55,0,3.83,0,.4,0,.4-.39.4H70.33c-.33,0-.33,0-.34-.32,0-.11,0-.21,0-.32V29.47c0-.33,0-.34-.36-.34h-1c-.2,0-.26-.08-.26-.27s0-.57,0-.86.07-.22.22-.21h4.5c.35,0,.35,0,.35.34s0,.42,0,.63,0,.36-.38.37h-.86c-.34,0-.35,0-.35.35,0,.95,0,1.89,0,2.84Z"/><path class="cls-2" d="M60.67,32.72V28.17c0-.37,0-.38.36-.38h1.18c.18,0,.28,0,.26.25s0,.21,0,.31v7.49c0,.11,0,.22,0,.32s.08.29.29.28h1.67c.4,0,.41,0,.41.38s.11.6-.06.79-.52.07-.78.07H61c-.34,0-.35,0-.35-.35Z"/><path class="cls-2" d="M67.58,32.72v4.74c0,.14-.06.22-.21.22H66c-.14,0-.18-.08-.18-.2v-9.2c0-.55-.06-.49.48-.49.34,0,.69,0,1,0s.29.09.28.3c0,.61,0,1.23,0,1.85Z"/><path class="cls-4" d="M67.51,98.5A16.34,16.34,0,1,1,83.88,82.28,16.36,16.36,0,0,1,67.51,98.5Z"/><path class="cls-4" d="M42.42,32.72c0-.78,0-1.56,0-2.34a2.5,2.5,0,0,1,.07-.67,1,1,0,0,1,1.88,0,3.41,3.41,0,0,1,.08.85v4.33a4.25,4.25,0,0,1-.07.8,1,1,0,0,1-1.89.05,2.55,2.55,0,0,1-.07-.67C42.42,34.28,42.42,33.5,42.42,32.72Z"/><path class="cls-4" d="M57.67,16.52c0,.78,0,1.56,0,2.34,0,1.2-.45,1.41-1.56,1.38-.18,0-.24-.08-.23-.25s0-.21,0-.31V13.46c0-.1,0-.21,0-.31s.06-.25.24-.24A3.31,3.31,0,0,1,57,13a.83.83,0,0,1,.59.62,2.65,2.65,0,0,1,.08.63c0,.76,0,1.53,0,2.29Z"/><path class="cls-5" d="M67.73,14.31c0-.39,0-.78,0-1.17,0-.22.09-.3.3-.28s.47,0,.71.05a.91.91,0,0,1,.84.76,3.12,3.12,0,0,1,0,1.29,1,1,0,0,1-.84.83h-.09c-.91.15-.91.15-.91-.77Z"/><path class="cls-6" d="M56.86,30.42l.36,2.16c.08.46.13.92.22,1.38,0,.22,0,.26-.23.26a6.42,6.42,0,0,0-.76,0c-.24,0-.27-.09-.24-.3.13-.69.23-1.39.34-2.09l.24-1.41Z"/><path class="cls-2" d="M67.61,75.46H77.4c.3,0,.33,0,.33.35,0,.9,0,1.8,0,2.71,0,.58,0,1.17,0,1.76,0,.31,0,.35-.36.37H58.15c-.78,0-.67-.05-.67-.66,0-1.35,0-2.7,0-4.06,0-.47,0-.47.48-.47Z"/><path class="cls-2" d="M67.56,89.21H57.82c-.3,0-.34,0-.34-.34,0-.49,0-1,0-1.45v-2.8c0-.59,0-.6.59-.6h19.4a.23.23,0,0,1,.27.27c0,.23,0,.46,0,.68v3.66c0,.1,0,.21,0,.31a.23.23,0,0,1-.24.26H67.56Z"/></svg>