<svg xmlns="http://www.w3.org/2000/svg" viewBox="0 0 135.45 135.42"><style>.cls-1{fill:#00acd7;}.cls-2{fill:#aae4f2;}.cls-3{fill:#fff;}.cls-4{fill:#feffff;}.cls-5{fill:#00aed9;}.cls-6{fill:#01aed9;}.cls-7{fill:#03afd9;}.cls-8{fill:#02afd9;}</style><rect class="cls-1" width="135.42" height="135.42"/><path class="cls-2" d="M0,135.28l134.57.05c.74,0,.74,0,.74-.74q0-67.28.05-134.54s.09,0,.09,0,0,.24,0,.36l0,135-135,0C.27,135.37.1,135.47,0,135.28Z"/><path class="cls-3" d="M77.82,114.15a4,4,0,0,0-.44.35l-9.19,9.18c-.42.42-.31.4-.71,0l-9.24-9.24-.31-.32c.1-.15.24-.09.35-.09,1.15,0,2.31,0,3.47,0,.37,0,.37,0,.34-.37-.21-2.46-.41-4.91-.62-7.37,0-.43,0-.43-.51-.43H52.25c-.28,0-.57,0-.85,0-.51,0-.68-.16-.76-.65-.25-1.49-.49-3-.74-4.48l-1.32-8c-.44-2.62-.86-5.25-1.3-7.87L46,77l-1.32-8c-.5-3-1-6-1.49-9-.26-1.58-.52-3.17-.77-4.75-.1-.58.1-.81.69-.82H91.94a4.17,4.17,0,0,1,.5,0,.57.57,0,0,1,.55.72c-.14,1-.3,2-.45,2.93L91.4,65.46l-1.14,7.29q-.56,3.63-1.12,7.26c-.34,2.22-.69,4.45-1,6.67s-.69,4.48-1,6.73-.7,4.47-1,6.71c-.26,1.64-.51,3.27-.76,4.9,0,.13,0,.27-.07.4a.54.54,0,0,1-.52.43,3.34,3.34,0,0,1-.45,0H74.8c-.52,0-.53,0-.58.52-.14,1.64-.28,3.29-.43,4.93-.06.78-.13,1.56-.19,2.34,0,.36,0,.37.36.37h3.51A.38.38,0,0,1,77.82,114.15Z"/><path class="cls-3" d="M15.88,22.77a3.55,3.55,0,0,1,2.28-1.25,6.06,6.06,0,0,1,3.32.3,4.1,4.1,0,0,1,2,1.65,7.84,7.84,0,0,1,1.09,3.08A16.28,16.28,0,0,1,24.22,33a8.51,8.51,0,0,1-.67,1.76,5.14,5.14,0,0,1-3.47,2.79,9.06,9.06,0,0,1-4.51,0,5.48,5.48,0,0,1-3.52-2.75A9.43,9.43,0,0,1,11,31.48a18.23,18.23,0,0,1-.15-2.56c0-2.89,0-5.77,0-8.66a16.12,16.12,0,0,1,.52-4.32,8.81,8.81,0,0,1,.61-1.6,4.93,4.93,0,0,1,3.46-2.77,10.28,10.28,0,0,1,5,0A4.78,4.78,0,0,1,24,15.4a11.75,11.75,0,0,1,.3,2.64c0,.22-.07.28-.29.28-1.36,0-2.73,0-4.1,0-.23,0-.31-.08-.31-.31a6.47,6.47,0,0,0-.18-1.75,1.37,1.37,0,0,0-1.35-1.17,1.58,1.58,0,0,0-1.76.88,4.93,4.93,0,0,0-.41,1.69c-.09.83-.1,1.65-.11,2.48v2.21A.66.66,0,0,0,15.88,22.77Z"/><path class="cls-3" d="M71.83,15.23a4.32,4.32,0,0,0-.31,1.31c-.27,1.51-.51,3-.76,4.53-.08.44-.08.44-.54.44h-.77c-.2,0-.28-.08-.31-.29-.14-1-.3-2.08-.44-3.12l-.87-6.06,0-.22c0-.14,0-.2.17-.2H69.1c.15,0,.21.06.23.21,0,.42.11.84.16,1.25.19,1.51.38,3,.57,4.53.17-.08.14-.23.16-.35.29-1.76.6-3.52.87-5.29.06-.37.14-.36.43-.35s.59-.1.8,0,.15.5.19.76l.91,5.3a4.1,4.1,0,0,0,.21-1.2c.21-1.51.39-3,.58-4.55,0-.35.05-.35.38-.36s.57,0,.86,0,.3,0,.26.32c-.09.68-.19,1.37-.29,2.05l-.87,6.11c-.06.38-.13.77-.17,1.16,0,.19-.11.25-.29.25h-1c-.21,0-.27-.1-.31-.3-.2-1.24-.41-2.48-.62-3.73C72.08,16.74,72,16,71.83,15.23Z"/><path class="cls-3" d="M62.28,17V12c0-.41,0-.41.43-.42.27,0,.54,0,.81,0s.29.06.27.26v9.28c0,.34,0,.34-.36.35-.83,0-.83,0-1.15-.75-.62-1.48-1.23-3-1.85-4.45a.88.88,0,0,0-.21-.37,1,1,0,0,0,0,.5v4.5c0,.12,0,.24,0,.36s-.08.21-.22.21H58.86c-.17,0-.26-.06-.25-.24V12.13a1.77,1.77,0,0,0,0-.23c0-.22.1-.29.3-.28h0c.91,0,.91,0,1.27.8L62,16.55A1.16,1.16,0,0,0,62.28,17Z"/><path class="cls-3" d="M48.47,32.73V28.18c0-.4,0-.4.39-.4h2.21a4,4,0,0,1,1,.12,2.11,2.11,0,0,1,1.76,1.76,5.07,5.07,0,0,1,.09.94v4.11a4.48,4.48,0,0,1-.09.89,2.23,2.23,0,0,1-2.1,2,27.62,27.62,0,0,1-3,.06c-.22,0-.23-.13-.23-.3,0-.61,0-1.23,0-1.85Z"/><path class="cls-3" d="M98.29,21.52H96.64c-.16,0-.19-.11-.22-.23-.11-.39-.21-.78-.31-1.18l-.72-2.74c0-.12,0-.3-.18-.33a1.3,1.3,0,0,0-.62,0c-.08,0-.08.12-.09.19v3.92c0,.37,0,.37-.37.37s-.78,0-1.18,0c-.19,0-.27-.08-.25-.27v-9.1a2.43,2.43,0,0,0,0-.27c0-.17.06-.25.24-.24a20,20,0,0,1,3.28.11A2.11,2.11,0,0,1,98.11,14a5,5,0,0,1-.1,1.34,1.71,1.71,0,0,1-.8,1.15A.36.36,0,0,0,97,17c.38,1.32.75,2.63,1.12,3.95C98.19,21.12,98.23,21.29,98.29,21.52Z"/><path class="cls-3" d="M73.94,33.18a1.09,1.09,0,0,0,.06-.51c0-1.49,0-3,0-4.47,0-.41,0-.41.42-.41h.72c.36,0,.36,0,.36.38a.66.66,0,0,1,0,.14v9c0,.39,0,.39-.41.4-.79,0-.79,0-1.09-.72l-1.92-4.62L72,32c-.12.13-.08.25-.08.36v4.69c0,.1,0,.21,0,.31s-.06.31-.28.3h-1c-.19,0-.28-.08-.27-.27a2.43,2.43,0,0,0,0-.27V28.3a2.43,2.43,0,0,0,0-.27c0-.17.07-.26.24-.24h.05c.95-.06.95-.06,1.33.83l1.79,4.13C73.79,32.88,73.85,33,73.94,33.18Z"/><path class="cls-3" d="M99.44,32.68c0-.7,0-1.41,0-2.12a4,4,0,0,1,.21-1.28,2.11,2.11,0,0,1,1.66-1.49,4.44,4.44,0,0,1,2,0,2.09,2.09,0,0,1,1.45,1.24,3.82,3.82,0,0,1,.32,1.45V35a3.76,3.76,0,0,1-.2,1.15,2.25,2.25,0,0,1-1.9,1.64,4.36,4.36,0,0,1-1.61,0A2.16,2.16,0,0,1,99.7,36.3a4.48,4.48,0,0,1-.27-1.45V32.68Z"/><path class="cls-3" d="M110,33.09a1.2,1.2,0,0,0,.05-.52V28c0-.15.06-.22.22-.22h1.08c.16,0,.21.07.21.22a2.43,2.43,0,0,0,0,.27q0,4.44,0,8.87a1.08,1.08,0,0,1,0,.18c0,.34,0,.34-.35.35-.82,0-.82,0-1.13-.72q-.94-2.25-1.87-4.49a.91.91,0,0,0-.27-.45v5.42c0,.18-.08.24-.24.24h-1c-.19,0-.27-.08-.25-.27v-9.1a1.77,1.77,0,0,0,0-.23c0-.2,0-.29.27-.3,1,0,1-.05,1.34.83.59,1.38,1.19,2.76,1.79,4.13A.61.61,0,0,0,110,33.09Z"/><path class="cls-3" d="M43.44,32c0,1.72,0,3.4,0,5.09,0,.57.08.53-.52.54-.26,0-.51,0-.77,0s-.27-.09-.25-.28v-9.1a1.62,1.62,0,0,0,0-.22c0-.21,0-.29.27-.3,1-.05,1-.05,1.35.82l1.78,4.14a.81.81,0,0,0,.27.42V28.34c0-.12,0-.24,0-.36s0-.2.18-.2h1.13a.15.15,0,0,1,.17.16v9.24c0,.51.05.49-.49.49-.84,0-.64.11-1-.64-.65-1.55-1.29-3.11-1.94-4.66C43.62,32.27,43.61,32.13,43.44,32Z"/><path class="cls-3" d="M37.29,16.56v2.16a3,3,0,0,0,.11.94.82.82,0,0,0,.88.63.78.78,0,0,0,.85-.65,5.68,5.68,0,0,0,.07-1.3c0-.61-.06-.55.56-.55h.94c.17,0,.25.05.25.23a6.74,6.74,0,0,1-.2,2.05,2,2,0,0,1-1.57,1.46,3.94,3.94,0,0,1-1.87,0A2.2,2.2,0,0,1,35.69,20a4.57,4.57,0,0,1-.24-1.55c0-1.46-.05-2.92,0-4.38a4.18,4.18,0,0,1,.22-1,2.11,2.11,0,0,1,1.56-1.43,4.06,4.06,0,0,1,2,0,2,2,0,0,1,1.59,1.55A6.67,6.67,0,0,1,41,15c0,.17-.07.24-.24.24H39.44c-.2,0-.24-.11-.24-.29,0-.4,0-.81,0-1.21A.87.87,0,0,0,38,12.87a.77.77,0,0,0-.61.59,2.65,2.65,0,0,0-.1.84Z"/><path class="cls-3" d="M81.87,21.52H80.43c-.21,0-.25-.13-.27-.29-.1-.56-.21-1.12-.29-1.68,0-.24-.12-.34-.37-.33a9.73,9.73,0,0,1-1.08,0c-.25,0-.33.1-.37.33-.07.54-.17,1.07-.27,1.6-.07.36-.07.36-.42.37H76.18l-.17,0c.1-.5.19-1,.29-1.48.53-2.6,1.06-5.21,1.6-7.8.13-.65,0-.55.67-.56h1c.34,0,.34,0,.41.34l.78,3.84,1.08,5.33C81.85,21.24,81.85,21.35,81.87,21.52Z"/><path class="cls-3" d="M68.55,37.68c-.81,0-.81,0-.94-.78l-.21-1.25c0-.2-.12-.28-.32-.27H66c-.22,0-.32.06-.35.29-.08.57-.2,1.12-.29,1.69,0,.22-.13.33-.38.32s-.72,0-1.08,0-.31,0-.25-.31c.17-.87.35-1.73.52-2.6l1.32-6.48s0-.06,0-.09c.12-.41,0-.4.48-.41H67c.42,0,.42,0,.5.4L68.3,32c.35,1.74.69,3.47,1,5.21a.85.85,0,0,1,0,.17c0,.25,0,.27-.25.28Z"/><path class="cls-3" d="M40.93,37.64a10.56,10.56,0,0,1-1.49,0c-.13,0-.16-.11-.17-.22L39,35.92l0-.22c-.07-.32-.07-.32-.42-.32h-1c-.35,0-.35,0-.42.37-.1.53-.2,1.06-.28,1.59,0,.24-.11.35-.36.34s-.72,0-1.08,0-.33,0-.26-.35c.2-1,.41-2,.62-3q.61-3,1.24-6.08c.08-.41.08-.41.48-.42h1.12c.38,0,.38,0,.46.38.2,1,.41,2,.61,3,.42,2.06.83,4.12,1.25,6.18A.39.39,0,0,1,40.93,37.64Z"/><path class="cls-3" d="M87.72,27.79h.58c.34,0,.34,0,.41.33.15.72.29,1.44.44,2.16l1.41,7,0,.13c0,.27,0,.29-.24.3s-.72,0-1.08,0-.35-.09-.38-.33c-.08-.54-.18-1.07-.27-1.6-.06-.36-.07-.36-.42-.37H87.08a.24.24,0,0,0-.27.23c-.08.55-.19,1.1-.28,1.64s-.07.42-.47.42H85c-.23,0-.27-.08-.22-.3.29-1.42.57-2.85.86-4.27.33-1.61.66-3.21,1-4.81a1.55,1.55,0,0,0,.07-.31c0-.15.1-.2.24-.2s.51,0,.77,0Z"/><path class="cls-3" d="M51.82,21.51l.49-2.43,1.41-7a.58.58,0,0,0,0-.18c0-.24.14-.32.39-.31q.63,0,1.26,0c.24,0,.33.08.38.32.35,1.78.72,3.56,1.08,5.34.25,1.26.51,2.53.76,3.79a2.56,2.56,0,0,1,0,.27c0,.11,0,.16-.15.17h-1.3c-.22,0-.23-.16-.26-.31l-.27-1.59c-.07-.39-.07-.39-.45-.39h-.94c-.33,0-.39,0-.44.35-.07.53-.18,1.06-.28,1.59-.06.34-.06.34-.39.35Z"/><path class="cls-3" d="M60.27,27.67a2.7,2.7,0,0,1,.85.07,2,2,0,0,1,1.45,1.17,5.13,5.13,0,0,1,.31,1.21c0,.17-.05.25-.21.28l-1.06.2c-.19,0-.28,0-.29-.22a2.36,2.36,0,0,0-.13-.75.78.78,0,0,0-.94-.58.79.79,0,0,0-.7.8A1.46,1.46,0,0,0,60,31.1c.49.45,1,.89,1.48,1.32a5.27,5.27,0,0,1,1.11,1.29,3.11,3.11,0,0,1,.41,2,2.29,2.29,0,0,1-2.13,2,3.52,3.52,0,0,1-1.29-.12,2.12,2.12,0,0,1-1.27-.94,3.72,3.72,0,0,1-.5-1.71c0-.18,0-.27.23-.31.36-.06.71-.14,1.06-.22.18,0,.27,0,.29.21a2.91,2.91,0,0,0,.25,1.13.9.9,0,0,0,.9.56.67.67,0,0,0,.71-.61,1.83,1.83,0,0,0-.54-1.69c-.46-.48-1-.89-1.47-1.32a5.4,5.4,0,0,1-.92-.93A2.9,2.9,0,0,1,58.08,29a2.09,2.09,0,0,1,1.79-1.26Z"/><path class="cls-3" d="M87.55,16.55V12.09c0-.45,0-.46.43-.46h3.34c.38,0,.39,0,.38.36s.14.66-.08.86-.55.05-.83.06H89.62c-.2,0-.26.07-.26.26,0,.77,0,1.54,0,2.3,0,.2.09.26.27.26h1.31c.21,0,.3.07.29.29s0,.42,0,.63,0,.36-.34.36H89.71c-.34,0-.35,0-.35.32v2.61c0,.32,0,.32.34.33h1.67c.36,0,.37,0,.37.34s.12.63-.06.83-.54.07-.82.08c-1,0-1.93,0-2.89,0-.42,0-.42,0-.42-.42Z"/><path class="cls-3" d="M47.19,16.57V12.2c0-.1,0-.21,0-.31s.06-.29.26-.27H51c.32,0,.33,0,.33.33s0,.45,0,.68-.1.28-.3.28H49.38c-.36,0-.37,0-.37.37,0,.72,0,1.44,0,2.16,0,.21.06.29.28.29.4,0,.81,0,1.21,0s.34,0,.34.32.12.67-.05.88-.57,0-.86.08-.67-.13-.87.08,0,.55-.05.83,0,.66,0,1a7.07,7.07,0,0,0,0,1.3,5.93,5.93,0,0,0,1.33.05c.21,0,.42,0,.63,0s.35,0,.36.35,0,.42,0,.63-.06.28-.26.27a2.43,2.43,0,0,0-.27,0H47.69c-.55,0-.5,0-.5-.52Z"/><path class="cls-4" d="M81.16,33.4V29.53c0-.39,0-.4-.4-.4h-1c-.19,0-.27-.06-.26-.26s0-.54,0-.81.11-.27.3-.27h2.75c.57,0,1.14,0,1.71,0,.22,0,.34,0,.32.29a7.3,7.3,0,0,0,0,.81c0,.18-.08.24-.25.24-.36,0-.72,0-1.08,0-.19,0-.28.07-.26.26v.36c0,2.42,0,4.83,0,7.25,0,.11,0,.21,0,.32,0,.35,0,.35-.35.36H81.51c-.34,0-.35,0-.35-.36,0-.87,0-1.74,0-2.61Z"/><path class="cls-3" d="M92.15,33.4V29.53c0-.39,0-.39-.39-.4h-1c-.19,0-.26-.07-.26-.26s0-.57,0-.86,0-.22.21-.22.27,0,.41,0h4.1c.35,0,.35,0,.36.33s0,.49,0,.73-.09.28-.3.28h-.85c-.46,0-.46,0-.46.48v7.48c0,.11,0,.21,0,.32s-.1.28-.3.28H92.5c-.34,0-.35,0-.35-.36V33.4Z"/><path class="cls-3" d="M83.42,17.21V13.38c0-.4,0-.4-.39-.41H82c-.18,0-.27-.07-.26-.26s0-.57,0-.86.06-.22.21-.22h4.65c.15,0,.21.08.21.22,0,.29,0,.58,0,.86s-.08.27-.27.26h-1c-.34,0-.35,0-.35.36,0,1.19,0,2.37,0,3.56v4.19c0,.47,0,.44-.44.44h-1c-.41,0-.41,0-.41-.43Z"/><path class="cls-4" d="M44,16c0,1.29,0,2.58,0,3.87,0,.42,0,.42.41.42H46c.32,0,.33,0,.32.33s.12.63,0,.83-.53.08-.81.08c-1,0-1.95,0-2.93,0-.38,0-.39,0-.39-.35V12c0-.33,0-.34.32-.34h1.22c.21,0,.29.07.29.28,0,.45,0,.9,0,1.35Z"/><path class="cls-3" d="M77,32.74V28.19c0-.4,0-.4.39-.4h1.08c.31,0,.31,0,.32.34v9.32c0,.15-.07.23-.22.23H77.19c-.15,0-.23-.06-.22-.21s0-.21,0-.32C77,35.68,77,34.21,77,32.74Z"/><path class="cls-4" d="M96.36,32.72V28.3c0-.1,0-.21,0-.31a.17.17,0,0,1,.19-.19H98a.17.17,0,0,1,.19.19v9.16c0,.58,0,.54-.54.54h-.72c-.59,0-.52,0-.52-.55V32.72Z"/><path class="cls-5" d="M44.62,56.66H90.75a.61.61,0,0,1,0,.4q-.63,3.88-1.27,7.78c0,.27,0,.37-.4.25a5.37,5.37,0,0,0-3.15,0,13.33,13.33,0,0,0-1.74.62,36.23,36.23,0,0,1-5.83,1.85,19.16,19.16,0,0,1-8.62-.23,37.73,37.73,0,0,1-5.24-1.81,22,22,0,0,0-4.19-1.34,9,9,0,0,0-4.71.34,44.68,44.68,0,0,1-4.76,1.53,17.29,17.29,0,0,1-3.92.53c-.44,0-.44,0-.52-.42q-.9-4.58-1.78-9.15A.58.58,0,0,1,44.62,56.66Z"/><path class="cls-5" d="M67.83,73.41,68.89,75c1.83,2.77,3.66,5.54,5.43,8.35A11.5,11.5,0,0,1,76,87.63a7.87,7.87,0,0,1-2.27,7.22,7.13,7.13,0,0,1-3.67,1.91,11,11,0,0,1-4.61,0,7.65,7.65,0,0,1-5.94-7.88,10.67,10.67,0,0,1,1.6-5.15c1.37-2.24,2.83-4.43,4.28-6.62C66.19,75.87,67,74.67,67.83,73.41Z"/><path class="cls-5" d="M15.81,29.15c0-.93,0-1.69,0-2.46a.9.9,0,0,1,.22-.61,2.32,2.32,0,0,1,2.13-.85,1.47,1.47,0,0,1,1.17.81,3,3,0,0,1,.36,1.34A23.88,23.88,0,0,1,19.61,32a4.43,4.43,0,0,1-.29,1.18,1.64,1.64,0,0,1-2.69.49A3,3,0,0,1,15.92,32,17.56,17.56,0,0,1,15.81,29.15Z"/><path class="cls-5" d="M50.28,32.72v-3.2c0-.45,0-.45.48-.45,1,0,1.29.3,1.3,1.26,0,1.56,0,3.12,0,4.68,0,.15,0,.29,0,.44a.93.93,0,0,1-1,.93c-.77.07-.77.07-.77-.69Z"/><path class="cls-6" d="M94.5,14.37V13.29c0-.41,0-.41.43-.41l.5,0a.93.93,0,0,1,.92.83,3.08,3.08,0,0,1,0,1.21,1,1,0,0,1-.87.85,5.65,5.65,0,0,1-.71,0c-.19,0-.27-.07-.27-.26,0-.41,0-.81,0-1.22Z"/><path class="cls-5" d="M103.31,32.77c0,.73,0,1.45,0,2.17a3.39,3.39,0,0,1-.1.84.85.85,0,0,1-.93.68.84.84,0,0,1-.93-.68,3.59,3.59,0,0,1-.09-.81v-4.5a3.08,3.08,0,0,1,.1-.8,1,1,0,0,1,1.85,0,3,3,0,0,1,.1.84Z"/><path class="cls-7" d="M78.31,18l.6-3.67a7.78,7.78,0,0,1,.4,1.78c.11.61.19,1.23.29,1.86A7.92,7.92,0,0,1,78.31,18Z"/><path class="cls-8" d="M67.15,34.16a3.89,3.89,0,0,1-.89,0c-.41,0-.42,0-.36-.39.1-.58.19-1.15.29-1.73s.18-1.06.3-1.6C66.78,31.7,66.93,32.93,67.15,34.16Z"/><path class="cls-8" d="M37.4,34.19,38,30.43h.07c.12.74.25,1.47.37,2.21.07.43.13.86.21,1.29,0,.21,0,.27-.24.26Z"/><path class="cls-8" d="M87.66,30.49a.24.24,0,0,1,.13.19c.18,1.08.35,2.16.52,3.24,0,.26,0,.28-.24.29h-.63c-.39,0-.39,0-.34-.37C87.29,32.73,87.47,31.62,87.66,30.49Z"/><path class="cls-8" d="M54.75,14.24a2,2,0,0,1,.2.84c.16.87.29,1.74.43,2.61,0,.34,0,.34-.3.35h-.63c-.3,0-.32,0-.27-.31.08-.58.18-1.15.27-1.73S54.64,14.88,54.75,14.24Z"/></svg>