<svg xmlns="http://www.w3.org/2000/svg" viewBox="0 0 135.4 135.4"><style>.cls-1{fill:#fbb513;}.cls-2{fill:#fee7b0;}.cls-3{fill:#fff;}.cls-4{fill:#fffffe;}.cls-5{fill:#fdb713;}.cls-6{fill:#fdb714;}.cls-7{fill:#fdb715;}.cls-8{fill:#fdb816;}.cls-9{fill:#fdb815;}</style><rect class="cls-1" width="135.4" height="135.4"/><path class="cls-2" d="M.11,0c0,.24,0,.48,0,.72V134.49c0,.82,0,.82.84.82H135.4s0,.09-.05.09H0v-.65Q0,67.58,0,.41C0,.27-.08.1.11,0Z"/><path class="cls-3" d="M47.84,85.9a20,20,0,1,1,19.94,20A20,20,0,0,1,47.84,85.9Z"/><path class="cls-3" d="M17,11.59h5.59c.34,0,.34,0,.34.37,0,.9,0,1.8,0,2.7a4.39,4.39,0,0,1-.2,1L17.59,37a2.44,2.44,0,0,0-.06.26c0,.21-.15.27-.35.26H13c-.32,0-.33,0-.24-.39.4-1.62.79-3.24,1.19-4.85Q16,24.1,18,16c.14-.58.14-.58-.46-.58H11.32c-.2,0-.27-.08-.27-.27s0-.69,0-1v-2c0-.45,0-.46.44-.46H17Z"/><path class="cls-3" d="M79.32,16.16a2.19,2.19,0,0,1,1.5,2.25,4.12,4.12,0,0,1-.06,1,2.29,2.29,0,0,1-2.22,2.05c-1,.06-2.07,0-3.11,0-.17,0-.24-.07-.24-.24s0-.21,0-.32V12c0-.38,0-.39.37-.39.93,0,1.86-.05,2.79.06a3.22,3.22,0,0,1,.62.11,1.93,1.93,0,0,1,1.51,1.75,3.89,3.89,0,0,1,0,.68A1.89,1.89,0,0,1,79.32,16.16Z"/><path class="cls-3" d="M62.71,16.51V12.1c0-.11,0-.21,0-.32s.08-.21.23-.21a21.92,21.92,0,0,1,3.14.09,2.2,2.2,0,0,1,2,2.17,6.79,6.79,0,0,1,0,.9c0,1.39,0,2.79,0,4.18l0,.36a2.32,2.32,0,0,1-2.35,2.18c-.93.06-1.86,0-2.79,0-.21,0-.25-.1-.25-.28s0-.66,0-1Z"/><path class="cls-3" d="M106.81,16.53V11.81c0-.14,0-.24.2-.24a19,19,0,0,1,3.28.12,2.18,2.18,0,0,1,1.92,2.21,11.43,11.43,0,0,1,0,1.17c0,1.23,0,2.46,0,3.69a2.69,2.69,0,0,1,0,.4,2.37,2.37,0,0,1-2.52,2.3c-.82,0-1.65,0-2.48,0-.39,0-.39,0-.39-.4C106.8,19.57,106.81,18.05,106.81,16.53Z"/><path class="cls-3" d="M87.24,37.63c-.58,0-1.08,0-1.59,0-.23,0-.27-.14-.31-.31l-.81-3.09c-.06-.26-.14-.52-.19-.79s-.18-.33-.44-.32c-.44,0-.44,0-.44.45v3.69c0,.36,0,.37-.38.37H81.91c-.19,0-.28-.06-.27-.26a2.43,2.43,0,0,0,0-.27v-9c0-.34,0-.35.36-.35.89,0,1.77,0,2.66,0a3.57,3.57,0,0,1,.92.18A2,2,0,0,1,87,29.57a4.47,4.47,0,0,1-.06,2,1.65,1.65,0,0,1-.8,1.1c-.22.13-.22.26-.16.47.38,1.33.75,2.66,1.12,4C87.14,37.25,87.18,37.4,87.24,37.63Z"/><path class="cls-3" d="M61.74,21.48c-.51,0-1,0-1.47,0-.24,0-.33-.09-.39-.32q-.47-1.83-1-3.66c0-.1-.06-.2-.07-.3S58.7,17,58.53,17c-.52,0-.52,0-.52.5v3.61c0,.4,0,.4-.39.41s-.78,0-1.17,0c-.2,0-.27-.08-.25-.27V12c0-.45,0-.45.44-.45.87,0,1.74,0,2.61,0l.32,0a2.21,2.21,0,0,1,2,2.33,4.27,4.27,0,0,1-.17,1.47,1.59,1.59,0,0,1-.74,1c-.23.13-.26.25-.19.5.4,1.36.77,2.72,1.15,4.08A1.13,1.13,0,0,1,61.74,21.48Z"/><path class="cls-3" d="M55.12,16.53c0,.7,0,1.41,0,2.12a4,4,0,0,1-.2,1.24,2.19,2.19,0,0,1-1.8,1.63,4.29,4.29,0,0,1-1.92-.05,2.09,2.09,0,0,1-1.47-1.28,3.51,3.51,0,0,1-.29-1.27q-.06-2.42,0-4.83a3.22,3.22,0,0,1,.29-1.26,2.11,2.11,0,0,1,1.38-1.21,4.18,4.18,0,0,1,2.22,0A2.1,2.1,0,0,1,54.85,13a4.3,4.3,0,0,1,.27,1.41C55.13,15.08,55.12,15.81,55.12,16.53Z"/><path class="cls-3" d="M104.09,17V15.34c0-1.11,0-2.22,0-3.33,0-.44,0-.44.45-.44h.81c.17,0,.24.08.24.24v9.38c0,.21-.06.28-.28.29-.9,0-.9.05-1.23-.76l-1.89-4.53c0-.11-.06-.24-.19-.33a.49.49,0,0,0,0,.33v5c0,.17-.07.24-.24.24q-.54,0-1.08,0c-.15,0-.22-.07-.21-.22v-9.2c0-.49,0-.49.49-.49.76,0,.76,0,1.06.7l1.84,4.26A1.25,1.25,0,0,0,104.09,17Z"/><path class="cls-3" d="M74,33.07V28.7c0-.24,0-.48,0-.72s.07-.24.24-.24h1c.18,0,.23.09.23.25V37.1c0,.6,0,.53-.53.53s-.68,0-.93-.61L72.09,32.4a.84.84,0,0,0-.26-.43V37.1c0,.12,0,.24,0,.36a.15.15,0,0,1-.16.17H70.48c-.13,0-.18-.07-.18-.2v-.32c0-3,0-5.91,0-8.87,0-.5,0-.51.48-.5,1,0,.7-.13,1.06.69.63,1.43,1.25,2.87,1.87,4.3a3.78,3.78,0,0,0,.17.35Z"/><path class="cls-3" d="M39,84.08h4.19a1.66,1.66,0,0,1,1.71,1.61,1.69,1.69,0,0,1-1.68,1.7H34.75a1.69,1.69,0,0,1-1.69-1.5,1.71,1.71,0,0,1,1.21-1.75,1.94,1.94,0,0,1,.53,0Z"/><path class="cls-3" d="M96.69,84.08c1.4,0,2.8,0,4.19,0a1.66,1.66,0,1,1,0,3.32c-2.81,0-5.62,0-8.43,0a1.71,1.71,0,0,1-1.69-1.45A1.7,1.7,0,0,1,92,84.13a2,2,0,0,1,.54,0Z"/><path class="cls-3" d="M59.88,33.13v-5c0-.43,0-.43.42-.43h.81c.2,0,.27.08.26.27a2.43,2.43,0,0,0,0,.27v8.79c0,.11,0,.21,0,.32s-.06.25-.24.24h0c-.89,0-.89,0-1.24-.77L58,32.36c-.05-.1-.06-.23-.2-.33a.63.63,0,0,0,0,.33c0,1.58,0,3.16,0,4.74v.36a.15.15,0,0,1-.17.17H56.41c-.12,0-.2-.05-.2-.19v-9.2c0-.51-.08-.51.52-.5.89,0,.68-.11,1,.65l1.92,4.42A.56.56,0,0,0,59.88,33.13Z"/><path class="cls-3" d="M80.15,66a1.7,1.7,0,0,1-1.54-2.5c1.23-2.06,2.4-4.16,3.59-6.24.22-.38.43-.76.65-1.13a1.67,1.67,0,0,1,2.23-.63,1.72,1.72,0,0,1,.65,2.26C84.46,60,83.22,62.16,82,64.35c-.17.29-.34.57-.49.86A1.57,1.57,0,0,1,80.15,66Z"/><path class="cls-3" d="M46.46,96.34a1.65,1.65,0,0,1,.88,3.08L40,103.66a1.65,1.65,0,0,1-2.29-2.22,1.42,1.42,0,0,1,.58-.61l7.45-4.28A1.28,1.28,0,0,1,46.46,96.34Z"/><path class="cls-3" d="M98.18,69.35a1.55,1.55,0,0,1-.84,1.31L90,74.9a1.65,1.65,0,0,1-2-.29,1.67,1.67,0,0,1-.19-2,1.45,1.45,0,0,1,.55-.52c2.47-1.42,4.93-2.85,7.41-4.26A1.65,1.65,0,0,1,98.18,69.35Z"/><path class="cls-3" d="M96.49,103.83a1.24,1.24,0,0,1-.7-.19l-7.45-4.27A1.65,1.65,0,0,1,90,96.5l7.5,4.28a1.64,1.64,0,0,1,.7,1.88A1.68,1.68,0,0,1,96.49,103.83Z"/><path class="cls-3" d="M51.34,116.11a1.63,1.63,0,0,1-1.41-2.42c.87-1.55,1.76-3.08,2.64-4.62l1.59-2.78a1.65,1.65,0,0,1,3.08.51,1.52,1.52,0,0,1-.21,1.12l-4,7a4,4,0,0,0-.2.35A1.57,1.57,0,0,1,51.34,116.11Z"/><path class="cls-3" d="M86,114.36a1.65,1.65,0,0,1-3.1.87q-2.08-3.63-4.18-7.26a1.65,1.65,0,0,1-.18-1.43,1.5,1.5,0,0,1,1.33-1.12,1.58,1.58,0,0,1,1.65.78l4.27,7.43A1.31,1.31,0,0,1,86,114.36Z"/><path class="cls-3" d="M57.22,64.32A1.62,1.62,0,0,1,56,66a1.7,1.7,0,0,1-1.89-.79c-1.39-2.46-2.8-4.9-4.21-7.35A1.58,1.58,0,0,1,50,56a1.63,1.63,0,0,1,2.68.12c.64,1.07,1.25,2.16,1.87,3.24L57,63.5A1.42,1.42,0,0,1,57.22,64.32Z"/><path class="cls-3" d="M39.18,67.63a1.59,1.59,0,0,1,.88.29L46,71.3l1.37.78a1.68,1.68,0,0,1,.6,2.27,1.71,1.71,0,0,1-2.24.61c-2.47-1.43-5-2.83-7.41-4.25a1.65,1.65,0,0,1,.91-3.08Z"/><path class="cls-3" d="M69.48,114.6c0,1.41,0,2.82,0,4.23a1.74,1.74,0,0,1-1.17,1.6,1.65,1.65,0,0,1-1.83-.62,1.53,1.53,0,0,1-.3-1c0-1.77,0-3.55,0-5.32,0-1.06,0-2.13,0-3.2a1.65,1.65,0,0,1,3.15-.7,1.56,1.56,0,0,1,.15.74Z"/><path class="cls-3" d="M69.48,56.92c0,1.4,0,2.8,0,4.19a1.75,1.75,0,0,1-1.21,1.62A1.69,1.69,0,0,1,66.44,62a1.5,1.5,0,0,1-.25-.9c0-1.65,0-3.3,0-4.95,0-1.19,0-2.38,0-3.56A1.71,1.71,0,0,1,67.45,51a1.69,1.69,0,0,1,1.86.87,1.59,1.59,0,0,1,.17.78Z"/><path class="cls-3" d="M92.35,36.86c-.13,0-.15.09-.19.15a1.66,1.66,0,0,1-1.49.77,2.26,2.26,0,0,1-2.47-1.85A4.59,4.59,0,0,1,88,34.82c0-1.43,0-2.86,0-4.28a4.3,4.3,0,0,1,.28-1.46,2.09,2.09,0,0,1,1.57-1.35,4.32,4.32,0,0,1,2,0,2,2,0,0,1,1.59,1.55,5.6,5.6,0,0,1,.14,1.47c0,.15,0,.27-.22.26H92.05c-.16,0-.21-.08-.21-.22,0-.33,0-.66,0-1A.89.89,0,0,0,90.76,29a.84.84,0,0,0-.82.71,2.51,2.51,0,0,0-.08.67V34.9a3,3,0,0,0,.13.89.81.81,0,0,0,.84.62.9.9,0,0,0,.94-.48A2.22,2.22,0,0,0,92,35c0-.32,0-.63,0-1s-.09-.3-.29-.28h-.09c-.22,0-.55.11-.64-.07a1.9,1.9,0,0,1,0-1c0-.09.09-.11.16-.11h2.21c.22,0,.33,0,.32.3,0,1.47,0,3,0,4.42,0,.24-.09.32-.31.3s-.21,0-.32,0c-.56,0-.56,0-.63-.58Z"/><path class="cls-3" d="M35.62,32.66v2.21a3,3,0,0,0,.12,1,.84.84,0,0,0,.88.57.79.79,0,0,0,.83-.62,3.26,3.26,0,0,0,.08-.94c0-.29-.13-.68.06-.87s.6-.05.91-.07.36,0,.54,0,.23.08.23.24a8.54,8.54,0,0,1-.11,1.75,2.12,2.12,0,0,1-2,1.81,4.26,4.26,0,0,1-1.07,0,2.37,2.37,0,0,1-2.27-2.23,8.93,8.93,0,0,1-.08-1c0-1.19,0-2.38,0-3.56A5.36,5.36,0,0,1,34,29.23a2.12,2.12,0,0,1,1.57-1.48,4.23,4.23,0,0,1,2.09,0,2,2,0,0,1,1.41,1.34,6.16,6.16,0,0,1,.19,2,.17.17,0,0,1-.19.19H37.72c-.16,0-.19-.1-.19-.24s0-.51,0-.76a5.2,5.2,0,0,0-.06-.68.75.75,0,0,0-.71-.69.91.91,0,0,0-1,.51,1.41,1.41,0,0,0-.11.61c0,.86,0,1.71,0,2.57Z"/><path class="cls-3" d="M99.64,21.48c-.47,0-.94,0-1.42,0-.18,0-.23-.1-.25-.25-.09-.55-.19-1.1-.28-1.64s-.07-.39-.45-.4H96.3c-.37,0-.38,0-.45.39-.1.53-.21,1.06-.28,1.59,0,.25-.15.32-.38.31-.45,0-.9,0-1.39,0,.15-.73.28-1.4.42-2.07q.73-3.66,1.49-7.32c0-.08,0-.15,0-.23s.13-.3.36-.29h1.26c.33,0,.33,0,.4.34L98.4,15l1.23,6.09A.63.63,0,0,1,99.64,21.48Z"/><path class="cls-3" d="M39.31,21.48c-.52,0-1,0-1.47,0-.19,0-.22-.12-.24-.26-.1-.56-.21-1.12-.3-1.68,0-.37-.12-.35-.39-.35h-1c-.33,0-.33,0-.39.35-.1.53-.19,1.07-.28,1.6-.06.33-.06.33-.4.34H33.5a.46.46,0,0,1,0-.38L35.36,12c.08-.4.08-.4.49-.4H37c.21,0,.31.07.35.29.21,1.08.44,2.15.65,3.23q.61,3,1.21,5.91Z"/><path class="cls-3" d="M74.44,21.45c-.48.05-1,0-1.44,0-.21,0-.23-.14-.26-.29-.1-.55-.19-1.1-.28-1.64-.07-.35-.07-.35-.43-.36H71a.29.29,0,0,0-.35.29c-.08.52-.18,1-.27,1.56s-.07.44-.54.44a10.46,10.46,0,0,1-1.24,0c.16-.78.3-1.54.46-2.3.47-2.34.94-4.68,1.43-7,.13-.62,0-.56.67-.57h1c.33,0,.34,0,.4.34.27,1.29.53,2.58.8,3.88q.51,2.58,1,5.16A1.63,1.63,0,0,1,74.44,21.45Z"/><path class="cls-3" d="M55.48,37.63H54c-.18,0-.21-.1-.24-.25-.09-.56-.19-1.13-.29-1.69-.06-.33-.07-.33-.4-.33H52c-.33,0-.33,0-.39.34q-.16.84-.3,1.68c0,.19-.11.26-.29.25H49.93c-.33,0-.34,0-.27-.33.17-.88.35-1.76.53-2.65l1.32-6.48c.09-.43.09-.43.52-.43s.75,0,1.12,0,.37.09.42.34c.17.9.36,1.8.54,2.69.44,2.21.89,4.41,1.33,6.62Z"/><path class="cls-3" d="M45.13,32.68V28.17c0-.43,0-.43.42-.43h3.33c.4,0,.4,0,.4.4,0,.21,0,.42,0,.63S49.21,29,49,29H47.17a.19.19,0,0,0-.22.22v2.39c0,.2.13.21.28.21h1.21c.36,0,.36,0,.37.38,0,.21,0,.42,0,.63s-.07.28-.26.27H47.33c-.37,0-.38,0-.38.38V36c0,.32,0,.33.33.33H49c.31,0,.33,0,.33.33s.11.63-.06.84-.53.07-.81.08h-3c-.34,0-.35,0-.35-.35Z"/><path class="cls-3" d="M86.61,16.51V12c0-.42,0-.43.42-.43h3.33c.4,0,.4,0,.4.4,0,.18,0,.36,0,.54,0,.36,0,.36-.39.36H88.8c-.37,0-.37,0-.38.38v2.07c0,.36,0,.36.38.37H90c.19,0,.28.06.27.26a5.77,5.77,0,0,0,0,.72c0,.26-.1.3-.32.3-.42,0-.84,0-1.26,0-.22,0-.29.08-.29.29,0,.91,0,1.81,0,2.71,0,.2.08.26.27.26h1.76c.34,0,.35,0,.35.35s.12.64-.06.83-.54.07-.82.07H87c-.37,0-.38,0-.38-.38Z"/><path class="cls-3" d="M65.33,32.67V28.16c0-.41,0-.42.42-.42h3.38c.34,0,.35,0,.35.35a5.61,5.61,0,0,1,0,.58c0,.35,0,.36-.34.36H67.51c-.36,0-.37,0-.37.38v2.07c0,.36,0,.37.38.37h1.22c.19,0,.27.07.26.26a5.77,5.77,0,0,0,0,.72c0,.25-.11.31-.33.3H67.47c-.22,0-.34,0-.33.3,0,.88,0,1.77,0,2.66,0,.21.07.29.28.29.58,0,1.15,0,1.72,0,.37,0,.38,0,.37.38s.13.63-.07.82-.52.05-.79.05H65.72c-.39,0-.39,0-.39-.4Z"/><path class="cls-3" d="M76.68,32.68V28.17c0-.42,0-.43.41-.43h3.34c.4,0,.4,0,.4.39,0,.2,0,.4,0,.59s-.07.32-.31.32c-.5,0-1,0-1.49,0h-.31c-.18,0-.23.09-.23.25,0,.77,0,1.54,0,2.3,0,.24.12.27.31.27.42,0,.84,0,1.26,0,.2,0,.29,0,.3.27.06,1,.06,1-.93,1h-.67c-.2,0-.27.08-.26.27,0,.9,0,1.81,0,2.71,0,.23.12.27.31.27.54,0,1.08,0,1.62,0s.44,0,.44.45c0,.18,0,.36,0,.54s-.08.27-.27.26H77c-.34,0-.35,0-.35-.35Z"/><path class="cls-3" d="M97,31.51a1.1,1.1,0,0,0,.19-.51c.3-1,.58-1.93.87-2.89.11-.37.11-.37.49-.37h1.2c.1.18,0,.32,0,.45-.58,1.77-1.15,3.54-1.74,5.31a2.38,2.38,0,0,0-.13.79c0,1,0,2,0,2.93,0,.4,0,.41-.39.41h-.94c-.4,0-.4,0-.4-.39,0-1,0-2,0-2.93a2.69,2.69,0,0,0-.14-.84q-.87-2.61-1.72-5.22l-.13-.45a2.46,2.46,0,0,1,.93-.06c.91,0,.68-.12.94.68s.56,1.78.84,2.66A1.11,1.11,0,0,0,97,31.51Z"/><path class="cls-3" d="M40.05,16.54V11.9c0-.32,0-.33.33-.33h3.47c.19,0,.26.07.27.26.07,1,.08,1-.92,1h-1c-.2,0-.3.05-.3.28q0,1.17,0,2.34c0,.21.09.26.27.25.41,0,.81,0,1.22,0,.22,0,.34.05.32.3a5.77,5.77,0,0,0,0,.72c0,.2-.09.26-.27.25H43a5.25,5.25,0,0,0-1.12,0,3.71,3.71,0,0,0-.05,1.15c0,.92,0,1.83,0,2.75v.27c0,.21-.06.3-.28.29q-.63,0-1.26,0c-.23,0-.27-.1-.27-.3,0-.57,0-1.14,0-1.71Z"/><path class="cls-4" d="M44.82,16.53V11.84c0-.18.06-.28.26-.27h3.24c.65,0,.56,0,.57.59,0,.14,0,.27,0,.41s-.07.27-.26.27H46.92c-.21,0-.3.07-.3.28q0,1.17,0,2.34c0,.18.07.25.24.24.44,0,.88,0,1.31,0,.19,0,.28.06.27.26s0,.51,0,.76-.09.26-.27.26c-.38,0-.75,0-1.13,0s-.41,0-.41.43c0,1.17,0,2.34,0,3.51,0,.62.06.55-.55.56-.32,0-.63,0-1,0s-.31-.08-.31-.31c0-.9,0-1.8,0-2.7Z"/><path class="cls-3" d="M40.26,32.66V28.15c0-.4,0-.41.39-.41h1.17c.17,0,.25.06.25.24s0,.24,0,.36v7.44c0,.1,0,.21,0,.31s.08.29.29.29c.55,0,1.11,0,1.67,0,.41,0,.42,0,.41.43,0,.25.11.57,0,.74s-.51.08-.78.08h-3c-.37,0-.38,0-.38-.37Z"/><path class="cls-3" d="M81.73,16.54V12.12c0-.1,0-.21,0-.31s.08-.24.25-.24h1.35a.19.19,0,0,1,.22.22c0,.12,0,.24,0,.36v7.57c0,.52-.06.5.48.5s1,0,1.57,0c.24,0,.33.08.31.31s0,.45,0,.68,0,.27-.25.27c-1.22,0-2.44,0-3.65,0-.28,0-.28-.15-.28-.34Z"/><path class="cls-5" d="M70.91,75.87a10.37,10.37,0,1,1-6.24,0,.67.67,0,0,1,.06.44c0,1,0,2,0,2.93a.66.66,0,0,1-.37.64A6.59,6.59,0,0,0,61,85.81a6.8,6.8,0,0,0,13.55.82,6.65,6.65,0,0,0-3.28-6.72.7.7,0,0,1-.4-.71c0-1,0-1.9,0-2.84Z"/><path class="cls-5" d="M69.3,77.22c0,1.11,0,2.22,0,3.33a1.52,1.52,0,0,1-1,1.41,1.46,1.46,0,0,1-1.63-.46,1.3,1.3,0,0,1-.33-.86c0-2.27,0-4.54,0-6.8a1.46,1.46,0,0,1,1.51-1.41,1.52,1.52,0,0,1,1.43,1.45C69.28,75,69.3,76.11,69.3,77.22Z"/><path class="cls-5" d="M77,18.51V17.29c0-.41,0-.41.43-.4a2.63,2.63,0,0,1,.49,0A1.16,1.16,0,0,1,79,18a3.51,3.51,0,0,1,0,1.21,1,1,0,0,1-.88.91,5.92,5.92,0,0,1-.94,0C77,20.2,77,20.08,77,20V18.51Z"/><path class="cls-5" d="M77.51,12.87a3,3,0,0,1,.79.1.85.85,0,0,1,.61.7,2.9,2.9,0,0,1,0,1.21.89.89,0,0,1-.67.65,1.41,1.41,0,0,1-.22.06c-.9.15-1,.1-1-.8V13.26c0-.41,0-.41.43-.4Z"/><path class="cls-5" d="M64.52,16.55V13.26c0-.37,0-.37.38-.37,1.1,0,1.4.25,1.41,1.36,0,1.47,0,2.95,0,4.42v.18c0,1.07-.37,1.38-1.45,1.36-.33,0-.33,0-.34-.37V16.55Z"/><path class="cls-5" d="M108.62,16.52V13.28c0-.39,0-.39.4-.39,1.07,0,1.37.27,1.38,1.35q0,2.25,0,4.5c0,.14,0,.27,0,.41-.1.75-.39,1-1.14,1.06H109c-.38,0-.39,0-.39-.4Z"/><path class="cls-6" d="M83.46,30.48c0-.4,0-.8,0-1.21,0-.21.07-.31.29-.29l.58,0a1,1,0,0,1,1,1,3,3,0,0,1,0,1.11,1,1,0,0,1-.8.76.57.57,0,0,1-.18,0c-.84.11-.84.11-.84-.73Z"/><path class="cls-6" d="M58,14.3V13.09c0-.19.06-.28.25-.27h.32c.91,0,1.27.38,1.31,1.28a2.49,2.49,0,0,1,0,.72,1.06,1.06,0,0,1-1,.95c-.81.11-.81.11-.81-.71V14.3Z"/><path class="cls-5" d="M51.26,16.5V14.11a2.72,2.72,0,0,1,.05-.49,1,1,0,0,1,1.44-.72.82.82,0,0,1,.46.62,2.64,2.64,0,0,1,.06.63c0,1.57,0,3.15,0,4.72a2.41,2.41,0,0,1-.1.8.86.86,0,0,1-.92.58.83.83,0,0,1-.89-.61,2.18,2.18,0,0,1-.1-.67V16.5Z"/><path class="cls-7" d="M96.74,14.17A7,7,0,0,1,97,15.48l.36,2.17c0,.34,0,.34-.31.35h-.49c-.44,0-.45,0-.38-.43C96.36,16.47,96.54,15.36,96.74,14.17Z"/><path class="cls-8" d="M36.43,14.28c.19,1.13.38,2.26.56,3.39,0,.3,0,.32-.26.33H36c-.15,0-.23,0-.2-.21.19-1.14.37-2.27.56-3.41A.1.1,0,0,1,36.43,14.28Z"/><path class="cls-8" d="M71.59,14.31c.2,1.16.38,2.3.57,3.43,0,.17,0,.26-.2.26s-.54,0-.81,0-.26-.06-.23-.24c.2-1.14.39-2.27.58-3.41Z"/><path class="cls-9" d="M52.6,30.41l.45,2.8c0,.21.08.41.1.62s0,.34-.32.34h-.36c-.68,0-.56,0-.48-.54.13-1,.3-1.9.46-2.85,0-.12,0-.23.08-.35Z"/></svg>