<svg xmlns="http://www.w3.org/2000/svg" viewBox="0 0 135.4 135.4"><style>.cls-1{fill:#8c1837;}.cls-2{fill:#fff;}.cls-3{fill:#8f1838;}.cls-4{fill:#901939;}.cls-5{fill:#901b3a;}</style><rect class="cls-1" width="135.4" height="135.4"/><path class="cls-2" d="M94.9,92.84v25.59c0,.93-.22,1.14-1.14,1.14H80.17c-1,0-1.18-.21-1.18-1.16V82a1.62,1.62,0,0,0,0-.22,2.54,2.54,0,0,1,.88-2c1.72-1.62,3.42-3.25,5.13-4.88l8.54-8.12a3.08,3.08,0,0,1,.44-.37.54.54,0,0,1,.9.4,4.78,4.78,0,0,1,0,.54V92.84Z"/><path class="cls-2" d="M75.09,102.59v15.74c0,.14,0,.27,0,.41a.78.78,0,0,1-.78.82,2.77,2.77,0,0,1-.41,0H60.37c-1,0-1.18-.2-1.18-1.19V87.29a3.76,3.76,0,0,1,0-.67c.08-.45.39-.58.8-.36a2.8,2.8,0,0,1,.59.49l5.75,5.86a1.59,1.59,0,0,0,.13.13c.31.3.4.31.7,0,1-.94,1.89-1.9,2.83-2.85l3.72-3.74a1.83,1.83,0,0,1,.57-.43A.48.48,0,0,1,75,86a1.49,1.49,0,0,1,.08.66v15.93Z"/><path class="cls-2" d="M55,101.46c0,5.64,0,11.28,0,16.92,0,1-.46,1.2-1.21,1.2-4.51,0-9,0-13.53,0-1,0-1.18-.21-1.18-1.15V98.83A2.36,2.36,0,0,1,39.87,97c.8-.74,1.57-1.49,2.36-2.24L53.64,83.87a2.92,2.92,0,0,1,.38-.32c.44-.29.77-.15.91.36a2,2,0,0,1,0,.54v17Z"/><path class="cls-2" d="M55.51,75.44a5.61,5.61,0,0,1-.37.48L38.23,92.83c-.52.52-.52.52-1,0l-2.52-2.52c-.41-.41-.42-.48,0-.87L55.08,69l.13-.12c.26-.24.35-.24.61,0l.26.25q5.19,5.2,10.4,10.4a3.58,3.58,0,0,1,.28.36.67.67,0,0,0,.39-.27L90.61,56.18c.35-.36.34-.27,0-.61-.66-.67-1.32-1.32-2-2l-.22-.23a.41.41,0,0,1,.25-.73L96.18,51l2.9-.66.35-.07c.34,0,.53.13.52.46a2.14,2.14,0,0,1-.08.44L97.65,61.48a2,2,0,0,1-.06.26.38.38,0,0,1-.59.19,3.08,3.08,0,0,1-.27-.24l-2-2a.87.87,0,0,0-.43-.31c-.09.11-.19.26-.31.39L67.44,86.31c-.63.62-.62.53-1.16,0L56,76C55.84,75.84,55.72,75.69,55.51,75.44Z"/><path class="cls-2" d="M21.41,23.86a.22.22,0,0,0,.13.15,5.29,5.29,0,0,1,2.38,3.12,11,11,0,0,1,.42,4.23,9.9,9.9,0,0,1-.51,2.52A5.56,5.56,0,0,1,19,37.81a10.18,10.18,0,0,1-3.81-.15A5.52,5.52,0,0,1,11.09,34a11.69,11.69,0,0,1-.57-4.62,8,8,0,0,1,.65-2.89,5,5,0,0,1,2.08-2.42l.18-.13s0,0,0-.06a7.57,7.57,0,0,1-1.27-1.32A6.88,6.88,0,0,1,10.92,19a9.72,9.72,0,0,1,.27-3.4,5.41,5.41,0,0,1,4.19-4,8.73,8.73,0,0,1,4.28,0,5.26,5.26,0,0,1,4,4,9.58,9.58,0,0,1,0,5,6,6,0,0,1-2.09,3.19Z"/><path class="cls-2" d="M70.34,31.29c-.34,1.61-.68,3.21-1,4.81-.09.44-.19.88-.27,1.32a.27.27,0,0,1-.3.26c-.82.06-.81.07-1-.74-.39-1.82-.77-3.64-1.16-5.46a1.67,1.67,0,0,0-.05-.18.8.8,0,0,0-.09.54c0,1.71,0,3.43-.08,5.14,0,.15,0,.3,0,.45s-.1.26-.28.25H65.3c-.24,0-.31-.09-.3-.32,0-.75,0-1.5,0-2.25,0-2.23.07-4.45.11-6.68,0-.13,0-.27,0-.4s.06-.25.24-.24h1.39c.2,0,.25.1.29.27.26,1.31.53,2.62.8,3.93.16.75.31,1.5.46,2.25a.46.46,0,0,0,.15.3c.25-1.17.49-2.33.74-3.49.21-1,.41-1.94.62-2.91.07-.34.08-.34.44-.34h1.08c.37,0,.37,0,.38.36,0,1,0,2,0,3,0,2,.07,4,.1,5.95,0,.7.07.59-.6.6h-.54a.19.19,0,0,1-.22-.22c0-.15,0-.3,0-.45l-.09-5.41c0-.11,0-.21,0-.32Z"/><path class="cls-2" d="M110.39,33.91c.09-.73.19-1.43.28-2.13.15-1.24.31-2.47.46-3.71,0-.21.09-.29.31-.29.38,0,.77,0,1.22,0-.08.56-.15,1.09-.22,1.62l-.87,6c-.09.66-.19,1.31-.27,2,0,.2-.11.29-.31.28h-.91c-.23,0-.29-.09-.33-.31-.29-1.74-.59-3.49-.88-5.24a3,3,0,0,0-.21-.73c0,.25-.11.51-.15.77l-.84,5.06a2.61,2.61,0,0,0-.06.27c0,.13-.09.18-.21.18h-1.13c-.19,0-.19-.14-.21-.28-.12-.8-.23-1.6-.35-2.41l-1-6.73c0-.13,0-.27-.06-.47.48,0,.94,0,1.39,0,.15,0,.15.12.16.23l.27,2.1c.15,1.23.31,2.47.47,3.76a.8.8,0,0,0,.15-.43c.28-1.72.57-3.44.85-5.16.08-.51.08-.51.6-.51.71,0,.71,0,.83.72q.41,2.49.84,5A.75.75,0,0,0,110.39,33.91Z"/><path class="cls-2" d="M70.08,11.62c.47,0,.89,0,1.31,0,.19,0,.22.11.23.25.08.57.15,1.13.22,1.7.17,1.28.32,2.57.49,3.85a.29.29,0,0,0,.12.26c.16-1,.33-2,.49-3s.31-1.86.46-2.8c0-.21.12-.32.35-.29a3.31,3.31,0,0,0,.63,0c.24,0,.32.08.35.3.18,1.09.37,2.19.55,3.29.13.75.25,1.51.38,2.26a.18.18,0,0,0,.12.17c0-.34.1-.66.14-1,.2-1.58.41-3.16.6-4.74,0-.23.11-.3.34-.29s.74,0,1.13,0a.89.89,0,0,1,0,.46c-.28,2-.57,4-.85,6-.14,1-.27,1.9-.41,2.85,0,.14,0,.27-.06.4s-.1.2-.24.2c-.3,0-.6,0-.9,0s-.34,0-.39-.35c-.13-.75-.26-1.51-.38-2.26l-.57-3.38a.72.72,0,0,0-.13-.37c-.16.94-.32,1.85-.47,2.76C73.39,19,73.2,20.1,73,21.2c0,.21-.1.32-.33.31s-.64,0-1,0-.29-.15-.32-.32L71.13,19q-.42-3-.86-6Z"/><path class="cls-2" d="M98.24,32.57c0-.69,0-1.53,0-2.37a2.57,2.57,0,0,1,0-.4,2.33,2.33,0,0,1,2.42-2.11,4.91,4.91,0,0,1,1.43.11,2.12,2.12,0,0,1,1.45,1.25,3.19,3.19,0,0,1,.28,1.09c.08,1.72.08,3.45,0,5.18a3.18,3.18,0,0,1-.24,1,2.16,2.16,0,0,1-1.56,1.37,4.15,4.15,0,0,1-2.1,0,2.08,2.08,0,0,1-1.44-1.25,4.42,4.42,0,0,1-.32-1.8C98.24,34,98.24,33.35,98.24,32.57Z"/><path class="cls-2" d="M124.12,32.74c0,1.49,0,3,0,4.46,0,.5.07.48-.49.48h-1c-.31,0-.32,0-.32-.33,0-1.13,0-2.26,0-3.38,0-.24.11-.53-.06-.7s-.45,0-.69-.05h-.72c-.58,0-.52-.08-.52.53v3.43c0,.49.08.5-.48.5h-1.08c-.2,0-.27-.07-.25-.26V28.13c0-.34,0-.34.35-.34h1.08c.42,0,.38,0,.38.4v3.2a2.62,2.62,0,0,1,0,.28c0,.18.06.27.26.26h1.48c.21,0,.26-.08.26-.27,0-.54,0-1.08,0-1.62v-1.9c0-.34,0-.35.33-.35h1.13c.34,0,.34,0,.34.35C124.12,29.67,124.12,31.2,124.12,32.74Z"/><path class="cls-2" d="M34.1,16.57V12c0-.34,0-.35.34-.35H36.6a6.59,6.59,0,0,1,1.08.11,2.16,2.16,0,0,1,1.76,1.82,6.48,6.48,0,0,1,.1,1.08c0,1.24,0,2.49,0,3.74a5,5,0,0,1-.07.94,2.3,2.3,0,0,1-2.26,2.16c-1,.09-1.92,0-2.88,0-.24,0-.22-.14-.22-.3V16.57Z"/><path class="cls-2" d="M113,16.52V12c0-.34,0-.35.35-.35l2.52,0a3.19,3.19,0,0,1,1,.17,2,2,0,0,1,1.42,1.44,3.89,3.89,0,0,1,.17,1.11c0,1.43,0,2.86,0,4.29a4.5,4.5,0,0,1-.1.89,2.25,2.25,0,0,1-2.18,1.93c-1,.09-1.95,0-2.93,0-.15,0-.22-.06-.21-.21s0-.21,0-.32Z"/><path class="cls-2" d="M64,32.91c0,.66,0,1.47,0,2.28a3.7,3.7,0,0,1-.28,1.18A2.15,2.15,0,0,1,62.1,37.7a4.31,4.31,0,0,1-2.05,0,2.13,2.13,0,0,1-1.52-1.36,4.31,4.31,0,0,1-.29-1.59q0-2,0-4.05a4.77,4.77,0,0,1,.17-1.25,2.17,2.17,0,0,1,1.76-1.67,4.52,4.52,0,0,1,2,0,2.08,2.08,0,0,1,1.52,1.34A4.58,4.58,0,0,1,64,30.86Z"/><path class="cls-2" d="M90.87,21.51c-.52,0-1,0-1.57,0-.21,0-.23-.16-.26-.3l-.66-2.52c-.12-.47-.26-.93-.36-1.4a.33.33,0,0,0-.41-.3H87.3a.15.15,0,0,0-.16.17c0,.11,0,.21,0,.32v3.65c0,.36,0,.36-.37.37h-1c-.38,0-.38,0-.38-.41a.27.27,0,0,1,0-.09c0-3,0-5.92,0-8.88,0-.55-.06-.51.51-.51l2.39,0a3.61,3.61,0,0,1,1,.18,2,2,0,0,1,1.48,1.69,4.42,4.42,0,0,1-.07,1.88,1.79,1.79,0,0,1-.75,1.09c-.3.2-.3.2-.19.57.36,1.3.73,2.6,1.1,3.9A1.1,1.1,0,0,1,90.87,21.51Z"/><path class="cls-2" d="M97.39,37.67h-1.6c-.18,0-.18-.16-.22-.29-.26-1-.52-2-.79-3-.08-.32-.18-.63-.25-1a.26.26,0,0,0-.3-.25h-.36c-.14,0-.19.07-.19.19s0,.3,0,.45v3.43c0,.44,0,.44-.45.44H92.15c-.22,0-.3-.08-.27-.29V28c0-.15,0-.23.2-.22a21.89,21.89,0,0,1,3.24.1,2.08,2.08,0,0,1,1.93,2,4.09,4.09,0,0,1-.12,1.74,1.6,1.6,0,0,1-.78,1.06c-.24.12-.22.26-.16.47.38,1.34.76,2.69,1.13,4A.86.86,0,0,1,97.39,37.67Z"/><path class="cls-2" d="M84.31,16.56c0,.81,0,1.62,0,2.44A3.22,3.22,0,0,1,84,20.38a2.11,2.11,0,0,1-1.31,1.1,4.12,4.12,0,0,1-2.31,0A2,2,0,0,1,79,20.3a3.73,3.73,0,0,1-.34-1.57c0-1.46,0-2.92,0-4.38A3.76,3.76,0,0,1,78.88,13a2.12,2.12,0,0,1,1.57-1.41,4.52,4.52,0,0,1,2.1,0A2.09,2.09,0,0,1,84,13a4.32,4.32,0,0,1,.29,1.67c0,.65,0,1.29,0,1.94Z"/><path class="cls-2" d="M50.93,32.75v2.12a4.25,4.25,0,0,1-.12.94,2.3,2.3,0,0,1-2.07,1.95,4.15,4.15,0,0,1-1.61,0,2.3,2.3,0,0,1-1.8-2,4.62,4.62,0,0,1-.1-1v-4a4.79,4.79,0,0,1,.17-1.3,2.16,2.16,0,0,1,1.8-1.68,4.44,4.44,0,0,1,1.92,0,2.1,2.1,0,0,1,1.53,1.34,3.42,3.42,0,0,1,.26,1.22c0,.8,0,1.59,0,2.39Z"/><path class="cls-2" d="M110.32,17V12c0-.39,0-.4.39-.4s.57,0,.86,0,.28.05.26.25a2.43,2.43,0,0,0,0,.27v9c0,.34,0,.34-.35.35-.84,0-.84,0-1.16-.75l-1.88-4.53c0-.11-.1-.22-.16-.37a.61.61,0,0,0-.08.44v5c0,.13,0,.21-.19.21h-1.17a.15.15,0,0,1-.17-.16V12c0-.41,0-.39.4-.39s.57-.09.8,0,.25.46.36.7l1.88,4.34A.49.49,0,0,0,110.32,17Z"/><path class="cls-2" d="M58.12,15.83V20c0,.42,0,.84,0,1.26,0,.18-.05.28-.26.27s-.72,0-1.08,0c-.15,0-.22-.06-.21-.21a2.62,2.62,0,0,0,0-.28V12.09a1.08,1.08,0,0,0,0-.18c0-.24.09-.31.31-.29s.64-.1.89,0,.28.51.4.78l1.76,4,.23.54a1,1,0,0,0,.07-.5V12c0-.39,0-.4.4-.4h.72c.42,0,.38,0,.38.41v9.29a.17.17,0,0,1-.19.19h0c-.93.08-.93.08-1.28-.77L58.4,16.33A1.28,1.28,0,0,0,58.12,15.83Z"/><path class="cls-2" d="M53.53,32v4.8c0,.18,0,.36,0,.54,0,.34,0,.34-.35.35h-.94c-.18,0-.25-.08-.24-.25a2.43,2.43,0,0,0,0-.27V28.28c0-.53-.06-.44.48-.51s.88.17,1.1.73c.57,1.44,1.22,2.85,1.83,4.27a.81.81,0,0,0,.27.42v-5c0-.37,0-.37.36-.37s.54,0,.81,0,.35,0,.32.3a1.09,1.09,0,0,0,0,.18c0,3,0,5.95,0,8.93,0,.54.06.49-.47.49-.89,0-.65.14-1-.67-.65-1.53-1.28-3.08-1.92-4.62A.79.79,0,0,0,53.53,32Z"/><path class="cls-2" d="M97.39,21.51H95.83a.23.23,0,0,1-.23-.17l-.19-.51-1.28-3.51a.61.61,0,0,0-.19-.35,1.27,1.27,0,0,0-.34.82q0,1.62,0,3.24c0,.51.07.48-.49.48-.36,0-.72,0-1.08,0-.17,0-.25-.06-.23-.24V11.8c0-.14.07-.18.19-.18.47,0,.94,0,1.4,0,.19,0,.22.1.22.26,0,.54,0,1.08,0,1.62v2.2c.14-.06.16-.18.21-.27.52-1.16,1.06-2.32,1.57-3.49a.47.47,0,0,1,.51-.33c.43,0,.86,0,1.29,0a.69.69,0,0,1-.12.46c-.49,1.17-1,2.35-1.5,3.52a1,1,0,0,0,0,.89c.59,1.49,1.16,3,1.73,4.5A.84.84,0,0,1,97.39,21.51Z"/><path class="cls-2" d="M89.45,36.78a1.72,1.72,0,0,1-1.18,1,2.34,2.34,0,0,1-2.89-1.58,5.44,5.44,0,0,1-.24-1.6c0-1.22,0-2.44,0-3.65a5.08,5.08,0,0,1,.23-1.6,2.16,2.16,0,0,1,2-1.62,4.84,4.84,0,0,1,1.61.08,2,2,0,0,1,1.52,1.39,5.12,5.12,0,0,1,.2,1.65c0,.19-.08.23-.25.23H89.29c-.23,0-.33,0-.31-.3a5.09,5.09,0,0,0-.06-1,.81.81,0,0,0-.85-.72.9.9,0,0,0-1,.56,2.53,2.53,0,0,0-.13,1q0,2.14,0,4.29a3,3,0,0,0,.13,1,.83.83,0,0,0,.82.64.92.92,0,0,0,1-.53,1.65,1.65,0,0,0,.17-.65c0-.39,0-.78,0-1.17,0-.23-.08-.29-.29-.28s-.36,0-.54,0-.24-.08-.24-.25,0-.48,0-.72.07-.21.22-.21c.38,0,.75,0,1.13,0s.72,0,1.08,0c.18,0,.27,0,.27.25,0,1.5,0,3,0,4.51,0,.2-.08.27-.27.26h-.67c-.2,0-.27-.08-.28-.27S89.49,37.06,89.45,36.78Z"/><path class="cls-2" d="M47.11,16.56v2.35a2.71,2.71,0,0,0,.11.8.82.82,0,0,0,.91.58.77.77,0,0,0,.82-.63,5.16,5.16,0,0,0,.07-1.3c0-.66-.08-.56.58-.57.3,0,.6,0,.9,0s.26,0,.26.22a8.06,8.06,0,0,1-.12,1.84,2.13,2.13,0,0,1-1.94,1.74,4.08,4.08,0,0,1-1.35,0A2.23,2.23,0,0,1,45.51,20a5.63,5.63,0,0,1-.25-1.87c0-1.23,0-2.46,0-3.7a4.54,4.54,0,0,1,.24-1.41,2.07,2.07,0,0,1,1.55-1.43,4.06,4.06,0,0,1,2,0,2.11,2.11,0,0,1,1.68,2,10.86,10.86,0,0,1,0,1.4c0,.17-.08.24-.25.23H49.25c-.18,0-.24-.08-.23-.24V14.3c0-.21,0-.42,0-.63a.8.8,0,0,0-.83-.83.85.85,0,0,0-1,.75,2.78,2.78,0,0,0,0,.58Z"/><path class="cls-2" d="M77.9,32.72V35a2.7,2.7,0,0,0,.12.89.8.8,0,0,0,.89.59.76.76,0,0,0,.83-.62,4.5,4.5,0,0,0,.07-1.16c0-.72,0-.72.7-.72h.82c.17,0,.24.07.24.24a8.54,8.54,0,0,1-.12,1.75,2.1,2.1,0,0,1-2,1.82,3.76,3.76,0,0,1-1.7-.1,2.14,2.14,0,0,1-1.43-1.32,4.38,4.38,0,0,1-.29-1.59v-4a5.06,5.06,0,0,1,.19-1.39,2.17,2.17,0,0,1,1.79-1.64,4.41,4.41,0,0,1,1.66,0,2.11,2.11,0,0,1,1.79,1.94,9.79,9.79,0,0,1,.07,1.44c0,.22-.09.28-.3.27H80.1c-.21,0-.3-.06-.29-.28,0-.39,0-.78,0-1.17a.88.88,0,0,0-1.22-.9.75.75,0,0,0-.58.57,2.41,2.41,0,0,0-.1.8Z"/><path class="cls-2" d="M40.73,32.7c0,.75,0,1.5,0,2.25a3.1,3.1,0,0,0,.1.81.84.84,0,0,0,1,.7.79.79,0,0,0,.8-.81c0-.43,0-.87,0-1.3s0-.39.4-.39h1.08c.17,0,.26,0,.26.23a8.54,8.54,0,0,1-.11,1.75,2.14,2.14,0,0,1-1.95,1.83,3.78,3.78,0,0,1-1.57-.06,2.28,2.28,0,0,1-1.76-2,4.6,4.6,0,0,1-.11-1V30.71a4.68,4.68,0,0,1,.19-1.29,2.16,2.16,0,0,1,1.81-1.67,4.57,4.57,0,0,1,1.65,0,2,2,0,0,1,1.72,1.64,7.68,7.68,0,0,1,.13,1.79.19.19,0,0,1-.22.22H42.92c-.2,0-.26-.08-.26-.26,0-.42,0-.85,0-1.27a.8.8,0,0,0-.83-.86.87.87,0,0,0-1,.76,4.39,4.39,0,0,0-.07.72C40.73,31.23,40.73,32,40.73,32.7Z"/><path class="cls-2" d="M106,21.51h-1.47c-.19,0-.18-.16-.21-.29-.09-.54-.19-1.09-.28-1.64-.06-.35-.06-.35-.43-.35h-1c-.34,0-.34,0-.4.32-.1.53-.19,1.07-.28,1.6-.07.36-.07.36-.42.37h-1.35c.13-.67.25-1.3.38-1.93.5-2.48,1-5,1.52-7.46.12-.58,0-.49.62-.5h1c.37,0,.37,0,.45.39l.87,4.28c.33,1.62.66,3.24,1,4.86A.7.7,0,0,1,106,21.51Z"/><path class="cls-2" d="M34.1,32.72V28.21c0-.45,0-.42.4-.42h3.38c.35,0,.35,0,.36.34s0,.45,0,.67-.07.27-.26.27H36.31c-.4,0-.4,0-.4.39,0,.72,0,1.44,0,2.16,0,.21.05.3.28.29.42,0,.84,0,1.26,0,.24,0,.31.09.3.32s0,.48,0,.72-.08.26-.27.26h-1.3c-.19,0-.27,0-.27.26,0,.91,0,1.83,0,2.75,0,.19.07.26.26.26h1.72c.37,0,.39,0,.38.36s.13.64-.07.82-.52.06-.79.06H34.53c-.48,0-.43,0-.43-.45Z"/><path class="cls-2" d="M40.53,16.56V12.05c0-.42,0-.43.41-.43h3.33c.41,0,.41,0,.41.43v.45c0,.39,0,.4-.39.4H42.67c-.32,0-.33,0-.33.32v2.16c0,.33,0,.34.36.34h1.22c.22,0,.29.08.28.29s0,.45,0,.67-.06.33-.3.32c-.41,0-.81,0-1.22,0s-.34,0-.34.31c0,.89,0,1.78,0,2.66,0,.25.09.31.31.31h1.67c.41,0,.39,0,.39.4a5,5,0,0,0,0,.55c0,.25-.09.29-.31.29-1.18,0-2.35,0-3.52,0-.34,0-.35,0-.35-.35Z"/><path class="cls-2" d="M51.7,16.52V12c0-.41,0-.39.4-.39h3.33c.41,0,.41,0,.41.43a4.87,4.87,0,0,0,0,.54c0,.23-.07.32-.31.31H53.87c-.37,0-.37,0-.37.36,0,.71,0,1.42,0,2.12,0,.34,0,.34.35.34h1.22c.19,0,.28,0,.27.25s0,.51,0,.77-.07.26-.26.26c-.4,0-.81,0-1.22,0s-.36,0-.36.33c0,.88,0,1.75,0,2.62,0,.31,0,.32.33.32.53,0,1.06,0,1.58,0s.45,0,.46.48c0,.16,0,.33,0,.49s-.06.28-.26.27c-.36,0-.72,0-1.08,0H52.05c-.34,0-.35,0-.35-.35Z"/><path class="cls-2" d="M114.52,33.42c0-1.3,0-2.61,0-3.92,0-.37,0-.37-.37-.37h-1c-.18,0-.27-.06-.26-.26s0-.39,0-.59c0-.52-.07-.49.47-.49h4.38c.17,0,.24.07.23.23,0,.35.13.77-.06,1s-.62.08-1,.09c-.68,0-.58-.09-.58.61v7.39c0,.11,0,.21,0,.32s-.07.24-.24.24h-1.26c-.31,0-.31,0-.31-.34,0-.84,0-1.68,0-2.52Z"/><path class="cls-2" d="M63.87,17.21V13.42c0-.47,0-.47-.45-.47h-1c-.19,0-.28-.06-.27-.26s0-.48,0-.72,0-.35.35-.35h4.06c.15,0,.3,0,.45,0s.21.07.2.22v.9c0,.16-.07.21-.22.21H66c-.21,0-.3.07-.29.29s0,.75,0,1.12v6.9c0,.21-.08.26-.27.26q-.63,0-1.26,0c-.22,0-.28-.07-.28-.28,0-.94,0-1.87,0-2.8Z"/><path class="cls-2" d="M75,32.72v4.51c0,.49,0,.45-.47.45h-1c-.22,0-.35,0-.32-.29a1.77,1.77,0,0,0,0-.23V28.28c0-.55,0-.49.47-.49h1c.35,0,.36,0,.36.38v4.55Z"/><path class="cls-3" d="M19.55,30.15A9.1,9.1,0,0,1,19.14,33,1.61,1.61,0,0,1,18,34.16,1.74,1.74,0,0,1,15.74,33a6.12,6.12,0,0,1-.35-1.58,10.81,10.81,0,0,1,.22-3.76c0-.12.06-.23.1-.35a1.8,1.8,0,0,1,2.46-1.14,1.63,1.63,0,0,1,.95,1A6.66,6.66,0,0,1,19.49,29C19.52,29.38,19.53,29.77,19.55,30.15Z"/><path class="cls-3" d="M19.23,18.27A7.84,7.84,0,0,1,19,20.32a3.65,3.65,0,0,1-.39,1,1.42,1.42,0,0,1-2.43.06,2.58,2.58,0,0,1-.33-.69,8.38,8.38,0,0,1-.19-4,2.77,2.77,0,0,1,.37-.91,1.57,1.57,0,0,1,2.76.12,3.6,3.6,0,0,1,.39,1.51C19.24,17.7,19.23,18,19.23,18.27Z"/><path class="cls-3" d="M102.11,32.74v2.39a1.9,1.9,0,0,1-.09.67,1,1,0,0,1-1.85,0,2.22,2.22,0,0,1-.08-.63c0-1.64,0-3.27,0-4.91a2.07,2.07,0,0,1,0-.5,1,1,0,0,1,1.92,0,2.83,2.83,0,0,1,0,.58C102.11,31.15,102.11,31.94,102.11,32.74Z"/><path class="cls-3" d="M35.91,16.55v-3.3c0-.34,0-.35.35-.34A2.44,2.44,0,0,1,37,13a.81.81,0,0,1,.66.71,4.37,4.37,0,0,1,.06.72q0,2.1,0,4.2a6.47,6.47,0,0,1,0,.76.9.9,0,0,1-.8.85l-.13,0c-.8.08-.8.08-.8-.7Z"/><path class="cls-3" d="M114.79,16.56V13.27c0-.36,0-.37.37-.36a3.33,3.33,0,0,1,.63,0,.84.84,0,0,1,.74.79,7,7,0,0,1,.06.8v3.88c0,.3,0,.6,0,.9a.93.93,0,0,1-.9.9c-.83.11-.85.1-.85-.73Z"/><path class="cls-3" d="M60.09,32.72c0-.77,0-1.53,0-2.3a2.46,2.46,0,0,1,.12-.89.82.82,0,0,1,.86-.52.85.85,0,0,1,.89.48,1.66,1.66,0,0,1,.14.66c0,1.71,0,3.43,0,5.14a1.75,1.75,0,0,1-.05.4,1,1,0,0,1-1.44.68.81.81,0,0,1-.41-.46,2.45,2.45,0,0,1-.11-.89C60.08,34.26,60.09,33.49,60.09,32.72Z"/><path class="cls-4" d="M87.13,14.34c0-.41,0-.81,0-1.22,0-.19.07-.28.26-.26s.48,0,.72,0a.92.92,0,0,1,.88.82,3.08,3.08,0,0,1,0,1.21,1,1,0,0,1-.82.85c-.25,0-.51.05-.77.07s-.28-.09-.27-.3C87.14,15.15,87.13,14.74,87.13,14.34Z"/><path class="cls-3" d="M94.21,29c.83,0,1.33.17,1.37,1.42a.06.06,0,0,1,0,0c0,1.19-.46,1.55-1.7,1.53-.16,0-.21-.08-.21-.22,0-.85,0-1.71,0-2.56,0-.16.07-.21.22-.21Z"/><path class="cls-3" d="M82.5,16.56V18.9a2.81,2.81,0,0,1-.08.71.86.86,0,0,1-.93.68.83.83,0,0,1-.93-.67,2.57,2.57,0,0,1-.09-.67c0-1.61,0-3.21,0-4.82a1.94,1.94,0,0,1,.12-.75,1,1,0,0,1,1.79,0,2.33,2.33,0,0,1,.12.79Z"/><path class="cls-3" d="M49.1,32.73v2.34a2.94,2.94,0,0,1-.08.72.86.86,0,0,1-.94.67.84.84,0,0,1-.93-.67,3.07,3.07,0,0,1-.08-.67q0-2.38,0-4.77a2.19,2.19,0,0,1,.12-.8,1,1,0,0,1,1.79,0,2.39,2.39,0,0,1,.12.8Z"/><path class="cls-5" d="M103.12,14.29l.61,3.71a7.89,7.89,0,0,1-1.07,0c-.19,0-.24-.08-.21-.25.07-.4.13-.8.19-1.2l.39-2.3Z"/></svg>