<svg xmlns="http://www.w3.org/2000/svg" xmlns:xlink="http://www.w3.org/1999/xlink" viewBox="0 0 230.96 351.3"><defs><style>.cls-1{fill:url(#linear-gradient);}.cls-2{fill:url(#linear-gradient-2);}.cls-3{fill:url(#linear-gradient-3);}.cls-4{fill:url(#linear-gradient-4);}.cls-5{fill:url(#linear-gradient-5);}.cls-6{fill:url(#linear-gradient-6);}.cls-7{fill:url(#linear-gradient-7);}.cls-8{fill:url(#linear-gradient-8);}.cls-9{fill:#395a71;}.cls-10{fill:#dc461d;}.cls-11{fill:#de5919;}.cls-12{fill:#e17635;}.cls-13{fill:#5f9fd4;}.cls-14{fill:#f5dc4d;}.cls-15{fill:#efc331;}.cls-16{fill:#a92a11;}.cls-17{fill:#c90b33;}</style><linearGradient id="linear-gradient" x1="445.66" y1="212.18" x2="545.89" y2="212.18" gradientTransform="translate(266.91 650.91) rotate(-135)" gradientUnits="userSpaceOnUse"><stop offset="0" stop-color="#05a679"/><stop offset="1" stop-color="#50c1a1"/></linearGradient><linearGradient id="linear-gradient-2" x1="474.32" y1="157.2" x2="517.23" y2="157.2" xlink:href="#linear-gradient"/><linearGradient id="linear-gradient-3" x1="246.01" y1="383.81" x2="288.92" y2="383.81" gradientTransform="translate(649.03 271.46) rotate(135)" gradientUnits="userSpaceOnUse"><stop offset="0" stop-color="#c90b33"/><stop offset="1" stop-color="#d95470"/></linearGradient><linearGradient id="linear-gradient-4" x1="219.28" y1="439.75" x2="319.51" y2="439.75" xlink:href="#linear-gradient-3"/><linearGradient id="linear-gradient-5" x1="-14.01" y1="207.65" x2="86.22" y2="207.65" gradientTransform="translate(269.57 -110.67) rotate(45)" gradientUnits="userSpaceOnUse"><stop offset="0" stop-color="#28b6dc"/><stop offset="1" stop-color="#68cce6"/></linearGradient><linearGradient id="linear-gradient-6" x1="14.65" y1="150.74" x2="57.56" y2="150.74" xlink:href="#linear-gradient-5"/><linearGradient id="linear-gradient-7" x1="221.88" y1="-19.92" x2="322.11" y2="-19.92" gradientTransform="translate(-112.55 268.79) rotate(-45)" gradientUnits="userSpaceOnUse"><stop offset="0" stop-color="#f6b604"/><stop offset="1" stop-color="#f9cc4f"/></linearGradient><linearGradient id="linear-gradient-8" x1="252.47" y1="-75.86" x2="295.38" y2="-75.86" xlink:href="#linear-gradient-7"/></defs><title>Corona</title><g id="Layer_2" data-name="Layer 2"><g id="Objects"><path class="cls-1" d="M22.81,123a78.6,78.6,0,0,0,70.87,70.87V177.76a62.09,62.09,0,0,1-20.89-6.31L90,166.85l7.34-27.4L77.25,119.39l-27.4,7.34-4.6,17.18A62.09,62.09,0,0,1,38.94,123Z"/><path class="cls-2" d="M42.67,174a21.46,21.46,0,1,0,0,30.35A21.45,21.45,0,0,0,42.67,174Z"/><path class="cls-3" d="M173.35,204.37a21.46,21.46,0,1,0,0-30.35A21.47,21.47,0,0,0,173.35,204.37Z"/><path class="cls-4" d="M126.05,166.85,141.43,171a61.9,61.9,0,0,1-21.81,6.79v16.13A78.62,78.62,0,0,0,190.49,123H174.36a62.16,62.16,0,0,1-4.58,17.18l-3.61-13.47-27.4-7.34-20.06,20.06Z"/><path class="cls-5" d="M119.62,19.48V35.61a62.34,62.34,0,0,1,18.21,5L126.05,43.8l-7.34,27.4,20.06,20.06,27.4-7.34,3.16-11.77a62.46,62.46,0,0,1,5,18.21h16.13A78.64,78.64,0,0,0,119.62,19.48Z"/><path class="cls-6" d="M173.35,36.63a21.45,21.45,0,1,0,0-30.35A21.47,21.47,0,0,0,173.35,36.63Z"/><path class="cls-7" d="M38.94,90.36a61.89,61.89,0,0,1,6.79-21.82l4.12,15.38,27.4,7.34L97.31,71.2,90,43.8,76.5,40.19a62.16,62.16,0,0,1,17.18-4.58V19.48A78.62,78.62,0,0,0,22.81,90.36Z"/><path class="cls-8" d="M12.33,36.63a21.46,21.46,0,1,0,0-30.35A21.48,21.48,0,0,0,12.33,36.63Z"/><rect class="cls-9" x="82.35" y="91.97" width="2.07" height="14.02" transform="matrix(0.15, -0.99, 0.99, 0.15, -27.21, 166.21)"/><path class="cls-10" d="M77,94.29a3.66,3.66,0,1,1-4.17,3.06A3.66,3.66,0,0,1,77,94.29Z"/><rect class="cls-9" x="83.49" y="101.94" width="2.07" height="14.02" transform="matrix(-0.28, -0.96, 0.96, -0.28, 3.78, 220.73)"/><path class="cls-10" d="M76.77,107.42A3.65,3.65,0,1,1,74.29,112,3.66,3.66,0,0,1,76.77,107.42Z"/><rect class="cls-9" x="80.69" y="114.44" width="14.02" height="2.07" transform="translate(-56.86 104.06) rotate(-48.27)"/><path class="cls-10" d="M80.3,118.27a3.66,3.66,0,1,1,.3,5.17A3.68,3.68,0,0,1,80.3,118.27Z"/><rect class="cls-9" x="94.02" y="115.86" width="2.07" height="14.02" transform="translate(119.73 276.24) rotate(-151.42)"/><path class="cls-11" d="M88.49,127.28a3.66,3.66,0,1,1,1.46,5A3.65,3.65,0,0,1,88.49,127.28Z"/><rect class="cls-9" x="96.03" y="86.32" width="14.02" height="2.07" transform="translate(-4.02 169.73) rotate(-77.86)"/><path class="cls-10" d="M108.08,81.26a3.66,3.66,0,1,1-2.8-4.34A3.64,3.64,0,0,1,108.08,81.26Z"/><rect class="cls-9" x="109.88" y="82.79" width="2.07" height="14.02" transform="translate(50.28 -39.39) rotate(25.86)"/><path class="cls-10" d="M117.26,85.09a3.66,3.66,0,1,1-1.69-4.89A3.65,3.65,0,0,1,117.26,85.09Z"/><rect class="cls-9" x="116.1" y="88.3" width="2.07" height="14.02" transform="translate(95.71 -54.17) rotate(42.71)"/><path class="cls-12" d="M124.58,92.65a3.66,3.66,0,1,1-.21-5.17A3.66,3.66,0,0,1,124.58,92.65Z"/><rect class="cls-9" x="94.12" y="81.13" width="2.07" height="14.02" transform="translate(-20.36 29.14) rotate(-15.75)"/><path class="cls-10" d="M96.77,80.4a3.65,3.65,0,1,1-4.51-2.53A3.65,3.65,0,0,1,96.77,80.4Z"/><rect class="cls-9" x="87.78" y="86.37" width="2.07" height="14.02" transform="translate(-40.03 96.06) rotate(-47.62)"/><path class="cls-10" d="M86.1,86a3.66,3.66,0,1,1-5.16.23A3.65,3.65,0,0,1,86.1,86Z"/><rect class="cls-9" x="103.13" y="119.13" width="2.07" height="14.02" transform="translate(159.03 280.27) rotate(-160.04)"/><path class="cls-11" d="M98.34,131.49a3.66,3.66,0,1,1,2.19,4.68A3.65,3.65,0,0,1,98.34,131.49Z"/><rect class="cls-9" x="111.37" y="120.06" width="2.07" height="14.02" transform="translate(-3.61 3.29) rotate(-1.65)"/><path class="cls-11" d="M109,134.18a3.66,3.66,0,1,1,3.76,3.55A3.65,3.65,0,0,1,109,134.18Z"/><rect class="cls-9" x="120.35" y="117.87" width="2.07" height="14.02" transform="translate(-48.8 87.91) rotate(-33.56)"/><path class="cls-11" d="M122.21,132.75a3.66,3.66,0,1,1,5.07,1A3.67,3.67,0,0,1,122.21,132.75Z"/><rect class="cls-9" x="127.03" y="110.37" width="2.07" height="14.02" transform="translate(-27.52 194.67) rotate(-68.92)"/><path class="cls-11" d="M133.29,123.32a3.66,3.66,0,1,1,4.73-2.1A3.67,3.67,0,0,1,133.29,123.32Z"/><rect class="cls-9" x="127.41" y="99.9" width="2.07" height="14.02" transform="translate(190.98 -48.07) rotate(72.2)"/><path class="cls-11" d="M136.24,108.25a3.66,3.66,0,1,1,2.37-4.6A3.66,3.66,0,0,1,136.24,108.25Z"/><rect class="cls-9" x="124.29" y="92.63" width="2.07" height="14.02" transform="translate(132.9 -60.29) rotate(54.22)"/><path class="cls-11" d="M133.15,98.51A3.66,3.66,0,1,1,134,93.4,3.65,3.65,0,0,1,133.15,98.51Z"/><path class="cls-13" d="M112.11,90.9c-7.32-5.68-18.1-4-24.09,3.68s-4.9,18.56,2.42,24.24c2.74,2.12,26.57,15.26,35.71.14C134.57,105.05,114.84,93,112.11,90.9Z"/><path class="cls-14" d="M100.79,97.75a5.28,5.28,0,1,1-7.41.94A5.28,5.28,0,0,1,100.79,97.75Z"/><path class="cls-15" d="M116,106.13a4,4,0,1,1-5.6.71A4,4,0,0,1,116,106.13Z"/><path class="cls-16" d="M106.06,53.44A52.54,52.54,0,1,0,158.6,106,52.54,52.54,0,0,0,106.06,53.44ZM62.49,106a43.58,43.58,0,0,1,71-33.82l-61.3,61.29A43.34,43.34,0,0,1,62.49,106Zm43.57,43.57a43.39,43.39,0,0,1-27.48-9.75h0l61.3-61.3h0a43.58,43.58,0,0,1-33.82,71.05Z"/><path class="cls-17" d="M16,240.6H9.56v-3.78c0-.54-.31-.81-.92-.81H7.35c-.61,0-.92.27-.92.81v13.53c0,.54.31.81.92.81H8.64c.61,0,.92-.27.92-.81v-3.64H16v4.12c0,3-1.81,4.56-5.41,4.56H5.41Q0,255.39,0,250.83V236.34q0-4.56,5.41-4.56h5.18c3.6,0,5.41,1.52,5.41,4.56Z"/><path class="cls-17" d="M23.68,231.78h5.44q5.41,0,5.41,4.56v14.49q0,4.56-5.41,4.56H23.68c-3.6,0-5.41-1.52-5.41-4.56V236.34C18.27,233.3,20.08,231.78,23.68,231.78ZM28.09,250v-12.8c0-.53-.3-.8-.92-.8H25.63c-.61,0-.92.27-.92.8V250c0,.54.31.81.92.81h1.54C27.79,250.79,28.09,250.52,28.09,250Z"/><path class="cls-17" d="M43.79,250.79h7.32v4.6H37.36V231.78h6.43Z"/><path class="cls-17" d="M59,250.79h7.31v4.6H52.58V231.78H59Z"/><path class="cls-17" d="M79.83,255.39l-.74-3.53H73.43l-.77,3.53H66.33l6.07-23.61h7.83l6.07,23.61Zm-5.41-8.09H78.1l-1.8-8.5Z"/><path class="cls-17" d="M87.77,231.78H98.58c3.6,0,5.41,1.52,5.41,4.56v3c0,2.14-.59,3.52-1.77,4.16a2.47,2.47,0,0,1,1.4,1.34,6.75,6.75,0,0,1,.37,2.45v3.53c0,3-1.81,4.56-5.41,4.56H87.77Zm9.89,8.86v-3.82c0-.54-.31-.81-.92-.81H94.09v5.44h2.65C97.35,241.45,97.66,241.18,97.66,240.64Zm0,9.71v-3.86c0-.54-.31-.81-.92-.81H94.09v5.48h2.65C97.35,251.16,97.66,250.89,97.66,250.35Z"/><path class="cls-17" d="M112,231.78h5.44c3.6,0,5.41,1.52,5.41,4.56v14.49c0,3-1.81,4.56-5.41,4.56H112q-5.42,0-5.41-4.56V236.34Q106.63,231.78,112,231.78Zm4.41,18.2v-12.8c0-.53-.31-.8-.92-.8H114c-.62,0-.92.27-.92.8V250c0,.54.3.81.92.81h1.54C116.14,250.79,116.45,250.52,116.45,250Z"/><path class="cls-17" d="M132.15,247v8.39h-6.43V231.78h10.92q5.4,0,5.4,4.56v6.1q0,3.5-3.16,4.31l4.34,8.64h-6.91L132.56,247Zm2.54-10.62h-2.54v6.25h2.54c.61,0,.92-.27.92-.81v-4.64C135.61,236.65,135.3,236.38,134.69,236.38Z"/><path class="cls-17" d="M156.64,255.39l-.74-3.53h-5.66l-.77,3.53h-6.32l6.06-23.61H157l6.07,23.61Zm-5.41-8.09h3.68l-1.8-8.5Z"/><path class="cls-17" d="M178.81,231.78v4.6h-4.56v19h-6.43v-19H163.3v-4.6Z"/><path class="cls-17" d="M180.47,231.78h6.43v23.61h-6.43Z"/><path class="cls-17" d="M195.14,231.78h5.44c3.6,0,5.41,1.52,5.41,4.56v14.49c0,3-1.81,4.56-5.41,4.56h-5.44q-5.41,0-5.41-4.56V236.34Q189.73,231.78,195.14,231.78Zm4.41,18.2v-12.8c0-.53-.31-.8-.92-.8h-1.54c-.62,0-.92.27-.92.8V250c0,.54.3.81.92.81h1.54C199.24,250.79,199.55,250.52,199.55,250Z"/><path class="cls-17" d="M219.59,231.78h5.88v23.61H220L214.7,243v12.4h-5.88V231.78h5.51l5.26,12.61Z"/><path class="cls-17" d="M33,321.93H20.26v-7.52c0-1.07-.61-1.61-1.83-1.61H15.88c-1.22,0-1.83.54-1.83,1.61v26.88c0,1.07.61,1.61,1.83,1.61h2.55c1.22,0,1.83-.54,1.83-1.61v-7.23H33v8.18q0,9.06-10.73,9.06H12q-10.74,0-10.74-9.06V313.46q0-9.06,10.74-9.06h10.3Q33,304.4,33,313.46Z"/><path class="cls-17" d="M48.31,304.4H59.12q10.74,0,10.73,9.06v28.78q0,9.06-10.73,9.06H48.31q-10.74,0-10.74-9.06V313.46Q37.57,304.4,48.31,304.4Zm8.76,36.16V315.14c0-1.07-.61-1.61-1.82-1.61H52.18c-1.22,0-1.83.54-1.83,1.61v25.42c0,1.07.61,1.61,1.83,1.61h3.07C56.46,342.17,57.07,341.63,57.07,340.56Z"/><path class="cls-17" d="M86.87,351.3H75.48V304.4h14L97,329.46l7.6-25.06h13.95v46.9H107.25V321.5l-5.84,19.64H92.64l-5.77-19.5Z"/><path class="cls-17" d="M124.41,304.4h21.48q10.74,0,10.74,9.06v6q0,6.36-3.51,8.25a5,5,0,0,1,2.78,2.67,13.29,13.29,0,0,1,.73,4.86v7q0,9.06-10.74,9.06H124.41ZM144.06,322v-7.6c0-1.07-.61-1.61-1.82-1.61H137v10.81h5.26C143.45,323.61,144.06,323.08,144.06,322Zm0,19.28v-7.67c0-1.07-.61-1.61-1.82-1.61H137V342.9h5.26C143.45,342.9,144.06,342.36,144.06,341.29Z"/><path class="cls-17" d="M186,351.3l-1.46-7H173.28l-1.54,7H159.18l12-46.9h15.56l12.05,46.9Zm-10.74-16.07h7.3L179,318.35Z"/><path class="cls-17" d="M230,304.4v9.13H221V351.3H208.19V313.53h-9V304.4Z"/><path class="cls-17" d="M19.33,270.12H9.14v7.57H18v5.58H9.14V295.2H.65V264.05H19.33Z"/><path class="cls-17" d="M29,264.05h7.18q7.13,0,7.13,6v19.12q0,6-7.13,6H29q-7.14,0-7.13-6V270.07Q21.86,264.06,29,264.05Zm5.82,24V271.19c0-.71-.4-1.07-1.21-1.07h-2c-.81,0-1.21.36-1.21,1.07v16.88c0,.71.4,1.07,1.21,1.07h2C34.41,289.14,34.81,288.78,34.81,288.07Z"/><path class="cls-17" d="M55.53,284.14V295.2H47V264.05H61.45q7.13,0,7.13,6v8.05q0,4.62-4.17,5.68l5.72,11.4H61l-4.95-11.06Zm3.34-14H55.53v8.25h3.34c.81,0,1.22-.36,1.22-1.07v-6.11C60.09,270.48,59.68,270.12,58.87,270.12Z"/><path class="cls-17" d="M102.54,275.7H94.05v-5c0-.71-.41-1.07-1.21-1.07h-1.7c-.81,0-1.22.36-1.22,1.07v17.86c0,.71.41,1.06,1.22,1.06h1.7c.8,0,1.21-.35,1.21-1.06v-4.81h8.49v5.44q0,6-7.13,6H88.57q-7.14,0-7.14-6V270.07q0-6,7.14-6h6.84q7.13,0,7.13,6Z"/><path class="cls-17" d="M112.68,264.05h7.18q7.13,0,7.13,6v19.12q0,6-7.13,6h-7.18q-7.14,0-7.13-6V270.07Q105.55,264.06,112.68,264.05Zm5.82,24V271.19c0-.71-.4-1.07-1.21-1.07h-2c-.81,0-1.21.36-1.21,1.07v16.88c0,.71.4,1.07,1.21,1.07h2C118.1,289.14,118.5,288.78,118.5,288.07Z"/><path class="cls-17" d="M139.22,284.14V295.2h-8.49V264.05h14.41q7.13,0,7.13,6v8.05q0,4.62-4.17,5.68l5.72,11.4H144.7l-4.95-11.06Zm3.34-14h-3.34v8.25h3.34c.81,0,1.22-.36,1.22-1.07v-6.11C143.78,270.48,143.37,270.12,142.56,270.12Z"/><path class="cls-17" d="M162.65,264.05h7.18q7.14,0,7.13,6v19.12q0,6-7.13,6h-7.18q-7.12,0-7.13-6V270.07Q155.52,264.06,162.65,264.05Zm5.82,24V271.19c0-.71-.4-1.07-1.21-1.07h-2c-.81,0-1.21.36-1.21,1.07v16.88c0,.71.4,1.07,1.21,1.07h2C168.07,289.14,168.47,288.78,168.47,288.07Z"/><path class="cls-17" d="M194.91,264.05h7.77V295.2H195.4l-6.94-16.35V295.2H180.7V264.05H188l6.93,16.65Z"/><path class="cls-17" d="M222.42,295.2l-1-4.65H214l-1,4.65h-8.34l8-31.15H223l8,31.15Zm-7.13-10.67h4.85l-2.37-11.21Z"/></g></g></svg>